M48
;Layer_Color=9474304
;FILE_FORMAT=2:5
INCH,LZ
;TYPE=PLATED
T1F00S00C0.00787
T2F00S00C0.01772
T3F00S00C0.04331
;TYPE=NON_PLATED
T4F00S00C0.03937
T5F00S00C0.08268
T6F00S00C0.09646
T7F00S00C0.15748
%
T01
X-0171555Y-0151969
X-0163933
X-019124Y-0127953
Y-0120327
Y-0105076
X-0141239Y-0108268
X-0114173Y-0104724
X-0104331
X-0094488
X-0084646Y-0104624
X-0074803Y-0104724
X-0072463Y-0151969
X-0080085
X-0087708
X-009533
X-0102953
X-0110575
X-0133443
X-0141065
X-0148688
X-015631
X-006484
X-0049595
X-0041973
X-003435
X-0026728
X-0019105
X-0011483
X-0017076Y-0136151
Y-0133251
Y-0130351
Y-0127451
Y-0124551
X-0033712Y-0124479
Y-0127379
Y-0130279
Y-0133179
Y-0136079
X-0003861Y-0151969
X0003762
X0011384
X0019007
X0026629
X0034252
X0041874
X0057119
X0064742
X0072364
X0079987
X0087609
X0102854
X0118099
X0128543Y-0152165
Y-0149016
Y-0145866
X0127165Y-0136811
X0116535
X0110236Y-0133169
X0141427Y-0140938
X0140967Y-0151969
X0145177Y-015
X0141339Y-0108366
X016063Y-0134941
X0160825Y-0140845
X0156988Y-015
X0163834Y-0151969
X0171457
X0191339Y-0130118
X0191341Y-0122429
X0191341Y-0107052
Y-0099363
Y-0091674
X019134Y-0068608
Y-0060919
X019134Y-0045542
Y-0037853
Y-0030165
X019134Y-0007098
Y0000591
X019134Y0015968
Y0023657
Y0031345
X0141258Y0036815
X0141358Y0014374
X0122126Y0011709
X011947Y0018795
X011189Y0007874
X0104114Y0003146
Y-0001579
X0107953Y-0013388
X0118976Y-0019
X0122126
X0125276
X0141239Y-0024409
X0141339Y-004685
X011947Y-0044984
X0122126Y-0052071
X011189Y-0055905
X0104114Y-0060634
Y-0065358
X0107953Y-0077168
X0118976Y-0083075
X0122126
X0125276
X0141233Y-008606
X0117795Y-0063095
X0084331Y-0063095
X0081181
X0078031
X007685Y-0067425
X007252Y-007215
Y-0075299
Y-0078449
X0061394Y-0082486
X0054819
X0064347Y-0068509
X0044488Y-006624
X0043305Y-0054036
X0035903Y-0053746
X0031966
Y-0057683
X0035903
X0028636Y-006162
X0024016Y-0068209
Y-0071358
Y-0074508
X0004331
Y-0071358
Y-0068209
X0004331Y-0058169
X0001181
X-0001969
X0012008Y-0063484
X0012205Y-00375
X0015354
X0018504
X0008858
X0005709
X0002559
X-0005204Y-0037303
Y-0034403
X-0004528Y-0029921
X-0000197
X-0000394Y-0017815
X-0003543
X0005906
X0009055
X0015354
X0018504
X0023858Y0004331
X0023819Y0015394
X0018858Y0015433
X0040453Y0013287
Y0006398
X0039102Y0046188
X0023957Y0042579
X0014626
X0058169Y0049606
X0061516
X007252Y004911
Y005226
X0092205
Y004911
X0107953Y0050391
X0118976Y004478
X0122126
X0125276
X0117795Y0000685
X0084331Y0000685
X0081181
X0078031
X007685Y-0003646
X007252Y-000837
Y-001152
Y-0014669
X0092205
Y-001152
Y-000837
Y-007215
Y-0075299
Y-0078449
X0087106Y-0101969
X0077264
X0067421
X0010877Y-0100915
Y-0098015
Y-0095115
Y-0092215
Y-0089315
X-0005759Y-0089243
Y-0092143
Y-0095043
Y-0097943
Y-0100843
X-0005204Y-0040203
X0033858Y-0045768
X-0012598Y-0045374
X-0016621Y-0040203
Y-0037303
Y-0034403
X-0016089Y-0056213
X-0013189
X-0010289
X-0010092Y-0067631
X-0012992
X-0015892
X-0021063Y-0061024
X-0027907Y-0065268
X-0030807
X-0033707
X-0040112Y-0052362
X-0043012
X-0045912
X-0077953Y-004478
X-0081102
X-0084252
X-0076772Y-0040449
X-0072441Y-0035724
Y-0032575
Y-0029425
X-0092126
Y-0032575
Y-0035724
X-0104035Y-0042516
Y-004724
X-0111811Y-0051968
X-0117717Y-004478
X-0122047Y-0044882
Y-0025095
X-0118898
X-0125197
X-0141439Y-0024606
X-0141339Y-0047047
X-0119391Y-006289
X-0125591Y-0074508
Y-0077658
Y-0080807
X-0141339Y-0085827
X-0114173Y-0094882
X-0104331
X-0068504Y-0102362
X-0018898Y-0079528
X-0012598
X-0107874Y-0030706
X-0119391Y000089
X-0111811Y0011811
X-0104035Y0016539
Y0021264
X-0107874Y0033073
X-0118898Y0038882
X-0122047
X-0125197
X-0141437Y0036811
X-0141337Y001437
X-0122047Y0018898
X-0117717Y0019
X-0084252Y0019
X-0081102
X-0077953
X-0076772Y0023331
X-0072441Y0028055
Y0031205
Y0034354
X-0092126
Y0031205
Y0028055
X-0030341Y0052726
X-019124Y0032186
Y002456
Y0016934
Y0001683
Y-0005943
Y-0028819
Y-0036445
Y-0044071
Y-0059322
Y-0066948
Y-0089825
Y-009745
Y0055063
Y0062688
Y0077939
Y0085565
Y0093191
Y0100816
Y0108442
Y0123693
Y0131319
X-0168736Y0131299
X-0161234
X-0153733Y01313
X-0146231
X-0138729
X-0131228
X-0123726Y01313
X-0116225
X-0108723
X-0101222
X-009372Y01313
X-0086219
X-0078717
X-0071215
X-0065354Y0131102
X-0062205
X-0059055
X-0053937Y0131102
X-0048711Y0131301
X-0047274Y0127526
X-0039274
X-0041209Y0131301
X-0033708Y0131301
X-0026206
X-0018705
X-0011203
X-0011929Y0104764
Y0098465
X-0018228
X-0011929Y0092165
X-0032677Y0097638
X-0037205Y0102559
Y0107559
X-0059055Y0111417
X-0062205
X-0065354
X-0062598Y0107087
X-0062205Y009252
X-0072441Y0091835
Y0094984
Y0098134
X-0076772Y008711
X-0077953Y008278
X-0081102
X-0084252
X-0092126Y0091835
Y0094984
Y0098134
X-0107874Y0096853
X-0104035Y0085043
Y0080319
X-0111811Y0075591
X-0117717Y008278
X-0122047Y0082677
Y010276
X-0125098Y0102756
X-0118898Y010276
X-0123627Y011459
Y0121165
X-010583Y0117937
X-0109646Y0111772
X-0141339Y0112795
Y0095669
Y0085827
Y0075984
X-0119391Y0064669
X-0050394Y0082559
Y0087559
Y0092559
X-0027559Y0066929
X-0030341Y0060726
X-000563Y0098465
X0022835Y0102559
X0035748Y0097559
X005Y0101575
X0044488Y0080709
X0035039Y0078347
Y0073347
Y0068347
X0032874Y0058563
X0022953Y0082559
X0032913Y0117559
X0031526Y0127592
X0033806Y0131301
X0041308
X0048809
X0056311Y0131302
X0063812
X0071314
X0078815
X0086317Y0131302
X0093818
X010132
X0108821
X0116323Y0131302
X0123825
X0131326
X0138828
X0146329Y0131303
X0141339Y0108169
Y0098425
Y0088583
X0126772Y0088976
Y0092126
Y0095276
X0124508Y0111122
X0114272Y0117461
X0107697
X011947Y0082575
X0122126Y0075488
X011189Y0071653
X0104114Y0066925
Y0062201
X0117795Y0064465
X0141339Y0071457
X0084331Y0064465
X0081181
X0078031
X007685Y0060134
X007252Y0055409
X0092205
X0023526Y0127592
X0026305Y0131301
X0018803Y0131301
X0011301
X00038
X-0003702
X0153831Y0131303
X0161332
X0168834
X0191338Y0131299
X0191339Y012361
Y0108233
Y0100544
X0191339Y0092855
Y0085167
Y0077478
X0191339Y00621
Y0054412
T02
X-0132577Y-0103937
X0132577Y-0104035
X0125689Y-0127953
X0139469
X0153248
X0132577Y-0090256
Y-004252
Y-002874
X0132597Y0018705
Y0032484
X0009843Y0040946
X0053347Y-0062303
X0045472Y-0073326
X0057184Y-0093307
X0070965Y-0093308
X0084744
X-0064961Y-0089763
X-0077756
X-0090551Y-0089763
X-0103347
X-0116142Y-0089763
X-0132577Y-0090158
X-0132677Y-0042717
Y-0028937
X-0132676Y0018701
Y003248
X-0014961Y0040945
X-0013484Y0014173
Y0000394
Y-0013406
Y-0027165
X-0059055Y0058662
Y0071654
Y0099607
X-0132677Y0105906
X-0132678Y0092126
Y0078347
X0043307Y0062599
Y0103544
X0043307Y0116535
X0132678Y0105906
Y0092126
X0132677Y0078346
T03
X-0050472Y-0023405
Y-0013406
X-0040472
Y-0023405
Y-0003405
X-0050472
Y0006594
X-0040472
Y0016594
X-0050472
Y0026594
X-0040472
Y0036595
X-0050472
T04
X0003858Y0005847
Y0013839
X0033858Y0009843
T05
X0Y-0145276
T06
X0011358Y-0000158
Y0019842
X0033858
Y-0000158
T07
X-0181102Y-0141732
X0181102
X-0181102Y0141732
X0181102
M30
