M48
;Layer_Color=9474304
;FILE_FORMAT=2:5
INCH,LZ
;TYPE=PLATED
T1F00S00C0.01181
T2F00S00C0.04331
;TYPE=NON_PLATED
T3F00S00C0.03937
T4F00S00C0.08268
T5F00S00C0.09646
T6F00S00C0.12205
%
T01
X0093656Y-0152756
X0109533
X0117471
X012541
X0133348
X0149224
X0157163
X0165101
X0173039
X0180978
X0192126Y-0144814
Y-0136875
Y-0128937
Y-0120999
Y-0097184
Y-0089246
Y-0081307
Y-0073369
Y-0065431
Y-0049554
Y-0041616
Y-0033678
Y-0017801
X0163583Y-0019094
X0158858
X0154134
X0144882Y-0018701
X0144685Y-007185
X0144882Y-0081693
Y-0091536
Y-0101378
X0154134Y-0101772
X0158858
X0163583
X0158858Y-0091535
X0158858Y-0073819
X0158858Y-0063583
X0163583
X0154134
X0125492Y-0077756
X0117717Y-0078937
X0111122Y-0067716
Y-0063976
Y-0058268
X0102362Y-0062992
X0091339Y-0068405
X0091339Y-0056791
X008563
X0088779Y-0100591
X0099764Y-010565
X0112697Y-0105512
X0122539
X0129331Y-0102657
X0130807Y-0114764
Y-0119488
X0116634Y-0137795
X007778Y-0152756
X0069842
X0061903
X0053965
X0038089
X0022212
X0014274
X0006335
X-0001603
X-001748
X-0041295
X-0049233
X-0057171
X-0065109
X-0064862Y-0119488
Y-0114764
X-0064469Y-0105512
X-0054626Y-0105315
X-0044783
X-0022638Y-0100591
X-0011654Y-010565
X0001279Y-0105512
X0011122
X0017913Y-0102657
X001939Y-0114764
Y-0119488
X0005217Y-0137795
X-0040846
X-0037697Y-0056988
Y-0053346
Y-0049705
Y-0046063
Y-0042421
X-0049902Y-004813
X-0055807Y-0033563
X-0066142Y-0042913
X-0055807Y-0068012
X-0012197Y-0065256
Y-0060728
X-0017807Y-0053346
Y-0049705
Y-0046063
X-0004134Y-0052453
X0000394
X0005815Y-0045768
X0011319Y-0041384
Y-0038484
Y-0035584
X0010236Y-0030508
X0003945Y-0026571
Y-0022634
X0000008
Y-0026571
X0000984Y-0015256
X0018898Y-0017713
Y-002165
X0018894Y-0027555
X0019587Y-0035585
Y-0038484
Y-0041385
X0038583Y-0051673
X0034547Y-0060236
X0027264Y-0064764
X0033071Y-0100591
X0044055Y-010565
X0056988Y-0105512
X0066831
X0073622Y-0102657
X0075Y-0114764
Y-0119488
X0060827Y-0137795
X0067224Y-005
X0068751Y-0041072
Y-0038173
Y-0035272
Y-0032372
Y-0029473
X0052115Y-00294
Y-00323
Y-00352
Y-00381
Y-0041
X0018894Y-0011807
X-0028535Y-0017323
Y-0020965
Y-0024606
Y-0028248
Y-003189
X-0049902Y-0013681
X-0087401Y-0029724
X-0108169Y-0033563
X-0109055Y-0045276
Y-0050984
X-0108169Y-0068012
X-0087402Y-0064173
X-0110728Y-0105315
X-0120571
X-0130413Y-0105512
X-0130807Y-0114764
Y-0119488
X-0144685Y-0100394
Y-0090551
X-0154134Y-0090158
X-0158858
X-0163583
Y-0080315
X-0158858
X-0154134
X-0144882Y-0080709
X-0144685Y-0037402
Y-0027559
X-0154134Y-0027165
X-0158858
X-0163583
Y-0017323
X-0158858
X-0154134
X-0144882Y-0017717
X-0109055Y-0016535
Y-0010827
X-0192126Y-0019036
Y-0026974
Y-0034913
Y-0042851
X-0177165Y-0041339
X-0192126Y-0082543
Y-0090481
Y-0098419
Y-0106357
X-0177165Y-0104331
X-0192126Y-0130172
Y-013811
Y-0146049
X-0184184Y-0152756
X-0176245
X-0168307
X-0160369
X-015243
X-0144492
X-0128616
X-0120677
X-0112739
X-0104801
X-0106791Y-0137795
X-0080986Y-0152756
X-0087401Y0004724
X-0108169Y0000886
X-0109055Y0017913
Y0023622
X-0144685Y0025591
Y0035433
X-0154134Y0035827
X-0158858
X-0163583
Y0045669
X-0158858
X-0154134
X-0144882Y0045276
X-0144685Y0088583
Y0098425
X-0154134Y0098819
X-0158858
X-0163583
Y0108661
X-0158858
X-0154134
X-0144882Y0108268
X-0144861Y0131791
X-0152738
X-0160616
X-0168493
X-0176371
X-0184248
X-0192126Y0131791
Y0123853
Y0107976
Y0100038
Y00921
Y0084162
X-0177165Y0084646
X-0192126Y0060347
Y004447
Y0036532
Y0028594
Y0020655
X-0177165Y0021654
X-0192126Y-000316
X-0136983Y0131791
X-0129106
X-0121228
X-0113351
X-0105473
X-0105807Y0127264
X-010935
Y0115847
X-0105807
X-0107185Y011063
X-0097596Y0131791
X-0089718
X-0087894Y0127461
X-0078248
X-0081841Y0131791
X-0077835Y0092461
X-0057992Y0098366
X-0051693
Y0092067
X-0045394Y0098366
X-0051693Y0104665
X-0036752Y0117461
X-0034576Y0131791
X-0026698
X-0018821
X-0017028Y0127461
X-0007382
X-0010943Y0131791
X-0003066
X0004812
X0012689
X0036322
X0044199
X0052077
X0059954
X0067832
X0075709
X0001575Y0114075
Y0104626
Y0095177
Y0079823
X-000187Y0053937
X-0001673Y0038484
X-0012205Y0046358
X-001002Y0002854
X-000502
X-0001673Y0002854
X-0055807Y0000886
X-0066142Y-0008465
X-0066142Y0025984
X-0049902Y0020768
X-0070138Y0051772
Y0061417
X-0065158Y007752
X-0066086Y0131791
X-0058208
X-0050331
X-0042453
X-0073963
X-0019665Y0112421
X-0017402Y0107461
X0083587Y0131791
X0091464
X0115097
X0115135Y0138747
X0115097Y0145702
X0125787Y0138287
X0147933Y0136811
X0155807Y0136811
X0162402Y0133268
X0144488Y0143405
X0144685Y0101378
X0154134Y0101772
X0158858
X0163583
X0158858Y0091535
X0144685
X0144882Y0081693
Y007185
X0158858Y0073819
X0158858Y0063583
X0163583
X0154134
X0192126Y0061582
Y006952
Y0077459
Y0085397
Y0093335
Y0101273
Y011715
Y0125088
Y0133027
Y0140965
Y0045705
Y0037767
Y0021891
Y0013952
Y0006014
Y-0001924
Y-0009863
X0158858Y-0008858
X0144882Y-0008858
Y0000984
X0144685Y0010827
X0158858Y0008858
X0158858Y0019094
X0154134
X0163583
X0096704Y0005764
Y0002864
Y-0000036
Y-0002936
Y-0005836
X0102559Y-0006791
X0080068Y-0005764
Y-0002864
Y0000036
Y0002936
Y0005836
X0115059Y0152657
X013189Y0150591
X014445Y0150361
X0154751Y0152657
X0170627
X0178565
X0186504
T02
X-0107559Y003752
Y004752
Y005752
Y006752
Y007752
Y008752
X-0097559
Y009752
X-0107559
X-0097559Y007752
Y006752
Y005752
Y004752
Y003752
T03
X-0025079Y0016673
Y0024665
X0004921Y0020669
T04
X0062992Y0014961
T05
X-0017579Y0010669
Y0030669
X0004921
Y0010669
T06
X0181102Y-0141732
X-0181102
Y0141732
X0181102
M30
