%FSLAX25Y25*%
%MOIN*%
G70*
G01*
G75*
G04 Layer_Physical_Order=3*
G04 Layer_Color=128*
%ADD10C,0.01772*%
%ADD11C,0.01969*%
%ADD12R,0.06693X0.09843*%
%ADD13R,0.09843X0.06693*%
%ADD14R,0.03158X0.03827*%
%ADD15R,0.03827X0.03158*%
%ADD16R,0.08661X0.04724*%
%ADD17R,0.08661X0.13780*%
%ADD18R,0.06693X0.07874*%
%ADD19R,0.05315X0.01772*%
%ADD20R,0.06693X0.14567*%
%ADD21R,0.03150X0.01181*%
%ADD22R,0.01181X0.03150*%
%ADD23R,0.06693X0.06693*%
%ADD24C,0.03150*%
%ADD25R,0.03543X0.05906*%
%ADD26R,0.05906X0.03543*%
%ADD27R,0.19685X0.19685*%
%ADD28R,0.15354X0.24410*%
%ADD29R,0.12992X0.17323*%
%ADD30R,0.01575X0.03150*%
%ADD31R,0.03937X0.03543*%
%ADD32R,0.07087X0.15354*%
%ADD33R,0.05118X0.21654*%
%ADD34R,0.15354X0.07087*%
%ADD35R,0.21654X0.05118*%
%ADD36R,0.02362X0.01969*%
%ADD37R,0.01969X0.02362*%
%ADD38R,0.03543X0.02362*%
%ADD39R,0.02362X0.03543*%
%ADD40R,0.02756X0.05118*%
%ADD41R,0.05118X0.02756*%
%ADD42R,0.06890X0.04724*%
%ADD43R,0.04724X0.06890*%
%ADD44R,0.06299X0.22441*%
%ADD45R,0.22441X0.06299*%
%ADD46C,0.03937*%
%ADD47C,0.00787*%
%ADD48C,0.01181*%
%ADD49C,0.01575*%
%ADD50C,0.02362*%
%ADD51C,0.05906*%
%ADD52C,0.01378*%
%ADD53C,0.02953*%
%ADD54C,0.03150*%
%ADD55C,0.00591*%
%ADD56R,0.10433X0.04331*%
%ADD57R,0.09449X0.04331*%
%ADD58R,0.06200X0.08500*%
%ADD59R,0.08500X0.06200*%
%ADD60R,0.06200X0.17300*%
%ADD61R,0.04331X0.09449*%
%ADD62R,0.25000X0.04331*%
%ADD63R,0.09055X0.04331*%
%ADD64R,0.11417X0.09449*%
%ADD65R,0.07087X0.04331*%
%ADD66R,0.04232X0.02854*%
%ADD67C,0.23622*%
%ADD68C,0.05906*%
%ADD69C,0.09055*%
%ADD70C,0.03543*%
%ADD71C,0.07874*%
%ADD72C,0.06299*%
%ADD73C,0.02362*%
%ADD74C,0.02598*%
%ADD75C,0.04000*%
%ADD76C,0.17716*%
%ADD77C,0.03740*%
%ADD78C,0.11614*%
%ADD79C,0.10236*%
%ADD80C,0.02756*%
%ADD81C,0.07874*%
%ADD82R,0.05906X0.04232*%
%ADD83R,0.05915X0.03248*%
G36*
X190847Y153445D02*
X192717D01*
Y152559D01*
X196161Y149114D01*
Y140748D01*
X197343Y139567D01*
X197244Y139469D01*
X197146Y128937D01*
X-197047D01*
X-197244Y133366D01*
X-197146Y133465D01*
Y145866D01*
X-191043Y151969D01*
Y153445D01*
X-189764D01*
X-186614Y156595D01*
X-184449Y157283D01*
X-183465Y158268D01*
X186024D01*
X190847Y153445D01*
D02*
G37*
D48*
X-45472Y-18504D02*
Y-8366D01*
X-65650D02*
X-45472D01*
X-68209Y-18504D02*
X-45472D01*
X-69291Y-19587D02*
X-68209Y-18504D01*
D51*
X-131595Y-109153D02*
X131693D01*
Y101378D01*
X71358D02*
X131693D01*
X67520D02*
X71358D01*
X67520Y-46161D02*
Y101378D01*
X14173Y-46161D02*
X67520D01*
X14173Y-72342D02*
Y-46161D01*
X-1673Y-72342D02*
X14173D01*
X-131595Y-109153D02*
Y108465D01*
X-69882D01*
X-67421Y-72342D02*
X-1673D01*
X-67421D02*
Y-22146D01*
X-69882Y-3248D02*
Y108465D01*
Y-3248D02*
X-67421Y-5709D01*
D68*
X3858Y13839D02*
D03*
Y5847D02*
D03*
X33858Y9843D02*
D03*
D72*
X-50472Y-23405D02*
D03*
X-40472Y-13406D02*
D03*
Y-3405D02*
D03*
X-50472D02*
D03*
X-40472Y6594D02*
D03*
X-50472D02*
D03*
X-40472Y16594D02*
D03*
X-50472D02*
D03*
X-40472Y26594D02*
D03*
X-50472D02*
D03*
X-40472Y36595D02*
D03*
X-50472D02*
D03*
D76*
X-181102Y-141732D02*
D03*
X181102D02*
D03*
Y141732D02*
D03*
X-181102D02*
D03*
D77*
X-64961Y-89763D02*
D03*
X-77756D02*
D03*
X-90551Y-89763D02*
D03*
X-103347D02*
D03*
X-116142Y-89763D02*
D03*
X132677Y78346D02*
D03*
X132678Y92126D02*
D03*
Y105906D02*
D03*
X-132677Y105906D02*
D03*
X43307Y116535D02*
D03*
X43307Y103544D02*
D03*
X-59055Y71654D02*
D03*
Y58662D02*
D03*
Y99607D02*
D03*
X9843Y40946D02*
D03*
X43307Y62599D02*
D03*
X-14961Y40945D02*
D03*
X-132676Y18701D02*
D03*
Y32480D02*
D03*
X-132677Y-42717D02*
D03*
Y-28937D02*
D03*
X-132577Y-103937D02*
D03*
Y-90158D02*
D03*
X132577Y-90256D02*
D03*
Y-104035D02*
D03*
Y-28740D02*
D03*
Y-42520D02*
D03*
X132597Y32484D02*
D03*
Y18705D02*
D03*
X84744Y-93308D02*
D03*
X125689Y-127953D02*
D03*
X153248D02*
D03*
X139469D02*
D03*
X57184Y-93307D02*
D03*
X-132678Y78347D02*
D03*
Y92126D02*
D03*
X-13484Y-27165D02*
D03*
Y-13406D02*
D03*
Y14173D02*
D03*
X45472Y-73326D02*
D03*
X53347Y-62303D02*
D03*
D78*
X11358Y19842D02*
D03*
Y-158D02*
D03*
X33858Y19842D02*
D03*
Y-158D02*
D03*
D79*
X0Y-145276D02*
D03*
D80*
X2559Y-37500D02*
D03*
X8858D02*
D03*
X5709D02*
D03*
X12205D02*
D03*
X15354D02*
D03*
X18504D02*
D03*
X-3543Y-17815D02*
D03*
X15354D02*
D03*
X-394D02*
D03*
X5906D02*
D03*
X9055D02*
D03*
X72520Y-72150D02*
D03*
Y-75299D02*
D03*
X141233Y-86060D02*
D03*
X-109646Y111772D02*
D03*
X171457Y-151969D02*
D03*
X-191240Y-127953D02*
D03*
Y-120327D02*
D03*
Y-97450D02*
D03*
Y-66948D02*
D03*
Y-59322D02*
D03*
Y-36445D02*
D03*
Y-5943D02*
D03*
Y1683D02*
D03*
Y24560D02*
D03*
Y55063D02*
D03*
Y62688D02*
D03*
Y100816D02*
D03*
Y123693D02*
D03*
X-171555Y-151969D02*
D03*
X-163933D02*
D03*
X-156310D02*
D03*
X-148688D02*
D03*
X-141065D02*
D03*
X-133443D02*
D03*
X-87708D02*
D03*
X-80085D02*
D03*
X-72463D02*
D03*
X-64840D02*
D03*
X-49595D02*
D03*
X-41973D02*
D03*
X-34350D02*
D03*
X-26728D02*
D03*
X-19105D02*
D03*
X-11483D02*
D03*
X-3861D02*
D03*
X3762D02*
D03*
X11384D02*
D03*
X19007D02*
D03*
X26629D02*
D03*
X34252D02*
D03*
X41874D02*
D03*
X57119D02*
D03*
X64742D02*
D03*
X72364D02*
D03*
X79987D02*
D03*
X87609D02*
D03*
X102854D02*
D03*
X118099D02*
D03*
X140967D02*
D03*
X163834D02*
D03*
X191339Y-130118D02*
D03*
X191341Y-122429D02*
D03*
X191341Y-107052D02*
D03*
Y-99363D02*
D03*
Y-91674D02*
D03*
X191340Y-68608D02*
D03*
Y-60919D02*
D03*
X191340Y-45542D02*
D03*
Y-37853D02*
D03*
Y-30165D02*
D03*
X191340Y-7098D02*
D03*
Y591D02*
D03*
X191340Y15968D02*
D03*
Y23657D02*
D03*
Y31345D02*
D03*
X191339Y54412D02*
D03*
Y62100D02*
D03*
X191339Y77478D02*
D03*
Y85167D02*
D03*
Y92855D02*
D03*
X191339Y100544D02*
D03*
Y108233D02*
D03*
Y123610D02*
D03*
X191338Y131299D02*
D03*
X168834Y131303D02*
D03*
X161332D02*
D03*
X153831D02*
D03*
X146329D02*
D03*
X138828Y131302D02*
D03*
X131326D02*
D03*
X123825D02*
D03*
X116323D02*
D03*
X108821Y131302D02*
D03*
X101320D02*
D03*
X93818D02*
D03*
X86317D02*
D03*
X78815Y131302D02*
D03*
X71314D02*
D03*
X63812D02*
D03*
X56311D02*
D03*
X48809Y131301D02*
D03*
X41308D02*
D03*
X33806D02*
D03*
X26305D02*
D03*
X18803Y131301D02*
D03*
X11301D02*
D03*
X3800D02*
D03*
X-3702D02*
D03*
X-11203Y131301D02*
D03*
X-18705D02*
D03*
X-26206D02*
D03*
X-33708D02*
D03*
X-41209Y131301D02*
D03*
X-48711D02*
D03*
X-71215Y131300D02*
D03*
X-78717D02*
D03*
X-86219D02*
D03*
X-93720D02*
D03*
X-101222Y131300D02*
D03*
X-108723D02*
D03*
X-116225D02*
D03*
X-123726D02*
D03*
X-131228Y131300D02*
D03*
X-138729D02*
D03*
X-146231D02*
D03*
X-153733D02*
D03*
X-191240Y131319D02*
D03*
X-168736Y131299D02*
D03*
X-161234D02*
D03*
X-5204Y-34403D02*
D03*
Y-37303D02*
D03*
Y-40203D02*
D03*
X-16621Y-34403D02*
D03*
Y-37303D02*
D03*
Y-40203D02*
D03*
X-27559Y66929D02*
D03*
X-37205Y102559D02*
D03*
X-32677Y97638D02*
D03*
X22953Y82559D02*
D03*
X50000Y101575D02*
D03*
X35748Y97559D02*
D03*
X23957Y42579D02*
D03*
X14626D02*
D03*
X-15892Y-67631D02*
D03*
X-12992D02*
D03*
X-10092D02*
D03*
X-33707Y-65268D02*
D03*
X-30807D02*
D03*
X-27907D02*
D03*
X160630Y-134941D02*
D03*
X141427Y-140938D02*
D03*
X160825Y-140845D02*
D03*
X-18898Y-79528D02*
D03*
X-12598D02*
D03*
X-33712Y-127379D02*
D03*
Y-130279D02*
D03*
Y-133179D02*
D03*
Y-136079D02*
D03*
Y-124479D02*
D03*
X-17076Y-133251D02*
D03*
Y-130351D02*
D03*
Y-127451D02*
D03*
Y-124551D02*
D03*
Y-136151D02*
D03*
X35039Y78347D02*
D03*
Y68347D02*
D03*
Y73347D02*
D03*
X-62205Y92520D02*
D03*
X-50394Y87559D02*
D03*
X-111811Y-51968D02*
D03*
X-50394Y92559D02*
D03*
Y82559D02*
D03*
X-62598Y107087D02*
D03*
X-107874Y-30706D02*
D03*
X-119391Y-62890D02*
D03*
X-117717Y-44780D02*
D03*
X-65354Y131102D02*
D03*
X-62205D02*
D03*
X-59055D02*
D03*
X33858Y-45768D02*
D03*
X18504Y-17815D02*
D03*
X-1969Y-58169D02*
D03*
X1181D02*
D03*
X4331D02*
D03*
X4331Y-68209D02*
D03*
Y-71358D02*
D03*
Y-74508D02*
D03*
X28636Y-61620D02*
D03*
X-39274Y127526D02*
D03*
X-47274D02*
D03*
X31526Y127592D02*
D03*
X23526D02*
D03*
X32913Y117559D02*
D03*
X-53937Y131102D02*
D03*
X-74803Y-104724D02*
D03*
X-84646Y-104624D02*
D03*
X-94488Y-104724D02*
D03*
X-104331D02*
D03*
X-114173D02*
D03*
X-104331Y-94882D02*
D03*
X-114173D02*
D03*
X-68504Y-102362D02*
D03*
X-122047Y-44882D02*
D03*
X-141239Y-108268D02*
D03*
X-141339Y-85827D02*
D03*
Y-47047D02*
D03*
X-141439Y-24606D02*
D03*
X-141337Y14370D02*
D03*
X-141437Y36811D02*
D03*
X-76772Y23331D02*
D03*
X-72441Y34354D02*
D03*
Y28055D02*
D03*
Y31205D02*
D03*
X-107874Y33073D02*
D03*
X-119391Y890D02*
D03*
X-122047Y18898D02*
D03*
X-117717Y19000D02*
D03*
X-111811Y11811D02*
D03*
X-76772Y87110D02*
D03*
X-72441Y98134D02*
D03*
Y91835D02*
D03*
Y94984D02*
D03*
X-107874Y96853D02*
D03*
X-119391Y64669D02*
D03*
X-122047Y82677D02*
D03*
X-117717Y82780D02*
D03*
X-111811Y75591D02*
D03*
X76850Y-67425D02*
D03*
X72520Y-78449D02*
D03*
X107953Y-77168D02*
D03*
X119470Y-44984D02*
D03*
X117795Y-63095D02*
D03*
X111890Y-55905D02*
D03*
X141339Y-108366D02*
D03*
X141239Y-24409D02*
D03*
X141339Y-46850D02*
D03*
X141258Y36815D02*
D03*
X141358Y14374D02*
D03*
X122126Y-52071D02*
D03*
X76850Y-3646D02*
D03*
X72520Y-11520D02*
D03*
Y-14669D02*
D03*
Y-8370D02*
D03*
X107953Y-13388D02*
D03*
X119470Y18795D02*
D03*
X122126Y11709D02*
D03*
X117795Y685D02*
D03*
X111890Y7874D02*
D03*
X76850Y60134D02*
D03*
X72520Y52260D02*
D03*
Y49110D02*
D03*
Y55409D02*
D03*
X107953Y50391D02*
D03*
X119470Y82575D02*
D03*
X122126Y75488D02*
D03*
X117795Y64465D02*
D03*
X111890Y71653D02*
D03*
X44488Y80709D02*
D03*
X-141339Y75984D02*
D03*
Y85827D02*
D03*
Y95669D02*
D03*
X-123627Y121165D02*
D03*
Y114590D02*
D03*
X141339Y98425D02*
D03*
Y88583D02*
D03*
X87106Y-101969D02*
D03*
X77264D02*
D03*
X67421D02*
D03*
X54819Y-82486D02*
D03*
X61394D02*
D03*
X-76772Y-40449D02*
D03*
X-72441Y-32575D02*
D03*
Y-35724D02*
D03*
Y-29425D02*
D03*
X40453Y6398D02*
D03*
X-30341Y52726D02*
D03*
Y60726D02*
D03*
X116535Y-136811D02*
D03*
X127165D02*
D03*
X128543Y-152165D02*
D03*
Y-149016D02*
D03*
Y-145866D02*
D03*
X156988Y-150000D02*
D03*
X64347Y-68509D02*
D03*
X58169Y49606D02*
D03*
X61516D02*
D03*
X110236Y-133169D02*
D03*
X18858Y15433D02*
D03*
X23819Y15394D02*
D03*
X23858Y4331D02*
D03*
X-37205Y107559D02*
D03*
X-105830Y117937D02*
D03*
X22835Y102559D02*
D03*
X32874Y58563D02*
D03*
X114272Y117461D02*
D03*
X107697D02*
D03*
X141339Y108169D02*
D03*
X124508Y111122D02*
D03*
X-95330Y-151969D02*
D03*
X-102953D02*
D03*
X-110575D02*
D03*
X-191240Y108442D02*
D03*
Y93191D02*
D03*
Y85565D02*
D03*
Y77939D02*
D03*
Y32186D02*
D03*
Y16934D02*
D03*
Y-28819D02*
D03*
Y-44071D02*
D03*
Y-105076D02*
D03*
Y-89825D02*
D03*
X-197Y-29921D02*
D03*
X-4528D02*
D03*
X-12598Y-45374D02*
D03*
X-21063Y-61024D02*
D03*
X12008Y-63484D02*
D03*
X-104035Y80319D02*
D03*
Y85043D02*
D03*
Y16539D02*
D03*
Y21264D02*
D03*
Y-47240D02*
D03*
Y-42516D02*
D03*
X104114Y-60634D02*
D03*
Y-65358D02*
D03*
Y3146D02*
D03*
Y-1579D02*
D03*
Y66925D02*
D03*
Y62201D02*
D03*
X35903Y-53746D02*
D03*
X31966D02*
D03*
Y-57683D02*
D03*
X35903D02*
D03*
X-18228Y98465D02*
D03*
X-11929Y92165D02*
D03*
X-5630Y98465D02*
D03*
X-11929D02*
D03*
Y104764D02*
D03*
D81*
X-181102Y157480D02*
G03*
X-196851Y141732I0J-15748D01*
G01*
X196851D02*
G03*
X181103Y157480I-15748J0D01*
G01*
Y-157480D02*
G03*
X196851Y-141732I0J15748D01*
G01*
X-196851D02*
G03*
X-181102Y-157480I15748J0D01*
G01*
X-196851Y-141732D02*
Y141732D01*
X-181102Y157480D02*
X181103D01*
X196851Y-141732D02*
Y141732D01*
X-181102Y-157480D02*
X181103D01*
D82*
X-67421Y-20030D02*
D03*
D83*
X-67426Y-7333D02*
D03*
M02*
