%FSLAX25Y25*%
%MOIN*%
G70*
G01*
G75*
G04 Layer_Physical_Order=1*
G04 Layer_Color=255*
%ADD10C,0.01772*%
%ADD11C,0.01969*%
%ADD12R,0.06693X0.09843*%
%ADD13R,0.09843X0.06693*%
%ADD14R,0.03158X0.03827*%
%ADD15R,0.03827X0.03158*%
%ADD16R,0.08661X0.04724*%
%ADD17R,0.08661X0.13780*%
%ADD18R,0.06693X0.07874*%
%ADD19R,0.05315X0.01772*%
%ADD20R,0.06693X0.14567*%
%ADD21R,0.03150X0.01181*%
%ADD22R,0.01181X0.03150*%
%ADD23R,0.06693X0.06693*%
%ADD24C,0.03150*%
%ADD25R,0.03543X0.05906*%
%ADD26R,0.05906X0.03543*%
%ADD27R,0.19685X0.19685*%
%ADD28R,0.15354X0.24410*%
%ADD29R,0.12992X0.17323*%
%ADD30R,0.01575X0.03150*%
%ADD31R,0.03937X0.03543*%
%ADD32R,0.07087X0.15354*%
%ADD33R,0.05118X0.21654*%
%ADD34R,0.15354X0.07087*%
%ADD35R,0.21654X0.05118*%
%ADD36R,0.02362X0.01969*%
%ADD37R,0.01969X0.02362*%
%ADD38R,0.03543X0.02362*%
%ADD39R,0.02362X0.03543*%
%ADD40R,0.02756X0.05118*%
%ADD41R,0.05118X0.02756*%
%ADD42R,0.06890X0.04724*%
%ADD43R,0.04724X0.06890*%
%ADD44R,0.06299X0.22441*%
%ADD45R,0.22441X0.06299*%
%ADD46C,0.03937*%
%ADD47C,0.00787*%
%ADD48C,0.01181*%
%ADD49C,0.01575*%
%ADD50C,0.02362*%
%ADD51C,0.05906*%
%ADD52C,0.01378*%
%ADD53C,0.02953*%
%ADD54C,0.03150*%
%ADD55C,0.00591*%
%ADD56R,0.10433X0.04331*%
%ADD57R,0.09449X0.04331*%
%ADD58R,0.06200X0.08500*%
%ADD59R,0.08500X0.06200*%
%ADD60R,0.06200X0.17300*%
%ADD61R,0.04331X0.09449*%
%ADD62R,0.25000X0.04331*%
%ADD63R,0.09055X0.04331*%
%ADD64R,0.11417X0.09449*%
%ADD65R,0.07087X0.04331*%
%ADD66R,0.04232X0.02854*%
%ADD67C,0.23622*%
%ADD68C,0.05906*%
%ADD69C,0.09055*%
%ADD70C,0.03543*%
%ADD71C,0.07874*%
%ADD72C,0.06299*%
%ADD73C,0.02362*%
%ADD74C,0.02598*%
G36*
X195747Y118701D02*
X179724D01*
Y110433D01*
X195747D01*
Y73819D01*
X179724D01*
Y65551D01*
X195747D01*
Y47287D01*
X179724D01*
Y39020D01*
X195747D01*
Y12248D01*
X179724D01*
Y3980D01*
X195747D01*
Y-14087D01*
X179724D01*
Y-22354D01*
X195747D01*
Y-49126D01*
X179724D01*
Y-57394D01*
X195747D01*
Y-75461D01*
X179724D01*
Y-83728D01*
X195747D01*
Y-110500D01*
X179724D01*
Y-118768D01*
X195747D01*
Y-141732D01*
X195758Y-141791D01*
X195582Y-144026D01*
X195045Y-146263D01*
X194165Y-148388D01*
X192963Y-150350D01*
X191469Y-152099D01*
X189720Y-153593D01*
X187758Y-154795D01*
X185633Y-155675D01*
X183396Y-156212D01*
X181161Y-156388D01*
X181103Y-156377D01*
X159547D01*
Y-151969D01*
X158493D01*
Y-150936D01*
X158657Y-150691D01*
X158795Y-150000D01*
X158657Y-149309D01*
X158493Y-149064D01*
Y-147441D01*
X158563D01*
Y-143898D01*
X155413D01*
Y-147441D01*
X155483D01*
Y-149064D01*
X155319Y-149309D01*
X155182Y-150000D01*
X155319Y-150691D01*
X155483Y-150936D01*
Y-151969D01*
X154429D01*
Y-151969D01*
X154416D01*
X154062Y-151615D01*
Y-142617D01*
X154926D01*
Y-139073D01*
X154857D01*
Y-136713D01*
X154875D01*
Y-133169D01*
X154805D01*
Y-131143D01*
X155035Y-131048D01*
X155775Y-130480D01*
X156343Y-129740D01*
X156700Y-128878D01*
X156822Y-127953D01*
X156700Y-127028D01*
X156343Y-126166D01*
X155775Y-125426D01*
X155035Y-124858D01*
X154173Y-124501D01*
X153248Y-124379D01*
X152323Y-124501D01*
X151461Y-124858D01*
X150721Y-125426D01*
X150153Y-126166D01*
X149796Y-127028D01*
X149674Y-127953D01*
X149796Y-128878D01*
X150153Y-129740D01*
X150721Y-130480D01*
X151461Y-131048D01*
X151795Y-131186D01*
Y-133169D01*
X151725D01*
Y-136713D01*
X151846D01*
Y-139073D01*
X151776D01*
Y-140433D01*
X151664Y-140545D01*
X151359Y-141001D01*
X151332Y-141139D01*
X150832D01*
X150806Y-141007D01*
X150501Y-140551D01*
X150476Y-140526D01*
Y-139166D01*
X149574D01*
X142119Y-131711D01*
X141631Y-131385D01*
X141055Y-131270D01*
X141029Y-131141D01*
X141255Y-131048D01*
X141996Y-130480D01*
X142564Y-129740D01*
X142921Y-128878D01*
X143042Y-127953D01*
X142921Y-127028D01*
X142564Y-126166D01*
X141996Y-125426D01*
X141255Y-124858D01*
X140393Y-124501D01*
X139469Y-124379D01*
X138543Y-124501D01*
X137682Y-124858D01*
X136941Y-125426D01*
X136373Y-126166D01*
X136016Y-127028D01*
X135895Y-127953D01*
X136016Y-128878D01*
X136373Y-129740D01*
X136941Y-130480D01*
X137355Y-130797D01*
X137194Y-131270D01*
X131135D01*
X129024Y-129159D01*
X129141Y-128878D01*
X129263Y-127953D01*
X129141Y-127028D01*
X128784Y-126166D01*
X128216Y-125426D01*
X127476Y-124858D01*
X126614Y-124501D01*
X125689Y-124379D01*
X124764Y-124501D01*
X123902Y-124858D01*
X123162Y-125426D01*
X122594Y-126166D01*
X122237Y-127028D01*
X122115Y-127953D01*
X122237Y-128878D01*
X122594Y-129740D01*
X123162Y-130480D01*
X123902Y-131048D01*
X124764Y-131405D01*
X125689Y-131527D01*
X126614Y-131405D01*
X126896Y-131288D01*
X129447Y-133840D01*
X129936Y-134166D01*
X130512Y-134281D01*
X140431D01*
X144855Y-138704D01*
X144663Y-139166D01*
X145316D01*
X145554Y-139404D01*
Y-140347D01*
X146497D01*
X146539Y-140389D01*
Y-141041D01*
X147001Y-140850D01*
X147326Y-141176D01*
Y-142710D01*
X148103D01*
Y-151969D01*
X147736D01*
Y-151969D01*
X146783D01*
Y-150786D01*
X146846Y-150691D01*
X146984Y-150000D01*
X146846Y-149309D01*
X146783Y-149214D01*
Y-145669D01*
X146752Y-145514D01*
Y-143898D01*
X143602D01*
Y-145514D01*
X143571Y-145669D01*
Y-149214D01*
X143508Y-149309D01*
X143371Y-150000D01*
X143508Y-150691D01*
X143571Y-150786D01*
Y-151969D01*
X142618D01*
Y-156377D01*
X137402D01*
Y-149606D01*
X129528D01*
Y-156377D01*
X114173D01*
Y-141142D01*
X111240D01*
Y-138583D01*
X111811D01*
Y-135039D01*
X111488D01*
X111342Y-134561D01*
X111513Y-134447D01*
X111905Y-133861D01*
X112043Y-133169D01*
X111905Y-132478D01*
X111513Y-131892D01*
X110927Y-131500D01*
X110236Y-131363D01*
X109545Y-131500D01*
X108959Y-131892D01*
X108567Y-132478D01*
X108430Y-133169D01*
X108567Y-133861D01*
X108959Y-134447D01*
X109130Y-134561D01*
X108985Y-135039D01*
X108661D01*
Y-138583D01*
X109233D01*
Y-141142D01*
X106299D01*
Y-156377D01*
X97539D01*
Y-140354D01*
X89272D01*
Y-156377D01*
X52658D01*
Y-140354D01*
X44390D01*
Y-156377D01*
X-54134D01*
Y-140354D01*
X-62402D01*
Y-156377D01*
X-118701D01*
Y-140354D01*
X-126969D01*
Y-156377D01*
X-181102D01*
X-181161Y-156388D01*
X-183396Y-156212D01*
X-185633Y-155675D01*
X-187758Y-154795D01*
X-189720Y-153593D01*
X-191469Y-152099D01*
X-192963Y-150350D01*
X-194165Y-148388D01*
X-195045Y-146263D01*
X-195582Y-144026D01*
X-195758Y-141791D01*
X-195747Y-141732D01*
Y-118768D01*
X-179724D01*
Y-110500D01*
X-195747D01*
Y-83728D01*
X-179724D01*
Y-75461D01*
X-195747D01*
Y-57394D01*
X-179724D01*
Y-49126D01*
X-195747D01*
Y-22354D01*
X-179724D01*
Y-14087D01*
X-195747D01*
Y3980D01*
X-179724D01*
Y12248D01*
X-195747D01*
Y39020D01*
X-179724D01*
Y47287D01*
X-195747D01*
Y65551D01*
X-179724D01*
Y73819D01*
X-195747D01*
Y110433D01*
X-179724D01*
Y118701D01*
X-195747D01*
Y132972D01*
X-189930D01*
X-189899Y132936D01*
X-188414Y131668D01*
X-186750Y130648D01*
X-184947Y129901D01*
X-183048Y129446D01*
X-181102Y129292D01*
X-179156Y129446D01*
X-177258Y129901D01*
X-175455Y130648D01*
X-173790Y131668D01*
X-172306Y132936D01*
X-172275Y132972D01*
X172275D01*
X172306Y132936D01*
X173790Y131668D01*
X175455Y130648D01*
X177258Y129901D01*
X179156Y129446D01*
X181102Y129292D01*
X183048Y129446D01*
X184947Y129901D01*
X186750Y130648D01*
X188414Y131668D01*
X189899Y132936D01*
X189930Y132972D01*
X195747D01*
Y118701D01*
D02*
G37*
%LPC*%
G36*
X-31398Y-62008D02*
X-35728D01*
Y-64370D01*
X-31398D01*
Y-62008D01*
D02*
G37*
G36*
X-120276Y-63480D02*
X-121457D01*
Y-64465D01*
X-120276D01*
Y-63480D01*
D02*
G37*
G36*
X-122638D02*
X-123819D01*
Y-64465D01*
X-122638D01*
Y-63480D01*
D02*
G37*
G36*
X-25886Y-62008D02*
X-30217D01*
Y-64370D01*
X-25886D01*
Y-62008D01*
D02*
G37*
G36*
X-8957Y-60827D02*
X-12402D01*
Y-63189D01*
X-8957D01*
Y-60827D01*
D02*
G37*
G36*
X-13583D02*
X-17028D01*
Y-63189D01*
X-13583D01*
Y-60827D01*
D02*
G37*
G36*
X115138Y-62307D02*
X108642D01*
Y-63193D01*
Y-63685D01*
X115138D01*
Y-63193D01*
Y-62307D01*
D02*
G37*
G36*
X-13583Y-64370D02*
X-17028D01*
Y-66732D01*
X-13583D01*
Y-64370D01*
D02*
G37*
G36*
X108051Y-63587D02*
X104705D01*
Y-67524D01*
X108051D01*
Y-63587D01*
D02*
G37*
G36*
X103524D02*
X100177D01*
Y-67524D01*
X103524D01*
Y-63587D01*
D02*
G37*
G36*
X-8957Y-64370D02*
X-12402D01*
Y-66732D01*
X-8957D01*
Y-64370D01*
D02*
G37*
G36*
X124488Y-58370D02*
X119764D01*
Y-61913D01*
X120257D01*
X120586Y-62289D01*
X120530Y-62718D01*
X120180Y-63563D01*
X119623Y-64288D01*
X118897Y-64845D01*
X118052Y-65195D01*
X117155Y-65314D01*
X117146Y-65306D01*
Y-65306D01*
X117027Y-65329D01*
X115138D01*
Y-64866D01*
X108642D01*
Y-65752D01*
Y-68311D01*
X110385D01*
Y-72740D01*
X110315D01*
Y-76284D01*
X113465D01*
Y-72740D01*
X113395D01*
Y-68340D01*
X120621D01*
Y-70083D01*
X118976D01*
Y-74020D01*
X125276D01*
Y-70083D01*
X123631D01*
Y-68340D01*
X126472D01*
X126534Y-68328D01*
X131072Y-72866D01*
Y-87044D01*
X130790Y-87161D01*
X130050Y-87729D01*
X129482Y-88469D01*
X129125Y-89331D01*
X129003Y-90256D01*
X129125Y-91181D01*
X129482Y-92043D01*
X130050Y-92783D01*
X130790Y-93351D01*
X131652Y-93708D01*
X132577Y-93830D01*
X133502Y-93708D01*
X133877Y-93553D01*
X133970Y-93615D01*
X134546Y-93730D01*
X139467D01*
Y-93799D01*
X143010D01*
Y-93730D01*
X147835D01*
Y-95342D01*
X170669D01*
Y-89043D01*
X147835D01*
Y-90719D01*
X143010D01*
Y-90650D01*
X139467D01*
Y-90719D01*
X136469D01*
X136140Y-90343D01*
X136151Y-90256D01*
X136029Y-89331D01*
X135672Y-88469D01*
X135104Y-87729D01*
X134364Y-87161D01*
X134082Y-87044D01*
Y-72242D01*
X133968Y-71667D01*
X133642Y-71178D01*
X128210Y-65747D01*
X127722Y-65420D01*
X127146Y-65306D01*
X127119Y-65311D01*
X126239Y-65195D01*
X125394Y-64845D01*
X124668Y-64288D01*
X124111Y-63563D01*
X123761Y-62718D01*
X123705Y-62289D01*
X124035Y-61913D01*
X124488D01*
Y-58370D01*
D02*
G37*
G36*
X16535Y-64075D02*
X15354D01*
Y-65847D01*
X16535D01*
Y-64075D01*
D02*
G37*
G36*
X14173D02*
X12992D01*
Y-65847D01*
X14173D01*
Y-64075D01*
D02*
G37*
G36*
Y-61122D02*
X12992D01*
Y-62894D01*
X14173D01*
Y-61122D01*
D02*
G37*
G36*
X-21654Y-56496D02*
X-23425D01*
Y-57677D01*
X-21654D01*
Y-56496D01*
D02*
G37*
G36*
X-18701Y-58858D02*
X-20472D01*
Y-60039D01*
X-18701D01*
Y-58858D01*
D02*
G37*
G36*
X-21654D02*
X-23425D01*
Y-60039D01*
X-21654D01*
Y-58858D01*
D02*
G37*
G36*
X-18701Y-56496D02*
X-20472D01*
Y-57677D01*
X-18701D01*
Y-56496D01*
D02*
G37*
G36*
X6693Y-53445D02*
X1772D01*
Y-56791D01*
X6693D01*
Y-53445D01*
D02*
G37*
G36*
X591D02*
X-4331D01*
Y-56791D01*
X591D01*
Y-53445D01*
D02*
G37*
G36*
X-119685Y-51866D02*
X-124409D01*
Y-55409D01*
X-123653D01*
Y-57347D01*
X-124307D01*
X-124307Y-57347D01*
X-124820Y-57449D01*
X-124922Y-57469D01*
X-125443Y-57817D01*
X-133712Y-66088D01*
X-134061Y-66608D01*
X-134081Y-66710D01*
X-134183Y-67223D01*
X-134183Y-67223D01*
Y-86987D01*
X-134364Y-87062D01*
X-135104Y-87630D01*
X-135672Y-88371D01*
X-136029Y-89232D01*
X-136151Y-90158D01*
X-136469Y-90520D01*
X-147835D01*
Y-89043D01*
X-170669D01*
Y-95342D01*
X-147835D01*
Y-93732D01*
X-134546D01*
X-134546Y-93732D01*
X-134033Y-93630D01*
X-133931Y-93609D01*
X-133767Y-93500D01*
X-133502Y-93610D01*
X-132577Y-93731D01*
X-131652Y-93610D01*
X-130790Y-93252D01*
X-130050Y-92685D01*
X-129482Y-91944D01*
X-129125Y-91083D01*
X-129003Y-90158D01*
X-129125Y-89232D01*
X-129482Y-88371D01*
X-130050Y-87630D01*
X-130790Y-87062D01*
X-130972Y-86987D01*
Y-67888D01*
X-124281Y-61197D01*
X-123819Y-61389D01*
Y-61389D01*
X-123819D01*
Y-62299D01*
X-122638D01*
Y-61315D01*
X-123745D01*
X-123881Y-60988D01*
X-123937Y-60853D01*
X-123642Y-60558D01*
X-116929D01*
Y-78638D01*
X-109449D01*
Y-55016D01*
X-116929D01*
Y-57347D01*
X-120442D01*
Y-55409D01*
X-119685D01*
Y-51866D01*
D02*
G37*
G36*
X108051Y-58469D02*
X104705D01*
Y-62406D01*
X108051D01*
Y-58469D01*
D02*
G37*
G36*
X103524D02*
X100177D01*
Y-62406D01*
X103524D01*
Y-58469D01*
D02*
G37*
G36*
X16535Y-61122D02*
X15354D01*
Y-62894D01*
X16535D01*
Y-61122D01*
D02*
G37*
G36*
X-120276Y-61315D02*
X-121457D01*
Y-62299D01*
X-120276D01*
Y-61315D01*
D02*
G37*
G36*
X-25886Y-58465D02*
X-30217D01*
Y-60827D01*
X-25886D01*
Y-58465D01*
D02*
G37*
G36*
X-31398D02*
X-35728D01*
Y-60827D01*
X-31398D01*
Y-58465D01*
D02*
G37*
G36*
X111890Y-54099D02*
X111198Y-54237D01*
X110612Y-54628D01*
X110221Y-55214D01*
X110083Y-55905D01*
X110221Y-56597D01*
X110612Y-57183D01*
X110642Y-57203D01*
X110497Y-57681D01*
X108642D01*
Y-60634D01*
Y-61126D01*
X115138D01*
Y-60634D01*
Y-57681D01*
X113283D01*
X113137Y-57203D01*
X113167Y-57183D01*
X113559Y-56597D01*
X113696Y-55905D01*
X113559Y-55214D01*
X113167Y-54628D01*
X112581Y-54237D01*
X111890Y-54099D01*
D02*
G37*
G36*
X-19685Y-77756D02*
X-20669D01*
Y-78937D01*
X-19685D01*
Y-77756D01*
D02*
G37*
G36*
X-21850D02*
X-22835D01*
Y-78937D01*
X-21850D01*
Y-77756D01*
D02*
G37*
G36*
X-23622D02*
X-24606D01*
Y-78937D01*
X-23622D01*
Y-77756D01*
D02*
G37*
G36*
X-10827D02*
X-11811D01*
Y-78937D01*
X-10827D01*
Y-77756D01*
D02*
G37*
G36*
X109528Y-75102D02*
X108543D01*
Y-76284D01*
X109528D01*
Y-75102D01*
D02*
G37*
G36*
X107362D02*
X106378D01*
Y-76284D01*
X107362D01*
Y-75102D01*
D02*
G37*
G36*
X-8661Y-77756D02*
X-9646D01*
Y-78937D01*
X-8661D01*
Y-77756D01*
D02*
G37*
G36*
X-10827Y-80118D02*
X-11811D01*
Y-81299D01*
X-10827D01*
Y-80118D01*
D02*
G37*
G36*
X-19685D02*
X-20669D01*
Y-81299D01*
X-19685D01*
Y-80118D01*
D02*
G37*
G36*
X-21850D02*
X-22835D01*
Y-81299D01*
X-21850D01*
Y-80118D01*
D02*
G37*
G36*
X-8661D02*
X-9646D01*
Y-81299D01*
X-8661D01*
Y-80118D01*
D02*
G37*
G36*
X-25787Y-77756D02*
X-26772D01*
Y-78937D01*
X-25787D01*
Y-77756D01*
D02*
G37*
G36*
X79606Y-75890D02*
X77244D01*
Y-79335D01*
X79606D01*
Y-75890D01*
D02*
G37*
G36*
X76063D02*
X73701D01*
Y-79335D01*
X76063D01*
Y-75890D01*
D02*
G37*
G36*
X7874Y-71949D02*
X5512D01*
Y-75394D01*
X7874D01*
Y-71949D01*
D02*
G37*
G36*
X78819Y-68016D02*
X77638D01*
Y-69787D01*
X78819D01*
Y-68016D01*
D02*
G37*
G36*
X63583Y-69095D02*
X62598D01*
Y-70276D01*
X63583D01*
Y-69095D01*
D02*
G37*
G36*
X61417D02*
X60433D01*
Y-70276D01*
X61417D01*
Y-69095D01*
D02*
G37*
G36*
X81181Y-68016D02*
X80000D01*
Y-69787D01*
X81181D01*
Y-68016D01*
D02*
G37*
G36*
X44488Y-64434D02*
X43797Y-64571D01*
X43211Y-64963D01*
X42819Y-65549D01*
X42682Y-66240D01*
X42819Y-66931D01*
X43211Y-67518D01*
X43797Y-67909D01*
X44488Y-68046D01*
X45180Y-67909D01*
X45388Y-67770D01*
X45472Y-67815D01*
Y-67815D01*
X45472Y-67815D01*
X49016D01*
Y-64665D01*
X45472D01*
X45472Y-64665D01*
Y-64665D01*
X45388Y-64711D01*
X45180Y-64571D01*
X44488Y-64434D01*
D02*
G37*
G36*
X63583Y-66732D02*
X62598D01*
Y-67913D01*
X63583D01*
Y-66732D01*
D02*
G37*
G36*
X61417D02*
X60433D01*
Y-67913D01*
X61417D01*
Y-66732D01*
D02*
G37*
G36*
X79606Y-71264D02*
X77244D01*
Y-74709D01*
X79606D01*
Y-71264D01*
D02*
G37*
G36*
X76063D02*
X73701D01*
Y-74709D01*
X76063D01*
Y-71264D01*
D02*
G37*
G36*
X11417Y-71949D02*
X9055D01*
Y-75394D01*
X11417D01*
Y-71949D01*
D02*
G37*
G36*
X107362Y-72740D02*
X106378D01*
Y-73921D01*
X107362D01*
Y-72740D01*
D02*
G37*
G36*
X11417Y-67323D02*
X9055D01*
Y-70768D01*
X11417D01*
Y-67323D01*
D02*
G37*
G36*
X7874D02*
X5512D01*
Y-70768D01*
X7874D01*
Y-67323D01*
D02*
G37*
G36*
X109528Y-72740D02*
X108543D01*
Y-73921D01*
X109528D01*
Y-72740D01*
D02*
G37*
G36*
X-77165Y-33165D02*
X-79528D01*
Y-36610D01*
X-77165D01*
Y-33165D01*
D02*
G37*
G36*
X-6102Y-33268D02*
X-8465D01*
Y-36713D01*
X-6102D01*
Y-33268D01*
D02*
G37*
G36*
X-9646D02*
X-12008D01*
Y-36713D01*
X-9646D01*
Y-33268D01*
D02*
G37*
G36*
X-73622Y-33165D02*
X-75984D01*
Y-36610D01*
X-73622D01*
Y-33165D01*
D02*
G37*
G36*
X14764Y-33957D02*
X11319D01*
Y-36319D01*
X14764D01*
Y-33957D01*
D02*
G37*
G36*
X9744D02*
X6299D01*
Y-36319D01*
X9744D01*
Y-33957D01*
D02*
G37*
G36*
X5118D02*
X1673D01*
Y-36319D01*
X5118D01*
Y-33957D01*
D02*
G37*
G36*
X-79921Y-38087D02*
X-81102D01*
Y-39858D01*
X-79921D01*
Y-38087D01*
D02*
G37*
G36*
X-15121Y-32464D02*
X-21321D01*
X-21773Y-32651D01*
X-21960Y-33103D01*
Y-33268D01*
X-23425D01*
Y-36606D01*
X-23971Y-37151D01*
X-24381Y-37686D01*
X-24563Y-38126D01*
X-24639Y-38308D01*
X-24727Y-38976D01*
Y-40726D01*
X-25886D01*
Y-40354D01*
X-35728D01*
Y-46260D01*
X-25886D01*
Y-45888D01*
X-23031D01*
Y-47736D01*
X-19488D01*
Y-45548D01*
X-19454Y-45374D01*
Y-42242D01*
X-15121D01*
X-14669Y-42055D01*
X-14482Y-41603D01*
Y-33103D01*
X-14669Y-32651D01*
X-15121Y-32464D01*
D02*
G37*
G36*
X-6102Y-37894D02*
X-8465D01*
Y-41339D01*
X-6102D01*
Y-37894D01*
D02*
G37*
G36*
X-77559Y-38087D02*
X-78740D01*
Y-39858D01*
X-77559D01*
Y-38087D01*
D02*
G37*
G36*
X98504Y-29236D02*
X91024D01*
Y-37473D01*
X85118D01*
Y-35535D01*
X77244D01*
Y-46559D01*
X85118D01*
Y-44621D01*
X91024D01*
Y-52858D01*
X94733D01*
Y-57681D01*
X93090D01*
Y-60634D01*
Y-63193D01*
Y-65329D01*
X87121D01*
Y-64079D01*
X86984Y-63388D01*
X86592Y-62801D01*
X86545Y-62754D01*
Y-60339D01*
X86357Y-59887D01*
X85905Y-59699D01*
X85118D01*
Y-51284D01*
X77244D01*
Y-59699D01*
X76457D01*
X76005Y-59887D01*
X75818Y-60339D01*
Y-64669D01*
X76005Y-65121D01*
X76457Y-65308D01*
X77638D01*
Y-66835D01*
X81181D01*
Y-65308D01*
X83509D01*
Y-67425D01*
Y-72543D01*
X83509Y-72543D01*
X83509D01*
X83646Y-73235D01*
X84038Y-73821D01*
X85118Y-74901D01*
Y-79335D01*
X88810D01*
Y-80024D01*
X88997Y-80476D01*
X89449Y-80663D01*
X93779D01*
X94231Y-80476D01*
X94419Y-80024D01*
Y-70575D01*
X94231Y-70123D01*
X93779Y-69936D01*
X89449D01*
X88997Y-70123D01*
X88810Y-70575D01*
Y-71264D01*
X87121D01*
Y-68340D01*
X96339D01*
X96484Y-68311D01*
X99587D01*
Y-65752D01*
Y-63193D01*
Y-60634D01*
Y-57681D01*
X97944D01*
Y-52858D01*
X98504D01*
Y-29236D01*
D02*
G37*
G36*
X170669Y-37512D02*
X147835D01*
Y-38946D01*
X134546D01*
X134546Y-38946D01*
X134033Y-39048D01*
X133931Y-39068D01*
X133767Y-39177D01*
X133502Y-39068D01*
X132577Y-38946D01*
X131652Y-39068D01*
X130790Y-39425D01*
X130050Y-39993D01*
X129482Y-40733D01*
X129125Y-41595D01*
X129003Y-42520D01*
X129125Y-43445D01*
X129482Y-44307D01*
X130050Y-45047D01*
X130790Y-45615D01*
X131652Y-45972D01*
X132577Y-46094D01*
X133502Y-45972D01*
X134364Y-45615D01*
X135104Y-45047D01*
X135672Y-44307D01*
X136029Y-43445D01*
X136151Y-42520D01*
X136469Y-42157D01*
X147835D01*
Y-43811D01*
X170669D01*
Y-37512D01*
D02*
G37*
G36*
X-110236Y-31591D02*
X-113386D01*
Y-35134D01*
X-113316D01*
Y-39534D01*
X-118207D01*
Y-39520D01*
X-118318Y-39534D01*
X-120542D01*
Y-38087D01*
X-118898D01*
Y-34150D01*
X-125197D01*
Y-38087D01*
X-123553D01*
Y-43946D01*
X-123716Y-44191D01*
X-123854Y-44882D01*
X-123716Y-45573D01*
X-123716Y-45573D01*
D01*
X-124296Y-45961D01*
X-124409D01*
Y-49504D01*
X-119685D01*
Y-45961D01*
X-119799D01*
X-120378Y-45573D01*
D01*
X-120378Y-45573D01*
X-120241Y-44882D01*
X-120378Y-44191D01*
X-120416Y-44134D01*
X-120385Y-43978D01*
X-119874Y-43213D01*
X-119109Y-42702D01*
X-118317Y-42545D01*
X-118207D01*
Y-42547D01*
X-118195Y-42545D01*
X-115059D01*
Y-43008D01*
X-108563D01*
Y-42516D01*
Y-39563D01*
X-110306D01*
Y-35134D01*
X-110236D01*
Y-31591D01*
D02*
G37*
G36*
X19390Y-33957D02*
X15945D01*
Y-36319D01*
X19390D01*
Y-33957D01*
D02*
G37*
G36*
X-73622Y-28539D02*
X-75984D01*
Y-31984D01*
X-73622D01*
Y-28539D01*
D02*
G37*
G36*
X-77165D02*
X-79528D01*
Y-31984D01*
X-77165D01*
Y-28539D01*
D02*
G37*
G36*
X-106299Y-31591D02*
X-107283D01*
Y-32772D01*
X-106299D01*
Y-31591D01*
D02*
G37*
G36*
X-13484Y-23592D02*
X-14409Y-23713D01*
X-15271Y-24070D01*
X-16011Y-24638D01*
X-16579Y-25378D01*
X-16936Y-26240D01*
X-17058Y-27165D01*
X-16936Y-28090D01*
X-16579Y-28952D01*
X-16011Y-29693D01*
X-15271Y-30260D01*
X-14409Y-30617D01*
X-13484Y-30739D01*
X-12559Y-30617D01*
X-11697Y-30260D01*
X-10957Y-29693D01*
X-10389Y-28952D01*
X-10032Y-28090D01*
X-9910Y-27165D01*
X-10032Y-26240D01*
X-10389Y-25378D01*
X-10957Y-24638D01*
X-11697Y-24070D01*
X-12559Y-23713D01*
X-13484Y-23592D01*
D02*
G37*
G36*
X-0Y-27657D02*
X-1772D01*
Y-28839D01*
X-0D01*
Y-27657D01*
D02*
G37*
G36*
X-2953D02*
X-4724D01*
Y-28839D01*
X-2953D01*
Y-27657D01*
D02*
G37*
G36*
X-117323Y-22881D02*
X-126772D01*
X-127224Y-23068D01*
X-127411Y-23520D01*
Y-27850D01*
X-127224Y-28302D01*
X-126772Y-28490D01*
X-125197D01*
Y-30606D01*
X-118898D01*
Y-28490D01*
X-117323D01*
X-116871Y-28302D01*
X-116684Y-27850D01*
Y-23520D01*
X-116871Y-23068D01*
X-117323Y-22881D01*
D02*
G37*
G36*
X5118Y-30413D02*
X1673D01*
Y-32776D01*
X5118D01*
Y-30413D01*
D02*
G37*
G36*
X-106299Y-33953D02*
X-107283D01*
Y-35134D01*
X-106299D01*
Y-33953D01*
D02*
G37*
G36*
X-108465D02*
X-109449D01*
Y-35134D01*
X-108465D01*
Y-33953D01*
D02*
G37*
G36*
X9744Y-30413D02*
X6299D01*
Y-32776D01*
X9744D01*
Y-30413D01*
D02*
G37*
G36*
X-108465Y-31591D02*
X-109449D01*
Y-32772D01*
X-108465D01*
Y-31591D01*
D02*
G37*
G36*
X19390Y-30413D02*
X15945D01*
Y-32776D01*
X19390D01*
Y-30413D01*
D02*
G37*
G36*
X14764D02*
X11319D01*
Y-32776D01*
X14764D01*
Y-30413D01*
D02*
G37*
G36*
X-13583Y-45965D02*
X-14764D01*
Y-47736D01*
X-13583D01*
Y-45965D01*
D02*
G37*
G36*
X-15945D02*
X-17126D01*
Y-47736D01*
X-15945D01*
Y-45965D01*
D02*
G37*
G36*
X-100098Y-45469D02*
X-103445D01*
Y-49406D01*
X-100098D01*
Y-45469D01*
D02*
G37*
G36*
X121535Y-45575D02*
X120354D01*
Y-46559D01*
X121535D01*
Y-45575D01*
D02*
G37*
G36*
X-141929Y-45276D02*
X-143110D01*
Y-46260D01*
X-141929D01*
Y-45276D01*
D02*
G37*
G36*
X-147835Y-37512D02*
X-170669D01*
Y-43811D01*
X-147835D01*
Y-42253D01*
X-143110D01*
Y-42323D01*
X-139567D01*
Y-42253D01*
X-136569D01*
X-136240Y-42629D01*
X-136251Y-42717D01*
X-136129Y-43641D01*
X-135772Y-44504D01*
X-135204Y-45244D01*
X-134464Y-45812D01*
X-133602Y-46169D01*
X-132677Y-46290D01*
X-131752Y-46169D01*
X-130890Y-45812D01*
X-130150Y-45244D01*
X-129582Y-44504D01*
X-129225Y-43641D01*
X-129103Y-42717D01*
X-129225Y-41792D01*
X-129582Y-40930D01*
X-130150Y-40189D01*
X-130890Y-39621D01*
X-131752Y-39264D01*
X-132677Y-39143D01*
X-133602Y-39264D01*
X-133976Y-39419D01*
X-134070Y-39357D01*
X-134646Y-39243D01*
X-139567D01*
Y-39173D01*
X-143110D01*
Y-39243D01*
X-147835D01*
Y-37512D01*
D02*
G37*
G36*
X123898Y-45575D02*
X122716D01*
Y-46559D01*
X123898D01*
Y-45575D01*
D02*
G37*
G36*
X-108563Y-46748D02*
X-115059D01*
Y-47634D01*
Y-50193D01*
X-113204D01*
X-113059Y-50671D01*
X-113088Y-50691D01*
X-113480Y-51277D01*
X-113617Y-51968D01*
X-113480Y-52660D01*
X-113088Y-53246D01*
X-112502Y-53637D01*
X-111811Y-53775D01*
X-111120Y-53637D01*
X-110534Y-53246D01*
X-110142Y-52660D01*
X-110005Y-51968D01*
X-110142Y-51277D01*
X-110534Y-50691D01*
X-110808Y-50508D01*
Y-50193D01*
X-108563D01*
Y-47634D01*
Y-46748D01*
D02*
G37*
G36*
X117008Y-29236D02*
X109528D01*
Y-52858D01*
X117008D01*
Y-50527D01*
X120520D01*
Y-51285D01*
X120457Y-51380D01*
X120320Y-52071D01*
X120321Y-52078D01*
X120004Y-52465D01*
X119764D01*
Y-56008D01*
X124488D01*
Y-52465D01*
X124248D01*
X123931Y-52078D01*
X123932Y-52071D01*
X123795Y-51380D01*
X123732Y-51285D01*
Y-50496D01*
X123898D01*
Y-47346D01*
X122281D01*
X122126Y-47316D01*
X117008D01*
Y-29236D01*
D02*
G37*
G36*
X-89370Y-27211D02*
X-93701D01*
X-94153Y-27398D01*
X-94340Y-27850D01*
Y-37299D01*
X-94153Y-37751D01*
X-93701Y-37938D01*
X-89370D01*
X-88918Y-37751D01*
X-88731Y-37299D01*
Y-36610D01*
X-87043D01*
Y-39534D01*
X-96260D01*
X-96405Y-39563D01*
X-99508D01*
Y-42516D01*
Y-45075D01*
Y-47634D01*
Y-50193D01*
X-97865D01*
Y-55016D01*
X-98425D01*
Y-78638D01*
X-90945D01*
Y-70401D01*
X-85039D01*
Y-72339D01*
X-77165D01*
Y-61315D01*
X-85039D01*
Y-63253D01*
X-90945D01*
Y-55016D01*
X-94654D01*
Y-50193D01*
X-93012D01*
Y-47634D01*
Y-45075D01*
Y-42545D01*
X-87043D01*
Y-43795D01*
X-86905Y-44486D01*
X-86514Y-45073D01*
X-86466Y-45120D01*
Y-47535D01*
X-86279Y-47987D01*
X-85827Y-48175D01*
X-85039D01*
Y-56590D01*
X-77165D01*
Y-48175D01*
X-76378D01*
X-75926Y-47987D01*
X-75739Y-47535D01*
Y-43205D01*
X-75926Y-42753D01*
X-76378Y-42566D01*
X-77559D01*
Y-41039D01*
X-81102D01*
Y-42566D01*
X-83430D01*
Y-40449D01*
Y-35331D01*
X-83567Y-34639D01*
X-83959Y-34053D01*
X-85039Y-32973D01*
Y-28539D01*
X-88731D01*
Y-27850D01*
X-88918Y-27398D01*
X-89370Y-27211D01*
D02*
G37*
G36*
X32874Y60369D02*
X32183Y60232D01*
X31597Y59840D01*
X31205Y59254D01*
X31068Y58563D01*
X31205Y57872D01*
X31597Y57286D01*
X32183Y56894D01*
X32874Y56757D01*
X33197Y56821D01*
X57044Y32974D01*
Y-60689D01*
X56554Y-60787D01*
X56441Y-60516D01*
X55874Y-59776D01*
X55133Y-59207D01*
X54272Y-58851D01*
X53347Y-58729D01*
X52421Y-58851D01*
X51560Y-59207D01*
X50819Y-59776D01*
X50251Y-60516D01*
X49927Y-61300D01*
X49016D01*
Y-60728D01*
X47089D01*
X45595Y-58815D01*
X45814Y-58366D01*
X49606D01*
Y-54823D01*
X45349D01*
X45032Y-54436D01*
X45112Y-54036D01*
X44974Y-53345D01*
X44706Y-52942D01*
X44808Y-52535D01*
X44882Y-52461D01*
D01*
D01*
D01*
X44890D01*
X45235Y-52461D01*
D01*
X49606D01*
Y-48917D01*
X44882D01*
Y-49384D01*
X38505D01*
X38192Y-49072D01*
Y-44193D01*
X45669D01*
Y-36713D01*
X22047D01*
Y-44193D01*
X29677D01*
Y-49268D01*
X27489Y-51457D01*
X22441D01*
Y-48917D01*
X11417D01*
Y-56791D01*
X20579D01*
X20770Y-57253D01*
X19179Y-58845D01*
X18722Y-59528D01*
X18562Y-60335D01*
Y-63484D01*
Y-67323D01*
X16929D01*
Y-75394D01*
X20621D01*
Y-76083D01*
X20808Y-76535D01*
X21260Y-76722D01*
X25591D01*
X26043Y-76535D01*
X26230Y-76083D01*
Y-66634D01*
X26043Y-66182D01*
X25591Y-65995D01*
X22777D01*
Y-63484D01*
Y-61208D01*
X25402Y-58583D01*
X25863Y-58774D01*
Y-58121D01*
X25908Y-58077D01*
X28030D01*
Y-59258D01*
X25864D01*
Y-59848D01*
X27237D01*
X27383Y-60327D01*
X27359Y-60343D01*
X26967Y-60929D01*
X26830Y-61620D01*
X26967Y-62311D01*
X27359Y-62897D01*
X27945Y-63289D01*
X28636Y-63426D01*
X29327Y-63289D01*
X29360Y-63267D01*
X29801Y-63503D01*
Y-63785D01*
X35884D01*
Y-65650D01*
X35433D01*
Y-69193D01*
X37360D01*
X41960Y-73793D01*
X42020Y-74251D01*
X42377Y-75113D01*
X42945Y-75853D01*
X43685Y-76421D01*
X44547Y-76778D01*
X45472Y-76900D01*
X46397Y-76778D01*
X47259Y-76421D01*
X48000Y-75853D01*
X48568Y-75113D01*
X48924Y-74251D01*
X49046Y-73326D01*
X48924Y-72401D01*
X48568Y-71539D01*
X48000Y-70799D01*
X47259Y-70231D01*
X46397Y-69874D01*
X45472Y-69752D01*
X44547Y-69874D01*
X43685Y-70231D01*
X42945Y-70799D01*
X42681Y-71144D01*
X42182Y-71176D01*
X38583Y-67577D01*
Y-65650D01*
X37891D01*
Y-63785D01*
X38068D01*
Y-59848D01*
X42005D01*
Y-59671D01*
X43192D01*
X45472Y-61951D01*
Y-63878D01*
X49016D01*
Y-63307D01*
X49927D01*
X50251Y-64090D01*
X50819Y-64830D01*
X51560Y-65398D01*
X52421Y-65755D01*
X53347Y-65877D01*
X54272Y-65755D01*
X55133Y-65398D01*
X55874Y-64830D01*
X56441Y-64090D01*
X56554Y-63818D01*
X57044Y-63916D01*
Y-66732D01*
X56496D01*
Y-70276D01*
X57103D01*
Y-72831D01*
X55626D01*
Y-77169D01*
X60634D01*
Y-72831D01*
X59110D01*
Y-70276D01*
X59646D01*
Y-66732D01*
X59051D01*
Y33389D01*
X58975Y33773D01*
X58757Y34099D01*
X34616Y58240D01*
X34680Y58563D01*
X34543Y59254D01*
X34151Y59840D01*
X33565Y60232D01*
X32874Y60369D01*
D02*
G37*
G36*
X-104626Y-45469D02*
X-107972D01*
Y-49406D01*
X-104626D01*
Y-45469D01*
D02*
G37*
G36*
X6693Y-48917D02*
X1772D01*
Y-52264D01*
X6693D01*
Y-48917D01*
D02*
G37*
G36*
X591D02*
X-4331D01*
Y-52264D01*
X591D01*
Y-48917D01*
D02*
G37*
G36*
X-139567Y-45276D02*
X-140748D01*
Y-46260D01*
X-139567D01*
Y-45276D01*
D02*
G37*
G36*
X-141929Y-43110D02*
X-143110D01*
Y-44094D01*
X-141929D01*
Y-43110D01*
D02*
G37*
G36*
X-100098Y-40350D02*
X-103445D01*
Y-44287D01*
X-100098D01*
Y-40350D01*
D02*
G37*
G36*
X-104626D02*
X-107972D01*
Y-44287D01*
X-104626D01*
Y-40350D01*
D02*
G37*
G36*
X-139567Y-43110D02*
X-140748D01*
Y-44094D01*
X-139567D01*
Y-43110D01*
D02*
G37*
G36*
X-9646Y-37894D02*
X-12008D01*
Y-41339D01*
X-9646D01*
Y-37894D01*
D02*
G37*
G36*
X143110Y-42913D02*
X141929D01*
Y-43898D01*
X143110D01*
Y-42913D01*
D02*
G37*
G36*
X140748D02*
X139567D01*
Y-43898D01*
X140748D01*
Y-42913D01*
D02*
G37*
G36*
X-108563Y-44189D02*
X-115059D01*
Y-45075D01*
Y-45567D01*
X-108563D01*
Y-45075D01*
Y-44189D01*
D02*
G37*
G36*
X143110Y-45079D02*
X141929D01*
Y-46063D01*
X143110D01*
Y-45079D01*
D02*
G37*
G36*
X140748D02*
X139567D01*
Y-46063D01*
X140748D01*
Y-45079D01*
D02*
G37*
G36*
X-15945Y-43012D02*
X-17126D01*
Y-44783D01*
X-15945D01*
Y-43012D01*
D02*
G37*
G36*
X123898Y-43409D02*
X122716D01*
Y-44394D01*
X123898D01*
Y-43409D01*
D02*
G37*
G36*
X121535D02*
X120354D01*
Y-44394D01*
X121535D01*
Y-43409D01*
D02*
G37*
G36*
X-13583Y-43012D02*
X-14764D01*
Y-44783D01*
X-13583D01*
Y-43012D01*
D02*
G37*
G36*
X158812Y-133169D02*
X157827D01*
Y-134350D01*
X158812D01*
Y-133169D01*
D02*
G37*
G36*
X156646D02*
X155662D01*
Y-134350D01*
X156646D01*
Y-133169D01*
D02*
G37*
G36*
X135039Y-135039D02*
X134055D01*
Y-136221D01*
X135039D01*
Y-135039D01*
D02*
G37*
G36*
X-81299Y-120472D02*
X-83858D01*
Y-131299D01*
X-81299D01*
Y-120472D01*
D02*
G37*
G36*
X70965Y-89734D02*
X70040Y-89855D01*
X69178Y-90213D01*
X68437Y-90781D01*
X67870Y-91521D01*
X67513Y-92383D01*
X67391Y-93308D01*
X67513Y-94233D01*
X67870Y-95095D01*
X68437Y-95835D01*
X69178Y-96403D01*
X69459Y-96519D01*
Y-100197D01*
X69390D01*
Y-103740D01*
X69459D01*
Y-108465D01*
X67815D01*
Y-131299D01*
X74114D01*
Y-108465D01*
X72470D01*
Y-103740D01*
X72539D01*
Y-100197D01*
X72470D01*
Y-96519D01*
X72751Y-96403D01*
X73492Y-95835D01*
X74060Y-95095D01*
X74417Y-94233D01*
X74538Y-93308D01*
X74417Y-92383D01*
X74060Y-91521D01*
X73492Y-90781D01*
X72751Y-90213D01*
X71890Y-89855D01*
X70965Y-89734D01*
D02*
G37*
G36*
X51083Y-82087D02*
X47539D01*
Y-85236D01*
X48110D01*
X48307Y-85433D01*
X48307Y-85433D01*
D01*
X48384Y-85817D01*
X48601Y-86143D01*
X54057Y-91598D01*
X53732Y-92382D01*
X53610Y-93307D01*
X53732Y-94232D01*
X54089Y-95094D01*
X54657Y-95834D01*
X55397Y-96402D01*
X56259Y-96759D01*
X57184Y-96881D01*
X58109Y-96759D01*
X58971Y-96402D01*
X58989Y-96388D01*
X60219Y-97618D01*
Y-100197D01*
X59547D01*
Y-103740D01*
X60219D01*
Y-108465D01*
X57973D01*
Y-131299D01*
X64272D01*
Y-108465D01*
X62025D01*
Y-103740D01*
X62697D01*
Y-100197D01*
X62025D01*
Y-97244D01*
X62025Y-97244D01*
X61968Y-96956D01*
X61957Y-96899D01*
X61761Y-96606D01*
X61761Y-96606D01*
X60266Y-95111D01*
X60279Y-95094D01*
X60636Y-94232D01*
X60758Y-93307D01*
X60636Y-92382D01*
X60279Y-91520D01*
X59711Y-90780D01*
X58971Y-90212D01*
X58109Y-89855D01*
X57184Y-89733D01*
X56259Y-89855D01*
X55476Y-90179D01*
X50922Y-85625D01*
X51083Y-85236D01*
X51083D01*
X51083Y-85236D01*
Y-82087D01*
D02*
G37*
G36*
X-77559Y-120472D02*
X-80118D01*
Y-131299D01*
X-77559D01*
Y-120472D01*
D02*
G37*
G36*
X113583Y-135039D02*
X112598D01*
Y-136221D01*
X113583D01*
Y-135039D01*
D02*
G37*
G36*
X158812Y-135531D02*
X157827D01*
Y-136713D01*
X158812D01*
Y-135531D01*
D02*
G37*
G36*
X156646D02*
X155662D01*
Y-136713D01*
X156646D01*
Y-135531D01*
D02*
G37*
G36*
X115748Y-135039D02*
X114764D01*
Y-136221D01*
X115748D01*
Y-135039D01*
D02*
G37*
G36*
X132874D02*
X131890D01*
Y-136221D01*
X132874D01*
Y-135039D01*
D02*
G37*
G36*
X131102D02*
X130118D01*
Y-136221D01*
X131102D01*
Y-135039D01*
D02*
G37*
G36*
X128937D02*
X127953D01*
Y-136221D01*
X128937D01*
Y-135039D01*
D02*
G37*
G36*
X-25984Y-117520D02*
X-33661D01*
Y-129724D01*
X-25984D01*
Y-117520D01*
D02*
G37*
G36*
X143110Y-104429D02*
X141929D01*
Y-105413D01*
X143110D01*
Y-104429D01*
D02*
G37*
G36*
X140748D02*
X139567D01*
Y-105413D01*
X140748D01*
Y-104429D01*
D02*
G37*
G36*
X-139467Y-106496D02*
X-140648D01*
Y-107480D01*
X-139467D01*
Y-106496D01*
D02*
G37*
G36*
X-141829Y-104331D02*
X-143010D01*
Y-105315D01*
X-141829D01*
Y-104331D01*
D02*
G37*
G36*
X-114764Y-102953D02*
X-115748D01*
Y-104134D01*
X-114764D01*
Y-102953D01*
D02*
G37*
G36*
X-4724Y-77756D02*
X-7874D01*
Y-81299D01*
X-7805D01*
Y-86216D01*
X-7898Y-86443D01*
Y-103743D01*
X-7711Y-104194D01*
X-7259Y-104382D01*
X-1059D01*
X-936Y-104331D01*
X6120D01*
X6177Y-104354D01*
X12377D01*
X12829Y-104167D01*
X13016Y-103715D01*
Y-86415D01*
X12829Y-85963D01*
X12377Y-85776D01*
X6177D01*
X6054Y-85827D01*
X-1003D01*
X-1059Y-85803D01*
X-4794D01*
Y-81299D01*
X-4724D01*
Y-77756D01*
D02*
G37*
G36*
X-139467Y-104331D02*
X-140648D01*
Y-105315D01*
X-139467D01*
Y-104331D01*
D02*
G37*
G36*
X-77559Y-108465D02*
X-80118D01*
Y-119291D01*
X-77559D01*
Y-108465D01*
D02*
G37*
G36*
X-81299D02*
X-83858D01*
Y-119291D01*
X-81299D01*
Y-108465D01*
D02*
G37*
G36*
X-17126Y-117520D02*
X-24803D01*
Y-129724D01*
X-17126D01*
Y-117520D01*
D02*
G37*
G36*
X140748Y-106595D02*
X139567D01*
Y-107579D01*
X140748D01*
Y-106595D01*
D02*
G37*
G36*
X-141829Y-106496D02*
X-143010D01*
Y-107480D01*
X-141829D01*
Y-106496D01*
D02*
G37*
G36*
X-147835Y-98886D02*
X-170669D01*
Y-105185D01*
X-147835D01*
Y-103474D01*
X-143010D01*
Y-103543D01*
X-139467D01*
Y-103474D01*
X-136469D01*
X-136140Y-103850D01*
X-136151Y-103937D01*
X-136029Y-104862D01*
X-135672Y-105724D01*
X-135104Y-106464D01*
X-134364Y-107032D01*
X-133502Y-107389D01*
X-132577Y-107511D01*
X-131652Y-107389D01*
X-130790Y-107032D01*
X-130050Y-106464D01*
X-129482Y-105724D01*
X-129125Y-104862D01*
X-129003Y-103937D01*
X-129125Y-103012D01*
X-129482Y-102150D01*
X-130050Y-101410D01*
X-130790Y-100842D01*
X-131652Y-100485D01*
X-132577Y-100363D01*
X-133502Y-100485D01*
X-133877Y-100640D01*
X-133970Y-100578D01*
X-134546Y-100463D01*
X-139467D01*
Y-100394D01*
X-143010D01*
Y-100463D01*
X-147835D01*
Y-98886D01*
D02*
G37*
G36*
X143110Y-106595D02*
X141929D01*
Y-107579D01*
X143110D01*
Y-106595D01*
D02*
G37*
G36*
X140650Y-143898D02*
X139665D01*
Y-145079D01*
X140650D01*
Y-143898D01*
D02*
G37*
G36*
X162500Y-146260D02*
X161516D01*
Y-147441D01*
X162500D01*
Y-146260D01*
D02*
G37*
G36*
X160335D02*
X159350D01*
Y-147441D01*
X160335D01*
Y-146260D01*
D02*
G37*
G36*
X142815Y-143898D02*
X141831D01*
Y-145079D01*
X142815D01*
Y-143898D01*
D02*
G37*
G36*
X-25984Y-130905D02*
X-33661D01*
Y-143110D01*
X-25984D01*
Y-130905D01*
D02*
G37*
G36*
X162500Y-143898D02*
X161516D01*
Y-145079D01*
X162500D01*
Y-143898D01*
D02*
G37*
G36*
X160335D02*
X159350D01*
Y-145079D01*
X160335D01*
Y-143898D01*
D02*
G37*
G36*
X0Y-140510D02*
X-1233Y-140673D01*
X-2383Y-141149D01*
X-3370Y-141906D01*
X-4127Y-142893D01*
X-4603Y-144042D01*
X-4765Y-145276D01*
X-4603Y-146509D01*
X-4127Y-147658D01*
X-3370Y-148645D01*
X-2383Y-149402D01*
X-1233Y-149878D01*
X0Y-150041D01*
X1233Y-149878D01*
X2383Y-149402D01*
X3370Y-148645D01*
X4127Y-147658D01*
X4603Y-146509D01*
X4765Y-145276D01*
X4603Y-144042D01*
X4127Y-142893D01*
X3370Y-141906D01*
X2383Y-141149D01*
X1233Y-140673D01*
X0Y-140510D01*
D02*
G37*
G36*
X181102Y-129292D02*
X179156Y-129446D01*
X177258Y-129901D01*
X175455Y-130648D01*
X173790Y-131668D01*
X172306Y-132936D01*
X171038Y-134420D01*
X170018Y-136085D01*
X169271Y-137888D01*
X168816Y-139786D01*
X168662Y-141732D01*
X168816Y-143678D01*
X169271Y-145576D01*
X170018Y-147380D01*
X171038Y-149044D01*
X172306Y-150529D01*
X173790Y-151796D01*
X175455Y-152816D01*
X177258Y-153563D01*
X179156Y-154019D01*
X181102Y-154172D01*
X183048Y-154019D01*
X184947Y-153563D01*
X186750Y-152816D01*
X188414Y-151796D01*
X189899Y-150529D01*
X191166Y-149044D01*
X192186Y-147380D01*
X192933Y-145576D01*
X193389Y-143678D01*
X193542Y-141732D01*
X193389Y-139786D01*
X192933Y-137888D01*
X192186Y-136085D01*
X191166Y-134420D01*
X189899Y-132936D01*
X188414Y-131668D01*
X186750Y-130648D01*
X184947Y-129901D01*
X183048Y-129446D01*
X181102Y-129292D01*
D02*
G37*
G36*
X-181102D02*
X-183048Y-129446D01*
X-184947Y-129901D01*
X-186750Y-130648D01*
X-188414Y-131668D01*
X-189899Y-132936D01*
X-191166Y-134420D01*
X-192186Y-136085D01*
X-192933Y-137888D01*
X-193389Y-139786D01*
X-193542Y-141732D01*
X-193389Y-143678D01*
X-192933Y-145576D01*
X-192186Y-147380D01*
X-191166Y-149044D01*
X-189899Y-150529D01*
X-188414Y-151796D01*
X-186750Y-152816D01*
X-184947Y-153563D01*
X-183048Y-154019D01*
X-181102Y-154172D01*
X-179156Y-154019D01*
X-177258Y-153563D01*
X-175455Y-152816D01*
X-173790Y-151796D01*
X-172306Y-150529D01*
X-171038Y-149044D01*
X-170018Y-147380D01*
X-169271Y-145576D01*
X-168816Y-143678D01*
X-168662Y-141732D01*
X-168816Y-139786D01*
X-169271Y-137888D01*
X-170018Y-136085D01*
X-171038Y-134420D01*
X-172306Y-132936D01*
X-173790Y-131668D01*
X-175455Y-130648D01*
X-177258Y-129901D01*
X-179156Y-129446D01*
X-181102Y-129292D01*
D02*
G37*
G36*
X132874Y-141142D02*
X129528D01*
Y-148425D01*
X132874D01*
Y-141142D01*
D02*
G37*
G36*
X142815Y-146260D02*
X141831D01*
Y-147441D01*
X142815D01*
Y-146260D01*
D02*
G37*
G36*
X140650D02*
X139665D01*
Y-147441D01*
X140650D01*
Y-146260D01*
D02*
G37*
G36*
X137402Y-141142D02*
X134055D01*
Y-148425D01*
X137402D01*
Y-141142D01*
D02*
G37*
G36*
X-17126Y-130905D02*
X-24803D01*
Y-143110D01*
X-17126D01*
Y-130905D01*
D02*
G37*
G36*
X115748Y-137402D02*
X114764D01*
Y-138583D01*
X115748D01*
Y-137402D01*
D02*
G37*
G36*
X113583D02*
X112598D01*
Y-138583D01*
X113583D01*
Y-137402D01*
D02*
G37*
G36*
X158863Y-139073D02*
X157879D01*
Y-140254D01*
X158863D01*
Y-139073D01*
D02*
G37*
G36*
X128937Y-137402D02*
X127953D01*
Y-138583D01*
X128937D01*
Y-137402D01*
D02*
G37*
G36*
X135039D02*
X134055D01*
Y-138583D01*
X135039D01*
Y-137402D01*
D02*
G37*
G36*
X132874D02*
X131890D01*
Y-138583D01*
X132874D01*
Y-137402D01*
D02*
G37*
G36*
X131102D02*
X130118D01*
Y-138583D01*
X131102D01*
Y-137402D01*
D02*
G37*
G36*
X146539Y-141528D02*
X145554D01*
Y-142710D01*
X146539D01*
Y-141528D01*
D02*
G37*
G36*
X144373D02*
X143389D01*
Y-142710D01*
X144373D01*
Y-141528D01*
D02*
G37*
G36*
X33661Y-117520D02*
X17126D01*
Y-143110D01*
X33661D01*
Y-117520D01*
D02*
G37*
G36*
X156698Y-141435D02*
X155713D01*
Y-142617D01*
X156698D01*
Y-141435D01*
D02*
G37*
G36*
Y-139073D02*
X155713D01*
Y-140254D01*
X156698D01*
Y-139073D01*
D02*
G37*
G36*
X144373Y-139166D02*
X143389D01*
Y-140347D01*
X144373D01*
Y-139166D01*
D02*
G37*
G36*
X158863Y-141435D02*
X157879D01*
Y-142617D01*
X158863D01*
Y-141435D01*
D02*
G37*
G36*
X-74260Y-90354D02*
X-77165D01*
Y-93259D01*
X-76831Y-93215D01*
X-75969Y-92858D01*
X-75229Y-92290D01*
X-74661Y-91550D01*
X-74304Y-90688D01*
X-74260Y-90354D01*
D02*
G37*
G36*
X-78347D02*
X-81252D01*
X-81208Y-90688D01*
X-80851Y-91550D01*
X-80283Y-92290D01*
X-79543Y-92858D01*
X-78681Y-93215D01*
X-78347Y-93259D01*
Y-90354D01*
D02*
G37*
G36*
X67602Y-76571D02*
X62594D01*
Y-80910D01*
X65110D01*
X78573Y-94372D01*
X78573D01*
X78573Y-94372D01*
X78573Y-94372D01*
Y-94372D01*
X79061Y-94698D01*
X79637Y-94813D01*
X80457D01*
X80648Y-95275D01*
X79743Y-96180D01*
X79416Y-96668D01*
X79302Y-97245D01*
Y-100197D01*
X79232D01*
Y-103740D01*
X79302D01*
Y-108465D01*
X77658D01*
Y-131299D01*
X83957D01*
Y-108465D01*
X82312D01*
Y-103740D01*
X82382D01*
Y-100197D01*
X82312D01*
Y-97868D01*
X83538Y-96643D01*
X83819Y-96760D01*
X84744Y-96881D01*
X85669Y-96760D01*
X86531Y-96403D01*
X87271Y-95835D01*
X87839Y-95095D01*
X88196Y-94233D01*
X88318Y-93308D01*
X88196Y-92383D01*
X87839Y-91521D01*
X87271Y-90781D01*
X86531Y-90213D01*
X85669Y-89855D01*
X84744Y-89734D01*
X83819Y-89855D01*
X82957Y-90213D01*
X82217Y-90781D01*
X81649Y-91521D01*
X81532Y-91802D01*
X80261D01*
X67602Y-79144D01*
Y-76571D01*
D02*
G37*
G36*
X140648Y-88878D02*
X139467D01*
Y-89862D01*
X140648D01*
Y-88878D01*
D02*
G37*
G36*
X-139567Y-88779D02*
X-140748D01*
Y-89764D01*
X-139567D01*
Y-88779D01*
D02*
G37*
G36*
X-141929D02*
X-143110D01*
Y-89764D01*
X-141929D01*
Y-88779D01*
D02*
G37*
G36*
X143010Y-88878D02*
X141829D01*
Y-89862D01*
X143010D01*
Y-88878D01*
D02*
G37*
G36*
X74311Y-100197D02*
X73327D01*
Y-101378D01*
X74311D01*
Y-100197D01*
D02*
G37*
G36*
X66634D02*
X65650D01*
Y-101378D01*
X66634D01*
Y-100197D01*
D02*
G37*
G36*
X64468D02*
X63484D01*
Y-101378D01*
X64468D01*
Y-100197D01*
D02*
G37*
G36*
X76476D02*
X75492D01*
Y-101378D01*
X76476D01*
Y-100197D01*
D02*
G37*
G36*
X170669Y-98886D02*
X147835D01*
Y-100461D01*
X134546D01*
X134546Y-100461D01*
X134033Y-100563D01*
X133931Y-100584D01*
X133767Y-100693D01*
X133502Y-100583D01*
X132577Y-100462D01*
X131652Y-100583D01*
X130790Y-100940D01*
X130050Y-101508D01*
X129482Y-102249D01*
X129125Y-103110D01*
X129003Y-104035D01*
X129125Y-104960D01*
X129482Y-105822D01*
X130050Y-106562D01*
X130790Y-107131D01*
X131652Y-107487D01*
X132577Y-107609D01*
X133502Y-107487D01*
X134364Y-107131D01*
X135104Y-106562D01*
X135672Y-105822D01*
X136029Y-104960D01*
X136151Y-104035D01*
X136469Y-103673D01*
X147835D01*
Y-105185D01*
X170669D01*
Y-98886D01*
D02*
G37*
G36*
X86319Y-100197D02*
X85335D01*
Y-101378D01*
X86319D01*
Y-100197D01*
D02*
G37*
G36*
X84153D02*
X83169D01*
Y-101378D01*
X84153D01*
Y-100197D01*
D02*
G37*
G36*
X-78347Y-86267D02*
X-78681Y-86311D01*
X-79543Y-86668D01*
X-80283Y-87236D01*
X-80851Y-87976D01*
X-81208Y-88838D01*
X-81252Y-89173D01*
X-78347D01*
Y-86267D01*
D02*
G37*
G36*
X57539Y-80311D02*
X55626D01*
Y-81890D01*
X57539D01*
Y-80311D01*
D02*
G37*
G36*
X-125591Y-72702D02*
X-126282Y-72839D01*
X-126868Y-73231D01*
X-127259Y-73817D01*
X-127397Y-74508D01*
X-127259Y-75199D01*
X-126868Y-75785D01*
X-126797Y-75833D01*
Y-76333D01*
X-126868Y-76380D01*
X-127259Y-76966D01*
X-127397Y-77658D01*
X-127259Y-78349D01*
X-126868Y-78935D01*
X-126797Y-78982D01*
Y-79482D01*
X-126868Y-79530D01*
X-127259Y-80116D01*
X-127397Y-80807D01*
X-127259Y-81498D01*
X-126868Y-82084D01*
X-126282Y-82476D01*
X-125591Y-82613D01*
X-124899Y-82476D01*
X-124313Y-82084D01*
X-123922Y-81498D01*
X-123784Y-80807D01*
X-123922Y-80116D01*
X-124313Y-79530D01*
X-124384Y-79482D01*
Y-78982D01*
X-124313Y-78935D01*
X-123922Y-78349D01*
X-123784Y-77658D01*
X-123922Y-76966D01*
X-124313Y-76380D01*
X-124384Y-76333D01*
Y-75833D01*
X-124313Y-75785D01*
X-123922Y-75199D01*
X-123784Y-74508D01*
X-123922Y-73817D01*
X-124313Y-73231D01*
X-124899Y-72839D01*
X-125591Y-72702D01*
D02*
G37*
G36*
X60634Y-83071D02*
X58720D01*
Y-84650D01*
X60634D01*
Y-83071D01*
D02*
G37*
G36*
Y-80311D02*
X58720D01*
Y-81890D01*
X60634D01*
Y-80311D01*
D02*
G37*
G36*
X-23622Y-80118D02*
X-24606D01*
Y-81299D01*
X-23622D01*
Y-80118D01*
D02*
G37*
G36*
X-25787D02*
X-26772D01*
Y-81299D01*
X-25787D01*
Y-80118D01*
D02*
G37*
G36*
X-50295Y-44882D02*
X-60138D01*
Y-59842D01*
X-57798D01*
Y-78950D01*
X-65049Y-86201D01*
X-65886Y-86311D01*
X-66748Y-86668D01*
X-67488Y-87236D01*
X-68056Y-87976D01*
X-68413Y-88838D01*
X-68534Y-89763D01*
X-68413Y-90688D01*
X-68296Y-90970D01*
X-71931Y-94605D01*
X-72257Y-95093D01*
X-72371Y-95669D01*
Y-100591D01*
X-72441D01*
Y-104134D01*
X-72371D01*
Y-108465D01*
X-74016D01*
Y-131299D01*
X-67716D01*
Y-108465D01*
X-69361D01*
Y-104392D01*
X-69046Y-104134D01*
X-68678D01*
X-68504Y-104169D01*
X-67813Y-104031D01*
X-67227Y-103639D01*
X-66835Y-103053D01*
X-66698Y-102362D01*
X-66835Y-101671D01*
X-67227Y-101085D01*
X-67813Y-100693D01*
X-68504Y-100556D01*
X-68678Y-100591D01*
X-69046D01*
X-69361Y-100332D01*
Y-96293D01*
X-66167Y-93099D01*
X-65886Y-93215D01*
X-64961Y-93337D01*
X-64036Y-93215D01*
X-63174Y-92858D01*
X-62433Y-92290D01*
X-61866Y-91550D01*
X-61509Y-90688D01*
X-61398Y-89851D01*
X-53391Y-81844D01*
X-52981Y-81309D01*
X-52830Y-80945D01*
X-52723Y-80687D01*
X-52635Y-80019D01*
Y-59842D01*
X-50295D01*
Y-54943D01*
X-35728D01*
Y-55315D01*
X-25886D01*
Y-54943D01*
X-18128D01*
Y-57713D01*
X-17941Y-58165D01*
X-17489Y-58353D01*
X-10420D01*
X-7708Y-61065D01*
Y-71850D01*
X-7708Y-71850D01*
X-7606Y-72363D01*
X-7586Y-72465D01*
X-7238Y-72986D01*
X636Y-80860D01*
X636Y-80860D01*
X1157Y-81208D01*
X1772Y-81330D01*
X25287D01*
Y-81335D01*
X25350Y-81330D01*
X40792D01*
X40855Y-81335D01*
Y-81330D01*
X49311D01*
X49466Y-81299D01*
X51083D01*
Y-78150D01*
X49466D01*
X49311Y-78119D01*
X40638D01*
X39213Y-77978D01*
X37634Y-77500D01*
X36179Y-76722D01*
X34960Y-75721D01*
X34919Y-75660D01*
X34919Y-75660D01*
X34919Y-75660D01*
X34677Y-75418D01*
Y-67421D01*
X34646Y-67266D01*
Y-65650D01*
X31496D01*
Y-67266D01*
X31465Y-67421D01*
Y-75418D01*
X31223Y-75660D01*
X31182Y-75721D01*
X29963Y-76722D01*
X28508Y-77500D01*
X26929Y-77978D01*
X25504Y-78119D01*
X2437D01*
X-4497Y-71185D01*
Y-60400D01*
X-4497Y-60400D01*
X-4599Y-59887D01*
X-4619Y-59785D01*
X-4967Y-59265D01*
X-4967Y-59265D01*
X-8350Y-55882D01*
Y-51513D01*
X-8537Y-51061D01*
X-8957Y-50888D01*
Y-49409D01*
X-17028D01*
Y-49781D01*
X-25886D01*
Y-49409D01*
X-35728D01*
Y-49781D01*
X-50295D01*
Y-44882D01*
D02*
G37*
G36*
X143010Y-86713D02*
X141829D01*
Y-87697D01*
X143010D01*
Y-86713D01*
D02*
G37*
G36*
X140648D02*
X139467D01*
Y-87697D01*
X140648D01*
Y-86713D01*
D02*
G37*
G36*
X-77165Y-86267D02*
Y-89173D01*
X-74260D01*
X-74304Y-88838D01*
X-74661Y-87976D01*
X-75229Y-87236D01*
X-75969Y-86668D01*
X-76831Y-86311D01*
X-77165Y-86267D01*
D02*
G37*
G36*
X-141929Y-86614D02*
X-143110D01*
Y-87598D01*
X-141929D01*
Y-86614D01*
D02*
G37*
G36*
X57539Y-83071D02*
X55626D01*
Y-84650D01*
X57539D01*
Y-83071D01*
D02*
G37*
G36*
X125276Y-77563D02*
X118976D01*
Y-79680D01*
X117402D01*
X116950Y-79867D01*
X116762Y-80319D01*
Y-84650D01*
X116950Y-85102D01*
X117402Y-85289D01*
X126850D01*
X127302Y-85102D01*
X127490Y-84650D01*
Y-80319D01*
X127302Y-79867D01*
X126850Y-79680D01*
X125276D01*
Y-77563D01*
D02*
G37*
G36*
X-139567Y-86614D02*
X-140748D01*
Y-87598D01*
X-139567D01*
Y-86614D01*
D02*
G37*
G36*
X-81299Y-102853D02*
X-82284D01*
Y-104034D01*
X-81299D01*
Y-102853D01*
D02*
G37*
G36*
X-83071D02*
X-84055D01*
Y-104034D01*
X-83071D01*
Y-102853D01*
D02*
G37*
G36*
X-85236D02*
X-86221D01*
Y-104034D01*
X-85236D01*
Y-102853D01*
D02*
G37*
G36*
X-79134D02*
X-80118D01*
Y-104034D01*
X-79134D01*
Y-102853D01*
D02*
G37*
G36*
X74311Y-102559D02*
X73327D01*
Y-103740D01*
X74311D01*
Y-102559D01*
D02*
G37*
G36*
X66634D02*
X65650D01*
Y-103740D01*
X66634D01*
Y-102559D01*
D02*
G37*
G36*
X64468D02*
X63484D01*
Y-103740D01*
X64468D01*
Y-102559D01*
D02*
G37*
G36*
X-102756Y-102953D02*
X-103740D01*
Y-104134D01*
X-102756D01*
Y-102953D01*
D02*
G37*
G36*
X-104921D02*
X-105905D01*
Y-104134D01*
X-104921D01*
Y-102953D01*
D02*
G37*
G36*
X-112598D02*
X-113583D01*
Y-104134D01*
X-112598D01*
Y-102953D01*
D02*
G37*
G36*
X-95079D02*
X-96063D01*
Y-104134D01*
X-95079D01*
Y-102953D01*
D02*
G37*
G36*
X-73228D02*
X-74213D01*
Y-104134D01*
X-73228D01*
Y-102953D01*
D02*
G37*
G36*
X-75394D02*
X-76378D01*
Y-104134D01*
X-75394D01*
Y-102953D01*
D02*
G37*
G36*
X-92913D02*
X-93898D01*
Y-104134D01*
X-92913D01*
Y-102953D01*
D02*
G37*
G36*
X76476Y-102559D02*
X75492D01*
Y-103740D01*
X76476D01*
Y-102559D01*
D02*
G37*
G36*
X-73228Y-100591D02*
X-74213D01*
Y-101772D01*
X-73228D01*
Y-100591D01*
D02*
G37*
G36*
X-75394D02*
X-76378D01*
Y-101772D01*
X-75394D01*
Y-100591D01*
D02*
G37*
G36*
X-92913D02*
X-93898D01*
Y-101772D01*
X-92913D01*
Y-100591D01*
D02*
G37*
G36*
X-85236Y-100490D02*
X-86221D01*
Y-101672D01*
X-85236D01*
Y-100490D01*
D02*
G37*
G36*
X-79134D02*
X-80118D01*
Y-101672D01*
X-79134D01*
Y-100490D01*
D02*
G37*
G36*
X-81299D02*
X-82284D01*
Y-101672D01*
X-81299D01*
Y-100490D01*
D02*
G37*
G36*
X-83071D02*
X-84055D01*
Y-101672D01*
X-83071D01*
Y-100490D01*
D02*
G37*
G36*
X-114764Y-100591D02*
X-115748D01*
Y-101772D01*
X-114764D01*
Y-100591D01*
D02*
G37*
G36*
X86319Y-102559D02*
X85335D01*
Y-103740D01*
X86319D01*
Y-102559D01*
D02*
G37*
G36*
X84153D02*
X83169D01*
Y-103740D01*
X84153D01*
Y-102559D01*
D02*
G37*
G36*
X-112598Y-100591D02*
X-113583D01*
Y-101772D01*
X-112598D01*
Y-100591D01*
D02*
G37*
G36*
X-95079D02*
X-96063D01*
Y-101772D01*
X-95079D01*
Y-100591D01*
D02*
G37*
G36*
X-102756D02*
X-103740D01*
Y-101772D01*
X-102756D01*
Y-100591D01*
D02*
G37*
G36*
X-104921D02*
X-105905D01*
Y-101772D01*
X-104921D01*
Y-100591D01*
D02*
G37*
G36*
X-142029Y-27559D02*
X-143210D01*
Y-28543D01*
X-142029D01*
Y-27559D01*
D02*
G37*
G36*
X123898Y84150D02*
X122716D01*
Y83165D01*
X123898D01*
Y84150D01*
D02*
G37*
G36*
X121535D02*
X120354D01*
Y83165D01*
X121535D01*
Y84150D01*
D02*
G37*
G36*
X-58268Y84281D02*
X-59252D01*
Y83100D01*
X-58268D01*
Y84281D01*
D02*
G37*
G36*
X-100098Y87209D02*
X-103445D01*
Y83272D01*
X-100098D01*
Y87209D01*
D02*
G37*
G36*
X-104626D02*
X-107972D01*
Y83272D01*
X-104626D01*
Y87209D01*
D02*
G37*
G36*
X170669Y85433D02*
X147835D01*
Y83187D01*
X143110D01*
Y83858D01*
X139567D01*
Y83187D01*
X136614D01*
X136614Y83187D01*
X136326Y83129D01*
X136268Y83118D01*
X135975Y82922D01*
X134481Y81428D01*
X134464Y81441D01*
X133602Y81798D01*
X132677Y81920D01*
X131752Y81798D01*
X130890Y81441D01*
X130150Y80873D01*
X129582Y80133D01*
X129225Y79271D01*
X129103Y78346D01*
X129225Y77421D01*
X129582Y76559D01*
X130150Y75819D01*
X130890Y75251D01*
X131752Y74894D01*
X132677Y74772D01*
X133602Y74894D01*
X134464Y75251D01*
X135204Y75819D01*
X135772Y76559D01*
X136129Y77421D01*
X136251Y78346D01*
X136129Y79271D01*
X135772Y80133D01*
X135758Y80151D01*
X136988Y81380D01*
X139567D01*
Y80709D01*
X140435D01*
Y79331D01*
X139567D01*
Y76181D01*
X143110D01*
Y79331D01*
X142242D01*
Y80709D01*
X143110D01*
Y81380D01*
X147835D01*
Y79134D01*
X170669D01*
Y85433D01*
D02*
G37*
G36*
X-60433Y84281D02*
X-61417D01*
Y83100D01*
X-60433D01*
Y84281D01*
D02*
G37*
G36*
X-58268Y81919D02*
X-59252D01*
Y80737D01*
X-58268D01*
Y81919D01*
D02*
G37*
G36*
X-60433D02*
X-61417D01*
Y80737D01*
X-60433D01*
Y81919D01*
D02*
G37*
G36*
X46063Y80118D02*
X45079D01*
Y78937D01*
X46063D01*
Y80118D01*
D02*
G37*
G36*
X-108563Y83370D02*
X-115059D01*
Y82484D01*
Y81992D01*
X-108563D01*
Y82484D01*
Y83370D01*
D02*
G37*
G36*
X123898Y81984D02*
X122716D01*
Y81000D01*
X123898D01*
Y81984D01*
D02*
G37*
G36*
X121535D02*
X120354D01*
Y81000D01*
X121535D01*
Y81984D01*
D02*
G37*
G36*
X140748Y85630D02*
X139567D01*
Y84646D01*
X140748D01*
Y85630D01*
D02*
G37*
G36*
X-110236Y95969D02*
X-113386D01*
Y92425D01*
X-113316D01*
Y88025D01*
X-118209D01*
Y88038D01*
X-118307Y88025D01*
X-120542D01*
Y89768D01*
X-118898D01*
Y93705D01*
X-125197D01*
Y89768D01*
X-123553D01*
Y83613D01*
X-123716Y83368D01*
X-123854Y82677D01*
X-123716Y81986D01*
X-123716Y81986D01*
D01*
X-124296Y81598D01*
X-124409D01*
Y78055D01*
X-123415D01*
X-123183Y77707D01*
X-122662Y77359D01*
X-122047Y77237D01*
X-121433Y77359D01*
X-120912Y77707D01*
X-120679Y78055D01*
X-119685D01*
Y81598D01*
X-119799D01*
X-120378Y81986D01*
D01*
X-120378Y81986D01*
X-120241Y82677D01*
X-120378Y83368D01*
X-120417Y83426D01*
X-120387Y83579D01*
X-119876Y84344D01*
X-119111Y84855D01*
X-118311Y85014D01*
X-118209D01*
Y85010D01*
X-118189Y85014D01*
X-115059D01*
Y84551D01*
X-108563D01*
Y85043D01*
Y87996D01*
X-110306D01*
Y92425D01*
X-110236D01*
Y95969D01*
D02*
G37*
G36*
X-77559Y89472D02*
X-78740D01*
Y87701D01*
X-77559D01*
Y89472D01*
D02*
G37*
G36*
X-79921D02*
X-81102D01*
Y87701D01*
X-79921D01*
Y89472D01*
D02*
G37*
G36*
X-141929Y89764D02*
X-143110D01*
Y88779D01*
X-141929D01*
Y89764D01*
D02*
G37*
G36*
X-58268Y89281D02*
X-59252D01*
Y88100D01*
X-58268D01*
Y89281D01*
D02*
G37*
G36*
X-60433D02*
X-61417D01*
Y88100D01*
X-60433D01*
Y89281D01*
D02*
G37*
G36*
X143110Y87795D02*
X141929D01*
Y86811D01*
X143110D01*
Y87795D01*
D02*
G37*
G36*
X-58268Y86918D02*
X-59252D01*
Y85737D01*
X-58268D01*
Y86918D01*
D02*
G37*
G36*
X-60433D02*
X-61417D01*
Y85737D01*
X-60433D01*
Y86918D01*
D02*
G37*
G36*
X143110Y85630D02*
X141929D01*
Y84646D01*
X143110D01*
Y85630D01*
D02*
G37*
G36*
X140748Y87795D02*
X139567D01*
Y86811D01*
X140748D01*
Y87795D01*
D02*
G37*
G36*
X-139567Y87598D02*
X-140748D01*
Y86614D01*
X-139567D01*
Y87598D01*
D02*
G37*
G36*
X-141929D02*
X-143110D01*
Y86614D01*
X-141929D01*
Y87598D01*
D02*
G37*
G36*
X43898Y80118D02*
X42913D01*
Y78937D01*
X43898D01*
Y80118D01*
D02*
G37*
G36*
X143110Y75394D02*
X139567D01*
Y72244D01*
X139567D01*
X139567Y71631D01*
X139532Y71457D01*
X139670Y70766D01*
X140061Y70179D01*
X140647Y69788D01*
X141339Y69650D01*
X142030Y69788D01*
X142616Y70179D01*
X143007Y70766D01*
X143145Y71457D01*
X143007Y72148D01*
X143059Y72244D01*
X143110D01*
Y75394D01*
D02*
G37*
G36*
X46063Y70276D02*
X45079D01*
Y69095D01*
X46063D01*
Y70276D01*
D02*
G37*
G36*
X43898D02*
X42913D01*
Y69095D01*
X43898D01*
Y70276D01*
D02*
G37*
G36*
X117008Y98323D02*
X109528D01*
Y74701D01*
X117008D01*
Y77032D01*
X120520D01*
Y76274D01*
X120457Y76179D01*
X120320Y75488D01*
X120321Y75481D01*
X120004Y75094D01*
X119764D01*
Y71551D01*
X124488D01*
Y75094D01*
X124248D01*
X123931Y75481D01*
X123932Y75488D01*
X123795Y76179D01*
X123732Y76274D01*
Y77063D01*
X123898D01*
Y80213D01*
X122281D01*
X122126Y80243D01*
X117008D01*
Y98323D01*
D02*
G37*
G36*
X-89370Y100348D02*
X-93701D01*
X-94153Y100161D01*
X-94340Y99709D01*
Y90260D01*
X-94153Y89808D01*
X-93701Y89621D01*
X-89370D01*
X-88918Y89808D01*
X-88731Y90260D01*
Y90949D01*
X-87043D01*
Y88025D01*
X-96260D01*
X-96405Y87996D01*
X-99508D01*
Y85043D01*
Y82484D01*
Y79925D01*
Y77366D01*
X-97865D01*
Y72543D01*
X-98425D01*
Y48921D01*
X-90945D01*
Y57158D01*
X-85039D01*
Y55221D01*
X-77165D01*
Y66244D01*
X-85039D01*
Y64306D01*
X-90945D01*
Y72543D01*
X-94654D01*
Y77366D01*
X-93012D01*
Y79925D01*
Y82484D01*
Y85014D01*
X-87043D01*
Y83764D01*
X-86905Y83073D01*
X-86514Y82486D01*
X-86466Y82439D01*
Y80024D01*
X-86279Y79572D01*
X-85827Y79384D01*
X-85039D01*
Y70969D01*
X-77165D01*
Y79384D01*
X-76378D01*
X-75926Y79572D01*
X-75739Y80024D01*
Y84354D01*
X-75926Y84806D01*
X-76378Y84993D01*
X-77559D01*
Y86520D01*
X-81102D01*
Y84993D01*
X-83430D01*
Y87110D01*
Y92228D01*
X-83567Y92920D01*
X-83959Y93506D01*
X-85039Y94586D01*
Y99020D01*
X-88731D01*
Y99709D01*
X-88918Y100161D01*
X-89370Y100348D01*
D02*
G37*
G36*
X-122047Y76511D02*
X-122662Y76389D01*
X-123183Y76041D01*
X-123415Y75693D01*
X-124409D01*
Y72150D01*
X-123653D01*
Y70212D01*
X-124307D01*
X-124307Y70212D01*
X-124922Y70090D01*
X-125443Y69742D01*
X-133812Y61372D01*
X-134161Y60851D01*
X-134181Y60749D01*
X-134283Y60236D01*
X-134283Y60236D01*
Y35650D01*
X-134462Y35575D01*
X-135203Y35007D01*
X-135771Y34267D01*
X-136128Y33405D01*
X-136249Y32480D01*
X-136568Y32118D01*
X-147835D01*
Y33705D01*
X-170669D01*
Y27406D01*
X-147835D01*
Y28906D01*
X-134644D01*
X-134644Y28906D01*
X-134132Y29008D01*
X-134030Y29028D01*
X-133866Y29138D01*
X-133601Y29028D01*
X-132676Y28906D01*
X-131751Y29028D01*
X-130889Y29385D01*
X-130148Y29953D01*
X-129580Y30693D01*
X-129224Y31555D01*
X-129102Y32480D01*
X-129224Y33405D01*
X-129580Y34267D01*
X-130148Y35007D01*
X-130889Y35575D01*
X-131071Y35651D01*
Y59571D01*
X-124281Y66362D01*
X-123819Y66171D01*
Y66171D01*
X-123819D01*
Y65260D01*
X-122638D01*
Y66244D01*
X-123745D01*
X-123881Y66571D01*
X-123937Y66706D01*
X-123642Y67001D01*
X-116929D01*
Y48921D01*
X-109449D01*
Y72543D01*
X-116929D01*
Y70212D01*
X-120442D01*
Y72150D01*
X-119685D01*
Y75693D01*
X-120679D01*
X-120912Y76041D01*
X-121433Y76389D01*
X-122047Y76511D01*
D02*
G37*
G36*
X46063Y67913D02*
X45079D01*
Y66732D01*
X46063D01*
Y67913D01*
D02*
G37*
G36*
X108051Y69091D02*
X104705D01*
Y65153D01*
X108051D01*
Y69091D01*
D02*
G37*
G36*
X103524D02*
X100177D01*
Y65153D01*
X103524D01*
Y69091D01*
D02*
G37*
G36*
X115138Y65252D02*
X108642D01*
Y64366D01*
Y63874D01*
X115138D01*
Y64366D01*
Y65252D01*
D02*
G37*
G36*
X43898Y67913D02*
X42913D01*
Y66732D01*
X43898D01*
Y67913D01*
D02*
G37*
G36*
X111890Y73460D02*
X111198Y73322D01*
X110612Y72931D01*
X110221Y72345D01*
X110083Y71653D01*
X110221Y70962D01*
X110612Y70376D01*
X110642Y70356D01*
X110497Y69878D01*
X108642D01*
Y66925D01*
Y66433D01*
X115138D01*
Y66925D01*
Y69878D01*
X113283D01*
X113137Y70356D01*
X113167Y70376D01*
X113559Y70962D01*
X113696Y71653D01*
X113559Y72345D01*
X113167Y72931D01*
X112581Y73322D01*
X111890Y73460D01*
D02*
G37*
G36*
X-120276Y66244D02*
X-121457D01*
Y65260D01*
X-120276D01*
Y66244D01*
D02*
G37*
G36*
X43898Y72806D02*
X42913D01*
Y71625D01*
X43898D01*
Y72806D01*
D02*
G37*
G36*
X-104626Y82091D02*
X-107972D01*
Y78154D01*
X-104626D01*
Y82091D01*
D02*
G37*
G36*
X-139567Y77756D02*
X-140748D01*
Y76772D01*
X-139567D01*
Y77756D01*
D02*
G37*
G36*
X-141929D02*
X-143110D01*
Y76772D01*
X-141929D01*
Y77756D01*
D02*
G37*
G36*
X-139567Y79921D02*
X-140748D01*
Y78937D01*
X-139567D01*
Y79921D01*
D02*
G37*
G36*
X-141929D02*
X-143110D01*
Y78937D01*
X-141929D01*
Y79921D01*
D02*
G37*
G36*
X-100098Y82091D02*
X-103445D01*
Y78154D01*
X-100098D01*
Y82091D01*
D02*
G37*
G36*
X46063Y77756D02*
X45079D01*
Y76575D01*
X46063D01*
Y77756D01*
D02*
G37*
G36*
X43898Y75168D02*
X42913D01*
Y73987D01*
X43898D01*
Y75168D01*
D02*
G37*
G36*
X-108563Y80811D02*
X-115059D01*
Y79925D01*
Y77366D01*
X-113204D01*
X-113059Y76888D01*
X-113088Y76868D01*
X-113480Y76282D01*
X-113617Y75591D01*
X-113480Y74899D01*
X-113088Y74313D01*
X-112502Y73922D01*
X-111811Y73784D01*
X-111120Y73922D01*
X-110534Y74313D01*
X-110142Y74899D01*
X-110005Y75591D01*
X-110142Y76282D01*
X-110534Y76868D01*
X-110808Y77051D01*
Y77366D01*
X-108563D01*
Y79925D01*
Y80811D01*
D02*
G37*
G36*
X46063Y72806D02*
X45079D01*
Y71625D01*
X46063D01*
Y72806D01*
D02*
G37*
G36*
X43898Y77756D02*
X42913D01*
Y76575D01*
X43898D01*
Y77756D01*
D02*
G37*
G36*
X50984Y97342D02*
X47047D01*
Y91043D01*
X50037D01*
X60010Y81069D01*
Y76157D01*
X59532Y76012D01*
X59234Y76458D01*
X48720Y86971D01*
Y88976D01*
X45177D01*
Y84252D01*
X47182D01*
X56664Y74770D01*
Y50542D01*
X56500Y50298D01*
X56363Y49606D01*
X56500Y48915D01*
X56892Y48329D01*
X57478Y47937D01*
X58169Y47800D01*
X58861Y47937D01*
X59447Y48329D01*
X59592Y48547D01*
X60093D01*
X60238Y48329D01*
X60825Y47937D01*
X61516Y47800D01*
X62207Y47937D01*
X62793Y48329D01*
X63185Y48915D01*
X63322Y49606D01*
X63185Y50298D01*
X63021Y50542D01*
Y81693D01*
X62906Y82269D01*
X62580Y82757D01*
X50984Y94353D01*
Y97342D01*
D02*
G37*
G36*
X46063Y75168D02*
X45079D01*
Y73987D01*
X46063D01*
Y75168D01*
D02*
G37*
G36*
X-139567Y89764D02*
X-140748D01*
Y88779D01*
X-139567D01*
Y89764D01*
D02*
G37*
G36*
X-113978Y120381D02*
X-118316D01*
Y115374D01*
X-113978D01*
Y116874D01*
X-111423D01*
Y116362D01*
X-107879D01*
Y116933D01*
X-107290D01*
X-107107Y116659D01*
X-106521Y116268D01*
X-105830Y116130D01*
X-105139Y116268D01*
X-104553Y116659D01*
X-104161Y117245D01*
X-104024Y117937D01*
X-104161Y118628D01*
X-104553Y119214D01*
X-105139Y119605D01*
X-105830Y119743D01*
X-106521Y119605D01*
X-107107Y119214D01*
X-107290Y118940D01*
X-107879D01*
Y119511D01*
X-111423D01*
Y118881D01*
X-113978D01*
Y120381D01*
D02*
G37*
G36*
X-121458Y117287D02*
X-123037D01*
Y115374D01*
X-121458D01*
Y117287D01*
D02*
G37*
G36*
X-124218D02*
X-125797D01*
Y115374D01*
X-124218D01*
Y117287D01*
D02*
G37*
G36*
Y120381D02*
X-125797D01*
Y118468D01*
X-124218D01*
Y120381D01*
D02*
G37*
G36*
X112898Y119965D02*
X111319D01*
Y118051D01*
X112898D01*
Y119965D01*
D02*
G37*
G36*
X110138D02*
X108559D01*
Y118051D01*
X110138D01*
Y119965D01*
D02*
G37*
G36*
X-107879Y115574D02*
X-109061D01*
Y114590D01*
X-107879D01*
Y115574D01*
D02*
G37*
G36*
Y113409D02*
X-109061D01*
Y112425D01*
X-107879D01*
Y113409D01*
D02*
G37*
G36*
X-110242D02*
X-111423D01*
Y112425D01*
X-110242D01*
Y113409D01*
D02*
G37*
G36*
X126279Y112992D02*
X125098D01*
Y112008D01*
X126279D01*
Y112992D01*
D02*
G37*
G36*
X-110242Y115574D02*
X-111423D01*
Y114590D01*
X-110242D01*
Y115574D01*
D02*
G37*
G36*
X126279Y115157D02*
X125098D01*
Y114173D01*
X126279D01*
Y115157D01*
D02*
G37*
G36*
X123917D02*
X122736D01*
Y114173D01*
X123917D01*
Y115157D01*
D02*
G37*
G36*
X-121458Y120381D02*
X-123037D01*
Y118468D01*
X-121458D01*
Y120381D01*
D02*
G37*
G36*
X26969Y129921D02*
X24016D01*
Y128150D01*
X26969D01*
Y129921D01*
D02*
G37*
G36*
X-39764D02*
X-42717D01*
Y128150D01*
X-39764D01*
Y129921D01*
D02*
G37*
G36*
X-43898D02*
X-46850D01*
Y128150D01*
X-43898D01*
Y129921D01*
D02*
G37*
G36*
X-51575Y130315D02*
X-53346D01*
Y129134D01*
X-51575D01*
Y130315D01*
D02*
G37*
G36*
X-54527D02*
X-56299D01*
Y129134D01*
X-54527D01*
Y130315D01*
D02*
G37*
G36*
X31102Y129921D02*
X28150D01*
Y128150D01*
X31102D01*
Y129921D01*
D02*
G37*
G36*
X-58169Y129921D02*
X-61614D01*
Y127559D01*
X-58169D01*
Y129921D01*
D02*
G37*
G36*
Y126378D02*
X-61614D01*
Y124016D01*
X-58169D01*
Y126378D01*
D02*
G37*
G36*
X-62795D02*
X-66240D01*
Y124016D01*
X-62795D01*
Y126378D01*
D02*
G37*
G36*
X31102Y126969D02*
X24016D01*
Y125275D01*
X24016Y125275D01*
X24016D01*
X24016Y125197D01*
Y124921D01*
D01*
D01*
D01*
D01*
X24016D01*
Y120275D01*
X24016Y120275D01*
X24016D01*
X24016Y120197D01*
Y119921D01*
D01*
D01*
X24016D01*
Y115275D01*
X24016Y115275D01*
X24016D01*
X24016Y115197D01*
Y114921D01*
D01*
D01*
X24016D01*
Y113563D01*
X23287D01*
X22903Y113486D01*
X22578Y113269D01*
X18385Y109076D01*
X18167Y108750D01*
X18091Y108366D01*
Y105241D01*
X17629Y105050D01*
X4410Y118269D01*
X4085Y118486D01*
X3701Y118563D01*
X-39764D01*
Y119921D01*
D01*
Y119921D01*
X-39764Y119921D01*
Y120197D01*
X-39764D01*
Y124843D01*
X-39764Y124843D01*
D01*
D01*
X-39764Y124921D01*
Y124975D01*
Y125059D01*
Y125098D01*
Y125197D01*
X-39764Y125253D01*
X-39764Y125275D01*
X-39764Y125275D01*
X-39764D01*
Y126969D01*
X-46850D01*
Y125275D01*
X-46850Y125275D01*
X-46850D01*
X-46850Y125197D01*
Y124921D01*
D01*
D01*
D01*
D01*
X-46850D01*
Y124243D01*
X-51575D01*
Y124409D01*
X-56299D01*
Y124165D01*
X-56418Y124142D01*
X-56520Y124121D01*
X-57041Y123773D01*
X-57041Y123773D01*
X-62310Y118504D01*
X-66240D01*
Y114812D01*
X-66929D01*
X-67381Y114625D01*
X-67568Y114173D01*
Y109843D01*
X-67381Y109391D01*
X-66929Y109203D01*
X-62165D01*
X-61811Y108850D01*
Y107283D01*
X-58268D01*
Y108850D01*
X-58268Y108850D01*
D01*
D01*
X-58268Y109055D01*
D01*
X-58119Y109203D01*
X-57480D01*
X-57028Y109391D01*
X-56841Y109843D01*
Y114173D01*
X-57028Y114625D01*
X-57480Y114812D01*
X-58169D01*
Y115323D01*
X-53937D01*
X-53782Y115354D01*
X-53647D01*
X-53456Y114892D01*
X-53781Y114567D01*
X-55709D01*
Y111417D01*
X-54940D01*
Y109055D01*
X-55905D01*
Y104331D01*
X-55905Y104331D01*
X-55905D01*
X-55860Y104221D01*
X-57346Y102734D01*
X-58130Y103059D01*
X-59055Y103181D01*
X-59980Y103059D01*
X-60842Y102702D01*
X-61582Y102134D01*
X-62150Y101394D01*
X-62507Y100532D01*
X-62629Y99607D01*
X-62507Y98682D01*
X-62150Y97820D01*
X-61615Y97122D01*
X-61836Y96674D01*
X-64447D01*
X-92598Y124824D01*
X-92923Y125041D01*
X-93307Y125118D01*
X-125787D01*
X-126171Y125041D01*
X-126497Y124824D01*
X-133387Y117934D01*
X-133604Y117609D01*
X-133680Y117225D01*
Y109326D01*
X-134464Y109001D01*
X-135204Y108433D01*
X-135772Y107693D01*
X-136129Y106831D01*
X-136251Y105906D01*
X-136129Y104981D01*
X-135804Y104198D01*
X-137030Y102972D01*
X-139567D01*
Y103543D01*
X-140335D01*
Y104921D01*
X-139567D01*
Y108071D01*
X-143110D01*
Y104921D01*
X-142342D01*
Y103543D01*
X-143110D01*
Y102972D01*
X-147835D01*
Y105118D01*
X-170669D01*
Y98819D01*
X-147835D01*
Y100965D01*
X-143110D01*
Y100394D01*
X-139567D01*
Y100965D01*
X-136615D01*
X-136231Y101041D01*
X-135905Y101259D01*
X-134385Y102778D01*
X-133602Y102454D01*
X-132677Y102332D01*
X-131752Y102454D01*
X-130890Y102811D01*
X-130201Y103339D01*
X-129753Y103118D01*
Y94913D01*
X-130201Y94692D01*
X-130891Y95221D01*
X-131753Y95578D01*
X-132678Y95700D01*
X-133603Y95578D01*
X-134465Y95221D01*
X-135205Y94653D01*
X-135773Y93913D01*
X-135889Y93631D01*
X-139567D01*
Y93701D01*
X-143110D01*
Y93631D01*
X-147835D01*
Y95276D01*
X-170669D01*
Y88976D01*
X-147835D01*
Y90621D01*
X-143110D01*
Y90551D01*
X-139567D01*
Y90621D01*
X-135889D01*
X-135773Y90339D01*
X-135205Y89599D01*
X-134465Y89031D01*
X-133603Y88674D01*
X-132678Y88552D01*
X-131753Y88674D01*
X-130891Y89031D01*
X-130201Y89560D01*
X-129753Y89339D01*
Y83400D01*
X-131471Y81682D01*
X-131753Y81799D01*
X-132678Y81920D01*
X-133603Y81799D01*
X-133884Y81682D01*
X-135550Y83348D01*
X-136039Y83674D01*
X-136615Y83789D01*
X-139567D01*
Y83858D01*
X-143110D01*
Y83789D01*
X-147835D01*
Y85433D01*
X-170669D01*
Y79134D01*
X-147835D01*
Y80778D01*
X-143110D01*
Y80709D01*
X-139567D01*
Y80778D01*
X-137238D01*
X-136013Y79553D01*
X-136130Y79272D01*
X-136251Y78347D01*
X-136130Y77421D01*
X-135773Y76560D01*
X-135205Y75819D01*
X-134465Y75251D01*
X-133603Y74894D01*
X-132678Y74773D01*
X-131753Y74894D01*
X-130891Y75251D01*
X-130150Y75819D01*
X-129583Y76560D01*
X-129226Y77421D01*
X-129104Y78347D01*
X-129226Y79272D01*
X-129342Y79553D01*
X-127183Y81712D01*
X-126857Y82200D01*
X-126742Y82776D01*
Y99121D01*
X-126378Y99365D01*
X-125197D01*
Y97248D01*
X-118898D01*
Y99365D01*
X-117323D01*
X-116871Y99552D01*
X-116684Y100004D01*
Y104335D01*
X-116871Y104787D01*
X-117323Y104974D01*
X-126378D01*
X-126742Y105218D01*
Y105479D01*
X-122818Y109404D01*
X-122057D01*
Y108405D01*
X-117718D01*
Y113413D01*
X-122057D01*
Y112414D01*
X-123442D01*
X-124018Y112300D01*
X-124506Y111973D01*
X-129031Y107449D01*
X-129521Y107546D01*
X-129582Y107693D01*
X-130150Y108433D01*
X-130890Y109001D01*
X-131673Y109326D01*
Y116809D01*
X-125372Y123111D01*
X-93723D01*
X-65573Y94960D01*
X-65247Y94743D01*
X-64863Y94666D01*
X-61417D01*
Y94291D01*
X-61417D01*
Y93110D01*
X-58268D01*
Y94291D01*
X-58268D01*
Y94313D01*
X-57914Y94666D01*
X-57480D01*
Y94291D01*
X-57480D01*
Y90748D01*
X-54331D01*
Y91516D01*
X-51828D01*
X-51671Y91282D01*
X-51085Y90890D01*
X-50394Y90753D01*
X-49702Y90890D01*
X-49116Y91282D01*
X-48934Y91556D01*
X-46850D01*
Y90275D01*
X-46850Y90275D01*
X-46850D01*
X-46850Y90197D01*
Y89921D01*
D01*
D01*
D01*
D01*
X-46850D01*
Y88563D01*
X-48934D01*
X-49116Y88836D01*
X-49702Y89228D01*
X-50394Y89365D01*
X-51085Y89228D01*
X-51671Y88836D01*
X-51887Y88513D01*
X-54331D01*
Y89281D01*
X-57480D01*
Y85737D01*
X-54331D01*
Y86506D01*
X-51820D01*
X-51671Y86282D01*
X-51085Y85890D01*
X-50394Y85753D01*
X-49702Y85890D01*
X-49116Y86282D01*
X-48934Y86555D01*
X-46850D01*
Y85275D01*
X-46850Y85275D01*
X-46850D01*
X-46850Y85197D01*
Y84921D01*
D01*
D01*
D01*
D01*
X-46850D01*
Y83563D01*
X-48934D01*
X-49116Y83836D01*
X-49702Y84228D01*
X-50394Y84365D01*
X-51085Y84228D01*
X-51671Y83836D01*
X-51854Y83563D01*
X-54331D01*
Y84281D01*
X-57480D01*
Y80737D01*
X-54331D01*
Y81555D01*
X-51854D01*
X-51671Y81282D01*
X-51085Y80890D01*
X-50394Y80753D01*
X-49702Y80890D01*
X-49116Y81282D01*
X-48934Y81555D01*
X-46850D01*
Y80275D01*
X-46850Y80275D01*
X-46850D01*
X-46850Y80197D01*
Y79921D01*
D01*
D01*
X-46850D01*
Y78563D01*
X-62992D01*
X-63376Y78486D01*
X-63484Y78414D01*
X-63702Y78269D01*
X-67402Y74568D01*
X-67620Y74242D01*
X-67696Y73858D01*
Y32815D01*
X-67696Y32815D01*
X-67696D01*
X-67620Y32431D01*
X-67402Y32105D01*
X-53751Y18453D01*
X-54116Y17571D01*
X-54245Y16594D01*
X-54116Y15618D01*
X-53751Y14735D01*
X-67402Y1084D01*
X-67620Y758D01*
X-67696Y374D01*
Y-73462D01*
X-74923Y-80689D01*
X-108071D01*
X-108456Y-80766D01*
X-108781Y-80983D01*
X-114433Y-86636D01*
X-115217Y-86311D01*
X-116142Y-86189D01*
X-117067Y-86311D01*
X-117929Y-86668D01*
X-118669Y-87236D01*
X-119237Y-87976D01*
X-119594Y-88838D01*
X-119716Y-89763D01*
X-119594Y-90688D01*
X-119237Y-91550D01*
X-118669Y-92290D01*
X-117929Y-92858D01*
X-117067Y-93215D01*
X-116142Y-93337D01*
X-115788Y-93291D01*
X-115524Y-93715D01*
X-115842Y-94191D01*
X-115980Y-94882D01*
X-115842Y-95573D01*
X-115748Y-95714D01*
Y-99016D01*
X-112598D01*
Y-95714D01*
X-112504Y-95573D01*
X-112483Y-95465D01*
X-112213Y-95383D01*
X-111811Y-95681D01*
Y-99016D01*
X-111240D01*
Y-100591D01*
X-111811D01*
Y-104134D01*
X-111240D01*
Y-108465D01*
X-113386D01*
Y-131299D01*
X-107087D01*
Y-108465D01*
X-109233D01*
Y-104134D01*
X-108661D01*
Y-100591D01*
X-109233D01*
Y-99016D01*
X-108661D01*
Y-95472D01*
X-109272D01*
X-109309Y-95285D01*
X-109527Y-94960D01*
X-113014Y-91472D01*
X-112690Y-90688D01*
X-112568Y-89763D01*
X-112690Y-88838D01*
X-113014Y-88055D01*
X-107656Y-82696D01*
X-98352D01*
X-98161Y-83158D01*
X-101638Y-86636D01*
X-102421Y-86311D01*
X-103347Y-86189D01*
X-104271Y-86311D01*
X-105133Y-86668D01*
X-105874Y-87236D01*
X-106441Y-87976D01*
X-106799Y-88838D01*
X-106920Y-89763D01*
X-106799Y-90688D01*
X-106441Y-91550D01*
X-105874Y-92290D01*
X-105175Y-92826D01*
X-105180Y-92970D01*
X-105379Y-93452D01*
X-105608Y-93605D01*
X-106000Y-94191D01*
X-106137Y-94882D01*
X-106000Y-95573D01*
X-105905Y-95714D01*
Y-99016D01*
X-102756D01*
Y-95714D01*
X-102662Y-95573D01*
X-102524Y-94882D01*
X-102662Y-94191D01*
X-103053Y-93605D01*
X-103368Y-93394D01*
X-103346Y-93337D01*
X-102421Y-93215D01*
X-101813Y-92963D01*
X-101397Y-93241D01*
Y-95472D01*
X-101969D01*
Y-99016D01*
X-101397D01*
Y-100591D01*
X-101969D01*
Y-104134D01*
X-101397D01*
Y-108465D01*
X-103543D01*
Y-131299D01*
X-97244D01*
Y-108465D01*
X-99390D01*
Y-104134D01*
X-98819D01*
Y-100591D01*
X-99390D01*
Y-99016D01*
X-98819D01*
Y-95472D01*
X-99390D01*
Y-92716D01*
X-99467Y-92333D01*
X-99539Y-92224D01*
X-99684Y-92007D01*
X-100219Y-91472D01*
X-99894Y-90688D01*
X-99773Y-89763D01*
X-99894Y-88838D01*
X-100219Y-88055D01*
X-96239Y-84074D01*
X-86935D01*
X-86744Y-84536D01*
X-88843Y-86636D01*
X-89626Y-86311D01*
X-90551Y-86189D01*
X-91476Y-86311D01*
X-92338Y-86668D01*
X-93078Y-87236D01*
X-93646Y-87976D01*
X-94003Y-88838D01*
X-94125Y-89763D01*
X-94003Y-90688D01*
X-93646Y-91550D01*
X-93078Y-92290D01*
X-92338Y-92858D01*
X-91555Y-93183D01*
Y-100591D01*
X-92126D01*
Y-104134D01*
X-91555D01*
Y-108465D01*
X-93701D01*
Y-131299D01*
X-87402D01*
Y-108465D01*
X-89548D01*
Y-104134D01*
X-88976D01*
Y-100591D01*
X-89548D01*
Y-93183D01*
X-88764Y-92858D01*
X-88024Y-92290D01*
X-87456Y-91550D01*
X-87099Y-90688D01*
X-86977Y-89763D01*
X-87099Y-88838D01*
X-87424Y-88055D01*
X-84821Y-85452D01*
X-73366D01*
X-72982Y-85376D01*
X-72657Y-85158D01*
X-63227Y-75729D01*
X-63082Y-75511D01*
X-63010Y-75403D01*
X-62933Y-75020D01*
Y-17286D01*
X-52332Y-6684D01*
X-51449Y-7049D01*
X-50472Y-7178D01*
X-49496Y-7049D01*
X-48586Y-6673D01*
X-47805Y-6073D01*
X-47205Y-5292D01*
X-46829Y-4382D01*
X-46700Y-3405D01*
X-46829Y-2429D01*
X-47205Y-1519D01*
X-47805Y-738D01*
X-48586Y-138D01*
X-49496Y238D01*
X-50472Y367D01*
X-51449Y238D01*
X-52359Y-138D01*
X-53140Y-738D01*
X-53739Y-1519D01*
X-54116Y-2429D01*
X-54245Y-3405D01*
X-54116Y-4382D01*
X-53751Y-5265D01*
X-63850Y-15363D01*
X-64311Y-15172D01*
Y-8664D01*
X-52332Y3316D01*
X-51449Y2951D01*
X-50472Y2822D01*
X-49496Y2951D01*
X-48586Y3328D01*
X-47805Y3927D01*
X-47205Y4708D01*
X-46829Y5618D01*
X-46700Y6594D01*
X-46829Y7571D01*
X-47194Y8454D01*
X-44763Y10885D01*
X-44545Y11210D01*
X-44469Y11594D01*
X-44469Y11594D01*
X-44469Y11594D01*
Y11594D01*
Y15188D01*
X-43979Y15285D01*
X-43739Y14708D01*
X-43140Y13927D01*
X-42359Y13328D01*
X-41449Y12951D01*
X-40472Y12822D01*
X-39496Y12951D01*
X-38586Y13328D01*
X-37805Y13927D01*
X-37205Y14708D01*
X-36829Y15618D01*
X-36700Y16594D01*
X-36829Y17571D01*
X-37205Y18481D01*
X-37805Y19262D01*
X-38586Y19861D01*
X-39496Y20238D01*
X-40472Y20367D01*
X-41449Y20238D01*
X-42359Y19861D01*
X-43140Y19262D01*
X-43739Y18481D01*
X-43979Y17904D01*
X-44469Y18001D01*
Y25188D01*
X-43979Y25285D01*
X-43739Y24708D01*
X-43140Y23927D01*
X-42359Y23327D01*
X-41449Y22951D01*
X-40472Y22822D01*
X-39496Y22951D01*
X-38586Y23327D01*
X-37805Y23927D01*
X-37205Y24708D01*
X-36829Y25618D01*
X-36700Y26594D01*
X-36829Y27571D01*
X-37205Y28481D01*
X-37805Y29262D01*
X-38586Y29862D01*
X-39496Y30238D01*
X-40472Y30367D01*
X-41449Y30238D01*
X-42359Y29862D01*
X-43140Y29262D01*
X-43739Y28481D01*
X-43979Y27904D01*
X-44469Y28001D01*
Y35188D01*
X-43979Y35285D01*
X-43739Y34708D01*
X-43140Y33927D01*
X-42359Y33327D01*
X-41449Y32951D01*
X-40472Y32822D01*
X-39496Y32951D01*
X-38586Y33327D01*
X-37805Y33927D01*
X-37205Y34708D01*
X-36829Y35618D01*
X-36700Y36595D01*
X-36829Y37571D01*
X-37205Y38481D01*
X-37805Y39262D01*
X-38586Y39862D01*
X-39496Y40238D01*
X-40472Y40367D01*
X-41449Y40238D01*
X-42359Y39862D01*
X-43140Y39262D01*
X-43739Y38481D01*
X-43979Y37904D01*
X-44469Y38001D01*
Y38583D01*
X-44545Y38967D01*
X-44618Y39075D01*
X-44763Y39292D01*
X-60270Y54799D01*
X-59992Y55215D01*
X-59980Y55210D01*
X-59055Y55088D01*
X-58130Y55210D01*
X-57268Y55567D01*
X-56528Y56135D01*
X-55960Y56875D01*
X-55603Y57737D01*
X-55481Y58662D01*
X-55603Y59587D01*
X-55927Y60370D01*
X-54742Y61555D01*
X-46850D01*
Y60197D01*
X-42364D01*
X-35846Y53679D01*
Y44783D01*
X-35846Y44783D01*
X-35846D01*
X-35770Y44399D01*
X-35552Y44074D01*
X-1496Y10017D01*
Y1280D01*
X-1496Y1280D01*
X-1496D01*
X-1419Y895D01*
X-1202Y570D01*
X6367Y-6999D01*
X6176Y-7461D01*
X-34998D01*
X-37194Y-5265D01*
X-36829Y-4382D01*
X-36700Y-3405D01*
X-36829Y-2429D01*
X-37205Y-1519D01*
X-37805Y-738D01*
X-38586Y-138D01*
X-39496Y238D01*
X-40472Y367D01*
X-41449Y238D01*
X-42359Y-138D01*
X-43140Y-738D01*
X-43739Y-1519D01*
X-44116Y-2429D01*
X-44245Y-3405D01*
X-44116Y-4382D01*
X-43739Y-5292D01*
X-43140Y-6073D01*
X-42359Y-6673D01*
X-41449Y-7049D01*
X-40472Y-7178D01*
X-39496Y-7049D01*
X-38613Y-6684D01*
X-36123Y-9174D01*
X-35797Y-9392D01*
X-35413Y-9468D01*
X-14519D01*
X-14422Y-9958D01*
X-15271Y-10311D01*
X-16011Y-10878D01*
X-16579Y-11619D01*
X-16936Y-12481D01*
X-17058Y-13406D01*
X-16936Y-14331D01*
X-16579Y-15192D01*
X-16011Y-15933D01*
X-15271Y-16501D01*
X-14409Y-16858D01*
X-13484Y-16979D01*
X-12559Y-16858D01*
X-11697Y-16501D01*
X-10957Y-15933D01*
X-10389Y-15192D01*
X-10032Y-14331D01*
X-9910Y-13406D01*
X-10032Y-12481D01*
X-10389Y-11619D01*
X-10957Y-10878D01*
X-11697Y-10311D01*
X-12547Y-9958D01*
X-12449Y-9468D01*
X39252D01*
X39636Y-9392D01*
X39961Y-9174D01*
X46576Y-2560D01*
X46721Y-2342D01*
X46793Y-2234D01*
X46870Y-1850D01*
Y32999D01*
X46793Y33383D01*
X46576Y33709D01*
X36330Y43955D01*
X36521Y44416D01*
X38189D01*
X38189Y44416D01*
Y44416D01*
X38397Y44528D01*
X38410Y44519D01*
X39102Y44382D01*
X39793Y44519D01*
X40379Y44911D01*
X40770Y45497D01*
X40908Y46188D01*
X40770Y46879D01*
X40379Y47466D01*
X39793Y47857D01*
X39102Y47995D01*
X38410Y47857D01*
X38397Y47848D01*
X38189Y47960D01*
Y47960D01*
X38189Y47960D01*
X35039D01*
Y45899D01*
X34577Y45707D01*
X34252Y46033D01*
Y47960D01*
X31102D01*
Y47460D01*
X29331D01*
Y48031D01*
X28563D01*
Y60197D01*
X31102D01*
Y61555D01*
X39904D01*
X40212Y60812D01*
X40780Y60072D01*
X41520Y59504D01*
X42382Y59147D01*
X43307Y59025D01*
X44232Y59147D01*
X45094Y59504D01*
X45834Y60072D01*
X46402Y60812D01*
X46759Y61674D01*
X46881Y62599D01*
X46759Y63524D01*
X46402Y64386D01*
X45834Y65126D01*
X45094Y65694D01*
X44232Y66051D01*
X43307Y66173D01*
X42382Y66051D01*
X41520Y65694D01*
X40780Y65126D01*
X40212Y64386D01*
X39871Y63563D01*
X31102D01*
Y64843D01*
X31102Y64843D01*
D01*
D01*
X31102Y64921D01*
Y64975D01*
Y65059D01*
Y65098D01*
Y65197D01*
X31102Y65253D01*
X31102Y65275D01*
X31102Y65275D01*
X31102D01*
Y67343D01*
X33579D01*
X33762Y67069D01*
X34348Y66678D01*
X35039Y66540D01*
X35731Y66678D01*
X36317Y67069D01*
X36526Y67382D01*
X38976D01*
Y66732D01*
X42126D01*
Y70276D01*
X38976D01*
Y69389D01*
X36473D01*
X36317Y69624D01*
X35731Y70015D01*
X35039Y70153D01*
X34348Y70015D01*
X33762Y69624D01*
X33579Y69350D01*
X31102D01*
Y69843D01*
X31102Y69843D01*
D01*
D01*
X31102Y69921D01*
Y69975D01*
Y70059D01*
Y70098D01*
Y70197D01*
X31102Y70253D01*
X31102Y70275D01*
X31102Y70275D01*
X31102D01*
Y72343D01*
X33579D01*
X33762Y72069D01*
X34348Y71678D01*
X35039Y71540D01*
X35731Y71678D01*
X36317Y72069D01*
X36533Y72393D01*
X38976D01*
Y71625D01*
X42126D01*
Y75168D01*
X38976D01*
Y74400D01*
X36466D01*
X36317Y74624D01*
X35731Y75015D01*
X35039Y75153D01*
X34348Y75015D01*
X33762Y74624D01*
X33579Y74350D01*
X31102D01*
Y74843D01*
X31102Y74843D01*
D01*
D01*
X31102Y74921D01*
Y74975D01*
Y75059D01*
Y75098D01*
Y75197D01*
X31102Y75253D01*
X31102Y75275D01*
X31102Y75275D01*
X31102D01*
Y77343D01*
X33579D01*
X33762Y77069D01*
X34348Y76678D01*
X35039Y76540D01*
X35731Y76678D01*
X36317Y77069D01*
X36500Y77343D01*
X38976D01*
Y76575D01*
X42126D01*
Y80118D01*
X38976D01*
Y79350D01*
X36500D01*
X36317Y79624D01*
X35731Y80015D01*
X35039Y80153D01*
X34348Y80015D01*
X33762Y79624D01*
X33579Y79350D01*
X31102D01*
Y79843D01*
X31102Y79843D01*
D01*
D01*
X31102Y79921D01*
Y79975D01*
Y80059D01*
Y80098D01*
Y80197D01*
X31102Y80253D01*
X31102Y80275D01*
X31102Y80275D01*
X31102D01*
Y84843D01*
X31102Y84843D01*
D01*
D01*
X31102Y84921D01*
Y84975D01*
Y85059D01*
Y85098D01*
Y85197D01*
X31102Y85253D01*
X31102Y85275D01*
X31102Y85275D01*
X31102D01*
Y86154D01*
X39272D01*
Y84252D01*
X42815D01*
Y88976D01*
X39272D01*
Y88964D01*
X31102D01*
Y89843D01*
X31102Y89843D01*
D01*
D01*
X31102Y89921D01*
Y89975D01*
Y90059D01*
Y90098D01*
Y90197D01*
X31102Y90253D01*
X31102Y90275D01*
X31102Y90275D01*
X31102D01*
Y91154D01*
X39567D01*
Y91043D01*
X43504D01*
Y97342D01*
X39567D01*
Y93964D01*
X31102D01*
Y94843D01*
X31102Y94843D01*
D01*
D01*
X31102Y94921D01*
Y94975D01*
Y95059D01*
Y95098D01*
Y95197D01*
X31102Y95253D01*
X31102Y95275D01*
X31102Y95275D01*
X31102D01*
Y96556D01*
X34288D01*
X34471Y96282D01*
X35057Y95890D01*
X35748Y95753D01*
X36439Y95890D01*
X37025Y96282D01*
X37417Y96868D01*
X37554Y97559D01*
X37417Y98250D01*
X37025Y98836D01*
X36439Y99228D01*
X35748Y99365D01*
X35057Y99228D01*
X34471Y98836D01*
X34288Y98563D01*
X31102D01*
Y99843D01*
X31102Y99843D01*
D01*
D01*
X31102Y99921D01*
Y99975D01*
Y100059D01*
Y100098D01*
Y100197D01*
X31102Y100253D01*
X31102Y100275D01*
X31102Y100275D01*
X31102D01*
Y101556D01*
X38309D01*
X41168Y98696D01*
X41493Y98479D01*
X41877Y98403D01*
X50142D01*
X50159Y98406D01*
X52165D01*
X52549Y98482D01*
X52875Y98700D01*
X67148Y112973D01*
X112299D01*
Y110686D01*
X112261Y110492D01*
X112299Y110299D01*
Y107988D01*
X113850D01*
X117494Y104344D01*
X117494D01*
X117494Y104344D01*
X117494D01*
X117494Y104344D01*
Y104344D01*
X117494Y104344D01*
Y104344D01*
X118210Y103866D01*
X119055Y103698D01*
X129906D01*
X130151Y103378D01*
X130891Y102811D01*
X131753Y102453D01*
X132678Y102332D01*
X133603Y102453D01*
X133884Y102570D01*
X135550Y100904D01*
X136039Y100578D01*
X136615Y100463D01*
X139469D01*
Y100394D01*
X143012D01*
Y100463D01*
X147835D01*
Y98819D01*
X170669D01*
Y105118D01*
X147835D01*
Y103474D01*
X143012D01*
Y103543D01*
X139469D01*
Y103474D01*
X137238D01*
X136013Y104699D01*
X136130Y104981D01*
X136252Y105906D01*
X136130Y106831D01*
X135773Y107693D01*
X135205Y108433D01*
X134465Y109001D01*
X133603Y109358D01*
X132678Y109479D01*
X131753Y109358D01*
X130891Y109001D01*
X130151Y108433D01*
X129906Y108113D01*
X119970D01*
X116638Y111445D01*
Y112996D01*
X115817D01*
X115625Y113458D01*
X117124Y114957D01*
X120378D01*
Y116457D01*
X122736D01*
Y115945D01*
X126279D01*
Y119095D01*
X122736D01*
Y118464D01*
X120378D01*
Y119965D01*
X116039D01*
Y116710D01*
X114309Y114980D01*
X112898D01*
Y116870D01*
X108559D01*
Y114980D01*
X66732D01*
X66348Y114903D01*
X66023Y114686D01*
X52141Y100804D01*
X51700Y101040D01*
X51806Y101575D01*
X51669Y102266D01*
X51277Y102852D01*
X51004Y103035D01*
Y106299D01*
X51772D01*
Y109449D01*
X48228D01*
Y106299D01*
X48996D01*
Y103035D01*
X48723Y102852D01*
X48331Y102266D01*
X48194Y101575D01*
X48331Y100883D01*
X48353Y100850D01*
X48118Y100409D01*
X45820D01*
X45660Y100883D01*
X45834Y101017D01*
X46402Y101757D01*
X46759Y102619D01*
X46881Y103544D01*
X46759Y104469D01*
X46402Y105331D01*
X45834Y106071D01*
X45094Y106639D01*
X44232Y106996D01*
X43307Y107118D01*
X42382Y106996D01*
X41598Y106671D01*
X40001Y108269D01*
X39675Y108486D01*
X39291Y108563D01*
X31102D01*
Y109921D01*
D01*
Y109921D01*
X31102Y109921D01*
Y110197D01*
X31102D01*
Y111556D01*
X39330D01*
X39714Y111632D01*
X40039Y111849D01*
X41598Y113408D01*
X42382Y113083D01*
X43307Y112962D01*
X44232Y113083D01*
X45094Y113440D01*
X45834Y114008D01*
X46402Y114749D01*
X46759Y115610D01*
X46881Y116535D01*
X46759Y117460D01*
X46402Y118322D01*
X45834Y119062D01*
X45094Y119631D01*
X44232Y119987D01*
X43307Y120109D01*
X42382Y119987D01*
X41520Y119631D01*
X40780Y119062D01*
X40212Y118322D01*
X39855Y117460D01*
X39733Y116535D01*
X39855Y115610D01*
X40179Y114828D01*
X38914Y113563D01*
X31102D01*
Y114843D01*
X31102Y114843D01*
D01*
D01*
X31102Y114921D01*
Y114975D01*
Y115059D01*
Y115098D01*
Y115197D01*
X31102Y115253D01*
X31102Y115275D01*
X31102Y115275D01*
X31102D01*
Y116219D01*
X31581Y116365D01*
X31636Y116282D01*
X32222Y115890D01*
X32913Y115753D01*
X33605Y115890D01*
X34191Y116282D01*
X34582Y116868D01*
X34720Y117559D01*
X34582Y118250D01*
X34191Y118836D01*
X33605Y119228D01*
X32913Y119365D01*
X32222Y119228D01*
X31636Y118836D01*
X31581Y118754D01*
X31102Y118899D01*
Y119843D01*
X31102Y119843D01*
D01*
D01*
X31102Y119921D01*
Y119975D01*
Y120059D01*
Y120098D01*
Y120197D01*
X31102Y120253D01*
X31102Y120275D01*
X31102Y120275D01*
X31102D01*
Y121555D01*
X45136D01*
X48996Y117695D01*
Y113386D01*
X48228D01*
Y110236D01*
X51772D01*
Y113386D01*
X51004D01*
Y118110D01*
X50940Y118430D01*
X50927Y118494D01*
X50710Y118820D01*
X46261Y123269D01*
X45935Y123486D01*
X45551Y123563D01*
X31102D01*
Y124843D01*
X31102Y124843D01*
D01*
D01*
X31102Y124921D01*
Y124975D01*
Y125059D01*
Y125098D01*
Y125197D01*
X31102Y125253D01*
X31102Y125275D01*
X31102Y125275D01*
X31102D01*
Y126969D01*
D02*
G37*
G36*
X-62795Y129921D02*
X-66240D01*
Y127559D01*
X-62795D01*
Y129921D01*
D02*
G37*
G36*
X-51575Y127953D02*
X-53346D01*
Y126772D01*
X-51575D01*
Y127953D01*
D02*
G37*
G36*
X-54527D02*
X-56299D01*
Y126772D01*
X-54527D01*
Y127953D01*
D02*
G37*
G36*
X123917Y112992D02*
X122736D01*
Y112008D01*
X123917D01*
Y112992D01*
D02*
G37*
G36*
X143110Y95473D02*
X141929D01*
Y94488D01*
X143110D01*
Y95473D01*
D02*
G37*
G36*
X140748D02*
X139567D01*
Y94488D01*
X140748D01*
Y95473D01*
D02*
G37*
G36*
X-106299Y93606D02*
X-107283D01*
Y92425D01*
X-106299D01*
Y93606D01*
D02*
G37*
G36*
X-77165Y99020D02*
X-79528D01*
Y95575D01*
X-77165D01*
Y99020D01*
D02*
G37*
G36*
X-106299Y95969D02*
X-107283D01*
Y94787D01*
X-106299D01*
Y95969D01*
D02*
G37*
G36*
X-108465D02*
X-109449D01*
Y94787D01*
X-108465D01*
Y95969D01*
D02*
G37*
G36*
Y93606D02*
X-109449D01*
Y92425D01*
X-108465D01*
Y93606D01*
D02*
G37*
G36*
X-60433Y91929D02*
X-61417D01*
Y90748D01*
X-60433D01*
Y91929D01*
D02*
G37*
G36*
X98504Y98323D02*
X91024D01*
Y90086D01*
X85118D01*
Y92024D01*
X77244D01*
Y81000D01*
X85118D01*
Y82938D01*
X91024D01*
Y74701D01*
X94733D01*
Y69878D01*
X93090D01*
Y66925D01*
Y64366D01*
Y62230D01*
X87121D01*
Y63480D01*
X86984Y64172D01*
X86592Y64758D01*
X86545Y64805D01*
Y67220D01*
X86357Y67672D01*
X85905Y67860D01*
X85118D01*
Y76276D01*
X77244D01*
Y67860D01*
X76457D01*
X76005Y67672D01*
X75818Y67220D01*
Y62890D01*
X76005Y62438D01*
X76457Y62251D01*
X77638D01*
Y60724D01*
X81181D01*
Y62251D01*
X83509D01*
Y60134D01*
Y55016D01*
X83509Y55016D01*
X83509D01*
X83646Y54325D01*
X84038Y53738D01*
X85118Y52658D01*
Y48224D01*
X88810D01*
Y47535D01*
X88997Y47084D01*
X89449Y46896D01*
X93779D01*
X94231Y47084D01*
X94419Y47535D01*
Y56984D01*
X94231Y57436D01*
X93779Y57623D01*
X89449D01*
X88997Y57436D01*
X88810Y56984D01*
Y56295D01*
X87121D01*
Y59219D01*
X96339D01*
X96484Y59248D01*
X99587D01*
Y61807D01*
Y64366D01*
Y66925D01*
Y69878D01*
X97944D01*
Y74701D01*
X98504D01*
Y98323D01*
D02*
G37*
G36*
X136614Y97490D02*
X125197D01*
X124745Y97302D01*
X124558Y96850D01*
Y87401D01*
X124745Y86949D01*
X125197Y86762D01*
X136614D01*
X137066Y86949D01*
X137253Y87401D01*
Y90621D01*
X139567D01*
Y90551D01*
X143110D01*
Y90621D01*
X147835D01*
Y88976D01*
X170669D01*
Y95276D01*
X147835D01*
Y93631D01*
X143110D01*
Y93701D01*
X139567D01*
Y93631D01*
X137253D01*
Y96850D01*
X137066Y97302D01*
X136614Y97490D01*
D02*
G37*
G36*
X-73622Y94394D02*
X-75984D01*
Y90949D01*
X-73622D01*
Y94394D01*
D02*
G37*
G36*
X-77165D02*
X-79528D01*
Y90949D01*
X-77165D01*
Y94394D01*
D02*
G37*
G36*
X-58268Y91929D02*
X-59252D01*
Y90748D01*
X-58268D01*
Y91929D01*
D02*
G37*
G36*
X-73622Y99020D02*
X-75984D01*
Y95575D01*
X-73622D01*
Y99020D01*
D02*
G37*
G36*
X143012Y105315D02*
X141831D01*
Y104331D01*
X143012D01*
Y105315D01*
D02*
G37*
G36*
X140650D02*
X139469D01*
Y104331D01*
X140650D01*
Y105315D01*
D02*
G37*
G36*
X-58268Y106102D02*
X-59449D01*
Y104331D01*
X-58268D01*
Y106102D01*
D02*
G37*
G36*
X-141339Y114602D02*
X-142030Y114464D01*
X-142616Y114073D01*
X-143007Y113487D01*
X-143145Y112795D01*
X-143110Y112621D01*
X-143110Y112008D01*
X-143110D01*
Y108858D01*
X-139567D01*
Y112008D01*
X-139567D01*
X-139567Y112621D01*
X-139532Y112795D01*
X-139670Y113487D01*
X-140061Y114073D01*
X-140647Y114464D01*
X-141339Y114602D01*
D02*
G37*
G36*
X143012Y107480D02*
X141831D01*
Y106496D01*
X143012D01*
Y107480D01*
D02*
G37*
G36*
X140650D02*
X139469D01*
Y106496D01*
X140650D01*
Y107480D01*
D02*
G37*
G36*
X-60630Y106102D02*
X-61811D01*
Y104331D01*
X-60630D01*
Y106102D01*
D02*
G37*
G36*
X140748Y97638D02*
X139567D01*
Y96654D01*
X140748D01*
Y97638D01*
D02*
G37*
G36*
X-139567Y97441D02*
X-140748D01*
Y96457D01*
X-139567D01*
Y97441D01*
D02*
G37*
G36*
X-141929D02*
X-143110D01*
Y96457D01*
X-141929D01*
Y97441D01*
D02*
G37*
G36*
X-139567Y99606D02*
X-140748D01*
Y98622D01*
X-139567D01*
Y99606D01*
D02*
G37*
G36*
X-141929D02*
X-143110D01*
Y98622D01*
X-141929D01*
Y99606D01*
D02*
G37*
G36*
X143110Y97638D02*
X141929D01*
Y96654D01*
X143110D01*
Y97638D01*
D02*
G37*
G36*
X-120276Y64079D02*
X-121457D01*
Y63095D01*
X-120276D01*
Y64079D01*
D02*
G37*
G36*
X108051Y5311D02*
X104705D01*
Y1374D01*
X108051D01*
Y5311D01*
D02*
G37*
G36*
X103524D02*
X100177D01*
Y1374D01*
X103524D01*
Y5311D01*
D02*
G37*
G36*
X115138Y1472D02*
X108642D01*
Y587D01*
Y94D01*
X115138D01*
Y587D01*
Y1472D01*
D02*
G37*
G36*
X-120276Y2465D02*
X-121457D01*
Y1480D01*
X-120276D01*
Y2465D01*
D02*
G37*
G36*
X-89370Y36568D02*
X-93701D01*
X-94153Y36381D01*
X-94340Y35929D01*
Y26480D01*
X-94153Y26028D01*
X-93701Y25841D01*
X-89370D01*
X-88918Y26028D01*
X-88731Y26480D01*
Y27169D01*
X-87043D01*
Y24245D01*
X-96260D01*
X-96405Y24216D01*
X-99508D01*
Y21264D01*
Y18705D01*
Y16146D01*
Y13587D01*
X-97865D01*
Y8764D01*
X-98425D01*
Y-14858D01*
X-90945D01*
Y-6621D01*
X-85039D01*
Y-8559D01*
X-77165D01*
Y2465D01*
X-85039D01*
Y527D01*
X-90945D01*
Y8764D01*
X-94654D01*
Y13587D01*
X-93012D01*
Y16146D01*
Y18705D01*
Y21235D01*
X-87043D01*
Y19984D01*
X-86905Y19293D01*
X-86514Y18707D01*
X-86466Y18659D01*
Y16244D01*
X-86279Y15792D01*
X-85827Y15605D01*
X-85039D01*
Y7189D01*
X-77165D01*
Y15605D01*
X-76378D01*
X-75926Y15792D01*
X-75739Y16244D01*
Y20575D01*
X-75926Y21027D01*
X-76378Y21214D01*
X-77559D01*
Y22740D01*
X-81102D01*
Y21214D01*
X-83430D01*
Y23331D01*
Y28449D01*
X-83567Y29140D01*
X-83959Y29726D01*
X-85039Y30807D01*
Y35240D01*
X-88731D01*
Y35929D01*
X-88918Y36381D01*
X-89370Y36568D01*
D02*
G37*
G36*
X-40472Y10367D02*
X-41449Y10238D01*
X-42359Y9861D01*
X-43140Y9262D01*
X-43739Y8481D01*
X-44116Y7571D01*
X-44245Y6594D01*
X-44116Y5618D01*
X-43739Y4708D01*
X-43140Y3927D01*
X-42359Y3328D01*
X-41449Y2951D01*
X-40472Y2822D01*
X-39496Y2951D01*
X-38586Y3328D01*
X-37805Y3927D01*
X-37205Y4708D01*
X-36829Y5618D01*
X-36700Y6594D01*
X-36829Y7571D01*
X-37205Y8481D01*
X-37805Y9262D01*
X-38586Y9861D01*
X-39496Y10238D01*
X-40472Y10367D01*
D02*
G37*
G36*
X111890Y9680D02*
X111198Y9543D01*
X110612Y9151D01*
X110221Y8565D01*
X110083Y7874D01*
X110221Y7183D01*
X110612Y6597D01*
X110642Y6577D01*
X110497Y6098D01*
X108642D01*
Y3146D01*
Y2654D01*
X115138D01*
Y3146D01*
Y6098D01*
X113283D01*
X113137Y6577D01*
X113167Y6597D01*
X113559Y7183D01*
X113696Y7874D01*
X113559Y8565D01*
X113167Y9151D01*
X112581Y9543D01*
X111890Y9680D01*
D02*
G37*
G36*
X108051Y193D02*
X104705D01*
Y-3744D01*
X108051D01*
Y193D01*
D02*
G37*
G36*
X103524D02*
X100177D01*
Y-3744D01*
X103524D01*
Y193D01*
D02*
G37*
G36*
X81181Y-4236D02*
X80000D01*
Y-6008D01*
X81181D01*
Y-4236D01*
D02*
G37*
G36*
X-13484Y3968D02*
X-14409Y3846D01*
X-15271Y3489D01*
X-16011Y2921D01*
X-16579Y2181D01*
X-16936Y1319D01*
X-17058Y394D01*
X-16936Y-531D01*
X-16579Y-1393D01*
X-16011Y-2133D01*
X-15271Y-2701D01*
X-14409Y-3058D01*
X-13484Y-3180D01*
X-12559Y-3058D01*
X-11697Y-2701D01*
X-10957Y-2133D01*
X-10389Y-1393D01*
X-10032Y-531D01*
X-9910Y394D01*
X-10032Y1319D01*
X-10389Y2181D01*
X-10957Y2921D01*
X-11697Y3489D01*
X-12559Y3846D01*
X-13484Y3968D01*
D02*
G37*
G36*
X-120276Y299D02*
X-121457D01*
Y-685D01*
X-120276D01*
Y299D01*
D02*
G37*
G36*
X-122638D02*
X-123819D01*
Y-685D01*
X-122638D01*
Y299D01*
D02*
G37*
G36*
X124488Y5409D02*
X119764D01*
Y1866D01*
X120240D01*
X120570Y1490D01*
X120510Y1038D01*
X120160Y193D01*
X119603Y-532D01*
X118878Y-1089D01*
X118033Y-1439D01*
X117193Y-1550D01*
X115138D01*
Y-1087D01*
X108642D01*
Y-1972D01*
Y-4532D01*
X110385D01*
Y-8961D01*
X110315D01*
Y-12504D01*
X113465D01*
Y-8961D01*
X113395D01*
Y-4560D01*
X117126D01*
Y-4563D01*
X117150Y-4560D01*
X120621D01*
Y-6008D01*
X118976D01*
Y-9945D01*
X125276D01*
Y-6008D01*
X123631D01*
Y-4560D01*
X126644D01*
X131072Y-8988D01*
Y-25528D01*
X130790Y-25645D01*
X130050Y-26213D01*
X129482Y-26953D01*
X129125Y-27815D01*
X129003Y-28740D01*
X129125Y-29665D01*
X129482Y-30527D01*
X130050Y-31267D01*
X130790Y-31835D01*
X131652Y-32192D01*
X132577Y-32314D01*
X133502Y-32192D01*
X133877Y-32037D01*
X133970Y-32099D01*
X134546Y-32214D01*
X139467D01*
Y-32283D01*
X143010D01*
Y-32214D01*
X147835D01*
Y-33968D01*
X170669D01*
Y-27669D01*
X147835D01*
Y-29203D01*
X143010D01*
Y-29134D01*
X139467D01*
Y-29203D01*
X136469D01*
X136140Y-28828D01*
X136151Y-28740D01*
X136029Y-27815D01*
X135672Y-26953D01*
X135104Y-26213D01*
X134364Y-25645D01*
X134082Y-25528D01*
Y-8365D01*
X133968Y-7789D01*
X133642Y-7300D01*
X128332Y-1991D01*
X127844Y-1664D01*
X127268Y-1550D01*
X127126D01*
X127126Y-1550D01*
Y-1550D01*
X127058D01*
X126219Y-1439D01*
X125374Y-1089D01*
X124649Y-532D01*
X124092Y193D01*
X123742Y1038D01*
X123682Y1490D01*
X124012Y1866D01*
X124488D01*
Y5409D01*
D02*
G37*
G36*
X-141928Y16142D02*
X-143109D01*
Y15157D01*
X-141928D01*
Y16142D01*
D02*
G37*
G36*
X-147835Y23862D02*
X-170669D01*
Y17563D01*
X-147835D01*
Y19164D01*
X-143109D01*
Y19094D01*
X-139565D01*
Y19164D01*
X-136568D01*
X-136238Y18788D01*
X-136249Y18701D01*
X-136128Y17776D01*
X-135771Y16914D01*
X-135203Y16174D01*
X-134462Y15606D01*
X-133601Y15249D01*
X-132676Y15127D01*
X-131751Y15249D01*
X-130889Y15606D01*
X-130148Y16174D01*
X-129580Y16914D01*
X-129224Y17776D01*
X-129102Y18701D01*
X-129224Y19626D01*
X-129580Y20488D01*
X-130148Y21228D01*
X-130889Y21796D01*
X-131751Y22153D01*
X-132676Y22275D01*
X-133601Y22153D01*
X-133975Y21998D01*
X-134068Y22060D01*
X-134644Y22175D01*
X-139565D01*
Y22244D01*
X-143109D01*
Y22175D01*
X-147835D01*
Y23862D01*
D02*
G37*
G36*
X-12894Y17669D02*
Y14764D01*
X-9988D01*
X-10032Y15098D01*
X-10389Y15960D01*
X-10957Y16700D01*
X-11697Y17268D01*
X-12559Y17625D01*
X-12894Y17669D01*
D02*
G37*
G36*
X-139565Y16142D02*
X-140746D01*
Y15157D01*
X-139565D01*
Y16142D01*
D02*
G37*
G36*
X121535Y18205D02*
X120354D01*
Y17221D01*
X121535D01*
Y18205D01*
D02*
G37*
G36*
X143130Y16146D02*
X141949D01*
Y15161D01*
X143130D01*
Y16146D01*
D02*
G37*
G36*
X140768D02*
X139587D01*
Y15161D01*
X140768D01*
Y16146D01*
D02*
G37*
G36*
X-14075Y13583D02*
X-16980D01*
X-16936Y13248D01*
X-16579Y12386D01*
X-16011Y11646D01*
X-15271Y11078D01*
X-14409Y10721D01*
X-14075Y10677D01*
Y13583D01*
D02*
G37*
G36*
X-108563Y17031D02*
X-115059D01*
Y16146D01*
Y13587D01*
X-113204D01*
X-113059Y13108D01*
X-113088Y13088D01*
X-113480Y12502D01*
X-113617Y11811D01*
X-113480Y11120D01*
X-113088Y10534D01*
X-112502Y10142D01*
X-111811Y10005D01*
X-111120Y10142D01*
X-110534Y10534D01*
X-110142Y11120D01*
X-110005Y11811D01*
X-110142Y12502D01*
X-110534Y13088D01*
X-110808Y13271D01*
Y13587D01*
X-108563D01*
Y16146D01*
Y17031D01*
D02*
G37*
G36*
X117008Y34543D02*
X109528D01*
Y10921D01*
X117008D01*
Y13253D01*
X120520D01*
Y12494D01*
X120457Y12400D01*
X120320Y11709D01*
X120321Y11701D01*
X120004Y11315D01*
X119764D01*
Y7772D01*
X124488D01*
Y11315D01*
X124248D01*
X123931Y11701D01*
X123932Y11709D01*
X123795Y12400D01*
X123732Y12494D01*
Y13284D01*
X123898D01*
Y16433D01*
X122281D01*
X122126Y16464D01*
X117008D01*
Y34543D01*
D02*
G37*
G36*
X-9988Y13583D02*
X-12894D01*
Y10677D01*
X-12559Y10721D01*
X-11697Y11078D01*
X-10957Y11646D01*
X-10389Y12386D01*
X-10032Y13248D01*
X-9988Y13583D01*
D02*
G37*
G36*
X-14075Y17669D02*
X-14409Y17625D01*
X-15271Y17268D01*
X-16011Y16700D01*
X-16579Y15960D01*
X-16936Y15098D01*
X-16980Y14764D01*
X-14075D01*
Y17669D01*
D02*
G37*
G36*
X-100098Y18311D02*
X-103445D01*
Y14374D01*
X-100098D01*
Y18311D01*
D02*
G37*
G36*
X-104626D02*
X-107972D01*
Y14374D01*
X-104626D01*
Y18311D01*
D02*
G37*
G36*
X-139667Y-25394D02*
X-140848D01*
Y-26378D01*
X-139667D01*
Y-25394D01*
D02*
G37*
G36*
X-142029D02*
X-143210D01*
Y-26378D01*
X-142029D01*
Y-25394D01*
D02*
G37*
G36*
X-0Y-25295D02*
X-1772D01*
Y-26476D01*
X-0D01*
Y-25295D01*
D02*
G37*
G36*
X140648Y-25197D02*
X139467D01*
Y-26181D01*
X140648D01*
Y-25197D01*
D02*
G37*
G36*
X-51063Y-19711D02*
X-51449Y-19762D01*
X-52359Y-20139D01*
X-53140Y-20738D01*
X-53739Y-21519D01*
X-54116Y-22429D01*
X-54167Y-22815D01*
X-51063D01*
Y-19711D01*
D02*
G37*
G36*
X20079Y-15601D02*
X-4921D01*
X-5373Y-15788D01*
X-5561Y-16240D01*
Y-20571D01*
X-5373Y-21023D01*
X-4921Y-21210D01*
X-4724D01*
Y-22933D01*
X-0D01*
Y-21210D01*
X1673D01*
Y-24902D01*
X9744D01*
Y-21210D01*
X11319D01*
Y-24902D01*
X19390D01*
Y-24530D01*
X22047D01*
Y-25689D01*
X45669D01*
Y-18209D01*
X22047D01*
Y-19368D01*
X20718D01*
Y-16240D01*
X20531Y-15788D01*
X20079Y-15601D01*
D02*
G37*
G36*
X143010Y-25197D02*
X141829D01*
Y-26181D01*
X143010D01*
Y-25197D01*
D02*
G37*
G36*
Y-27362D02*
X141829D01*
Y-28346D01*
X143010D01*
Y-27362D01*
D02*
G37*
G36*
X140648D02*
X139467D01*
Y-28346D01*
X140648D01*
Y-27362D01*
D02*
G37*
G36*
X-139667Y-27559D02*
X-140848D01*
Y-28543D01*
X-139667D01*
Y-27559D01*
D02*
G37*
G36*
X-40472Y-19633D02*
X-41449Y-19762D01*
X-42359Y-20139D01*
X-43140Y-20738D01*
X-43739Y-21519D01*
X-44116Y-22429D01*
X-44245Y-23405D01*
X-44116Y-24382D01*
X-43739Y-25292D01*
X-43140Y-26073D01*
X-42359Y-26673D01*
X-41449Y-27049D01*
X-40472Y-27178D01*
X-39496Y-27049D01*
X-38586Y-26673D01*
X-37805Y-26073D01*
X-37205Y-25292D01*
X-36829Y-24382D01*
X-36700Y-23405D01*
X-36829Y-22429D01*
X-37205Y-21519D01*
X-37805Y-20738D01*
X-38586Y-20139D01*
X-39496Y-19762D01*
X-40472Y-19633D01*
D02*
G37*
G36*
X-2953Y-25295D02*
X-4724D01*
Y-26476D01*
X-2953D01*
Y-25295D01*
D02*
G37*
G36*
X-46778Y-23996D02*
X-49882D01*
Y-27100D01*
X-49496Y-27049D01*
X-48586Y-26673D01*
X-47805Y-26073D01*
X-47205Y-25292D01*
X-46829Y-24382D01*
X-46778Y-23996D01*
D02*
G37*
G36*
X-51063D02*
X-54167D01*
X-54116Y-24382D01*
X-53739Y-25292D01*
X-53140Y-26073D01*
X-52359Y-26673D01*
X-51449Y-27049D01*
X-51063Y-27100D01*
Y-23996D01*
D02*
G37*
G36*
X76063Y-7484D02*
X73701D01*
Y-10929D01*
X76063D01*
Y-7484D01*
D02*
G37*
G36*
X109528Y-11323D02*
X108543D01*
Y-12504D01*
X109528D01*
Y-11323D01*
D02*
G37*
G36*
X107362D02*
X106378D01*
Y-12504D01*
X107362D01*
Y-11323D01*
D02*
G37*
G36*
X79606Y-7484D02*
X77244D01*
Y-10929D01*
X79606D01*
Y-7484D01*
D02*
G37*
G36*
X78819Y-4236D02*
X77638D01*
Y-6008D01*
X78819D01*
Y-4236D01*
D02*
G37*
G36*
X109528Y-8961D02*
X108543D01*
Y-10142D01*
X109528D01*
Y-8961D01*
D02*
G37*
G36*
X107362D02*
X106378D01*
Y-10142D01*
X107362D01*
Y-8961D01*
D02*
G37*
G36*
X-50472Y-9633D02*
X-51449Y-9762D01*
X-52359Y-10138D01*
X-53140Y-10738D01*
X-53739Y-11519D01*
X-54116Y-12429D01*
X-54245Y-13406D01*
X-54116Y-14382D01*
X-53739Y-15292D01*
X-53140Y-16073D01*
X-52359Y-16672D01*
X-51449Y-17049D01*
X-50472Y-17178D01*
X-49496Y-17049D01*
X-48586Y-16672D01*
X-47805Y-16073D01*
X-47205Y-15292D01*
X-46829Y-14382D01*
X-46700Y-13406D01*
X-46829Y-12429D01*
X-47205Y-11519D01*
X-47805Y-10738D01*
X-48586Y-10138D01*
X-49496Y-9762D01*
X-50472Y-9633D01*
D02*
G37*
G36*
X125276Y-13488D02*
X118976D01*
Y-15605D01*
X117402D01*
X116950Y-15792D01*
X116762Y-16244D01*
Y-20575D01*
X116950Y-21027D01*
X117402Y-21214D01*
X126850D01*
X127302Y-21027D01*
X127490Y-20575D01*
Y-16244D01*
X127302Y-15792D01*
X126850Y-15605D01*
X125276D01*
Y-13488D01*
D02*
G37*
G36*
X-49882Y-19711D02*
Y-22815D01*
X-46778D01*
X-46829Y-22429D01*
X-47205Y-21519D01*
X-47805Y-20738D01*
X-48586Y-20139D01*
X-49496Y-19762D01*
X-49882Y-19711D01*
D02*
G37*
G36*
X-40472Y-9633D02*
X-41449Y-9762D01*
X-42359Y-10138D01*
X-43140Y-10738D01*
X-43739Y-11519D01*
X-44116Y-12429D01*
X-44245Y-13406D01*
X-44116Y-14382D01*
X-43739Y-15292D01*
X-43140Y-16073D01*
X-42359Y-16672D01*
X-41449Y-17049D01*
X-40472Y-17178D01*
X-39496Y-17049D01*
X-38586Y-16672D01*
X-37805Y-16073D01*
X-37205Y-15292D01*
X-36829Y-14382D01*
X-36700Y-13406D01*
X-36829Y-12429D01*
X-37205Y-11519D01*
X-37805Y-10738D01*
X-38586Y-10138D01*
X-39496Y-9762D01*
X-40472Y-9633D01*
D02*
G37*
G36*
X-119685Y11913D02*
X-124409D01*
Y8370D01*
X-123653D01*
Y7735D01*
X-123913Y6432D01*
X-124426Y6330D01*
X-124528Y6310D01*
X-125049Y5962D01*
X-125049Y5962D01*
X-133812Y-2802D01*
X-134161Y-3322D01*
X-134181Y-3424D01*
X-134283Y-3937D01*
X-134283Y-3937D01*
Y-25767D01*
X-134464Y-25842D01*
X-135204Y-26410D01*
X-135772Y-27150D01*
X-136129Y-28012D01*
X-136251Y-28937D01*
X-136569Y-29300D01*
X-147835D01*
Y-27669D01*
X-170669D01*
Y-33968D01*
X-147835D01*
Y-32511D01*
X-134646D01*
X-134646Y-32511D01*
X-134133Y-32409D01*
X-134031Y-32389D01*
X-133867Y-32279D01*
X-133602Y-32389D01*
X-132677Y-32511D01*
X-131752Y-32389D01*
X-130890Y-32032D01*
X-130150Y-31464D01*
X-129582Y-30724D01*
X-129225Y-29862D01*
X-129103Y-28937D01*
X-129225Y-28012D01*
X-129582Y-27150D01*
X-130150Y-26410D01*
X-130890Y-25842D01*
X-131071Y-25767D01*
Y-4602D01*
X-124281Y2189D01*
X-123819Y1997D01*
Y1480D01*
X-122638D01*
Y2465D01*
X-123352D01*
X-123543Y2926D01*
X-123248Y3221D01*
X-116929D01*
Y-14858D01*
X-109449D01*
Y8764D01*
X-116929D01*
Y6432D01*
X-120442D01*
Y8370D01*
X-119685D01*
Y11913D01*
D02*
G37*
G36*
X79606Y-12110D02*
X77244D01*
Y-15555D01*
X79606D01*
Y-12110D01*
D02*
G37*
G36*
X76063D02*
X73701D01*
Y-15555D01*
X76063D01*
Y-12110D01*
D02*
G37*
G36*
X-142028Y36024D02*
X-143209D01*
Y35039D01*
X-142028D01*
Y36024D01*
D02*
G37*
G36*
X-117323Y41096D02*
X-126772D01*
X-127224Y40909D01*
X-127411Y40457D01*
Y36126D01*
X-127224Y35674D01*
X-126772Y35487D01*
X-125197D01*
Y33370D01*
X-118898D01*
Y35487D01*
X-117323D01*
X-116871Y35674D01*
X-116684Y36126D01*
Y40457D01*
X-116871Y40909D01*
X-117323Y41096D01*
D02*
G37*
G36*
X143030Y33862D02*
X141849D01*
Y32878D01*
X143030D01*
Y33862D01*
D02*
G37*
G36*
X-139665Y36024D02*
X-140847D01*
Y35039D01*
X-139665D01*
Y36024D01*
D02*
G37*
G36*
X125276Y50291D02*
X118976D01*
Y48175D01*
X117402D01*
X116950Y47987D01*
X116762Y47535D01*
Y43205D01*
X116950Y42753D01*
X117402Y42566D01*
X126850D01*
X127302Y42753D01*
X127490Y43205D01*
Y47535D01*
X127302Y47987D01*
X126850Y48175D01*
X125276D01*
Y50291D01*
D02*
G37*
G36*
X143030Y36028D02*
X141849D01*
Y35043D01*
X143030D01*
Y36028D01*
D02*
G37*
G36*
X140668D02*
X139487D01*
Y35043D01*
X140668D01*
Y36028D01*
D02*
G37*
G36*
X-77165Y35240D02*
X-79528D01*
Y31795D01*
X-77165D01*
Y35240D01*
D02*
G37*
G36*
X-106299Y32189D02*
X-107283D01*
Y31008D01*
X-106299D01*
Y32189D01*
D02*
G37*
G36*
X-108465D02*
X-109449D01*
Y31008D01*
X-108465D01*
Y32189D01*
D02*
G37*
G36*
X-73622Y35240D02*
X-75984D01*
Y31795D01*
X-73622D01*
Y35240D01*
D02*
G37*
G36*
X140668Y33862D02*
X139487D01*
Y32878D01*
X140668D01*
Y33862D01*
D02*
G37*
G36*
X-139665Y33858D02*
X-140847D01*
Y32874D01*
X-139665D01*
Y33858D01*
D02*
G37*
G36*
X-142028D02*
X-143209D01*
Y32874D01*
X-142028D01*
Y33858D01*
D02*
G37*
G36*
X81181Y59543D02*
X80000D01*
Y57772D01*
X81181D01*
Y59543D01*
D02*
G37*
G36*
X78819D02*
X77638D01*
Y57772D01*
X78819D01*
Y59543D01*
D02*
G37*
G36*
X109528Y54819D02*
X108543D01*
Y53638D01*
X109528D01*
Y54819D01*
D02*
G37*
G36*
X103524Y63973D02*
X100177D01*
Y60035D01*
X103524D01*
Y63973D01*
D02*
G37*
G36*
X-122638Y64079D02*
X-123819D01*
Y63095D01*
X-122638D01*
Y64079D01*
D02*
G37*
G36*
X124488Y69189D02*
X119764D01*
Y65646D01*
X120257D01*
X120586Y65270D01*
X120530Y64841D01*
X120180Y63996D01*
X119623Y63271D01*
X118897Y62714D01*
X118052Y62364D01*
X117155Y62246D01*
X117146Y62253D01*
Y62253D01*
X117027Y62230D01*
X115138D01*
Y62693D01*
X108642D01*
Y61807D01*
Y59248D01*
X110385D01*
Y54819D01*
X110315D01*
Y51276D01*
X113465D01*
Y54819D01*
X113395D01*
Y59219D01*
X120621D01*
Y57772D01*
X118976D01*
Y53835D01*
X125276D01*
Y57772D01*
X123631D01*
Y59219D01*
X126644D01*
X131092Y54772D01*
Y35696D01*
X130810Y35579D01*
X130070Y35011D01*
X129502Y34271D01*
X129145Y33409D01*
X129023Y32484D01*
X129145Y31559D01*
X129502Y30697D01*
X130070Y29957D01*
X130810Y29389D01*
X131672Y29032D01*
X132597Y28910D01*
X133522Y29032D01*
X133896Y29187D01*
X133989Y29125D01*
X134565Y29010D01*
X139487D01*
Y28941D01*
X143030D01*
Y29010D01*
X147835D01*
Y27406D01*
X170669D01*
Y33705D01*
X147835D01*
Y32021D01*
X143030D01*
Y32091D01*
X139487D01*
Y32021D01*
X136489D01*
X136159Y32397D01*
X136171Y32484D01*
X136049Y33409D01*
X135692Y34271D01*
X135124Y35011D01*
X134384Y35579D01*
X134102Y35696D01*
Y55395D01*
X133988Y55971D01*
X133661Y56460D01*
X128332Y61789D01*
X127844Y62115D01*
X127268Y62230D01*
X127264D01*
X127146Y62253D01*
Y62253D01*
X127137Y62246D01*
X126239Y62364D01*
X125394Y62714D01*
X124668Y63271D01*
X124111Y63996D01*
X123761Y64841D01*
X123705Y65270D01*
X124035Y65646D01*
X124488D01*
Y69189D01*
D02*
G37*
G36*
X108051Y63973D02*
X104705D01*
Y60035D01*
X108051D01*
Y63973D01*
D02*
G37*
G36*
X107362Y52457D02*
X106378D01*
Y51276D01*
X107362D01*
Y52457D01*
D02*
G37*
G36*
X79606Y51669D02*
X77244D01*
Y48224D01*
X79606D01*
Y51669D01*
D02*
G37*
G36*
X76063D02*
X73701D01*
Y48224D01*
X76063D01*
Y51669D01*
D02*
G37*
G36*
X109528Y52457D02*
X108543D01*
Y51276D01*
X109528D01*
Y52457D01*
D02*
G37*
G36*
X107362Y54819D02*
X106378D01*
Y53638D01*
X107362D01*
Y54819D01*
D02*
G37*
G36*
X79606Y56295D02*
X77244D01*
Y52850D01*
X79606D01*
Y56295D01*
D02*
G37*
G36*
X76063D02*
X73701D01*
Y52850D01*
X76063D01*
Y56295D01*
D02*
G37*
G36*
X140768Y18311D02*
X139587D01*
Y17327D01*
X140768D01*
Y18311D01*
D02*
G37*
G36*
X143130D02*
X141949D01*
Y17327D01*
X143130D01*
Y18311D01*
D02*
G37*
G36*
X170669Y23862D02*
X147835D01*
Y22279D01*
X134565D01*
X134565Y22279D01*
X134053Y22177D01*
X133951Y22157D01*
X133787Y22047D01*
X133522Y22157D01*
X132597Y22279D01*
X131672Y22157D01*
X130810Y21800D01*
X130070Y21232D01*
X129502Y20492D01*
X129145Y19630D01*
X129023Y18705D01*
X129145Y17780D01*
X129502Y16918D01*
X130070Y16178D01*
X130810Y15610D01*
X131672Y15253D01*
X132597Y15131D01*
X133522Y15253D01*
X134384Y15610D01*
X135124Y16178D01*
X135692Y16918D01*
X136049Y17780D01*
X136171Y18705D01*
X136489Y19068D01*
X147835D01*
Y17563D01*
X170669D01*
Y23862D01*
D02*
G37*
G36*
X-77559Y25693D02*
X-78740D01*
Y23921D01*
X-77559D01*
Y25693D01*
D02*
G37*
G36*
X-79921D02*
X-81102D01*
Y23921D01*
X-79921D01*
Y25693D01*
D02*
G37*
G36*
X-104626Y23429D02*
X-107972D01*
Y19492D01*
X-104626D01*
Y23429D01*
D02*
G37*
G36*
X123898Y20370D02*
X122716D01*
Y19386D01*
X123898D01*
Y20370D01*
D02*
G37*
G36*
X-100098Y23429D02*
X-103445D01*
Y19492D01*
X-100098D01*
Y23429D01*
D02*
G37*
G36*
X-108563Y19590D02*
X-115059D01*
Y18705D01*
Y18213D01*
X-108563D01*
Y18705D01*
Y19590D01*
D02*
G37*
G36*
X121535Y20370D02*
X120354D01*
Y19386D01*
X121535D01*
Y20370D01*
D02*
G37*
G36*
X-110236Y32189D02*
X-113386D01*
Y28646D01*
X-113316D01*
Y24245D01*
X-118207D01*
Y24260D01*
X-118318Y24245D01*
X-120542D01*
Y25890D01*
X-118898D01*
Y29827D01*
X-125197D01*
Y25890D01*
X-123553D01*
Y19834D01*
X-123716Y19589D01*
X-123854Y18898D01*
X-123716Y18206D01*
X-123716Y18206D01*
D01*
X-124296Y17819D01*
X-124409D01*
Y14276D01*
X-119685D01*
Y17819D01*
X-119799D01*
X-120378Y18206D01*
D01*
X-120378Y18206D01*
X-120241Y18898D01*
X-120378Y19589D01*
X-120416Y19645D01*
X-120385Y19801D01*
X-119874Y20566D01*
X-119109Y21077D01*
X-118317Y21235D01*
X-118207D01*
Y21233D01*
X-118195Y21235D01*
X-115059D01*
Y20772D01*
X-108563D01*
Y21264D01*
Y24216D01*
X-110306D01*
Y28646D01*
X-110236D01*
Y32189D01*
D02*
G37*
G36*
X123898Y18205D02*
X122716D01*
Y17221D01*
X123898D01*
Y18205D01*
D02*
G37*
G36*
X-73622Y30614D02*
X-75984D01*
Y27169D01*
X-73622D01*
Y30614D01*
D02*
G37*
G36*
X-106299Y29827D02*
X-107283D01*
Y28646D01*
X-106299D01*
Y29827D01*
D02*
G37*
G36*
X-108465D02*
X-109449D01*
Y28646D01*
X-108465D01*
Y29827D01*
D02*
G37*
G36*
X-141928Y18307D02*
X-143109D01*
Y17323D01*
X-141928D01*
Y18307D01*
D02*
G37*
G36*
X-139565D02*
X-140746D01*
Y17323D01*
X-139565D01*
Y18307D01*
D02*
G37*
G36*
X98504Y34543D02*
X91024D01*
Y26306D01*
X85118D01*
Y28244D01*
X77244D01*
Y17221D01*
X85118D01*
Y19158D01*
X91024D01*
Y10921D01*
X94733D01*
Y6098D01*
X93090D01*
Y3146D01*
Y587D01*
Y-1550D01*
X87121D01*
Y-299D01*
X86984Y392D01*
X86592Y978D01*
X86545Y1026D01*
Y3441D01*
X86357Y3893D01*
X85905Y4080D01*
X85118D01*
Y12496D01*
X77244D01*
Y4080D01*
X76457D01*
X76005Y3893D01*
X75818Y3441D01*
Y-890D01*
X76005Y-1342D01*
X76457Y-1529D01*
X77638D01*
Y-3055D01*
X81181D01*
Y-1529D01*
X83509D01*
Y-3646D01*
Y-8764D01*
X83646Y-9455D01*
X84038Y-10041D01*
X85118Y-11122D01*
Y-15555D01*
X88810D01*
Y-16244D01*
X88997Y-16696D01*
X89449Y-16883D01*
X93779D01*
X94231Y-16696D01*
X94419Y-16244D01*
Y-6795D01*
X94231Y-6343D01*
X93779Y-6156D01*
X89449D01*
X88997Y-6343D01*
X88810Y-6795D01*
Y-7484D01*
X87121D01*
Y-4560D01*
X96339D01*
X96484Y-4532D01*
X99587D01*
Y-1972D01*
Y587D01*
Y3146D01*
Y6098D01*
X97944D01*
Y10921D01*
X98504D01*
Y34543D01*
D02*
G37*
G36*
X-77165Y30614D02*
X-79528D01*
Y27169D01*
X-77165D01*
Y30614D01*
D02*
G37*
%LPD*%
G36*
X16615Y103226D02*
Y60236D01*
X12264D01*
D01*
D01*
X12264Y60236D01*
X11988D01*
Y60236D01*
X7342D01*
X7342Y60236D01*
Y60236D01*
X7264Y60236D01*
X7126D01*
X6988D01*
X6910Y60236D01*
X6910Y60236D01*
Y60236D01*
X2342D01*
X2342Y60236D01*
Y60236D01*
X2264Y60236D01*
X2126D01*
X1988D01*
X1910Y60236D01*
X1910Y60236D01*
Y60236D01*
X-2658D01*
X-2658Y60236D01*
Y60236D01*
X-2736Y60236D01*
X-2874D01*
X-3012D01*
X-3090Y60236D01*
X-3090Y60236D01*
Y60236D01*
X-7658D01*
X-7658Y60236D01*
Y60236D01*
X-7736Y60236D01*
X-7874D01*
X-8012D01*
X-8090Y60236D01*
X-8090Y60236D01*
Y60236D01*
X-12658D01*
X-12658Y60236D01*
Y60236D01*
X-12736Y60236D01*
X-12874D01*
X-13012D01*
X-13090Y60236D01*
X-13090Y60236D01*
Y60236D01*
X-17658D01*
X-17658Y60236D01*
Y60236D01*
X-17736Y60236D01*
X-17874D01*
X-18012D01*
X-18090Y60236D01*
X-18090Y60236D01*
Y60236D01*
X-22658D01*
X-22658Y60236D01*
Y60236D01*
X-22736Y60236D01*
X-22874D01*
X-23012D01*
X-23090Y60236D01*
X-23090Y60236D01*
Y60236D01*
X-27736D01*
D01*
D01*
X-27736Y60236D01*
X-28012D01*
Y60236D01*
X-29783D01*
Y56694D01*
Y53150D01*
X-28012D01*
Y53150D01*
X-28012D01*
X-28012Y53150D01*
X-27736D01*
Y53150D01*
X-26377D01*
Y51358D01*
X-26377Y51358D01*
X-26377D01*
X-26301Y50974D01*
X-26084Y50649D01*
X-18088Y42653D01*
X-18413Y41870D01*
X-18534Y40945D01*
X-18413Y40020D01*
X-18056Y39158D01*
X-17488Y38418D01*
X-16748Y37850D01*
X-15964Y37525D01*
Y36833D01*
X-15964Y36833D01*
X-15964D01*
X-15888Y36449D01*
X-15670Y36124D01*
X3543Y16910D01*
Y16378D01*
X3190Y16332D01*
X2568Y16074D01*
X2033Y15664D01*
X1623Y15129D01*
X1365Y14507D01*
X1277Y13839D01*
X1365Y13171D01*
X1589Y12630D01*
X1173Y12352D01*
X-32461Y45987D01*
Y53150D01*
X-30965D01*
Y56694D01*
Y60236D01*
X-32736D01*
Y60177D01*
X-33198Y59986D01*
X-39764Y66551D01*
Y69921D01*
D01*
Y69921D01*
X-39764Y69921D01*
Y70197D01*
X-39764D01*
Y74921D01*
D01*
Y74921D01*
X-39764Y74921D01*
Y75197D01*
X-39764D01*
Y79843D01*
X-39764Y79843D01*
D01*
D01*
X-39764Y79921D01*
Y79975D01*
Y80059D01*
Y80098D01*
Y80197D01*
X-39764Y80253D01*
X-39764Y80275D01*
X-39764Y80275D01*
X-39764D01*
Y84843D01*
X-39764Y84843D01*
D01*
D01*
X-39764Y84921D01*
Y84975D01*
Y85059D01*
Y85098D01*
Y85197D01*
X-39764Y85253D01*
X-39764Y85275D01*
X-39764Y85275D01*
X-39764D01*
Y89843D01*
X-39764Y89843D01*
D01*
D01*
X-39764Y89921D01*
Y89975D01*
Y90059D01*
Y90098D01*
Y90197D01*
X-39764Y90253D01*
X-39764Y90275D01*
X-39764Y90275D01*
X-39764D01*
Y94921D01*
D01*
Y94921D01*
X-39764Y94921D01*
Y95197D01*
X-39764D01*
Y96556D01*
X-34085D01*
X-33954Y96360D01*
X-33368Y95969D01*
X-32677Y95831D01*
X-31986Y95969D01*
X-31400Y96360D01*
X-31008Y96947D01*
X-30871Y97638D01*
X-31008Y98329D01*
X-31400Y98915D01*
X-31986Y99307D01*
X-32677Y99444D01*
X-33368Y99307D01*
X-33954Y98915D01*
X-34190Y98563D01*
X-39764D01*
Y99843D01*
X-39764Y99843D01*
D01*
D01*
X-39764Y99921D01*
Y99975D01*
Y100059D01*
Y100098D01*
Y100197D01*
X-39764Y100253D01*
X-39764Y100275D01*
X-39764Y100275D01*
X-39764D01*
Y101556D01*
X-38665D01*
X-38482Y101282D01*
X-37896Y100890D01*
X-37205Y100753D01*
X-36514Y100890D01*
X-35927Y101282D01*
X-35536Y101868D01*
X-35398Y102559D01*
X-35536Y103250D01*
X-35927Y103836D01*
X-36514Y104228D01*
X-37205Y104365D01*
X-37896Y104228D01*
X-38482Y103836D01*
X-38665Y103563D01*
X-39764D01*
Y104843D01*
X-39764Y104843D01*
D01*
D01*
X-39764Y104921D01*
Y104975D01*
Y105059D01*
Y105098D01*
Y105197D01*
X-39764Y105253D01*
X-39764Y105275D01*
X-39764Y105275D01*
X-39764D01*
Y106555D01*
X-38665D01*
X-38482Y106282D01*
X-37896Y105890D01*
X-37205Y105753D01*
X-36514Y105890D01*
X-35927Y106282D01*
X-35536Y106868D01*
X-35398Y107559D01*
X-35536Y108250D01*
X-35927Y108836D01*
X-36514Y109228D01*
X-37205Y109365D01*
X-37896Y109228D01*
X-38482Y108836D01*
X-38665Y108563D01*
X-39764D01*
Y109843D01*
X-39764Y109843D01*
D01*
D01*
X-39764Y109921D01*
Y109975D01*
Y110059D01*
Y110098D01*
Y110197D01*
X-39764Y110253D01*
X-39764Y110275D01*
X-39764Y110275D01*
X-39764D01*
Y111556D01*
X-35022D01*
X-28563Y105096D01*
Y68389D01*
X-28836Y68206D01*
X-29228Y67620D01*
X-29365Y66929D01*
X-29228Y66238D01*
X-28836Y65652D01*
X-28250Y65260D01*
X-27559Y65123D01*
X-26868Y65260D01*
X-26282Y65652D01*
X-25890Y66238D01*
X-25753Y66929D01*
X-25890Y67620D01*
X-26282Y68206D01*
X-26555Y68389D01*
Y105512D01*
X-26619Y105832D01*
X-26632Y105896D01*
X-26849Y106221D01*
X-33897Y113269D01*
X-34222Y113486D01*
X-34606Y113563D01*
X-39764D01*
Y114843D01*
X-39764Y114843D01*
D01*
D01*
X-39764Y114921D01*
Y114975D01*
Y115059D01*
Y115098D01*
Y115197D01*
X-39764Y115253D01*
X-39764Y115275D01*
X-39764Y115275D01*
X-39764D01*
Y116556D01*
X3285D01*
X16615Y103226D01*
D02*
G37*
G36*
X-62150Y69867D02*
X-61582Y69127D01*
X-60842Y68559D01*
X-59980Y68202D01*
X-59055Y68080D01*
X-58130Y68202D01*
X-57347Y68526D01*
X-55670Y66849D01*
X-55453Y66704D01*
X-55345Y66632D01*
X-54961Y66556D01*
X-46850D01*
Y65197D01*
X-46850Y65197D01*
X-46850Y64921D01*
X-46850D01*
Y63563D01*
X-55158D01*
X-55541Y63486D01*
X-55867Y63269D01*
X-57346Y61790D01*
X-58130Y62114D01*
X-59055Y62236D01*
X-59980Y62114D01*
X-60842Y61757D01*
X-61582Y61189D01*
X-62150Y60449D01*
X-62482Y59647D01*
X-62973Y59744D01*
Y70572D01*
X-62482Y70670D01*
X-62150Y69867D01*
D02*
G37*
G36*
X8623Y44275D02*
X8056Y44041D01*
X7315Y43473D01*
X6747Y42733D01*
X6390Y41870D01*
X6269Y40946D01*
X6390Y40021D01*
X6747Y39159D01*
X7315Y38418D01*
X8056Y37850D01*
X8918Y37494D01*
X9843Y37372D01*
X10768Y37494D01*
X11550Y37818D01*
X16162Y33206D01*
Y23253D01*
X15688Y23092D01*
X15219Y23703D01*
X14088Y24571D01*
X12772Y25117D01*
X11358Y25303D01*
X9945Y25117D01*
X8628Y24571D01*
X7497Y23703D01*
X6630Y22573D01*
X6084Y21256D01*
X5929Y20079D01*
X3937D01*
X3575Y19717D01*
X-13957Y37249D01*
Y37525D01*
X-13174Y37850D01*
X-12433Y38418D01*
X-11866Y39158D01*
X-11508Y40020D01*
X-11387Y40945D01*
X-11508Y41870D01*
X-11866Y42732D01*
X-12433Y43472D01*
X-13174Y44040D01*
X-14036Y44397D01*
X-14961Y44519D01*
X-15886Y44397D01*
X-16669Y44072D01*
X-24371Y51774D01*
Y53150D01*
X-23012D01*
X-23012Y53150D01*
Y53150D01*
X-23012D01*
X-22736D01*
X-22658Y53150D01*
X-22658Y53150D01*
Y53150D01*
X-18012D01*
Y53150D01*
X-17736D01*
X-17658Y53150D01*
X-17658Y53150D01*
Y53150D01*
X-13012D01*
Y53150D01*
X-12736D01*
X-12658Y53150D01*
X-12658Y53150D01*
Y53150D01*
X-8012D01*
Y53150D01*
X-7736D01*
X-7658Y53150D01*
X-7658Y53150D01*
Y53150D01*
X-3012D01*
Y53150D01*
X-2736D01*
X-2658Y53150D01*
X-2658Y53150D01*
Y53150D01*
X1988D01*
Y53150D01*
X2264D01*
X2342Y53150D01*
X2342Y53150D01*
Y53150D01*
X6988D01*
Y53150D01*
X7264D01*
X7342Y53150D01*
X7342Y53150D01*
Y53150D01*
X8623D01*
Y44275D01*
D02*
G37*
G36*
X-49647Y71849D02*
X-49321Y71632D01*
X-49257Y71619D01*
X-48937Y71556D01*
X-46850D01*
Y70197D01*
X-46850Y70197D01*
X-46850Y69921D01*
X-46850D01*
Y68563D01*
X-54545D01*
X-55928Y69945D01*
X-55603Y70729D01*
X-55481Y71654D01*
X-55603Y72579D01*
X-55960Y73441D01*
X-56528Y74181D01*
X-57268Y74749D01*
X-58067Y75080D01*
Y75080D01*
X-58067D01*
X-58130Y75106D01*
Y75106D01*
X-58125Y75178D01*
X-52975D01*
X-49647Y71849D01*
D02*
G37*
G36*
X36220Y25254D02*
X35942Y24839D01*
X35271Y25117D01*
X33858Y25303D01*
X32445Y25117D01*
X31128Y24571D01*
X29997Y23703D01*
X29130Y22573D01*
X28584Y21256D01*
X28429Y20079D01*
X24823D01*
Y31004D01*
X24746Y31388D01*
X24674Y31496D01*
X24529Y31714D01*
X20098Y36144D01*
Y40723D01*
X20560Y40914D01*
X36220Y25254D01*
D02*
G37*
G36*
X22143Y100890D02*
X22835Y100753D01*
X23526Y100890D01*
X23575Y100923D01*
X24016Y100687D01*
Y100275D01*
X24016Y100275D01*
X24016D01*
X24016Y100197D01*
Y99921D01*
D01*
D01*
D01*
D01*
X24016D01*
Y95275D01*
X24016Y95275D01*
X24016D01*
X24016Y95197D01*
Y94921D01*
D01*
D01*
D01*
D01*
X24016D01*
Y90275D01*
X24016Y90275D01*
X24016D01*
X24016Y90197D01*
Y89921D01*
D01*
D01*
D01*
D01*
X24016D01*
Y85275D01*
X24016Y85275D01*
X24016D01*
X24016Y85197D01*
Y84921D01*
D01*
D01*
X24016D01*
Y84548D01*
X23629Y84231D01*
X22953Y84365D01*
X22262Y84228D01*
X21917Y83998D01*
X21476Y84233D01*
Y100806D01*
X21917Y101041D01*
X22143Y100890D01*
D02*
G37*
G36*
X-46850Y115275D02*
X-46850Y115275D01*
X-46850D01*
X-46850Y115197D01*
Y114921D01*
D01*
D01*
D01*
D01*
X-46850D01*
Y110275D01*
X-46850Y110275D01*
X-46850D01*
X-46850Y110197D01*
Y109921D01*
D01*
D01*
X-46850D01*
Y105275D01*
X-46850Y105275D01*
X-46850D01*
X-46850Y105197D01*
Y104921D01*
D01*
D01*
D01*
D01*
X-46850D01*
Y100275D01*
X-46850Y100275D01*
X-46850D01*
X-46850Y100197D01*
Y99921D01*
D01*
D01*
X-46850D01*
Y96793D01*
X-46970Y96674D01*
X-56275D01*
X-56496Y97122D01*
X-55960Y97820D01*
X-55603Y98682D01*
X-55481Y99607D01*
X-55603Y100532D01*
X-55927Y101315D01*
X-53424Y103818D01*
X-53207Y104144D01*
X-53194Y104207D01*
X-53170Y104331D01*
X-52362D01*
Y109055D01*
X-52934D01*
Y111417D01*
X-52165D01*
Y113345D01*
X-48954Y116556D01*
X-46850D01*
Y115275D01*
D02*
G37*
G36*
X26860Y-6999D02*
X26668Y-7461D01*
X15674D01*
X15483Y-6999D01*
X18033Y-4450D01*
X18250Y-4124D01*
X18326Y-3740D01*
X18326Y-3740D01*
X18326Y-3740D01*
Y-3740D01*
Y787D01*
X19073D01*
X26860Y-6999D01*
D02*
G37*
G36*
X-64980Y73499D02*
Y57087D01*
X-64903Y56703D01*
X-64686Y56377D01*
X-48783Y40474D01*
X-49060Y40058D01*
X-49496Y40238D01*
X-50472Y40367D01*
X-51449Y40238D01*
X-52359Y39862D01*
X-53140Y39262D01*
X-53739Y38481D01*
X-54116Y37571D01*
X-54245Y36595D01*
X-54116Y35618D01*
X-53739Y34708D01*
X-53140Y33927D01*
X-52359Y33327D01*
X-51449Y32951D01*
X-50472Y32822D01*
X-49496Y32951D01*
X-48586Y33327D01*
X-47805Y33927D01*
X-47205Y34708D01*
X-46966Y35285D01*
X-46476Y35188D01*
Y28001D01*
X-46966Y27904D01*
X-47205Y28481D01*
X-47805Y29262D01*
X-48586Y29862D01*
X-49496Y30238D01*
X-50472Y30367D01*
X-51449Y30238D01*
X-52359Y29862D01*
X-53140Y29262D01*
X-53739Y28481D01*
X-54116Y27571D01*
X-54245Y26594D01*
X-54116Y25618D01*
X-53739Y24708D01*
X-53140Y23927D01*
X-52359Y23327D01*
X-51449Y22951D01*
X-50472Y22822D01*
X-49496Y22951D01*
X-48586Y23327D01*
X-47805Y23927D01*
X-47205Y24708D01*
X-46966Y25285D01*
X-46476Y25188D01*
Y18001D01*
X-46966Y17904D01*
X-47205Y18481D01*
X-47805Y19262D01*
X-48586Y19861D01*
X-49496Y20238D01*
X-50472Y20367D01*
X-51449Y20238D01*
X-52332Y19873D01*
X-65689Y33231D01*
Y73343D01*
X-65274Y73620D01*
X-64980Y73499D01*
D02*
G37*
G36*
X43485Y17990D02*
Y-864D01*
X38265Y-6083D01*
X34145D01*
X34112Y-5584D01*
X35271Y-5432D01*
X36588Y-4886D01*
X37719Y-4018D01*
X38587Y-2888D01*
X39132Y-1571D01*
X39318Y-158D01*
X39132Y1256D01*
X38587Y2573D01*
X38583Y2578D01*
Y11782D01*
X39517D01*
X39761Y11619D01*
X40453Y11481D01*
X41144Y11619D01*
X41730Y12010D01*
X42122Y12596D01*
X42259Y13287D01*
X42122Y13979D01*
X41730Y14565D01*
X41144Y14956D01*
X40453Y15094D01*
X39761Y14956D01*
X39517Y14793D01*
X38583D01*
Y17107D01*
X38587Y17112D01*
X39132Y18429D01*
X39318Y19842D01*
X39132Y21256D01*
X38855Y21926D01*
X39270Y22204D01*
X43485Y17990D01*
D02*
G37*
G36*
X-46476Y15188D02*
Y12010D01*
X-48613Y9873D01*
X-49496Y10238D01*
X-50472Y10367D01*
X-51449Y10238D01*
X-52359Y9861D01*
X-53140Y9262D01*
X-53739Y8481D01*
X-54116Y7571D01*
X-54245Y6594D01*
X-54116Y5618D01*
X-53751Y4735D01*
X-65227Y-6741D01*
X-65689Y-6550D01*
Y-42D01*
X-52332Y13316D01*
X-51449Y12951D01*
X-50472Y12822D01*
X-49496Y12951D01*
X-48586Y13328D01*
X-47805Y13927D01*
X-47205Y14708D01*
X-46966Y15285D01*
X-46476Y15188D01*
D02*
G37*
G36*
X22262Y80890D02*
X22953Y80753D01*
X23629Y80887D01*
X24016Y80570D01*
Y80275D01*
X24016Y80275D01*
X24016D01*
X24016Y80197D01*
Y79921D01*
D01*
D01*
D01*
D01*
X24016D01*
Y75275D01*
X24016Y75275D01*
X24016D01*
X24016Y75197D01*
Y74921D01*
D01*
D01*
D01*
D01*
X24016D01*
Y70275D01*
X24016Y70275D01*
X24016D01*
X24016Y70197D01*
Y69921D01*
D01*
D01*
D01*
D01*
X24016D01*
Y65275D01*
X24016Y65275D01*
X24016D01*
X24016Y65197D01*
Y64921D01*
D01*
D01*
X24016D01*
Y60197D01*
X26555D01*
Y48031D01*
X25787D01*
Y44882D01*
X29331D01*
Y45453D01*
X31102D01*
Y44416D01*
X33030D01*
X44863Y32583D01*
Y20104D01*
X44401Y19912D01*
X23812Y40501D01*
X23957Y40772D01*
X24648Y40910D01*
X25234Y41301D01*
X25309Y41414D01*
X25787Y41269D01*
Y40945D01*
X29331D01*
Y44094D01*
X25787D01*
Y43889D01*
X25309Y43744D01*
X25234Y43856D01*
X24648Y44248D01*
X23957Y44385D01*
X23265Y44248D01*
X22679Y43856D01*
X22288Y43270D01*
X22185Y42752D01*
X21878Y42659D01*
X21476Y42956D01*
Y80885D01*
X21917Y81120D01*
X22262Y80890D01*
D02*
G37*
G36*
X22815Y30588D02*
Y20079D01*
X19862D01*
Y32888D01*
X20324Y33080D01*
X22815Y30588D01*
D02*
G37*
%LPC*%
G36*
X-1496Y108898D02*
X-11339D01*
Y99055D01*
X-1496D01*
Y108898D01*
D02*
G37*
G36*
X-12520Y97874D02*
X-22362D01*
Y88032D01*
X-12520D01*
Y97874D01*
D02*
G37*
G36*
Y108898D02*
X-22362D01*
Y99055D01*
X-12520D01*
Y108898D01*
D02*
G37*
G36*
X-1496Y97874D02*
X-11339D01*
Y88032D01*
X-1496D01*
Y97874D01*
D02*
G37*
%LPD*%
D10*
X-118207Y-41042D02*
G03*
X-122046Y-44880I0J-3839D01*
G01*
X-118207Y22738D02*
G03*
X-122046Y18899I0J-3839D01*
G01*
X122146Y65748D02*
G03*
X127146Y60748I5000J0D01*
G01*
X-118209Y86516D02*
G03*
X-122047Y82677I0J-3839D01*
G01*
X117146Y-66811D02*
G03*
X122126Y-62254I0J5000D01*
G01*
D02*
G03*
X122146Y-61811I-4980J443D01*
G01*
D02*
G03*
X127146Y-66811I5000J0D01*
G01*
X117126Y-3055D02*
G03*
X122126Y1945I0J5000D01*
G01*
D02*
G03*
X127126Y-3055I5000J0D01*
G01*
X117146Y60748D02*
G03*
X122126Y65305I0J5000D01*
G01*
D02*
G03*
X122146Y65748I-4980J443D01*
G01*
X107697Y117461D02*
X110728D01*
X-122047Y-44882D02*
Y-37102D01*
X-128248Y106103D02*
X-123442Y110909D01*
X-128248Y82776D02*
Y106103D01*
X-132678Y78347D02*
X-128248Y82776D01*
X-123442Y110909D02*
X-119887D01*
X122126Y60724D02*
X127268D01*
X122126Y56787D02*
Y60724D01*
X132597Y32484D02*
Y55395D01*
X127268Y60724D02*
X132597Y55395D01*
X132577Y-90256D02*
Y-72242D01*
Y-28740D02*
Y-8365D01*
X127268Y-3055D02*
X132577Y-8365D01*
X122126Y-3055D02*
X127268D01*
X122126Y-6992D02*
Y-3055D01*
Y-71067D02*
Y-66835D01*
X126472D01*
X111890D02*
X122126D01*
X-159152Y-102034D02*
X-159086Y-101969D01*
X-134546D02*
X-132577Y-103937D01*
X-159086Y-101969D02*
X-141239D01*
X-134546D01*
X-141304Y-102034D02*
X-141239Y-101969D01*
X44488Y73396D02*
Y78347D01*
Y68504D02*
Y73396D01*
X36614Y46188D02*
X39102D01*
X158221Y-134941D02*
X160630D01*
X141240Y-141124D02*
X141427Y-140938D01*
X141240Y-145669D02*
Y-141124D01*
X141427Y-140938D02*
X144964D01*
X-80709Y-119882D02*
Y-102362D01*
X160825Y-140845D02*
X160925Y-140945D01*
Y-145669D02*
Y-140945D01*
X157288Y-140845D02*
X160825D01*
X156988Y-146264D02*
Y-145669D01*
X-21260Y-79528D02*
X-18898D01*
X-12598D02*
X-10236D01*
X-25394Y-130315D02*
X-25197Y-130118D01*
Y-79528D01*
X-6299Y-88702D02*
X-5759Y-89243D01*
X-6299Y-88702D02*
Y-79528D01*
X-59842Y82509D02*
Y87509D01*
Y92520D01*
X-62205D02*
X-59842D01*
X-85827Y-41039D02*
X-85236Y-40449D01*
X-111811Y-41039D02*
Y-33362D01*
X-122047Y-41039D02*
X-111811D01*
X-116535Y-43598D02*
X-111811D01*
X-117717Y-44780D02*
X-116535Y-43598D01*
X-116339Y-46158D02*
X-111811D01*
X-117717Y-44780D02*
X-116339Y-46158D01*
X-96260Y-41039D02*
X-85827D01*
X-62205Y126969D02*
X-61417Y127756D01*
Y128543D02*
X-53937D01*
Y131102D01*
X-74803Y-104724D02*
Y-102362D01*
X-84646Y-104624D02*
Y-102262D01*
X-94488Y-104724D02*
Y-102362D01*
X-104331Y-104724D02*
Y-102362D01*
X-114173Y-104724D02*
Y-102362D01*
X-80709Y-102262D02*
Y-92716D01*
X-77756Y-89764D01*
X-70866Y-95669D02*
X-64961Y-89764D01*
X-70866Y-102362D02*
X-68504D01*
X-70866D02*
Y-95669D01*
Y-119882D02*
Y-102362D01*
Y-119882D02*
X-70866Y-119882D01*
X-141239Y-108268D02*
Y-105905D01*
X-141339Y-88189D02*
Y-85827D01*
X-159252Y-40814D02*
X-159186Y-40748D01*
X-141339D01*
X-134646D02*
X-132677Y-42717D01*
X-141339Y-40748D02*
X-134646D01*
X-141339Y-47047D02*
Y-44685D01*
X-141404Y-40814D02*
X-141339Y-40748D01*
X-141439Y-26969D02*
Y-24606D01*
X-159185Y20669D02*
X-141337D01*
X-134644D02*
X-132676Y18701D01*
X-141337Y20669D02*
X-134644D01*
X-141337Y14370D02*
Y16732D01*
X-141403Y20604D02*
X-141337Y20669D01*
X-141437Y34449D02*
Y36811D01*
X-96260Y22740D02*
X-85827D01*
X-85236Y23331D01*
X-111811Y22740D02*
Y30417D01*
X-122047Y22740D02*
X-111811D01*
X-116339Y17622D02*
X-111811D01*
X-117717Y19000D02*
X-116339Y17622D01*
X-117717Y19000D02*
X-116535Y20181D01*
X-111811D01*
X-96260Y86520D02*
X-85827D01*
X-85236Y87110D01*
X-111811Y86520D02*
Y94197D01*
X-122047Y86520D02*
X-111811D01*
X-116339Y81402D02*
X-111811D01*
X-117717Y82780D02*
X-116339Y81402D01*
X-117717Y82780D02*
X-116535Y83961D01*
X-111811D01*
X85905Y-66835D02*
X96339D01*
X85315Y-67425D02*
X85905Y-66835D01*
X111890Y-74512D02*
Y-66835D01*
Y-61717D02*
X116417D01*
X117795Y-63095D01*
X116614Y-64276D02*
X117795Y-63095D01*
X111890Y-64276D02*
X116614D01*
X141339Y-108366D02*
Y-106004D01*
X141239Y-92224D02*
X141304Y-92159D01*
X134546Y-92224D02*
X141239D01*
X132577Y-90256D02*
X134546Y-92224D01*
X159086D02*
X159152Y-92159D01*
X141239Y-92224D02*
X159086D01*
X141239Y-30709D02*
X159086D01*
X134546D02*
X141239D01*
X132577Y-28740D02*
X134546Y-30709D01*
X141239Y-26772D02*
Y-24409D01*
Y-30709D02*
X141304Y-30643D01*
X141339Y-46850D02*
Y-44488D01*
X141258Y30516D02*
X159106D01*
X159172Y30581D01*
X134565Y30516D02*
X141258D01*
X132597Y32484D02*
X134565Y30516D01*
X141258Y34453D02*
Y36815D01*
Y30516D02*
X141324Y30581D01*
X141358Y14374D02*
Y16736D01*
X85905Y-3055D02*
X96339D01*
X85315Y-3646D02*
X85905Y-3055D01*
X111890Y-10732D02*
Y-3055D01*
X116614Y-496D02*
X117795Y685D01*
X111890Y-496D02*
X116614D01*
X111890Y2063D02*
X116417D01*
X117795Y685D01*
X85905Y60724D02*
X96339D01*
X85315Y60134D02*
X85905Y60724D01*
X111890Y53047D02*
Y60724D01*
X122126D01*
X116614Y63283D02*
X117795Y64465D01*
X111890Y63283D02*
X116614D01*
X111890Y65842D02*
X116417D01*
X117795Y64465D01*
X44488Y78347D02*
Y80709D01*
X-159252Y92126D02*
X-141339D01*
X-159252Y92126D02*
X-159252Y92126D01*
Y82284D02*
X-141339D01*
X-159252Y82284D02*
X-159252Y82284D01*
X-141339Y75984D02*
Y78347D01*
Y85827D02*
Y88189D01*
Y95669D02*
Y98032D01*
Y82284D02*
X-136615D01*
X-132678Y78347D01*
X-141339Y92126D02*
X-132678D01*
X-123627Y117877D02*
Y121165D01*
Y114590D02*
Y117877D01*
X159252Y82284D02*
X159252Y82284D01*
X141339Y92126D02*
X159252D01*
X159252Y92126D01*
X159252Y101969D02*
X159252Y101969D01*
X136615Y101969D02*
X159252D01*
X132678Y105905D02*
X136615Y101969D01*
X132678Y92126D02*
X141339D01*
Y96063D02*
Y98425D01*
Y86221D02*
Y88583D01*
X61122Y-119882D02*
X61122Y-119882D01*
X80807Y-119882D02*
X80807Y-119882D01*
X80807Y-97245D02*
X84744Y-93308D01*
X84744Y-101969D02*
X87106D01*
X74902D02*
X77264D01*
X65059D02*
X67421D01*
X79637Y-93308D02*
X84744D01*
X28858Y7343D02*
X29803Y6398D01*
X40453D01*
X29803Y13287D02*
X40453D01*
X28858Y12342D02*
X29803Y13287D01*
X114173Y-136811D02*
X116535D01*
X127165D02*
X129528D01*
X153351Y-140845D02*
Y-134992D01*
X153300Y-134941D02*
X153351Y-134992D01*
X153300Y-134941D02*
Y-128005D01*
X153248Y-127953D02*
X153300Y-128005D01*
X125689Y-127953D02*
X130512Y-132776D01*
X141055D01*
X148901Y-140622D01*
Y-140938D02*
Y-140622D01*
X49016Y94193D02*
X61516Y81693D01*
X58169Y49606D02*
Y75394D01*
X46949Y86614D02*
X58169Y75394D01*
X156988Y-154331D02*
Y-145669D01*
X61516Y49606D02*
Y81693D01*
X70965Y-119882D02*
Y-101969D01*
Y-93308D01*
X70965Y-93308D02*
X70965Y-93308D01*
X141339Y71457D02*
Y73819D01*
X-141339Y110433D02*
Y112795D01*
X110728Y117461D02*
X114272D01*
X124508Y111122D02*
Y113484D01*
X-159250Y20604D02*
X-159185Y20669D01*
X-122047Y82677D02*
Y90752D01*
Y18898D02*
Y26874D01*
X127146Y-66811D02*
X132577Y-72242D01*
X122126Y-66835D02*
Y-62254D01*
Y-60142D01*
X111890Y-3055D02*
X117126D01*
X122126D01*
X122126Y1945D02*
Y3638D01*
Y-3055D02*
Y1945D01*
X159086Y-30709D02*
X159152Y-30643D01*
X122126Y60724D02*
Y65305D01*
Y67417D01*
X80807Y-119882D02*
Y-97245D01*
X65075Y-78746D02*
X79637Y-93308D01*
X-109646Y111772D02*
Y113999D01*
X-62598Y107087D02*
X-60039D01*
X54819Y-82486D02*
X61394D01*
X61985Y-68509D02*
X64347D01*
X141233Y-88287D02*
Y-86060D01*
X141339Y105807D02*
Y108169D01*
D11*
X25287Y-79724D02*
G03*
X32358Y-76796I0J10000D01*
G01*
X33784D02*
G03*
X40855Y-79724I7071J7071D01*
G01*
X33071Y-76083D02*
Y-67421D01*
Y-79626D02*
Y-76083D01*
X-159152Y-92192D02*
X-159086Y-92126D01*
X-134546D02*
X-132577Y-90158D01*
X-141339Y-92126D02*
X-134546D01*
X-159086D02*
X-141339D01*
X145177Y-150000D02*
Y-145669D01*
Y-154331D02*
Y-150000D01*
X-61614Y116929D02*
X-55905Y122638D01*
X-61614Y116929D02*
X-53937D01*
X-107874Y-33362D02*
Y-30706D01*
X-122047Y-62890D02*
X-119391D01*
X-81102Y-66827D02*
Y-63874D01*
X-113779Y-58953D02*
X-113386Y-58559D01*
X-122047Y-58953D02*
X-113779D01*
X-96260Y-48717D02*
Y-46354D01*
Y-65252D02*
Y-48717D01*
X-53937Y116929D02*
Y122638D01*
X-55905D02*
X-53937D01*
X-62205Y115551D02*
X-61614Y116142D01*
X-53937Y122638D02*
X-43386D01*
X-122047Y-58953D02*
Y-53638D01*
X-132577Y-90158D02*
Y-67223D01*
X-124307Y-58953D01*
X-122047D01*
Y-47732D02*
Y-44882D01*
X-159252Y-30971D02*
X-159186Y-30906D01*
X-141439D01*
X-134646D01*
X-159185Y30512D02*
X-141437D01*
X-134644D01*
X-132676Y32480D01*
X-107874Y30417D02*
Y33073D01*
X-122047Y890D02*
X-119391D01*
X-122047Y4827D02*
Y10142D01*
Y4827D02*
X-113779D01*
X-122047Y16047D02*
Y18898D01*
X-81102Y-3047D02*
Y-94D01*
X-113779Y4827D02*
X-113386Y5221D01*
X-96260Y-1472D02*
Y15063D01*
Y17425D01*
X-107874Y94197D02*
Y96853D01*
X-122047Y64669D02*
X-119391D01*
X-124307Y68606D02*
X-122047D01*
X-113779D01*
X-81102Y60732D02*
Y63685D01*
X-113779Y68606D02*
X-113386Y69000D01*
X-96260Y62307D02*
Y78843D01*
Y81205D01*
X-132677Y-3937D02*
X-123913Y4827D01*
X-122047D01*
X-132677Y60236D02*
X-124307Y68606D01*
X-132677Y33858D02*
Y60236D01*
X-122047Y68606D02*
Y74906D01*
X107953Y-77168D02*
Y-74512D01*
X119470Y-44984D02*
X122126D01*
X81181Y-44000D02*
Y-41047D01*
X113465Y-49315D02*
X113858Y-48921D01*
X96339Y-59158D02*
Y-42622D01*
Y-61520D02*
Y-59158D01*
X134546Y-102067D02*
X141339D01*
X132577Y-104035D02*
X134546Y-102067D01*
X159086D02*
X159152Y-102001D01*
X141339Y-102067D02*
X159086D01*
X141339Y-40551D02*
X159086D01*
X132577Y-42520D02*
X134546Y-40551D01*
X141339D01*
X141358Y20673D02*
X159106D01*
X159172Y20739D01*
X132597Y18705D02*
X134565Y20673D01*
X141358D01*
X122126Y-52071D02*
Y-48921D01*
Y-54236D02*
Y-52071D01*
X113858Y-48921D02*
X122126D01*
X107953Y-13388D02*
Y-10732D01*
X119470Y18795D02*
X122126D01*
Y11709D02*
Y14858D01*
X113858D02*
X122126D01*
X81181Y19780D02*
Y22732D01*
X96339Y4622D02*
Y21158D01*
Y2260D02*
Y4622D01*
X107953Y50391D02*
Y53047D01*
X119470Y82575D02*
X122126D01*
Y73323D02*
Y75488D01*
Y78638D01*
X113858D02*
X122126D01*
X81181Y83559D02*
Y86512D01*
X113465Y78244D02*
X113858Y78638D01*
X96339Y68402D02*
Y84937D01*
Y66039D02*
Y68402D01*
X122126Y9543D02*
Y11709D01*
X-134646Y-30906D02*
X-132677Y-28937D01*
Y-29921D02*
Y-28937D01*
Y-3937D01*
X-122047Y78843D02*
Y82677D01*
X-159250Y30446D02*
X-159185Y30512D01*
X159086Y-40551D02*
X159152Y-40486D01*
X1772Y-79724D02*
X25287D01*
X32358Y-76796D02*
X33071Y-76083D01*
X25287Y-79724D02*
X40855D01*
X49311D01*
X-6102Y-71850D02*
X1772Y-79724D01*
X-6102Y-71850D02*
Y-60400D01*
X-10289Y-56213D02*
X-6102Y-60400D01*
X33071Y-76083D02*
X33784Y-76796D01*
D12*
X-81102Y60732D02*
D03*
Y76480D02*
D03*
Y-3047D02*
D03*
Y12701D02*
D03*
Y-66827D02*
D03*
Y-51079D02*
D03*
X81181Y-41047D02*
D03*
Y-56795D02*
D03*
Y22732D02*
D03*
Y6984D02*
D03*
Y86512D02*
D03*
Y70764D02*
D03*
D13*
X1181Y-52854D02*
D03*
X16929D02*
D03*
D14*
X114469Y110492D02*
D03*
X110728Y117461D02*
D03*
X118209D02*
D03*
X-119887Y110909D02*
D03*
X-123627Y117877D02*
D03*
X-116147D02*
D03*
D15*
X65098Y-78740D02*
D03*
X58130Y-82480D02*
D03*
Y-75000D02*
D03*
D16*
X-30807Y-61417D02*
D03*
Y-52362D02*
D03*
Y-43307D02*
D03*
D17*
X-55216Y-52362D02*
D03*
D18*
X-104035Y82681D02*
D03*
Y18902D02*
D03*
Y-44878D02*
D03*
X104114Y-62996D02*
D03*
Y783D02*
D03*
Y64563D02*
D03*
D19*
X-96260Y78843D02*
D03*
Y81402D02*
D03*
Y83961D02*
D03*
Y86520D02*
D03*
X-111811Y78843D02*
D03*
Y81402D02*
D03*
Y83961D02*
D03*
Y86520D02*
D03*
X-96260Y15063D02*
D03*
Y17622D02*
D03*
Y20181D02*
D03*
Y22740D02*
D03*
X-111811Y15063D02*
D03*
Y17622D02*
D03*
Y20181D02*
D03*
Y22740D02*
D03*
X-96260Y-48717D02*
D03*
Y-46158D02*
D03*
Y-43598D02*
D03*
Y-41039D02*
D03*
X-111811Y-48717D02*
D03*
Y-46158D02*
D03*
Y-43598D02*
D03*
Y-41039D02*
D03*
X96339Y-59158D02*
D03*
Y-61717D02*
D03*
Y-64276D02*
D03*
Y-66835D02*
D03*
X111890Y-59158D02*
D03*
Y-61717D02*
D03*
Y-64276D02*
D03*
Y-66835D02*
D03*
X96339Y4622D02*
D03*
Y2063D02*
D03*
Y-496D02*
D03*
Y-3055D02*
D03*
X111890Y4622D02*
D03*
Y2063D02*
D03*
Y-496D02*
D03*
Y-3055D02*
D03*
X96339Y68402D02*
D03*
Y65842D02*
D03*
Y63283D02*
D03*
Y60724D02*
D03*
X111890Y68402D02*
D03*
Y65842D02*
D03*
Y63283D02*
D03*
Y60724D02*
D03*
D20*
X110236Y-149016D02*
D03*
X133465D02*
D03*
D21*
X28029Y-52762D02*
D03*
Y-54730D02*
D03*
Y-56699D02*
D03*
Y-58667D02*
D03*
X39840D02*
D03*
Y-56699D02*
D03*
Y-54730D02*
D03*
Y-52762D02*
D03*
D22*
X30982Y-61620D02*
D03*
X32950D02*
D03*
X34919D02*
D03*
X36887D02*
D03*
Y-49809D02*
D03*
X34919D02*
D03*
X32950D02*
D03*
X30982D02*
D03*
D23*
X33934Y-55714D02*
D03*
D24*
X18858Y7343D02*
D03*
Y12342D02*
D03*
X23858Y7343D02*
D03*
Y12342D02*
D03*
X28858Y7343D02*
D03*
Y12342D02*
D03*
X13858D02*
D03*
X8858D02*
D03*
Y7343D02*
D03*
X13858D02*
D03*
D25*
X14626Y56693D02*
D03*
X9626D02*
D03*
X4626D02*
D03*
X-374D02*
D03*
X-5374D02*
D03*
X-10374D02*
D03*
X-15374D02*
D03*
X-20374D02*
D03*
X-25374D02*
D03*
X-30374D02*
D03*
D03*
D26*
X-43307Y62559D02*
D03*
Y67559D02*
D03*
Y72559D02*
D03*
Y77559D02*
D03*
Y82559D02*
D03*
Y87559D02*
D03*
Y92559D02*
D03*
Y97559D02*
D03*
Y102559D02*
D03*
Y107559D02*
D03*
Y112559D02*
D03*
Y117559D02*
D03*
Y122559D02*
D03*
Y127559D02*
D03*
X27559Y62559D02*
D03*
Y67559D02*
D03*
Y72559D02*
D03*
Y77559D02*
D03*
Y82559D02*
D03*
Y87559D02*
D03*
Y92559D02*
D03*
Y97559D02*
D03*
Y102559D02*
D03*
Y107559D02*
D03*
Y112559D02*
D03*
Y117559D02*
D03*
Y122559D02*
D03*
Y127559D02*
D03*
D27*
X-11929Y98465D02*
D03*
D28*
X25394Y-130315D02*
D03*
X-25394D02*
D03*
D29*
X2559Y-95079D02*
D03*
D30*
X152657Y-152559D02*
D03*
X149508D02*
D03*
D31*
X156988Y-154331D02*
D03*
X145177D02*
D03*
D32*
X48524Y-148622D02*
D03*
X93405D02*
D03*
X-122835D02*
D03*
X-58268D02*
D03*
D33*
X80807Y-119882D02*
D03*
X70965D02*
D03*
X61122D02*
D03*
X-110236D02*
D03*
X-100394D02*
D03*
X-90551D02*
D03*
X-80709D02*
D03*
X-70866D02*
D03*
D34*
X187992Y69685D02*
D03*
Y114567D02*
D03*
X-187992D02*
D03*
Y69685D02*
D03*
Y43154D02*
D03*
Y8114D02*
D03*
Y-18221D02*
D03*
Y-53260D02*
D03*
Y-79594D02*
D03*
Y-114634D02*
D03*
X187992D02*
D03*
Y-79594D02*
D03*
Y-53260D02*
D03*
Y-18221D02*
D03*
Y8114D02*
D03*
Y43154D02*
D03*
D35*
X159252Y101969D02*
D03*
Y92126D02*
D03*
Y82284D02*
D03*
X-159252D02*
D03*
Y92126D02*
D03*
Y101969D02*
D03*
Y20713D02*
D03*
Y30555D02*
D03*
Y-40661D02*
D03*
Y-30819D02*
D03*
Y-102035D02*
D03*
Y-92193D02*
D03*
X159252D02*
D03*
Y-102035D02*
D03*
Y-30819D02*
D03*
Y-40661D02*
D03*
Y30555D02*
D03*
Y20713D02*
D03*
D36*
X141240Y105905D02*
D03*
Y101969D02*
D03*
X124508Y117520D02*
D03*
Y113583D02*
D03*
X49311Y-83661D02*
D03*
Y-79724D02*
D03*
X141339Y86221D02*
D03*
Y82284D02*
D03*
Y77756D02*
D03*
Y73819D02*
D03*
X-141339Y106496D02*
D03*
Y110433D02*
D03*
X-122047Y64669D02*
D03*
Y68606D02*
D03*
Y890D02*
D03*
Y4827D02*
D03*
Y-62890D02*
D03*
Y-58953D02*
D03*
X122126Y-44984D02*
D03*
Y-48921D02*
D03*
Y18795D02*
D03*
Y14858D02*
D03*
Y82575D02*
D03*
Y78638D02*
D03*
X-53937Y112992D02*
D03*
Y116929D02*
D03*
X50000Y111811D02*
D03*
Y107874D02*
D03*
X27559Y46457D02*
D03*
Y42520D02*
D03*
X-109651Y117937D02*
D03*
Y113999D02*
D03*
X47244Y-62303D02*
D03*
Y-66240D02*
D03*
X-141337Y16732D02*
D03*
Y20669D02*
D03*
X-141437Y34449D02*
D03*
Y30512D02*
D03*
X-141339Y-44685D02*
D03*
Y-40748D02*
D03*
X-141439Y-26969D02*
D03*
Y-30906D02*
D03*
X-141239Y-105905D02*
D03*
Y-101969D02*
D03*
X-141339Y-88189D02*
D03*
Y-92126D02*
D03*
X141239Y-88287D02*
D03*
Y-92224D02*
D03*
X141339Y-106004D02*
D03*
Y-102067D02*
D03*
X141239Y-26772D02*
D03*
Y-30709D02*
D03*
X141339Y-44488D02*
D03*
Y-40551D02*
D03*
X141258Y34453D02*
D03*
Y30516D02*
D03*
X141358Y16736D02*
D03*
Y20673D02*
D03*
X-141339Y78347D02*
D03*
Y82284D02*
D03*
Y88189D02*
D03*
Y92126D02*
D03*
Y98032D02*
D03*
Y101969D02*
D03*
X141339Y96063D02*
D03*
Y92126D02*
D03*
D37*
X84744Y-101969D02*
D03*
X80807D02*
D03*
X58071Y-68504D02*
D03*
X62008D02*
D03*
X-100394Y-97244D02*
D03*
X-104331D02*
D03*
X-110236D02*
D03*
X-114173D02*
D03*
X-74803Y-102362D02*
D03*
X-70866D02*
D03*
X-80709Y-102262D02*
D03*
X-84646D02*
D03*
X-94488Y-102362D02*
D03*
X-90551D02*
D03*
X-104331D02*
D03*
X-100394D02*
D03*
X-114173D02*
D03*
X-110236D02*
D03*
X-111811Y94197D02*
D03*
X-107874D02*
D03*
X-111811Y30417D02*
D03*
X-107874D02*
D03*
X-111811Y-33362D02*
D03*
X-107874D02*
D03*
X111890Y-74512D02*
D03*
X107953D02*
D03*
X111890Y-10732D02*
D03*
X107953D02*
D03*
X111890Y53047D02*
D03*
X107953D02*
D03*
X32677Y46188D02*
D03*
X36614D02*
D03*
X157237Y-134941D02*
D03*
X153300D02*
D03*
X-59842Y92520D02*
D03*
X-55905D02*
D03*
X-59842Y87509D02*
D03*
X-55905D02*
D03*
X-59842Y82509D02*
D03*
X-55905D02*
D03*
X44488Y68504D02*
D03*
X40551D02*
D03*
X44488Y73396D02*
D03*
X40551D02*
D03*
X44488Y78347D02*
D03*
X40551D02*
D03*
X37008Y-67421D02*
D03*
X33071D02*
D03*
X141240Y-145669D02*
D03*
X145177D02*
D03*
X160925Y-145669D02*
D03*
X156988D02*
D03*
X157288Y-140845D02*
D03*
X153351D02*
D03*
X144964Y-140938D02*
D03*
X148901D02*
D03*
X74902Y-101969D02*
D03*
X70965D02*
D03*
X65059D02*
D03*
X61122D02*
D03*
X-10236Y-79528D02*
D03*
X-6299D02*
D03*
X-25197D02*
D03*
X-21260D02*
D03*
X114173Y-136811D02*
D03*
X110236D02*
D03*
X133465D02*
D03*
X129528D02*
D03*
D38*
X-53937Y122638D02*
D03*
Y128543D02*
D03*
X-122047Y79827D02*
D03*
Y73921D02*
D03*
Y-47732D02*
D03*
Y-53638D02*
D03*
Y10142D02*
D03*
Y16047D02*
D03*
X122126Y-60142D02*
D03*
Y-54236D02*
D03*
Y67417D02*
D03*
Y73323D02*
D03*
Y9543D02*
D03*
Y3638D02*
D03*
X47244Y-56595D02*
D03*
Y-50689D02*
D03*
X-2362Y-21161D02*
D03*
Y-27067D02*
D03*
X-21063Y-52362D02*
D03*
Y-58268D02*
D03*
D39*
X-60039Y106693D02*
D03*
X-54134D02*
D03*
X-85236Y87110D02*
D03*
X-79331D02*
D03*
X-85236Y23331D02*
D03*
X-79331D02*
D03*
X-85236Y-40449D02*
D03*
X-79331D02*
D03*
X85315Y-67425D02*
D03*
X79409D02*
D03*
X85315Y-3646D02*
D03*
X79409D02*
D03*
X85315Y60134D02*
D03*
X79409D02*
D03*
X20669Y-63484D02*
D03*
X14764D02*
D03*
X46949Y86614D02*
D03*
X41043D02*
D03*
X-21260Y-45374D02*
D03*
X-15354D02*
D03*
D40*
X49016Y94193D02*
D03*
X41535D02*
D03*
D41*
X-122047Y99217D02*
D03*
Y91736D02*
D03*
Y35339D02*
D03*
Y27858D02*
D03*
Y-28638D02*
D03*
Y-36118D02*
D03*
X122126Y-79532D02*
D03*
Y-72051D02*
D03*
Y-15457D02*
D03*
Y-7976D02*
D03*
Y48323D02*
D03*
Y55803D02*
D03*
D42*
X-62205Y115551D02*
D03*
Y126969D02*
D03*
X15354Y-21949D02*
D03*
Y-33366D02*
D03*
X-12992Y-52362D02*
D03*
Y-63779D02*
D03*
X5709Y-21949D02*
D03*
Y-33366D02*
D03*
D43*
X-87992Y94984D02*
D03*
X-76575D02*
D03*
X-87992Y31205D02*
D03*
X-76575D02*
D03*
X-87992Y-32575D02*
D03*
X-76575D02*
D03*
X88071Y-75299D02*
D03*
X76653D02*
D03*
X88071Y-11520D02*
D03*
X76653D02*
D03*
X88071Y52260D02*
D03*
X76653D02*
D03*
X19882Y-71358D02*
D03*
X8465D02*
D03*
X-20472Y-37303D02*
D03*
X-9055D02*
D03*
D44*
X-94685Y60732D02*
D03*
X-113189D02*
D03*
X-94685Y-3047D02*
D03*
X-113189D02*
D03*
X-94685Y-66827D02*
D03*
X-113189D02*
D03*
X94764Y-41047D02*
D03*
X113268D02*
D03*
X94764Y22732D02*
D03*
X113268D02*
D03*
X94764Y86512D02*
D03*
X113268D02*
D03*
D45*
X33858Y-21949D02*
D03*
Y-40453D02*
D03*
D46*
X-30807Y-43307D02*
X-22146D01*
X15354Y-21949D02*
X33858D01*
X-40112Y-52362D02*
X-30807D01*
X-43012D02*
X-40112D01*
X-45912D02*
X-43012D01*
X-55216D02*
X-45912D01*
X-64961Y-89763D02*
X-55216Y-80019D01*
X-30807Y-52362D02*
X-21063D01*
X-12992D01*
X-12795D01*
X-55216Y-80019D02*
Y-52362D01*
X-22146Y-43307D02*
Y-38976D01*
X-21260Y-38091D01*
X-20472Y-37303D01*
D47*
X42913Y-73327D02*
X45472D01*
X37008Y-67421D02*
X42913Y-73327D01*
X47244Y-62303D02*
X53347D01*
X23819Y15394D02*
Y31004D01*
X19094Y35728D02*
X23819Y31004D01*
X19094Y35728D02*
Y108366D01*
X18858Y15433D02*
Y33878D01*
X17618Y35118D02*
X18858Y33878D01*
X17165Y16969D02*
Y33622D01*
X9843Y40945D02*
X17165Y33622D01*
X17618Y35118D02*
Y103642D01*
X23287Y112559D02*
X27559D01*
X19094Y108366D02*
X23287Y112559D01*
X3701Y117559D02*
X17618Y103642D01*
X13858Y13661D02*
X17165Y16969D01*
X13858Y12342D02*
Y13661D01*
X14469Y-6594D02*
X17323Y-3740D01*
X7382Y-6594D02*
X14469D01*
X-492Y1280D02*
X7382Y-6594D01*
X-492Y1280D02*
Y10433D01*
X-34843Y44783D02*
X-492Y10433D01*
X-34843Y44783D02*
Y54094D01*
X-33465Y45571D02*
X2165Y9941D01*
X-33465Y45571D02*
Y58833D01*
X-35413Y-8465D02*
X29744D01*
X2165Y9941D02*
X6260D01*
X-40472Y-3405D02*
X-35413Y-8465D01*
X-14961Y36833D02*
X8858Y13014D01*
X-14961Y36833D02*
Y40945D01*
X8858Y12342D02*
Y13014D01*
X6260Y9941D02*
X8858Y7343D01*
X45866Y-1850D02*
Y32999D01*
X32677Y46188D02*
X45866Y32999D01*
X20472Y42421D02*
X44488Y18406D01*
X20472Y42421D02*
Y103740D01*
X44488Y-1280D02*
Y18406D01*
X20472Y103740D02*
X24291Y107559D01*
X-45472Y11594D02*
Y38583D01*
X-63976Y57087D02*
X-45472Y38583D01*
X-63976Y57087D02*
Y73622D01*
X-63937Y-16870D02*
X-50472Y-3405D01*
X-63937Y-75020D02*
Y-16870D01*
X-100394Y-102362D02*
Y-92716D01*
X-65315Y-74449D02*
Y-8248D01*
X-50472Y6594D01*
X-45472Y11594D01*
X-110236Y-102362D02*
Y-95669D01*
X-66693Y374D02*
X-50472Y16594D01*
X-66693Y-73878D02*
Y374D01*
Y32815D02*
X-50472Y16594D01*
X-43307Y102559D02*
X-37205D01*
X-43307Y97559D02*
X-32756D01*
X-32677Y97638D01*
X-61417Y76181D02*
X-52559D01*
X-63976Y73622D02*
X-61417Y76181D01*
X-43307Y117559D02*
X3701D01*
X22953Y82559D02*
X27559D01*
Y97559D02*
X35748D01*
X38724Y102559D02*
X41877Y99406D01*
X27559Y102559D02*
X38724D01*
X23957Y42579D02*
X24016Y42520D01*
X27559D01*
X-43307Y62559D02*
X-34843Y54094D01*
X-42191Y67559D02*
X-33465Y58833D01*
X-43307Y67559D02*
X-42191D01*
X-54134Y106693D02*
Y107087D01*
Y104527D02*
Y106693D01*
X50000Y102362D02*
Y107874D01*
Y111811D02*
Y118110D01*
X45551Y122559D02*
X50000Y118110D01*
X27559Y122559D02*
X45551D01*
X27953Y78347D02*
X35039D01*
X27953Y68347D02*
X35039D01*
X27953Y73347D02*
X35039D01*
X35089Y73396D02*
X40551D01*
X35039Y78347D02*
X40501D01*
X-55905Y82509D02*
X-55856Y82559D01*
X-50394D01*
X-50444Y87509D02*
X-50394Y87559D01*
X-55905Y87509D02*
X-50444D01*
X-50394Y87559D02*
X-43307D01*
X-43465Y87402D02*
X-43307Y87559D01*
X-50433Y92520D02*
X-50394Y92559D01*
X-55905Y92520D02*
X-50433D01*
X-111811Y-51968D02*
Y-48717D01*
X-50394Y92559D02*
X-43307D01*
X-50394Y82559D02*
X-43307D01*
X43268Y62559D02*
X43307Y62598D01*
X27559Y62559D02*
X43268D01*
X39291Y107559D02*
X43307Y103543D01*
X27559Y107559D02*
X39291D01*
X39330Y112559D02*
X43306Y116535D01*
X27559Y112559D02*
X39330D01*
X-59055Y99606D02*
X-54134Y104527D01*
X-59055Y58661D02*
X-55158Y62559D01*
X-43307D01*
X-59055Y71653D02*
X-54961Y67559D01*
X-43307D01*
X-53937Y107283D02*
Y112992D01*
X-49370Y117559D01*
X-43307D01*
X39840Y-58667D02*
X43608D01*
X47244Y-62303D01*
X36887Y-67301D02*
Y-61620D01*
X27559Y46457D02*
Y62559D01*
Y46457D02*
X27559Y46457D01*
X32184D01*
X-52559Y76181D02*
X-48937Y72559D01*
X-43307D01*
X27559Y117559D02*
X32913D01*
X-25374Y51358D02*
X-14961Y40945D01*
X-25374Y51358D02*
Y56693D01*
X-116142Y-89764D02*
X-110236Y-95669D01*
X-103347Y-89764D02*
X-100394Y-92716D01*
X-90551Y-102362D02*
Y-89764D01*
Y-119882D02*
Y-102362D01*
X-100394Y-119882D02*
Y-102362D01*
X-110236Y-119882D02*
Y-102362D01*
X-111811Y11811D02*
Y15063D01*
Y75591D02*
Y78843D01*
X111890Y-59158D02*
Y-55905D01*
Y4622D02*
Y7874D01*
Y68402D02*
Y71653D01*
X35079Y68386D02*
X40551D01*
X-116147Y117877D02*
X-109710D01*
X-109651Y117937D01*
X118209Y117461D02*
X124547D01*
X41877Y99406D02*
X50142D01*
X114724Y113976D02*
X118209Y117461D01*
X66732Y113976D02*
X114724D01*
X52165Y99410D02*
X66732Y113976D01*
X50145Y99410D02*
X52165D01*
X50142Y99406D02*
X50145Y99410D01*
X58107Y-75005D02*
Y-68568D01*
X58048Y-68509D02*
X58107Y-68568D01*
X9626Y41161D02*
Y56693D01*
X14626Y42579D02*
Y56693D01*
X23819Y12382D02*
X23858Y12342D01*
X38681Y-7087D02*
X44488Y-1280D01*
X30315Y-7087D02*
X38681D01*
X23858Y-630D02*
X30315Y-7087D01*
X9626Y41161D02*
X9843Y40945D01*
Y40946D01*
X39252Y-8465D02*
X45866Y-1850D01*
X18858Y2421D02*
Y7343D01*
X13858D02*
X17323Y3878D01*
Y-3740D02*
Y3878D01*
X110236Y-149016D02*
Y-136811D01*
Y-133169D01*
X18858Y2421D02*
X29744Y-8465D01*
X39252D01*
X18858Y12342D02*
Y15433D01*
X18858Y15433D01*
X23819Y12382D02*
Y15394D01*
X23858Y-630D02*
Y4331D01*
Y7343D01*
X-116142Y-89763D02*
X-108071Y-81693D01*
X-74508D01*
X-66693Y-73878D01*
X-103347Y-89763D02*
X-96654Y-83071D01*
X-73937D01*
X-65315Y-74449D01*
X-90551Y-89763D02*
X-85237Y-84449D01*
X-73366D01*
X-63937Y-75020D01*
X49311Y-85433D02*
Y-83661D01*
Y-85433D02*
X57185Y-93307D01*
X-43307Y112559D02*
X-34606D01*
X-27559Y105512D01*
Y66929D02*
Y105512D01*
X-43307Y107559D02*
X-37205D01*
X-109651Y117937D02*
X-105830D01*
X24291Y107559D02*
X27559D01*
X22835Y102559D02*
X27559D01*
X58048Y-68509D02*
Y33389D01*
X32874Y58563D02*
X58048Y33389D01*
X-159252Y101969D02*
X-141339D01*
Y106496D01*
X-141339Y101969D02*
X-136615D01*
X-132677Y105906D01*
Y117225D01*
X-125787Y124114D01*
X-93307D01*
X-64863Y95670D01*
X-46554D01*
X-44665Y97559D01*
X-43307D01*
X-66693Y32815D02*
Y73858D01*
X-62992Y77559D01*
X-43307D01*
D48*
X31966Y-57683D02*
X33934Y-55714D01*
X30982Y-58667D02*
X31966Y-57683D01*
X28029Y-58667D02*
X30982D01*
X39840Y-56699D02*
X47140D01*
X39840Y-54730D02*
X42611D01*
X43305Y-54036D01*
X133465Y-149016D02*
Y-136811D01*
X27258Y-58667D02*
X28029D01*
X25000Y-60925D02*
X27258Y-58667D01*
D49*
X27559Y92559D02*
X40512D01*
X27559Y87559D02*
X40846D01*
X44488Y-66240D02*
X47244D01*
X-104331Y-97244D02*
Y-94882D01*
X-114173Y-97244D02*
Y-94882D01*
X152657Y-152559D02*
Y-141539D01*
X153351Y-140845D01*
X149508Y-152559D02*
Y-141545D01*
X148901Y-140938D02*
X149508Y-141545D01*
D50*
X-87992Y-32575D02*
X-85236Y-35331D01*
Y-40449D02*
Y-35331D01*
Y-43795D02*
X-84252Y-44780D01*
X-85236Y-43795D02*
Y-40449D01*
X-79331Y23331D02*
X-76772D01*
X-85236Y19984D02*
X-84252Y19000D01*
X-85236Y19984D02*
Y23331D01*
Y28449D01*
X-87992Y31205D02*
X-85236Y28449D01*
X-79331Y87110D02*
X-76772D01*
X-85236Y83764D02*
X-84252Y82780D01*
X-85236Y83764D02*
Y87110D01*
Y92228D01*
X-87992Y94984D02*
X-85236Y92228D01*
X76850Y-67425D02*
X79409D01*
X85315D02*
Y-64079D01*
X84331Y-63095D02*
X85315Y-64079D01*
Y-72543D02*
Y-67425D01*
Y-72543D02*
X88071Y-75299D01*
X76850Y-3646D02*
X79409D01*
X84331Y685D02*
X85315Y-299D01*
Y-8764D02*
Y-3646D01*
Y-299D01*
Y-8764D02*
X88071Y-11520D01*
X76850Y60134D02*
X79409D01*
X84331Y64465D02*
X85315Y63480D01*
Y55016D02*
Y60134D01*
Y63480D01*
Y55016D02*
X88071Y52260D01*
X-79331Y-40449D02*
X-76772D01*
X-15354Y-45374D02*
X-12598D01*
X-21063Y-61024D02*
Y-58268D01*
X12008Y-63484D02*
X14764D01*
X-21260Y-45374D02*
Y-38091D01*
D51*
X-94685Y-66827D02*
X-81102D01*
X-94685Y-3047D02*
X-81102D01*
X-94685Y60732D02*
X-81102D01*
X81181Y-41047D02*
X94764D01*
X81181Y22732D02*
X94764D01*
X81181Y86512D02*
X94764D01*
D52*
X47140Y-56699D02*
X47244Y-56595D01*
X37084Y-49809D02*
X37964Y-50689D01*
X30982Y-49809D02*
Y-43329D01*
X33858Y-40453D01*
X32950Y-46676D02*
X33858Y-45768D01*
X34919Y-46828D01*
X32950Y-49809D02*
Y-46676D01*
X34919Y-49809D02*
Y-46828D01*
X36887Y-49809D02*
Y-43482D01*
X33858Y-40453D02*
X36887Y-43482D01*
X37964Y-50689D02*
X47244D01*
X28636Y-61620D02*
X30807D01*
X36887Y-49809D02*
X39638Y-52559D01*
X28231D02*
X30982Y-49809D01*
X17022Y-52762D02*
X27849D01*
X32950Y-54730D02*
Y-49809D01*
X34919Y-54730D02*
Y-49809D01*
D53*
X20669Y-70571D02*
Y-63484D01*
X19882Y-71358D02*
X20669Y-70571D01*
Y-63484D02*
Y-60335D01*
X25295Y-55709D01*
X28051D01*
D54*
X119055Y105906D02*
X132678D01*
X114469Y110492D02*
X119055Y105906D01*
X-30341Y52726D02*
Y60726D01*
X-47274Y127526D02*
X-39274D01*
X23526Y127592D02*
X31526D01*
D55*
X61122Y-119882D02*
Y-101969D01*
Y-97244D01*
X57185Y-93307D02*
X61122Y-97244D01*
X132677Y78347D02*
X136614Y82284D01*
X141339Y77756D02*
Y82284D01*
X136614Y82284D02*
X159252D01*
D56*
X6201Y-36909D02*
D03*
D57*
X15354D02*
D03*
X-122047Y-25685D02*
D03*
Y38291D02*
D03*
X122126Y-82484D02*
D03*
X-81102Y-45370D02*
D03*
X-62205Y112008D02*
D03*
X-62205Y130512D02*
D03*
X1181Y-57579D02*
D03*
X-81102Y18409D02*
D03*
Y82189D02*
D03*
X81181Y-62504D02*
D03*
Y1276D02*
D03*
X122126Y-18409D02*
D03*
X81181Y65055D02*
D03*
X122126Y45370D02*
D03*
D58*
X-6804Y-37353D02*
D03*
X-18221D02*
D03*
D59*
X-13042Y-66031D02*
D03*
X-13239Y-54613D02*
D03*
X-30857Y-63669D02*
D03*
D60*
X-4159Y-95093D02*
D03*
X9277Y-95065D02*
D03*
X-32112Y-130329D02*
D03*
X-18676Y-130301D02*
D03*
D61*
X-91535Y-32575D02*
D03*
X4921Y-71358D02*
D03*
X23425Y-71358D02*
D03*
X-73032Y31205D02*
D03*
X-91535Y31205D02*
D03*
X-73032Y94984D02*
D03*
X-91535Y94984D02*
D03*
X73110Y-75299D02*
D03*
X91614Y-75299D02*
D03*
X73110Y-11520D02*
D03*
X91614Y-11520D02*
D03*
X73110Y52260D02*
D03*
X91614Y52260D02*
D03*
X-73032Y-32575D02*
D03*
X129134Y-149016D02*
D03*
D62*
X7579Y-18406D02*
D03*
D63*
X-121850Y102169D02*
D03*
D64*
X130905Y92126D02*
D03*
D65*
X-2362Y-29134D02*
D03*
D66*
X33317Y-78691D02*
D03*
D67*
X-181102Y-141732D02*
D03*
X181102D02*
D03*
Y141732D02*
D03*
X-181102D02*
D03*
D68*
X-64961Y-89763D02*
D03*
X-77756D02*
D03*
X-90551Y-89763D02*
D03*
X-103347D02*
D03*
X-116142Y-89763D02*
D03*
X132677Y78346D02*
D03*
X132678Y92126D02*
D03*
Y105906D02*
D03*
X-132677Y105906D02*
D03*
X43307Y116535D02*
D03*
X43307Y103544D02*
D03*
X-59055Y71654D02*
D03*
Y58662D02*
D03*
Y99607D02*
D03*
X9843Y40946D02*
D03*
X43307Y62599D02*
D03*
X-14961Y40945D02*
D03*
X-132676Y18701D02*
D03*
Y32480D02*
D03*
X-132677Y-42717D02*
D03*
Y-28937D02*
D03*
X-132577Y-103937D02*
D03*
Y-90158D02*
D03*
X132577Y-90256D02*
D03*
Y-104035D02*
D03*
Y-28740D02*
D03*
Y-42520D02*
D03*
X132597Y32484D02*
D03*
Y18705D02*
D03*
X84744Y-93308D02*
D03*
X70965D02*
D03*
X125689Y-127953D02*
D03*
X153248D02*
D03*
X139469D02*
D03*
X57184Y-93307D02*
D03*
X-132678Y78347D02*
D03*
Y92126D02*
D03*
X-13484Y-27165D02*
D03*
Y-13406D02*
D03*
Y394D02*
D03*
Y14173D02*
D03*
X45472Y-73326D02*
D03*
X53347Y-62303D02*
D03*
D69*
X11358Y19842D02*
D03*
Y-158D02*
D03*
X33858Y19842D02*
D03*
Y-158D02*
D03*
D70*
X3858Y13839D02*
D03*
Y5847D02*
D03*
X33858Y9843D02*
D03*
D71*
X0Y-145276D02*
D03*
D72*
X-50472Y-13406D02*
D03*
X-40472Y-23405D02*
D03*
X-50472D02*
D03*
X-40472Y-13406D02*
D03*
Y-3405D02*
D03*
X-50472D02*
D03*
X-40472Y6594D02*
D03*
X-50472D02*
D03*
X-40472Y16594D02*
D03*
X-50472D02*
D03*
X-40472Y26594D02*
D03*
X-50472D02*
D03*
X-40472Y36595D02*
D03*
X-50472D02*
D03*
D73*
X2559Y-37500D02*
D03*
X8858D02*
D03*
X5709D02*
D03*
X12205D02*
D03*
X15354D02*
D03*
X18504D02*
D03*
X-3543Y-17815D02*
D03*
X15354D02*
D03*
X-394D02*
D03*
X5906D02*
D03*
X9055D02*
D03*
X78031Y-63095D02*
D03*
X72520Y-72150D02*
D03*
Y-75299D02*
D03*
X-125098Y102756D02*
D03*
X141233Y-86060D02*
D03*
X-109646Y111772D02*
D03*
X171457Y-151969D02*
D03*
X-191240Y-127953D02*
D03*
Y-120327D02*
D03*
Y-97450D02*
D03*
Y-66948D02*
D03*
Y-59322D02*
D03*
Y-36445D02*
D03*
Y-5943D02*
D03*
Y1683D02*
D03*
Y24560D02*
D03*
Y55063D02*
D03*
Y62688D02*
D03*
Y100816D02*
D03*
Y123693D02*
D03*
X-171555Y-151969D02*
D03*
X-163933D02*
D03*
X-156310D02*
D03*
X-148688D02*
D03*
X-141065D02*
D03*
X-133443D02*
D03*
X-87708D02*
D03*
X-80085D02*
D03*
X-72463D02*
D03*
X-64840D02*
D03*
X-49595D02*
D03*
X-41973D02*
D03*
X-34350D02*
D03*
X-26728D02*
D03*
X-19105D02*
D03*
X-11483D02*
D03*
X-3861D02*
D03*
X3762D02*
D03*
X11384D02*
D03*
X19007D02*
D03*
X26629D02*
D03*
X34252D02*
D03*
X41874D02*
D03*
X57119D02*
D03*
X64742D02*
D03*
X72364D02*
D03*
X79987D02*
D03*
X87609D02*
D03*
X102854D02*
D03*
X118099D02*
D03*
X140967D02*
D03*
X163834D02*
D03*
X191339Y-130118D02*
D03*
X191341Y-122429D02*
D03*
X191341Y-107052D02*
D03*
Y-99363D02*
D03*
Y-91674D02*
D03*
X191340Y-68608D02*
D03*
Y-60919D02*
D03*
X191340Y-45542D02*
D03*
Y-37853D02*
D03*
Y-30165D02*
D03*
X191340Y-7098D02*
D03*
Y591D02*
D03*
X191340Y15968D02*
D03*
Y23657D02*
D03*
Y31345D02*
D03*
X191339Y54412D02*
D03*
Y62100D02*
D03*
X191339Y77478D02*
D03*
Y85167D02*
D03*
Y92855D02*
D03*
X191339Y100544D02*
D03*
Y108233D02*
D03*
Y123610D02*
D03*
X191338Y131299D02*
D03*
X168834Y131303D02*
D03*
X161332D02*
D03*
X153831D02*
D03*
X146329D02*
D03*
X138828Y131302D02*
D03*
X131326D02*
D03*
X123825D02*
D03*
X116323D02*
D03*
X108821Y131302D02*
D03*
X101320D02*
D03*
X93818D02*
D03*
X86317D02*
D03*
X78815Y131302D02*
D03*
X71314D02*
D03*
X63812D02*
D03*
X56311D02*
D03*
X48809Y131301D02*
D03*
X41308D02*
D03*
X33806D02*
D03*
X26305D02*
D03*
X18803Y131301D02*
D03*
X11301D02*
D03*
X3800D02*
D03*
X-3702D02*
D03*
X-11203Y131301D02*
D03*
X-18705D02*
D03*
X-26206D02*
D03*
X-33708D02*
D03*
X-41209Y131301D02*
D03*
X-48711D02*
D03*
X-71215Y131300D02*
D03*
X-78717D02*
D03*
X-86219D02*
D03*
X-93720D02*
D03*
X-101222Y131300D02*
D03*
X-108723D02*
D03*
X-116225D02*
D03*
X-123726D02*
D03*
X-131228Y131300D02*
D03*
X-138729D02*
D03*
X-146231D02*
D03*
X-153733D02*
D03*
X-191240Y131319D02*
D03*
X-168736Y131299D02*
D03*
X-161234D02*
D03*
X-5204Y-34403D02*
D03*
Y-37303D02*
D03*
Y-40203D02*
D03*
X-16621Y-34403D02*
D03*
Y-37303D02*
D03*
Y-40203D02*
D03*
X145177Y-150000D02*
D03*
X-27559Y66929D02*
D03*
X-37205Y102559D02*
D03*
X-32677Y97638D02*
D03*
X22953Y82559D02*
D03*
X50000Y101575D02*
D03*
X35748Y97559D02*
D03*
X23957Y42579D02*
D03*
X14626D02*
D03*
X39102Y46188D02*
D03*
X-40112Y-52362D02*
D03*
X-43012D02*
D03*
X-45912D02*
D03*
X-15892Y-67631D02*
D03*
X-12992D02*
D03*
X-10092D02*
D03*
X-16089Y-56213D02*
D03*
X-13189D02*
D03*
X-10289D02*
D03*
X-33707Y-65268D02*
D03*
X-30807D02*
D03*
X-27907D02*
D03*
X160630Y-134941D02*
D03*
X141427Y-140938D02*
D03*
X160825Y-140845D02*
D03*
X-18898Y-79528D02*
D03*
X-12598D02*
D03*
X-5759Y-92143D02*
D03*
Y-95043D02*
D03*
Y-97943D02*
D03*
Y-100843D02*
D03*
Y-89243D02*
D03*
X10877Y-98015D02*
D03*
Y-95115D02*
D03*
Y-92215D02*
D03*
Y-89315D02*
D03*
Y-100915D02*
D03*
X-33712Y-127379D02*
D03*
Y-130279D02*
D03*
Y-133179D02*
D03*
Y-136079D02*
D03*
Y-124479D02*
D03*
X-17076Y-133251D02*
D03*
Y-130351D02*
D03*
Y-127451D02*
D03*
Y-124551D02*
D03*
Y-136151D02*
D03*
X35039Y78347D02*
D03*
Y68347D02*
D03*
Y73347D02*
D03*
X-92126Y-35724D02*
D03*
Y-32575D02*
D03*
X-81102Y-44780D02*
D03*
X-62205Y92520D02*
D03*
X-50394Y87559D02*
D03*
X-111811Y-51968D02*
D03*
X-50394Y92559D02*
D03*
Y82559D02*
D03*
X-62598Y107087D02*
D03*
X-92126Y-29425D02*
D03*
X-107874Y-30706D02*
D03*
X-119391Y-62890D02*
D03*
X-84252Y-44780D02*
D03*
X-117717Y-44780D02*
D03*
X-59055Y111417D02*
D03*
X-62205D02*
D03*
X-65354D02*
D03*
Y131102D02*
D03*
X-62205D02*
D03*
X-59055D02*
D03*
X33858Y-45768D02*
D03*
X44488Y-66240D02*
D03*
X43305Y-54036D02*
D03*
X18504Y-17815D02*
D03*
X-1969Y-58169D02*
D03*
X1181D02*
D03*
X4331D02*
D03*
X4331Y-68209D02*
D03*
Y-71358D02*
D03*
Y-74508D02*
D03*
X24016D02*
D03*
Y-71358D02*
D03*
Y-68209D02*
D03*
X28636Y-61620D02*
D03*
X-39274Y127526D02*
D03*
X-47274D02*
D03*
X31526Y127592D02*
D03*
X23526D02*
D03*
X32913Y117559D02*
D03*
X-53937Y131102D02*
D03*
X-74803Y-104724D02*
D03*
X-84646Y-104624D02*
D03*
X-94488Y-104724D02*
D03*
X-104331D02*
D03*
X-114173D02*
D03*
X-104331Y-94882D02*
D03*
X-114173D02*
D03*
X-68504Y-102362D02*
D03*
X-122047Y-44882D02*
D03*
X-141239Y-108268D02*
D03*
X-141339Y-85827D02*
D03*
Y-47047D02*
D03*
X-141439Y-24606D02*
D03*
X-141337Y14370D02*
D03*
X-141437Y36811D02*
D03*
X-76772Y23331D02*
D03*
X-84252Y19000D02*
D03*
X-77953D02*
D03*
X-81102D02*
D03*
X-72441Y34354D02*
D03*
Y28055D02*
D03*
Y31205D02*
D03*
X-92126Y28055D02*
D03*
Y31205D02*
D03*
Y34354D02*
D03*
X-107874Y33073D02*
D03*
X-119391Y890D02*
D03*
X-122047Y18898D02*
D03*
Y38882D02*
D03*
X-125197D02*
D03*
X-118898D02*
D03*
X-117717Y19000D02*
D03*
X-111811Y11811D02*
D03*
X-76772Y87110D02*
D03*
X-84252Y82780D02*
D03*
X-77953D02*
D03*
X-81102D02*
D03*
X-72441Y98134D02*
D03*
Y91835D02*
D03*
Y94984D02*
D03*
X-92126Y91835D02*
D03*
Y94984D02*
D03*
Y98134D02*
D03*
X-107874Y96853D02*
D03*
X-119391Y64669D02*
D03*
X-122047Y82677D02*
D03*
Y102760D02*
D03*
X-118898D02*
D03*
X-117717Y82780D02*
D03*
X-111811Y75591D02*
D03*
X-118898Y-25095D02*
D03*
X-122047D02*
D03*
X-125197D02*
D03*
X76850Y-67425D02*
D03*
X84331Y-63095D02*
D03*
X81181D02*
D03*
X72520Y-78449D02*
D03*
X92205Y-72150D02*
D03*
Y-78449D02*
D03*
Y-75299D02*
D03*
X107953Y-77168D02*
D03*
X119470Y-44984D02*
D03*
X125276Y-83075D02*
D03*
X122126D02*
D03*
X118976D02*
D03*
X117795Y-63095D02*
D03*
X111890Y-55905D02*
D03*
X141339Y-108366D02*
D03*
X141239Y-24409D02*
D03*
X141339Y-46850D02*
D03*
X141258Y36815D02*
D03*
X141358Y14374D02*
D03*
X122126Y-52071D02*
D03*
X76850Y-3646D02*
D03*
X78031Y685D02*
D03*
X84331D02*
D03*
X81181D02*
D03*
X72520Y-11520D02*
D03*
Y-14669D02*
D03*
Y-8370D02*
D03*
X92205Y-14669D02*
D03*
Y-11520D02*
D03*
Y-8370D02*
D03*
X107953Y-13388D02*
D03*
X119470Y18795D02*
D03*
X122126Y11709D02*
D03*
X118976Y-19000D02*
D03*
X122126D02*
D03*
X125276D02*
D03*
X117795Y685D02*
D03*
X111890Y7874D02*
D03*
X76850Y60134D02*
D03*
X78031Y64465D02*
D03*
X84331D02*
D03*
X81181D02*
D03*
X72520Y52260D02*
D03*
Y49110D02*
D03*
Y55409D02*
D03*
X92205Y49110D02*
D03*
Y52260D02*
D03*
Y55409D02*
D03*
X107953Y50391D02*
D03*
X119470Y82575D02*
D03*
X122126Y75488D02*
D03*
X118976Y44780D02*
D03*
X122126D02*
D03*
X125276D02*
D03*
X117795Y64465D02*
D03*
X111890Y71653D02*
D03*
X44488Y80709D02*
D03*
X-141339Y75984D02*
D03*
Y85827D02*
D03*
Y95669D02*
D03*
X-123627Y121165D02*
D03*
Y114590D02*
D03*
X141339Y98425D02*
D03*
Y88583D02*
D03*
X87106Y-101969D02*
D03*
X77264D02*
D03*
X67421D02*
D03*
X54819Y-82486D02*
D03*
X61394D02*
D03*
X-76772Y-40449D02*
D03*
X-72441Y-32575D02*
D03*
Y-35724D02*
D03*
Y-29425D02*
D03*
X40453Y6398D02*
D03*
Y13287D02*
D03*
X-30341Y52726D02*
D03*
Y60726D02*
D03*
X116535Y-136811D02*
D03*
X127165D02*
D03*
X128543Y-152165D02*
D03*
Y-149016D02*
D03*
Y-145866D02*
D03*
X156988Y-150000D02*
D03*
X64347Y-68509D02*
D03*
X58169Y49606D02*
D03*
X61516D02*
D03*
X110236Y-133169D02*
D03*
X18858Y15433D02*
D03*
X23819Y15394D02*
D03*
X23858Y4331D02*
D03*
X-37205Y107559D02*
D03*
X141339Y71457D02*
D03*
X-141339Y112795D02*
D03*
X-105830Y117937D02*
D03*
X22835Y102559D02*
D03*
X32874Y58563D02*
D03*
X126772Y88976D02*
D03*
Y92126D02*
D03*
Y95276D02*
D03*
X114272Y117461D02*
D03*
X107697D02*
D03*
X141339Y108169D02*
D03*
X124508Y111122D02*
D03*
X-95330Y-151969D02*
D03*
X-102953D02*
D03*
X-110575D02*
D03*
X-191240Y108442D02*
D03*
Y93191D02*
D03*
Y85565D02*
D03*
Y77939D02*
D03*
Y32186D02*
D03*
Y16934D02*
D03*
Y-28819D02*
D03*
Y-44071D02*
D03*
Y-105076D02*
D03*
Y-89825D02*
D03*
X-125591Y-74508D02*
D03*
Y-77658D02*
D03*
Y-80807D02*
D03*
X-197Y-29921D02*
D03*
X-4528D02*
D03*
X-12598Y-45374D02*
D03*
X-21063Y-61024D02*
D03*
X12008Y-63484D02*
D03*
X-77953Y-44780D02*
D03*
X35903Y-53746D02*
D03*
X31966D02*
D03*
Y-57683D02*
D03*
X35903D02*
D03*
X-18228Y98465D02*
D03*
X-11929Y92165D02*
D03*
X-5630Y98465D02*
D03*
X-11929D02*
D03*
Y104764D02*
D03*
D74*
X-104035Y80319D02*
D03*
Y85043D02*
D03*
Y16539D02*
D03*
Y21264D02*
D03*
Y-47240D02*
D03*
Y-42516D02*
D03*
X104114Y-60634D02*
D03*
Y-65358D02*
D03*
Y3146D02*
D03*
Y-1579D02*
D03*
Y66925D02*
D03*
Y62201D02*
D03*
M02*
