%FSLAX25Y25*%
%MOIN*%
G70*
G01*
G75*
G04 Layer_Color=255*
%ADD10C,0.01772*%
%ADD11C,0.01969*%
%ADD12R,0.06693X0.09843*%
%ADD13R,0.09843X0.06693*%
%ADD14R,0.03158X0.03827*%
%ADD15R,0.03827X0.03158*%
%ADD16R,0.08661X0.04724*%
%ADD17R,0.08661X0.13780*%
%ADD18R,0.06693X0.07874*%
%ADD19R,0.05315X0.01772*%
%ADD20R,0.06693X0.14567*%
%ADD21R,0.03150X0.01181*%
%ADD22R,0.01181X0.03150*%
%ADD23R,0.06693X0.06693*%
%ADD24C,0.03150*%
%ADD25R,0.03543X0.05906*%
%ADD26R,0.05906X0.03543*%
%ADD27R,0.19685X0.19685*%
%ADD28R,0.15354X0.24410*%
%ADD29R,0.12992X0.17323*%
%ADD30R,0.01575X0.03150*%
%ADD31R,0.03937X0.03543*%
%ADD32R,0.07087X0.15354*%
%ADD33R,0.05118X0.21654*%
%ADD34R,0.15354X0.07087*%
%ADD35R,0.21654X0.05118*%
%ADD36R,0.02362X0.01969*%
%ADD37R,0.01969X0.02362*%
%ADD38R,0.03543X0.02362*%
%ADD39R,0.02362X0.03543*%
%ADD40R,0.02756X0.05118*%
%ADD41R,0.05118X0.02756*%
%ADD42R,0.06890X0.04724*%
%ADD43R,0.04724X0.06890*%
%ADD44R,0.06299X0.22441*%
%ADD45R,0.22441X0.06299*%
%ADD46C,0.03937*%
%ADD47C,0.00787*%
%ADD48C,0.01181*%
%ADD49C,0.01575*%
%ADD50C,0.02362*%
%ADD51C,0.05906*%
%ADD52C,0.01378*%
%ADD53C,0.02953*%
%ADD54C,0.03150*%
%ADD55C,0.00591*%
%ADD56R,0.10433X0.04331*%
%ADD57R,0.09449X0.04331*%
%ADD58R,0.06200X0.08500*%
%ADD59R,0.08500X0.06200*%
%ADD60R,0.06200X0.17300*%
%ADD61R,0.04331X0.09449*%
%ADD62R,0.25000X0.04331*%
%ADD63R,0.09055X0.04331*%
%ADD64R,0.11417X0.09449*%
%ADD65R,0.07087X0.04331*%
%ADD66R,0.04232X0.02854*%
%ADD67C,0.23622*%
%ADD68C,0.05906*%
%ADD69C,0.09055*%
%ADD70C,0.03543*%
%ADD71C,0.07874*%
%ADD72C,0.06299*%
%ADD73C,0.02362*%
%ADD74C,0.02598*%
%ADD75C,0.04000*%
%ADD76C,0.17716*%
%ADD77C,0.03740*%
%ADD78C,0.11614*%
%ADD79C,0.10236*%
%ADD80C,0.02756*%
%ADD81C,0.07874*%
%ADD82R,0.05906X0.04232*%
%ADD83R,0.05915X0.03248*%
%ADD84R,0.11811X0.19685*%
%ADD85R,0.19685X0.11811*%
%ADD86R,0.11811X0.11811*%
%ADD87R,0.09055X0.08764*%
%ADD88R,0.09055X0.04331*%
%ADD89R,0.08563X0.04331*%
%ADD90R,0.19488X0.10925*%
%ADD91R,0.03051X0.09449*%
D27*
X-24016Y-108268D02*
D03*
X24016D02*
D03*
D67*
X-181102Y-141732D02*
D03*
X181102D02*
D03*
Y141732D02*
D03*
X-181102D02*
D03*
D68*
X-64961Y-89763D02*
D03*
X-77756D02*
D03*
X-90551Y-89763D02*
D03*
X-103347D02*
D03*
X-116142Y-89763D02*
D03*
X132677Y78346D02*
D03*
X132678Y92126D02*
D03*
Y105906D02*
D03*
X-132677Y105906D02*
D03*
X43307Y116535D02*
D03*
X43307Y103544D02*
D03*
X-59055Y71654D02*
D03*
Y58662D02*
D03*
Y99607D02*
D03*
X9843Y40946D02*
D03*
X43307Y62599D02*
D03*
X-14961Y40945D02*
D03*
X-132676Y18701D02*
D03*
Y32480D02*
D03*
X-132677Y-42717D02*
D03*
Y-28937D02*
D03*
X-132577Y-103937D02*
D03*
Y-90158D02*
D03*
X132577Y-90256D02*
D03*
Y-104035D02*
D03*
Y-28740D02*
D03*
Y-42520D02*
D03*
X132597Y32484D02*
D03*
Y18705D02*
D03*
X84744Y-93308D02*
D03*
X70965D02*
D03*
X125689Y-127953D02*
D03*
X153248D02*
D03*
X139469D02*
D03*
X57184Y-93307D02*
D03*
X-132678Y78347D02*
D03*
Y92126D02*
D03*
X-13484Y-27165D02*
D03*
Y-13406D02*
D03*
Y394D02*
D03*
Y14173D02*
D03*
X45472Y-73326D02*
D03*
X53347Y-62303D02*
D03*
D69*
X11358Y19842D02*
D03*
Y-158D02*
D03*
X33858Y19842D02*
D03*
Y-158D02*
D03*
D70*
X3858Y13839D02*
D03*
Y5847D02*
D03*
X33858Y9843D02*
D03*
D71*
X0Y-145276D02*
D03*
D72*
X-50472Y-13406D02*
D03*
X-40472Y-23405D02*
D03*
X-50472D02*
D03*
X-40472Y-13406D02*
D03*
Y-3405D02*
D03*
X-50472D02*
D03*
X-40472Y6594D02*
D03*
X-50472D02*
D03*
X-40472Y16594D02*
D03*
X-50472D02*
D03*
X-40472Y26594D02*
D03*
X-50472D02*
D03*
X-40472Y36595D02*
D03*
X-50472D02*
D03*
D84*
X70965Y-138189D02*
D03*
X88090D02*
D03*
X53839D02*
D03*
X-73130D02*
D03*
X-107579D02*
D03*
X-90354D02*
D03*
X-55905D02*
D03*
X-124803D02*
D03*
D85*
X177559Y92126D02*
D03*
Y109252D02*
D03*
Y75000D02*
D03*
X-177559Y92126D02*
D03*
Y75000D02*
D03*
Y109252D02*
D03*
Y37839D02*
D03*
Y13429D02*
D03*
Y-23535D02*
D03*
Y-47945D02*
D03*
Y-84909D02*
D03*
Y-109319D02*
D03*
X177559D02*
D03*
Y-84909D02*
D03*
Y-47945D02*
D03*
Y-23535D02*
D03*
Y13429D02*
D03*
Y37839D02*
D03*
D86*
X-149409Y36417D02*
D03*
Y4921D02*
D03*
Y-56409D02*
D03*
Y-24913D02*
D03*
Y-86221D02*
D03*
Y-117717D02*
D03*
X149803Y-76378D02*
D03*
Y-107874D02*
D03*
X155020Y-46425D02*
D03*
Y-14929D02*
D03*
Y46329D02*
D03*
Y14833D02*
D03*
M02*
