%FSLAX25Y25*%
%MOIN*%
G70*
G01*
G75*
G04 Layer_Physical_Order=4*
G04 Layer_Color=16711680*
%ADD10C,0.00787*%
%ADD11R,0.02362X0.03543*%
%ADD12R,0.03543X0.02362*%
%ADD13R,0.07087X0.03543*%
%ADD14R,0.15354X0.07087*%
%ADD15R,0.21654X0.05118*%
%ADD16R,0.02756X0.02362*%
%ADD17R,0.03937X0.06693*%
%ADD18R,0.02165X0.00984*%
%ADD19R,0.02362X0.02756*%
%ADD20R,0.03827X0.03158*%
%ADD21R,0.06693X0.06693*%
%ADD22R,0.03150X0.01181*%
%ADD23R,0.01181X0.03150*%
%ADD24R,0.06102X0.02362*%
%ADD25R,0.03543X0.05906*%
%ADD26R,0.05906X0.03543*%
%ADD27R,0.19685X0.19685*%
%ADD28R,0.06693X0.14567*%
%ADD29R,0.07087X0.29528*%
%ADD30R,0.03937X0.03543*%
%ADD31R,0.01575X0.03150*%
%ADD32R,0.15354X0.24410*%
%ADD33R,0.12992X0.17323*%
%ADD34R,0.07087X0.15354*%
%ADD35R,0.05118X0.21654*%
%ADD36C,0.03150*%
%ADD37R,0.04921X0.04803*%
%ADD38R,0.02756X0.05118*%
%ADD39R,0.04724X0.13386*%
%ADD40R,0.02362X0.04134*%
%ADD41C,0.02362*%
%ADD42C,0.02559*%
%ADD43C,0.01181*%
%ADD44C,0.00984*%
%ADD45C,0.03543*%
%ADD46C,0.01575*%
%ADD47C,0.03150*%
%ADD48C,0.04724*%
%ADD49C,0.02756*%
%ADD50C,0.02165*%
%ADD51C,0.01772*%
%ADD52R,0.06200X0.09744*%
%ADD53R,0.06200X0.17300*%
%ADD54R,0.04035X0.13976*%
%ADD55R,0.13976X0.04035*%
%ADD56C,0.07874*%
%ADD57C,0.06299*%
%ADD58C,0.03543*%
%ADD59C,0.09055*%
%ADD60O,0.15748X0.29134*%
%ADD61C,0.11811*%
%ADD62C,0.02559*%
%ADD63C,0.04000*%
%ADD64C,0.10630*%
%ADD65C,0.06693*%
%ADD66C,0.12008*%
%ADD67O,0.18504X0.31890*%
%ADD68C,0.14567*%
%ADD69C,0.03543*%
%ADD70C,0.01969*%
%ADD71R,0.19685X0.11811*%
%ADD72R,0.11811X0.19685*%
%ADD73R,0.03937X0.03937*%
%ADD74R,0.19685X0.19685*%
%ADD75R,0.17421X0.08465*%
%ADD76R,0.17815X0.04429*%
%ADD77R,0.17815X0.04429*%
%ADD78R,0.17421X0.08465*%
%ADD79R,0.17815X0.04429*%
%ADD80R,0.17421X0.08465*%
%ADD81R,0.17421X0.08465*%
%ADD82R,0.17815X0.04429*%
%ADD83R,0.04429X0.17815*%
%ADD84R,0.04429X0.17815*%
%ADD85R,0.04429X0.16043*%
%ADD86R,0.17913X0.15157*%
G36*
X183442Y156505D02*
X185724Y155957D01*
X187893Y155059D01*
X189894Y153833D01*
X191679Y152308D01*
X193203Y150524D01*
X194429Y148523D01*
X195327Y146354D01*
X195875Y144072D01*
X196056Y141774D01*
X196048Y141733D01*
Y141732D01*
X196048D01*
X196048Y141732D01*
Y-141732D01*
X196048Y-141732D01*
X196048D01*
X196056Y-141774D01*
X195875Y-144072D01*
X195327Y-146354D01*
X194429Y-148523D01*
X193203Y-150524D01*
X191679Y-152308D01*
X189894Y-153833D01*
X187893Y-155059D01*
X185724Y-155957D01*
X183442Y-156505D01*
X181144Y-156686D01*
X181102Y-156677D01*
X-181102D01*
X-181144Y-156686D01*
X-183442Y-156505D01*
X-185724Y-155957D01*
X-187893Y-155059D01*
X-189894Y-153833D01*
X-191679Y-152308D01*
X-193203Y-150524D01*
X-194429Y-148523D01*
X-195327Y-146354D01*
X-195875Y-144072D01*
X-196056Y-141774D01*
X-196048Y-141732D01*
Y133366D01*
X14919D01*
Y121260D01*
X15086Y119562D01*
X15581Y117929D01*
X16385Y116424D01*
X17468Y115106D01*
X18787Y114023D01*
X20291Y113219D01*
X21924Y112724D01*
X23622Y112556D01*
X25320Y112724D01*
X26953Y113219D01*
X28457Y114023D01*
X29776Y115106D01*
X30858Y116424D01*
X31663Y117929D01*
X32158Y119562D01*
X32325Y121260D01*
Y133366D01*
X93659D01*
Y121260D01*
X93826Y119562D01*
X94321Y117929D01*
X95126Y116424D01*
X96208Y115106D01*
X97527Y114023D01*
X99032Y113219D01*
X100664Y112724D01*
X102362Y112556D01*
X104060Y112724D01*
X105693Y113219D01*
X107197Y114023D01*
X108516Y115106D01*
X109599Y116424D01*
X110403Y117929D01*
X110898Y119562D01*
X111065Y121260D01*
Y133366D01*
X113287D01*
Y150492D01*
Y156678D01*
X181102D01*
X181103Y156678D01*
Y156678D01*
X181144Y156686D01*
X183442Y156505D01*
D02*
G37*
%LPC*%
G36*
X91339Y-54885D02*
X90609Y-55030D01*
X89990Y-55443D01*
X89577Y-56062D01*
X89432Y-56791D01*
X89577Y-57521D01*
X89990Y-58140D01*
X90609Y-58553D01*
X91339Y-58698D01*
X92068Y-58553D01*
X92687Y-58140D01*
X93100Y-57521D01*
X93245Y-56791D01*
X93100Y-56062D01*
X92687Y-55443D01*
X92068Y-55030D01*
X91339Y-54885D01*
D02*
G37*
G36*
X85630D02*
X84900Y-55030D01*
X84282Y-55443D01*
X83868Y-56062D01*
X83723Y-56791D01*
X83868Y-57521D01*
X84282Y-58140D01*
X84900Y-58553D01*
X85630Y-58698D01*
X86360Y-58553D01*
X86978Y-58140D01*
X87392Y-57521D01*
X87537Y-56791D01*
X87392Y-56062D01*
X86978Y-55443D01*
X86360Y-55030D01*
X85630Y-54885D01*
D02*
G37*
G36*
X-21752Y-39272D02*
X-42618D01*
Y-60138D01*
X-21752D01*
Y-39272D01*
D02*
G37*
G36*
X187598Y-49606D02*
X179528D01*
Y-53740D01*
X187598D01*
Y-49606D01*
D02*
G37*
G36*
X174803D02*
X166732D01*
Y-53740D01*
X174803D01*
Y-49606D01*
D02*
G37*
G36*
X-177165Y-39432D02*
X-177895Y-39577D01*
X-178514Y-39990D01*
X-178927Y-40609D01*
X-179072Y-41339D01*
X-178992Y-41739D01*
X-179309Y-42126D01*
X-187599D01*
Y-55118D01*
X-166732D01*
Y-42126D01*
X-175021D01*
X-175338Y-41739D01*
X-175259Y-41339D01*
X-175404Y-40609D01*
X-175817Y-39990D01*
X-176436Y-39577D01*
X-177165Y-39432D01*
D02*
G37*
G36*
X187598Y-58465D02*
X179528D01*
Y-62598D01*
X187598D01*
Y-58465D01*
D02*
G37*
G36*
X-179528Y-70866D02*
X-187599D01*
Y-75000D01*
X-179528D01*
Y-70866D01*
D02*
G37*
G36*
X111122Y-56361D02*
X110392Y-56506D01*
X109774Y-56919D01*
X109361Y-57538D01*
X109215Y-58268D01*
X109361Y-58997D01*
X109774Y-59616D01*
X110392Y-60029D01*
X111122Y-60174D01*
X111852Y-60029D01*
X112470Y-59616D01*
X112701Y-59271D01*
X117104D01*
X124489Y-66656D01*
Y-73819D01*
X124489Y-73819D01*
X124489D01*
X124489Y-73819D01*
Y-76177D01*
X124144Y-76408D01*
X123731Y-77026D01*
X123585Y-77756D01*
X123731Y-78486D01*
X124144Y-79104D01*
X124762Y-79518D01*
X125492Y-79663D01*
X126222Y-79518D01*
X126840Y-79104D01*
X127254Y-78486D01*
X127399Y-77756D01*
X127254Y-77026D01*
X126840Y-76408D01*
X126496Y-76177D01*
Y-73819D01*
X126496Y-73819D01*
Y-66240D01*
X126419Y-65856D01*
X126202Y-65531D01*
X118229Y-57558D01*
X117904Y-57341D01*
X117520Y-57264D01*
X112701D01*
X112470Y-56919D01*
X111852Y-56506D01*
X111122Y-56361D01*
D02*
G37*
G36*
Y-65810D02*
X110392Y-65955D01*
X109774Y-66368D01*
X109361Y-66987D01*
X109215Y-67716D01*
X109361Y-68446D01*
X109774Y-69065D01*
X110392Y-69478D01*
X111122Y-69623D01*
X111852Y-69478D01*
X112470Y-69065D01*
X112701Y-68720D01*
X113758D01*
X116713Y-71675D01*
Y-77358D01*
X116368Y-77589D01*
X115955Y-78207D01*
X115810Y-78937D01*
X115955Y-79667D01*
X116368Y-80285D01*
X116987Y-80699D01*
X117717Y-80844D01*
X118446Y-80699D01*
X119065Y-80285D01*
X119478Y-79667D01*
X119623Y-78937D01*
X119478Y-78207D01*
X119065Y-77589D01*
X118720Y-77358D01*
Y-71260D01*
X118656Y-70939D01*
X118644Y-70876D01*
X118426Y-70550D01*
X114883Y-67007D01*
X114557Y-66789D01*
X114173Y-66713D01*
X112701D01*
X112470Y-66368D01*
X111852Y-65955D01*
X111122Y-65810D01*
D02*
G37*
G36*
X174803Y-58465D02*
X166732D01*
Y-62598D01*
X174803D01*
Y-58465D01*
D02*
G37*
G36*
X187598Y-67323D02*
X166732D01*
Y-72013D01*
X159363D01*
X158858Y-71912D01*
X158129Y-72057D01*
X157510Y-72471D01*
X157097Y-73089D01*
X156951Y-73819D01*
X157097Y-74549D01*
X157510Y-75167D01*
X158129Y-75581D01*
X158858Y-75726D01*
X159363Y-75625D01*
X166732D01*
Y-80315D01*
X187598D01*
Y-67323D01*
D02*
G37*
G36*
X-166732Y-70866D02*
X-174803D01*
Y-75000D01*
X-166732D01*
Y-70866D01*
D02*
G37*
G36*
X17126Y-14173D02*
X12008D01*
Y-19291D01*
X17126D01*
Y-19291D01*
X17750Y-19291D01*
X18103Y-19645D01*
Y-19931D01*
X17549Y-20301D01*
X17549Y-20301D01*
Y-20301D01*
X17473Y-20327D01*
X17126Y-20079D01*
Y-20079D01*
X12008D01*
Y-25197D01*
X17126D01*
Y-23281D01*
X17392Y-23103D01*
X17567Y-23010D01*
X18168Y-23411D01*
X18898Y-23556D01*
X19627Y-23411D01*
X20246Y-22998D01*
X20659Y-22379D01*
X20804Y-21650D01*
X20659Y-20920D01*
X20246Y-20301D01*
X19692Y-19931D01*
Y-19431D01*
X20246Y-19061D01*
X20659Y-18442D01*
X20804Y-17713D01*
X20659Y-16983D01*
X20246Y-16364D01*
X19627Y-15951D01*
X18898Y-15806D01*
X18168Y-15951D01*
X17567Y-16353D01*
X17392Y-16259D01*
X17126Y-16082D01*
Y-14173D01*
D02*
G37*
G36*
X-166732Y-16732D02*
X-174803D01*
Y-20866D01*
X-166732D01*
Y-16732D01*
D02*
G37*
G36*
X-179528D02*
X-187599D01*
Y-20866D01*
X-179528D01*
Y-16732D01*
D02*
G37*
G36*
X18894Y-9900D02*
X18164Y-10046D01*
X17545Y-10459D01*
X17132Y-11077D01*
X16987Y-11807D01*
X17132Y-12537D01*
X17545Y-13155D01*
X18164Y-13569D01*
X18894Y-13714D01*
X19623Y-13569D01*
X20242Y-13155D01*
X20655Y-12537D01*
X20800Y-11807D01*
X20655Y-11077D01*
X20242Y-10459D01*
X19623Y-10046D01*
X18894Y-9900D01*
D02*
G37*
G36*
X984Y-13349D02*
X255Y-13494D01*
X-364Y-13908D01*
X-777Y-14526D01*
X-922Y-15256D01*
X-777Y-15986D01*
X-364Y-16604D01*
X255Y-17018D01*
X984Y-17163D01*
X1714Y-17018D01*
X2332Y-16604D01*
X2746Y-15986D01*
X2891Y-15256D01*
X2746Y-14526D01*
X2332Y-13908D01*
X1714Y-13494D01*
X984Y-13349D01*
D02*
G37*
G36*
X-28535Y-15416D02*
X-29265Y-15561D01*
X-29884Y-15975D01*
X-30297Y-16593D01*
X-30442Y-17323D01*
X-30297Y-18053D01*
X-29884Y-18671D01*
X-29550Y-18894D01*
Y-19394D01*
X-29884Y-19616D01*
X-30297Y-20235D01*
X-30442Y-20965D01*
X-30297Y-21694D01*
X-29884Y-22313D01*
X-29550Y-22535D01*
Y-23035D01*
X-29884Y-23258D01*
X-30297Y-23877D01*
X-30442Y-24606D01*
X-30297Y-25336D01*
X-29884Y-25955D01*
X-29550Y-26177D01*
Y-26677D01*
X-29884Y-26900D01*
X-30297Y-27518D01*
X-30442Y-28248D01*
X-30297Y-28978D01*
X-29884Y-29596D01*
X-29550Y-29819D01*
Y-30319D01*
X-29884Y-30542D01*
X-30297Y-31160D01*
X-30442Y-31890D01*
X-30297Y-32619D01*
X-29884Y-33238D01*
X-29265Y-33651D01*
X-28535Y-33797D01*
X-27806Y-33651D01*
X-27187Y-33238D01*
X-26774Y-32619D01*
X-26629Y-31890D01*
X-26774Y-31160D01*
X-27187Y-30542D01*
X-27806Y-30128D01*
X-27187Y-29596D01*
D01*
D01*
X-27187Y-29596D01*
X-27187Y-29596D01*
X-27187Y-29596D01*
X-27187Y-29596D01*
D01*
X-26774Y-28978D01*
X-26629Y-28248D01*
X-26774Y-27518D01*
X-27187Y-26900D01*
X-27806Y-26487D01*
X-27187Y-25955D01*
D01*
D01*
X-27187Y-25955D01*
X-27187Y-25954D01*
X-27187Y-25954D01*
X-27187Y-25954D01*
D01*
X-26774Y-25336D01*
X-26629Y-24606D01*
X-26774Y-23877D01*
X-27187Y-23258D01*
X-27806Y-22845D01*
X-27187Y-22313D01*
D01*
D01*
X-27187Y-22313D01*
X-27187Y-22313D01*
X-27187Y-22313D01*
X-27187Y-22313D01*
D01*
X-26774Y-21694D01*
X-26629Y-20965D01*
X-26774Y-20235D01*
X-27187Y-19616D01*
X-27806Y-19203D01*
X-27187Y-18671D01*
D01*
D01*
X-27187Y-18671D01*
X-27187Y-18671D01*
X-27187Y-18671D01*
X-27187Y-18671D01*
D01*
X-26774Y-18053D01*
X-26629Y-17323D01*
X-26774Y-16593D01*
X-27187Y-15975D01*
X-27806Y-15561D01*
X-28535Y-15416D01*
D02*
G37*
G36*
X18894Y-25648D02*
X18164Y-25793D01*
X17545Y-26207D01*
X17132Y-26825D01*
X16987Y-27555D01*
X17132Y-28285D01*
X17545Y-28903D01*
X18164Y-29317D01*
X18894Y-29462D01*
X19623Y-29317D01*
X20242Y-28903D01*
X20655Y-28285D01*
X20800Y-27555D01*
X20655Y-26825D01*
X20242Y-26207D01*
X19623Y-25793D01*
X18894Y-25648D01*
D02*
G37*
G36*
X19587Y-33678D02*
X18857Y-33823D01*
X18238Y-34236D01*
X17825Y-34855D01*
X17680Y-35585D01*
X17825Y-36314D01*
X18238Y-36933D01*
Y-37136D01*
X17825Y-37755D01*
X17680Y-38484D01*
X17825Y-39214D01*
X18238Y-39833D01*
Y-40036D01*
X17825Y-40655D01*
X17680Y-41385D01*
X17825Y-42114D01*
X18238Y-42733D01*
X18857Y-43146D01*
X19587Y-43291D01*
X20316Y-43146D01*
X20935Y-42733D01*
X21348Y-42114D01*
X21493Y-41385D01*
X21348Y-40655D01*
X20935Y-40036D01*
Y-39833D01*
X21348Y-39214D01*
X21493Y-38484D01*
X21348Y-37755D01*
X20935Y-37136D01*
Y-36933D01*
X21348Y-36314D01*
X21493Y-35585D01*
X21348Y-34855D01*
X20935Y-34236D01*
X20316Y-33823D01*
X19587Y-33678D01*
D02*
G37*
G36*
X70276Y-11565D02*
X29134D01*
X29017Y-11614D01*
X28543D01*
Y-12087D01*
X28495Y-12205D01*
Y-43898D01*
X28682Y-44350D01*
X29134Y-44537D01*
X70276D01*
X70728Y-44350D01*
X70915Y-43898D01*
Y-12205D01*
X70728Y-11753D01*
X70276Y-11565D01*
D02*
G37*
G36*
X-66142Y-41007D02*
X-66872Y-41152D01*
X-67490Y-41565D01*
X-67903Y-42184D01*
X-68049Y-42913D01*
X-67903Y-43643D01*
X-67490Y-44262D01*
X-66872Y-44675D01*
X-66142Y-44820D01*
X-65412Y-44675D01*
X-64794Y-44262D01*
X-64380Y-43643D01*
X-64235Y-42913D01*
X-64380Y-42184D01*
X-64794Y-41565D01*
X-65412Y-41152D01*
X-66142Y-41007D01*
D02*
G37*
G36*
X169783Y-16684D02*
X151870D01*
X151418Y-16871D01*
X151231Y-17323D01*
Y-32480D01*
X151418Y-32932D01*
X151870Y-33119D01*
X169783D01*
X169901Y-33071D01*
X187598D01*
Y-20079D01*
X170423D01*
Y-17323D01*
X170235Y-16871D01*
X169783Y-16684D01*
D02*
G37*
G36*
X-151870Y-24951D02*
X-169291D01*
X-169409Y-25000D01*
X-187599D01*
Y-37992D01*
X-166732D01*
Y-34694D01*
X-151870D01*
X-151418Y-34507D01*
X-151231Y-34055D01*
Y-25591D01*
X-151418Y-25139D01*
X-151870Y-24951D01*
D02*
G37*
G36*
X11319Y-33678D02*
X10589Y-33823D01*
X9971Y-34236D01*
X9557Y-34855D01*
X9412Y-35584D01*
X9557Y-36314D01*
X9971Y-36933D01*
Y-37136D01*
X9557Y-37755D01*
X9412Y-38484D01*
X9557Y-39214D01*
X9971Y-39832D01*
Y-40036D01*
X9557Y-40655D01*
X9412Y-41384D01*
X9557Y-42114D01*
X9971Y-42733D01*
X10589Y-43146D01*
X11319Y-43291D01*
X12049Y-43146D01*
X12667Y-42733D01*
X13081Y-42114D01*
X13226Y-41384D01*
X13081Y-40655D01*
X12667Y-40036D01*
Y-39832D01*
X13081Y-39214D01*
X13226Y-38484D01*
X13081Y-37755D01*
X12667Y-37136D01*
Y-36933D01*
X13081Y-36314D01*
X13226Y-35584D01*
X13081Y-34855D01*
X12667Y-34236D01*
X12049Y-33823D01*
X11319Y-33678D01*
D02*
G37*
G36*
X-166732Y-79724D02*
X-174803D01*
Y-83858D01*
X-166732D01*
Y-79724D01*
D02*
G37*
G36*
X4429Y-127362D02*
X-8563D01*
Y-148228D01*
X4429D01*
Y-139939D01*
X4816Y-139622D01*
X5217Y-139702D01*
X5946Y-139557D01*
X6565Y-139144D01*
X6978Y-138525D01*
X7123Y-137795D01*
X6978Y-137066D01*
X6565Y-136447D01*
X5946Y-136034D01*
X5217Y-135889D01*
X4816Y-135968D01*
X4429Y-135651D01*
Y-127362D01*
D02*
G37*
G36*
X132283Y-111861D02*
X127854D01*
X127402Y-112048D01*
X127215Y-112500D01*
Y-128543D01*
X127264Y-128661D01*
Y-148228D01*
X140256D01*
Y-127362D01*
X132923D01*
Y-112500D01*
X132736Y-112048D01*
X132283Y-111861D01*
D02*
G37*
G36*
X76477D02*
X72047D01*
X71595Y-112048D01*
X71408Y-112500D01*
Y-128543D01*
X71457Y-128661D01*
Y-148228D01*
X84449D01*
Y-127362D01*
X77116D01*
Y-112500D01*
X76928Y-112048D01*
X76477Y-111861D01*
D02*
G37*
G36*
X-93012Y-127362D02*
X-106004D01*
Y-135651D01*
X-106390Y-135968D01*
X-106791Y-135889D01*
X-107521Y-136034D01*
X-108140Y-136447D01*
X-108553Y-137066D01*
X-108698Y-137795D01*
X-108553Y-138525D01*
X-108140Y-139144D01*
X-107521Y-139557D01*
X-106791Y-139702D01*
X-106390Y-139622D01*
X-106004Y-139939D01*
Y-148228D01*
X-93012D01*
Y-127362D01*
D02*
G37*
G36*
X115846D02*
X102854D01*
Y-148228D01*
X115846D01*
Y-139939D01*
X116233Y-139622D01*
X116634Y-139702D01*
X117364Y-139557D01*
X117982Y-139144D01*
X118395Y-138525D01*
X118541Y-137795D01*
X118395Y-137066D01*
X117982Y-136447D01*
X117364Y-136034D01*
X116634Y-135889D01*
X116233Y-135968D01*
X115846Y-135651D01*
Y-127362D01*
D02*
G37*
G36*
X60039D02*
X47047D01*
Y-148228D01*
X60039D01*
Y-139939D01*
X60426Y-139622D01*
X60827Y-139702D01*
X61556Y-139557D01*
X62175Y-139144D01*
X62588Y-138525D01*
X62733Y-137795D01*
X62588Y-137066D01*
X62175Y-136447D01*
X61556Y-136034D01*
X60827Y-135889D01*
X60426Y-135968D01*
X60039Y-135651D01*
Y-127362D01*
D02*
G37*
G36*
X20866Y-111861D02*
X16437D01*
X15985Y-112048D01*
X15798Y-112500D01*
Y-128543D01*
X15846Y-128661D01*
Y-148228D01*
X28839D01*
Y-127362D01*
X21505D01*
Y-112500D01*
X21318Y-112048D01*
X20866Y-111861D01*
D02*
G37*
G36*
X-136122Y-140157D02*
X-140256D01*
Y-148228D01*
X-136122D01*
Y-140157D01*
D02*
G37*
G36*
X181103Y-134809D02*
X179752Y-134942D01*
X178453Y-135336D01*
X177256Y-135976D01*
X176207Y-136837D01*
X175346Y-137886D01*
X174706Y-139083D01*
X174312Y-140382D01*
X174179Y-141732D01*
X174312Y-143083D01*
X174706Y-144382D01*
X175346Y-145579D01*
X176207Y-146628D01*
X177256Y-147489D01*
X178453Y-148128D01*
X179752Y-148522D01*
X181103Y-148655D01*
X182453Y-148522D01*
X183752Y-148128D01*
X184949Y-147489D01*
X185998Y-146628D01*
X186859Y-145579D01*
X187499Y-144382D01*
X187892Y-143083D01*
X188026Y-141732D01*
X187892Y-140382D01*
X187499Y-139083D01*
X186859Y-137886D01*
X185998Y-136837D01*
X184949Y-135976D01*
X183752Y-135336D01*
X182453Y-134942D01*
X181103Y-134809D01*
D02*
G37*
G36*
X-181102D02*
X-182453Y-134942D01*
X-183752Y-135336D01*
X-184949Y-135976D01*
X-185998Y-136837D01*
X-186859Y-137886D01*
X-187499Y-139083D01*
X-187892Y-140382D01*
X-188025Y-141732D01*
X-187892Y-143083D01*
X-187499Y-144382D01*
X-186859Y-145579D01*
X-185998Y-146628D01*
X-184949Y-147489D01*
X-183752Y-148128D01*
X-182453Y-148522D01*
X-181102Y-148655D01*
X-179752Y-148522D01*
X-178453Y-148128D01*
X-177256Y-147489D01*
X-176207Y-146628D01*
X-175346Y-145579D01*
X-174706Y-144382D01*
X-174312Y-143083D01*
X-174179Y-141732D01*
X-174312Y-140382D01*
X-174706Y-139083D01*
X-175346Y-137886D01*
X-176207Y-136837D01*
X-177256Y-135976D01*
X-178453Y-135336D01*
X-179752Y-134942D01*
X-181102Y-134809D01*
D02*
G37*
G36*
X-61319Y-140157D02*
X-65453D01*
Y-148228D01*
X-61319D01*
Y-140157D01*
D02*
G37*
G36*
X-70177D02*
X-74311D01*
Y-148228D01*
X-70177D01*
Y-140157D01*
D02*
G37*
G36*
X-127264D02*
X-131398D01*
Y-148228D01*
X-127264D01*
Y-140157D01*
D02*
G37*
G36*
X129331Y-100751D02*
X128601Y-100896D01*
X127982Y-101309D01*
X127569Y-101928D01*
X127424Y-102657D01*
X127569Y-103387D01*
X127982Y-104006D01*
X128601Y-104419D01*
X129331Y-104564D01*
X130060Y-104419D01*
X130679Y-104006D01*
X131092Y-103387D01*
X131237Y-102657D01*
X131092Y-101928D01*
X130679Y-101309D01*
X130060Y-100896D01*
X129331Y-100751D01*
D02*
G37*
G36*
X73622D02*
X72892Y-100896D01*
X72274Y-101309D01*
X71861Y-101928D01*
X71715Y-102657D01*
X71861Y-103387D01*
X72274Y-104006D01*
X72892Y-104419D01*
X73622Y-104564D01*
X74352Y-104419D01*
X74970Y-104006D01*
X75384Y-103387D01*
X75529Y-102657D01*
X75384Y-101928D01*
X74970Y-101309D01*
X74352Y-100896D01*
X73622Y-100751D01*
D02*
G37*
G36*
X17913D02*
X17184Y-100896D01*
X16565Y-101309D01*
X16152Y-101928D01*
X16007Y-102657D01*
X16152Y-103387D01*
X16565Y-104006D01*
X17184Y-104419D01*
X17913Y-104564D01*
X18643Y-104419D01*
X19262Y-104006D01*
X19675Y-103387D01*
X19820Y-102657D01*
X19675Y-101928D01*
X19262Y-101309D01*
X18643Y-100896D01*
X17913Y-100751D01*
D02*
G37*
G36*
X-179528Y-79724D02*
X-187599D01*
Y-83858D01*
X-179528D01*
Y-79724D01*
D02*
G37*
G36*
X187598Y-85039D02*
X166732D01*
Y-89729D01*
X159363D01*
X158858Y-89629D01*
X158129Y-89774D01*
X157510Y-90187D01*
X157097Y-90806D01*
X156951Y-91535D01*
X157097Y-92265D01*
X157510Y-92884D01*
X158129Y-93297D01*
X158858Y-93442D01*
X159363Y-93342D01*
X166732D01*
Y-98032D01*
X187598D01*
Y-85039D01*
D02*
G37*
G36*
X-151870Y-87944D02*
X-169291D01*
X-169409Y-87992D01*
X-187599D01*
Y-100984D01*
X-166732D01*
Y-97686D01*
X-151870D01*
X-151418Y-97499D01*
X-151231Y-97047D01*
Y-88583D01*
X-151418Y-88131D01*
X-151870Y-87944D01*
D02*
G37*
G36*
X169783Y-99361D02*
X151870D01*
X151418Y-99548D01*
X151231Y-100000D01*
Y-115157D01*
X151418Y-115610D01*
X151870Y-115797D01*
X169783D01*
X169901Y-115748D01*
X187598D01*
Y-102756D01*
X170423D01*
Y-100000D01*
X170235Y-99548D01*
X169783Y-99361D01*
D02*
G37*
G36*
X-127264Y-127362D02*
X-131398D01*
Y-135433D01*
X-127264D01*
Y-127362D01*
D02*
G37*
G36*
X-136122D02*
X-140256D01*
Y-135433D01*
X-136122D01*
Y-127362D01*
D02*
G37*
G36*
X-27067D02*
X-40059D01*
Y-135651D01*
X-40446Y-135968D01*
X-40846Y-135889D01*
X-41576Y-136034D01*
X-42195Y-136447D01*
X-42608Y-137066D01*
X-42753Y-137795D01*
X-42608Y-138525D01*
X-42195Y-139144D01*
X-41576Y-139557D01*
X-40846Y-139702D01*
X-40446Y-139622D01*
X-40059Y-139939D01*
Y-148228D01*
X-27067D01*
Y-127362D01*
D02*
G37*
G36*
X-177165Y-102424D02*
X-177895Y-102569D01*
X-178514Y-102982D01*
X-178927Y-103601D01*
X-179072Y-104331D01*
X-178992Y-104732D01*
X-179309Y-105118D01*
X-187599D01*
Y-118110D01*
X-166732D01*
Y-105118D01*
X-175021D01*
X-175338Y-104732D01*
X-175259Y-104331D01*
X-175404Y-103601D01*
X-175817Y-102982D01*
X-176436Y-102569D01*
X-177165Y-102424D01*
D02*
G37*
G36*
X-61319Y-127362D02*
X-65453D01*
Y-135433D01*
X-61319D01*
Y-127362D01*
D02*
G37*
G36*
X-70177D02*
X-74311D01*
Y-135433D01*
X-70177D01*
Y-127362D01*
D02*
G37*
G36*
X-151870Y101033D02*
X-169291D01*
X-169409Y100984D01*
X-187599D01*
Y87992D01*
X-166732D01*
Y91290D01*
X-151870D01*
X-151418Y91477D01*
X-151231Y91929D01*
Y100394D01*
X-151418Y100846D01*
X-151870Y101033D01*
D02*
G37*
G36*
X-107559Y91292D02*
X-108536Y91163D01*
X-109445Y90787D01*
X-110227Y90187D01*
X-110826Y89406D01*
X-111203Y88496D01*
X-111332Y87520D01*
X-111203Y86543D01*
X-110826Y85633D01*
X-110227Y84852D01*
X-109445Y84253D01*
X-108536Y83876D01*
X-107559Y83747D01*
X-106583Y83876D01*
X-105673Y84253D01*
X-104892Y84852D01*
X-104292Y85633D01*
X-103915Y86543D01*
X-103787Y87520D01*
X-103915Y88496D01*
X-104292Y89406D01*
X-104892Y90187D01*
X-105673Y90787D01*
X-106583Y91163D01*
X-107559Y91292D01*
D02*
G37*
G36*
X-77835Y94367D02*
X-78564Y94222D01*
X-79183Y93809D01*
X-79596Y93190D01*
X-79741Y92461D01*
X-79596Y91731D01*
X-79183Y91112D01*
X-78564Y90699D01*
X-77835Y90554D01*
X-77330Y90654D01*
X-68012D01*
X-61402Y84044D01*
X-61593Y83582D01*
X-96010D01*
X-96107Y84073D01*
X-95673Y84253D01*
X-94892Y84852D01*
X-94292Y85633D01*
X-93915Y86543D01*
X-93787Y87520D01*
X-93915Y88496D01*
X-94292Y89406D01*
X-94892Y90187D01*
X-95673Y90787D01*
X-96583Y91163D01*
X-97559Y91292D01*
X-98536Y91163D01*
X-99445Y90787D01*
X-100227Y90187D01*
X-100826Y89406D01*
X-101203Y88496D01*
X-101332Y87520D01*
X-101203Y86543D01*
X-100826Y85633D01*
X-100227Y84852D01*
X-99445Y84253D01*
X-99011Y84073D01*
X-99108Y83582D01*
X-102500D01*
X-102884Y83506D01*
X-103210Y83288D01*
X-105700Y80798D01*
X-106583Y81164D01*
X-107559Y81292D01*
X-108536Y81164D01*
X-109445Y80787D01*
X-110227Y80187D01*
X-110826Y79406D01*
X-111203Y78496D01*
X-111332Y77520D01*
X-111203Y76543D01*
X-110826Y75633D01*
X-110227Y74852D01*
X-109445Y74253D01*
X-108536Y73876D01*
X-107559Y73747D01*
X-106583Y73876D01*
X-105673Y74253D01*
X-104892Y74852D01*
X-104292Y75633D01*
X-103915Y76543D01*
X-103787Y77520D01*
X-103915Y78496D01*
X-104281Y79379D01*
X-102084Y81575D01*
X-98823D01*
X-98725Y81085D01*
X-99445Y80787D01*
X-100227Y80187D01*
X-100826Y79406D01*
X-101203Y78496D01*
X-101332Y77520D01*
X-101203Y76543D01*
X-100826Y75633D01*
X-100227Y74852D01*
X-99445Y74253D01*
X-98536Y73876D01*
X-97559Y73747D01*
X-96583Y73876D01*
X-95673Y74253D01*
X-94892Y74852D01*
X-94292Y75633D01*
X-93927Y76516D01*
X-66736D01*
X-66506Y76171D01*
X-65887Y75758D01*
X-65158Y75613D01*
X-64428Y75758D01*
X-63809Y76171D01*
X-63396Y76790D01*
X-63251Y77520D01*
X-63396Y78249D01*
X-63809Y78868D01*
X-64428Y79281D01*
X-65158Y79426D01*
X-65887Y79281D01*
X-66506Y78868D01*
X-66736Y78523D01*
X-93927D01*
X-94292Y79406D01*
X-94892Y80187D01*
X-95673Y80787D01*
X-96393Y81085D01*
X-96295Y81575D01*
X-61735D01*
X-49144Y68985D01*
X-49336Y68523D01*
X-93927D01*
X-94292Y69406D01*
X-94892Y70187D01*
X-95673Y70787D01*
X-96583Y71163D01*
X-97559Y71292D01*
X-98536Y71163D01*
X-99445Y70787D01*
X-100227Y70187D01*
X-100826Y69406D01*
X-101203Y68496D01*
X-101332Y67520D01*
X-101203Y66543D01*
X-100826Y65633D01*
X-100227Y64852D01*
X-99445Y64253D01*
X-98536Y63876D01*
X-97559Y63747D01*
X-96583Y63876D01*
X-95673Y64253D01*
X-94892Y64852D01*
X-94292Y65633D01*
X-93927Y66516D01*
X-90635D01*
X-90444Y66054D01*
X-95700Y60798D01*
X-96583Y61164D01*
X-97559Y61292D01*
X-98536Y61164D01*
X-99445Y60787D01*
X-100227Y60187D01*
X-100826Y59406D01*
X-101203Y58496D01*
X-101332Y57520D01*
X-101203Y56543D01*
X-100826Y55633D01*
X-100227Y54852D01*
X-99445Y54253D01*
X-98536Y53876D01*
X-97559Y53747D01*
X-96583Y53876D01*
X-95673Y54253D01*
X-94892Y54852D01*
X-94292Y55633D01*
X-93915Y56543D01*
X-93787Y57520D01*
X-93915Y58496D01*
X-94281Y59379D01*
X-88521Y65138D01*
X-49195D01*
X-31122Y47065D01*
Y8189D01*
X-31122Y8189D01*
X-31122D01*
X-31045Y7805D01*
X-30828Y7480D01*
X-23229Y-119D01*
X-22904Y-337D01*
X-22520Y-413D01*
X-7283D01*
X-6899Y-337D01*
X-6574Y-119D01*
X-5426Y1029D01*
X-5020Y948D01*
X-4290Y1093D01*
X-3671Y1506D01*
X-3258Y2125D01*
X-3113Y2854D01*
X-3258Y3584D01*
X-3671Y4203D01*
X-4290Y4616D01*
X-5020Y4761D01*
X-5749Y4616D01*
X-6368Y4203D01*
X-6781Y3584D01*
X-6926Y2854D01*
X-6846Y2448D01*
X-7652Y1641D01*
X-8147Y1715D01*
X-8318Y2035D01*
X-8258Y2125D01*
X-8113Y2854D01*
X-8258Y3584D01*
X-8671Y4203D01*
X-9290Y4616D01*
X-10020Y4761D01*
X-10749Y4616D01*
X-11368Y4203D01*
X-11598Y3858D01*
X-22419D01*
X-27737Y9176D01*
Y15156D01*
X-27263Y15316D01*
X-26904Y14848D01*
X-26369Y14438D01*
X-25747Y14180D01*
X-25079Y14092D01*
X-24411Y14180D01*
X-23788Y14438D01*
X-23254Y14848D01*
X-22843Y15383D01*
X-22586Y16005D01*
X-22498Y16673D01*
X-22586Y17341D01*
X-22843Y17964D01*
X-23254Y18498D01*
X-23788Y18909D01*
X-24411Y19166D01*
X-25079Y19254D01*
X-25747Y19166D01*
X-26369Y18909D01*
X-26904Y18498D01*
X-27263Y18030D01*
X-27737Y18191D01*
Y23148D01*
X-27263Y23308D01*
X-26904Y22840D01*
X-26369Y22430D01*
X-25747Y22172D01*
X-25079Y22084D01*
X-24411Y22172D01*
X-23788Y22430D01*
X-23254Y22840D01*
X-22843Y23375D01*
X-22586Y23997D01*
X-22498Y24665D01*
X-22586Y25333D01*
X-22843Y25956D01*
X-23254Y26491D01*
X-23788Y26901D01*
X-24411Y27158D01*
X-25079Y27246D01*
X-25747Y27158D01*
X-26369Y26901D01*
X-26904Y26491D01*
X-27263Y26022D01*
X-27737Y26183D01*
Y46924D01*
X-27275Y47115D01*
X-25808Y45649D01*
X-25482Y45431D01*
X-25098Y45355D01*
X-13783D01*
X-13553Y45010D01*
X-12934Y44597D01*
X-12205Y44451D01*
X-11475Y44597D01*
X-10857Y45010D01*
X-10443Y45629D01*
X-10298Y46358D01*
X-10443Y47088D01*
X-10857Y47706D01*
X-10768Y47997D01*
X-3504D01*
X23095Y21397D01*
Y-50590D01*
X23095Y-50590D01*
X23095D01*
X23233Y-51282D01*
X23624Y-51868D01*
X32913Y-61157D01*
X33199Y-61584D01*
X33818Y-61998D01*
X34547Y-62143D01*
X35277Y-61998D01*
X35895Y-61584D01*
X36309Y-60966D01*
X36454Y-60236D01*
X36309Y-59506D01*
X35895Y-58888D01*
X35468Y-58602D01*
X26708Y-49842D01*
Y22146D01*
X26570Y22837D01*
X26179Y23423D01*
X-1479Y51080D01*
X-2065Y51472D01*
X-2756Y51609D01*
X-23858D01*
X-65987Y93738D01*
X-66572Y94130D01*
X-67264Y94267D01*
X-77330D01*
X-77835Y94367D01*
D02*
G37*
G36*
X-97559Y101292D02*
X-98536Y101163D01*
X-99445Y100787D01*
X-100227Y100187D01*
X-100826Y99406D01*
X-101203Y98496D01*
X-101332Y97520D01*
X-101203Y96543D01*
X-100826Y95633D01*
X-100227Y94852D01*
X-99445Y94253D01*
X-98536Y93876D01*
X-97559Y93747D01*
X-96583Y93876D01*
X-95673Y94253D01*
X-94892Y94852D01*
X-94292Y95633D01*
X-93915Y96543D01*
X-93787Y97520D01*
X-93915Y98496D01*
X-94292Y99406D01*
X-94892Y100187D01*
X-95673Y100787D01*
X-96583Y101163D01*
X-97559Y101292D01*
D02*
G37*
G36*
X187598Y98032D02*
X166732D01*
Y93342D01*
X159363D01*
X158858Y93442D01*
X158129Y93297D01*
X157510Y92884D01*
X157097Y92265D01*
X156951Y91535D01*
X157097Y90806D01*
X157510Y90187D01*
X158129Y89774D01*
X158858Y89629D01*
X159363Y89729D01*
X166732D01*
Y85039D01*
X187598D01*
Y98032D01*
D02*
G37*
G36*
X1575Y97084D02*
X845Y96939D01*
X227Y96525D01*
X-187Y95907D01*
X-332Y95177D01*
X-187Y94447D01*
X227Y93829D01*
X845Y93416D01*
X1575Y93270D01*
X2304Y93416D01*
X2923Y93829D01*
X3336Y94447D01*
X3481Y95177D01*
X3336Y95907D01*
X2923Y96525D01*
X2304Y96939D01*
X1575Y97084D01*
D02*
G37*
G36*
Y81730D02*
X845Y81584D01*
X227Y81171D01*
X-187Y80553D01*
X-332Y79823D01*
X-187Y79093D01*
X227Y78475D01*
X845Y78061D01*
X1575Y77916D01*
X2304Y78061D01*
X2923Y78475D01*
X3336Y79093D01*
X3481Y79823D01*
X3336Y80553D01*
X2923Y81171D01*
X2304Y81584D01*
X1575Y81730D01*
D02*
G37*
G36*
X-1870Y55844D02*
X-2600Y55699D01*
X-3218Y55285D01*
X-3632Y54667D01*
X-3777Y53937D01*
X-3632Y53207D01*
X-3218Y52589D01*
X-2600Y52175D01*
X-1870Y52030D01*
X-1140Y52175D01*
X-522Y52589D01*
X-108Y53207D01*
X37Y53937D01*
X-108Y54667D01*
X-522Y55285D01*
X-1140Y55699D01*
X-1870Y55844D01*
D02*
G37*
G36*
X-166732Y55118D02*
X-174803D01*
Y50984D01*
X-166732D01*
Y55118D01*
D02*
G37*
G36*
X-179528D02*
X-187599D01*
Y50984D01*
X-179528D01*
Y55118D01*
D02*
G37*
G36*
X187598Y80315D02*
X166732D01*
Y75625D01*
X159363D01*
X158858Y75726D01*
X158129Y75581D01*
X157510Y75167D01*
X157097Y74549D01*
X156951Y73819D01*
X157097Y73089D01*
X157510Y72471D01*
X158129Y72057D01*
X158858Y71912D01*
X159363Y72013D01*
X166732D01*
Y67323D01*
X187598D01*
Y80315D01*
D02*
G37*
G36*
X-177165Y86552D02*
X-177895Y86407D01*
X-178514Y85994D01*
X-178927Y85375D01*
X-179072Y84646D01*
X-178992Y84245D01*
X-179309Y83858D01*
X-187599D01*
Y70866D01*
X-166732D01*
Y83858D01*
X-175021D01*
X-175338Y84245D01*
X-175259Y84646D01*
X-175404Y85375D01*
X-175817Y85994D01*
X-176436Y86407D01*
X-177165Y86552D01*
D02*
G37*
G36*
X-107559Y71292D02*
X-108536Y71163D01*
X-109445Y70787D01*
X-110227Y70187D01*
X-110826Y69406D01*
X-111203Y68496D01*
X-111332Y67520D01*
X-111203Y66543D01*
X-110826Y65633D01*
X-110227Y64852D01*
X-109445Y64253D01*
X-108536Y63876D01*
X-107559Y63747D01*
X-106583Y63876D01*
X-105673Y64253D01*
X-104892Y64852D01*
X-104292Y65633D01*
X-103915Y66543D01*
X-103787Y67520D01*
X-103915Y68496D01*
X-104292Y69406D01*
X-104892Y70187D01*
X-105673Y70787D01*
X-106583Y71163D01*
X-107559Y71292D01*
D02*
G37*
G36*
X1575Y106533D02*
X845Y106388D01*
X227Y105974D01*
X-187Y105356D01*
X-332Y104626D01*
X-187Y103896D01*
X227Y103278D01*
X845Y102864D01*
X1575Y102719D01*
X2304Y102864D01*
X2923Y103278D01*
X3336Y103896D01*
X3481Y104626D01*
X3336Y105356D01*
X2923Y105974D01*
X2304Y106388D01*
X1575Y106533D01*
D02*
G37*
G36*
X-105807Y117753D02*
X-106537Y117608D01*
X-107155Y117195D01*
X-107329Y116935D01*
X-107829D01*
X-108002Y117195D01*
X-108621Y117608D01*
X-109350Y117753D01*
X-110080Y117608D01*
X-110699Y117195D01*
X-111112Y116576D01*
X-111257Y115847D01*
X-111112Y115117D01*
X-110699Y114498D01*
X-110080Y114085D01*
X-109350Y113940D01*
X-108621Y114085D01*
X-108002Y114498D01*
X-107829Y114758D01*
X-107329D01*
X-107155Y114498D01*
X-106537Y114085D01*
X-105807Y113940D01*
X-105077Y114085D01*
X-104459Y114498D01*
X-104045Y115117D01*
X-103900Y115847D01*
X-104045Y116576D01*
X-104459Y117195D01*
X-105077Y117608D01*
X-105807Y117753D01*
D02*
G37*
G36*
X-166732Y118110D02*
X-174803D01*
Y113977D01*
X-166732D01*
Y118110D01*
D02*
G37*
G36*
X-179528D02*
X-187599D01*
Y113977D01*
X-179528D01*
Y118110D01*
D02*
G37*
G36*
X131890Y152497D02*
X131160Y152352D01*
X130542Y151939D01*
X130128Y151320D01*
X129983Y150591D01*
X130128Y149861D01*
X130542Y149242D01*
X131160Y148829D01*
X131890Y148684D01*
X132619Y148829D01*
X133238Y149242D01*
X133651Y149861D01*
X133797Y150591D01*
X133651Y151320D01*
X133238Y151939D01*
X132619Y152352D01*
X131890Y152497D01*
D02*
G37*
G36*
X181103Y148655D02*
X179752Y148522D01*
X178453Y148128D01*
X177256Y147489D01*
X176207Y146628D01*
X175346Y145579D01*
X174706Y144382D01*
X174312Y143083D01*
X174179Y141732D01*
X174312Y140382D01*
X174706Y139083D01*
X175346Y137886D01*
X176207Y136837D01*
X177256Y135976D01*
X178453Y135336D01*
X179752Y134942D01*
X181103Y134809D01*
X182453Y134942D01*
X183752Y135336D01*
X184949Y135976D01*
X185998Y136837D01*
X186859Y137886D01*
X187499Y139083D01*
X187892Y140382D01*
X188026Y141732D01*
X187892Y143083D01*
X187499Y144382D01*
X186859Y145579D01*
X185998Y146628D01*
X184949Y147489D01*
X183752Y148128D01*
X182453Y148522D01*
X181103Y148655D01*
D02*
G37*
G36*
X162402Y135174D02*
X161672Y135029D01*
X161053Y134616D01*
X160640Y133997D01*
X160495Y133268D01*
X160576Y132861D01*
X138265Y110551D01*
X14589D01*
X6969Y118170D01*
X6644Y118388D01*
X6260Y118464D01*
X-35173D01*
X-35404Y118809D01*
X-36022Y119222D01*
X-36752Y119367D01*
X-37482Y119222D01*
X-38100Y118809D01*
X-38514Y118190D01*
X-38659Y117461D01*
X-38514Y116731D01*
X-38100Y116112D01*
X-37482Y115699D01*
X-36752Y115554D01*
X-36022Y115699D01*
X-35404Y116112D01*
X-35173Y116457D01*
X1415D01*
X1464Y115960D01*
X1464Y115960D01*
X1464D01*
X845Y115836D01*
X227Y115423D01*
X-187Y114804D01*
X-332Y114075D01*
X-187Y113345D01*
X227Y112727D01*
X845Y112313D01*
X1575Y112168D01*
X2304Y112313D01*
X2923Y112727D01*
X3336Y113345D01*
X3481Y114075D01*
X3336Y114804D01*
X2923Y115423D01*
X2304Y115836D01*
X1685Y115960D01*
X1734Y116457D01*
X5844D01*
X13464Y108838D01*
X13789Y108620D01*
X14173Y108544D01*
X138681D01*
X139065Y108620D01*
X139391Y108838D01*
X161995Y131442D01*
X162402Y131361D01*
X163131Y131506D01*
X163750Y131920D01*
X164163Y132538D01*
X164308Y133268D01*
X164163Y133997D01*
X163750Y134616D01*
X163131Y135029D01*
X162402Y135174D01*
D02*
G37*
G36*
X187598Y115748D02*
X179528D01*
Y111614D01*
X187598D01*
Y115748D01*
D02*
G37*
G36*
X-179528Y109252D02*
X-187599D01*
Y105118D01*
X-179528D01*
Y109252D01*
D02*
G37*
G36*
X187598Y106890D02*
X179528D01*
Y102756D01*
X187598D01*
Y106890D01*
D02*
G37*
G36*
X174803D02*
X166732D01*
Y102756D01*
X174803D01*
Y106890D01*
D02*
G37*
G36*
Y115748D02*
X166732D01*
Y111614D01*
X174803D01*
Y115748D01*
D02*
G37*
G36*
X-19665Y114328D02*
X-20395Y114183D01*
X-21014Y113769D01*
X-21244Y113425D01*
X-100866D01*
X-101250Y113348D01*
X-101358Y113276D01*
X-101576Y113131D01*
X-116359Y98347D01*
X-116577Y98022D01*
X-116653Y97638D01*
Y55610D01*
X-116653Y55610D01*
X-116653D01*
X-116577Y55226D01*
X-116359Y54900D01*
X-110837Y49379D01*
X-111203Y48496D01*
X-111332Y47520D01*
X-111203Y46543D01*
X-110826Y45633D01*
X-110227Y44852D01*
X-109445Y44253D01*
X-108536Y43876D01*
X-107559Y43747D01*
X-106583Y43876D01*
X-105673Y44253D01*
X-104892Y44852D01*
X-104292Y45633D01*
X-103915Y46543D01*
X-103787Y47520D01*
X-103915Y48496D01*
X-104292Y49406D01*
X-104892Y50187D01*
X-105673Y50787D01*
X-106583Y51164D01*
X-107559Y51292D01*
X-108536Y51164D01*
X-109418Y50798D01*
X-114646Y56026D01*
Y62534D01*
X-114184Y62725D01*
X-110837Y59379D01*
X-111203Y58496D01*
X-111332Y57520D01*
X-111203Y56543D01*
X-110826Y55633D01*
X-110227Y54852D01*
X-109445Y54253D01*
X-108536Y53876D01*
X-107559Y53747D01*
X-106583Y53876D01*
X-105673Y54253D01*
X-104892Y54852D01*
X-104292Y55633D01*
X-103915Y56543D01*
X-103787Y57520D01*
X-103915Y58496D01*
X-104292Y59406D01*
X-104892Y60187D01*
X-105673Y60787D01*
X-106583Y61164D01*
X-107559Y61292D01*
X-108536Y61164D01*
X-109418Y60798D01*
X-113268Y64648D01*
Y96651D01*
X-111720Y98200D01*
X-111271Y97979D01*
X-111332Y97520D01*
X-111203Y96543D01*
X-110826Y95633D01*
X-110227Y94852D01*
X-109445Y94253D01*
X-108536Y93876D01*
X-107559Y93747D01*
X-106583Y93876D01*
X-105673Y94253D01*
X-104892Y94852D01*
X-104292Y95633D01*
X-103915Y96543D01*
X-103787Y97520D01*
X-103915Y98496D01*
X-104292Y99406D01*
X-104892Y100187D01*
X-105673Y100787D01*
X-106583Y101163D01*
X-107559Y101292D01*
X-108018Y101232D01*
X-108239Y101680D01*
X-103462Y106457D01*
X-18980D01*
X-18750Y106112D01*
X-18131Y105699D01*
X-17402Y105554D01*
X-16672Y105699D01*
X-16053Y106112D01*
X-15640Y106731D01*
X-15495Y107461D01*
X-15640Y108190D01*
X-16053Y108809D01*
X-16672Y109222D01*
X-17402Y109367D01*
X-18131Y109222D01*
X-18750Y108809D01*
X-18980Y108464D01*
X-102751D01*
X-102942Y108926D01*
X-100450Y111418D01*
X-21244D01*
X-21014Y111073D01*
X-20395Y110660D01*
X-19665Y110514D01*
X-18936Y110660D01*
X-18317Y111073D01*
X-17904Y111692D01*
X-17759Y112421D01*
X-17904Y113151D01*
X-18317Y113769D01*
X-18936Y114183D01*
X-19665Y114328D01*
D02*
G37*
G36*
X-166732Y109252D02*
X-174803D01*
Y105118D01*
X-166732D01*
Y109252D01*
D02*
G37*
G36*
X4921Y23250D02*
X4253Y23163D01*
X3631Y22905D01*
X3096Y22494D01*
X2686Y21960D01*
X2428Y21337D01*
X2340Y20669D01*
X2428Y20001D01*
X2686Y19379D01*
X3096Y18844D01*
X3631Y18434D01*
X4253Y18176D01*
X4921Y18088D01*
X5589Y18176D01*
X6212Y18434D01*
X6746Y18844D01*
X7157Y19379D01*
X7414Y20001D01*
X7502Y20669D01*
X7414Y21337D01*
X7157Y21960D01*
X6746Y22494D01*
X6212Y22905D01*
X5589Y23163D01*
X4921Y23250D01*
D02*
G37*
G36*
X187598Y15354D02*
X166732D01*
Y10665D01*
X159363D01*
X158858Y10765D01*
X158129Y10620D01*
X157510Y10206D01*
X157097Y9588D01*
X156951Y8858D01*
X157097Y8129D01*
X157510Y7510D01*
X158129Y7097D01*
X158858Y6951D01*
X159363Y7052D01*
X166732D01*
Y2362D01*
X187598D01*
Y15354D01*
D02*
G37*
G36*
X62992Y19726D02*
X61759Y19564D01*
X60610Y19087D01*
X59623Y18330D01*
X58865Y17343D01*
X58389Y16194D01*
X58227Y14961D01*
X58389Y13727D01*
X58865Y12578D01*
X59623Y11591D01*
X60610Y10834D01*
X61759Y10358D01*
X62992Y10195D01*
X64226Y10358D01*
X65375Y10834D01*
X66362Y11591D01*
X67119Y12578D01*
X67595Y13727D01*
X67757Y14961D01*
X67595Y16194D01*
X67119Y17343D01*
X66362Y18330D01*
X65375Y19087D01*
X64226Y19564D01*
X62992Y19726D01*
D02*
G37*
G36*
X-66142Y27891D02*
X-66871Y27746D01*
X-67490Y27332D01*
X-67903Y26714D01*
X-68048Y25984D01*
X-67903Y25254D01*
X-67490Y24636D01*
X-66871Y24223D01*
X-66142Y24078D01*
X-65412Y24223D01*
X-64793Y24636D01*
X-64380Y25254D01*
X-64235Y25984D01*
X-64380Y26714D01*
X-64793Y27332D01*
X-65412Y27746D01*
X-66142Y27891D01*
D02*
G37*
G36*
X187598Y24213D02*
X179528D01*
Y20079D01*
X187598D01*
Y24213D01*
D02*
G37*
G36*
X174803D02*
X166732D01*
Y20079D01*
X174803D01*
Y24213D01*
D02*
G37*
G36*
X-177165Y23560D02*
X-177895Y23415D01*
X-178514Y23002D01*
X-178927Y22383D01*
X-179072Y21654D01*
X-178992Y21253D01*
X-179309Y20866D01*
X-187599D01*
Y7874D01*
X-166732D01*
Y20866D01*
X-175021D01*
X-175338Y21253D01*
X-175259Y21654D01*
X-175404Y22383D01*
X-175817Y23002D01*
X-176436Y23415D01*
X-177165Y23560D01*
D02*
G37*
G36*
X-66142Y-6558D02*
X-66871Y-6703D01*
X-67490Y-7116D01*
X-67903Y-7735D01*
X-68048Y-8465D01*
X-67903Y-9194D01*
X-67490Y-9813D01*
X-66871Y-10226D01*
X-66142Y-10371D01*
X-65412Y-10226D01*
X-64793Y-9813D01*
X-64380Y-9194D01*
X-64235Y-8465D01*
X-64380Y-7735D01*
X-64793Y-7116D01*
X-65412Y-6703D01*
X-66142Y-6558D01*
D02*
G37*
G36*
X-166732Y-7874D02*
X-174803D01*
Y-12008D01*
X-166732D01*
Y-7874D01*
D02*
G37*
G36*
X-179528D02*
X-187599D01*
Y-12008D01*
X-179528D01*
Y-7874D01*
D02*
G37*
G36*
X4921Y16129D02*
X3508Y15943D01*
X2191Y15398D01*
X1060Y14530D01*
X193Y13399D01*
X-353Y12083D01*
X-539Y10669D01*
X-353Y9256D01*
X193Y7939D01*
X1060Y6808D01*
X2191Y5941D01*
X3508Y5395D01*
X4921Y5209D01*
X6334Y5395D01*
X7651Y5941D01*
X8782Y6808D01*
X9650Y7939D01*
X10195Y9256D01*
X10381Y10669D01*
X10195Y12083D01*
X9650Y13399D01*
X8782Y14530D01*
X7651Y15398D01*
X6334Y15943D01*
X4921Y16129D01*
D02*
G37*
G36*
X-17579D02*
X-18992Y15943D01*
X-20309Y15398D01*
X-21440Y14530D01*
X-22307Y13399D01*
X-22853Y12083D01*
X-23039Y10669D01*
X-22853Y9256D01*
X-22307Y7939D01*
X-21440Y6808D01*
X-20309Y5941D01*
X-18992Y5395D01*
X-17579Y5209D01*
X-16166Y5395D01*
X-14849Y5941D01*
X-13718Y6808D01*
X-12850Y7939D01*
X-12305Y9256D01*
X-12119Y10669D01*
X-12305Y12083D01*
X-12850Y13399D01*
X-13718Y14530D01*
X-14849Y15398D01*
X-16166Y15943D01*
X-17579Y16129D01*
D02*
G37*
G36*
X187598Y-2362D02*
X166732D01*
Y-7052D01*
X159363D01*
X158858Y-6951D01*
X158129Y-7097D01*
X157510Y-7510D01*
X157097Y-8129D01*
X156951Y-8858D01*
X157097Y-9588D01*
X157510Y-10206D01*
X158129Y-10620D01*
X158858Y-10765D01*
X159363Y-10665D01*
X166732D01*
Y-15354D01*
X187598D01*
Y-2362D01*
D02*
G37*
G36*
X102362Y64609D02*
X100664Y64442D01*
X99032Y63946D01*
X97527Y63142D01*
X96208Y62060D01*
X95126Y60741D01*
X94321Y59236D01*
X93826Y57604D01*
X93659Y55906D01*
Y42520D01*
X93826Y40822D01*
X94321Y39189D01*
X95126Y37684D01*
X96208Y36366D01*
X97527Y35283D01*
X99032Y34479D01*
X100664Y33984D01*
X102362Y33816D01*
X104060Y33984D01*
X105693Y34479D01*
X107197Y35283D01*
X108516Y36366D01*
X109599Y37684D01*
X110403Y39189D01*
X110898Y40822D01*
X111065Y42520D01*
Y55906D01*
X110898Y57604D01*
X110403Y59236D01*
X109599Y60741D01*
X108516Y62060D01*
X107197Y63142D01*
X105693Y63946D01*
X104060Y64442D01*
X102362Y64609D01*
D02*
G37*
G36*
X23622D02*
X21924Y64442D01*
X20291Y63946D01*
X18787Y63142D01*
X17468Y62060D01*
X16385Y60741D01*
X15581Y59236D01*
X15086Y57604D01*
X14919Y55906D01*
Y42520D01*
X15086Y40822D01*
X15581Y39189D01*
X16385Y37684D01*
X17468Y36366D01*
X18787Y35283D01*
X20291Y34479D01*
X21924Y33984D01*
X23622Y33816D01*
X25320Y33984D01*
X26953Y34479D01*
X28457Y35283D01*
X29776Y36366D01*
X30858Y37684D01*
X31663Y39189D01*
X32158Y40822D01*
X32325Y42520D01*
Y55906D01*
X32158Y57604D01*
X31663Y59236D01*
X30858Y60741D01*
X29776Y62060D01*
X28457Y63142D01*
X26953Y63946D01*
X25320Y64442D01*
X23622Y64609D01*
D02*
G37*
G36*
X-97559Y41292D02*
X-98536Y41164D01*
X-99445Y40787D01*
X-100227Y40187D01*
X-100826Y39406D01*
X-101203Y38496D01*
X-101332Y37520D01*
X-101203Y36543D01*
X-100826Y35633D01*
X-100227Y34852D01*
X-99445Y34253D01*
X-98536Y33876D01*
X-97559Y33747D01*
X-96583Y33876D01*
X-95673Y34253D01*
X-94892Y34852D01*
X-94292Y35633D01*
X-93915Y36543D01*
X-93787Y37520D01*
X-93915Y38496D01*
X-94292Y39406D01*
X-94892Y40187D01*
X-95673Y40787D01*
X-96583Y41164D01*
X-97559Y41292D01*
D02*
G37*
G36*
X-1673Y40391D02*
X-2403Y40246D01*
X-3022Y39832D01*
X-3435Y39214D01*
X-3580Y38484D01*
X-3435Y37754D01*
X-3022Y37136D01*
X-2403Y36723D01*
X-1673Y36577D01*
X-944Y36723D01*
X-325Y37136D01*
X88Y37754D01*
X233Y38484D01*
X88Y39214D01*
X-325Y39832D01*
X-944Y40246D01*
X-1673Y40391D01*
D02*
G37*
G36*
X169783Y65993D02*
X151870D01*
X151418Y65806D01*
X151231Y65354D01*
Y50197D01*
X151418Y49745D01*
X151870Y49558D01*
X169783D01*
X169901Y49606D01*
X187598D01*
Y62598D01*
X170423D01*
Y65354D01*
X170235Y65806D01*
X169783Y65993D01*
D02*
G37*
G36*
X-166732Y46260D02*
X-174803D01*
Y42126D01*
X-166732D01*
Y46260D01*
D02*
G37*
G36*
X-179528D02*
X-187599D01*
Y42126D01*
X-179528D01*
Y46260D01*
D02*
G37*
G36*
X4921Y36130D02*
X3508Y35943D01*
X2191Y35398D01*
X1060Y34530D01*
X193Y33399D01*
X-353Y32083D01*
X-539Y30669D01*
X-353Y29256D01*
X193Y27939D01*
X1060Y26809D01*
X2191Y25941D01*
X3508Y25395D01*
X4921Y25209D01*
X6334Y25395D01*
X7651Y25941D01*
X8782Y26809D01*
X9650Y27939D01*
X10195Y29256D01*
X10381Y30669D01*
X10195Y32083D01*
X9650Y33399D01*
X8782Y34530D01*
X7651Y35398D01*
X6334Y35943D01*
X4921Y36130D01*
D02*
G37*
G36*
X-17579D02*
X-18992Y35943D01*
X-20309Y35398D01*
X-21440Y34530D01*
X-22307Y33399D01*
X-22853Y32083D01*
X-23039Y30669D01*
X-22853Y29256D01*
X-22307Y27939D01*
X-21440Y26809D01*
X-20309Y25941D01*
X-18992Y25395D01*
X-17579Y25209D01*
X-16166Y25395D01*
X-14849Y25941D01*
X-13718Y26809D01*
X-12850Y27939D01*
X-12305Y29256D01*
X-12119Y30669D01*
X-12305Y32083D01*
X-12850Y33399D01*
X-13718Y34530D01*
X-14849Y35398D01*
X-16166Y35943D01*
X-17579Y36130D01*
D02*
G37*
G36*
X-151870Y38041D02*
X-169291D01*
X-169409Y37992D01*
X-187599D01*
Y25000D01*
X-166732D01*
Y28298D01*
X-151870D01*
X-151418Y28485D01*
X-151231Y28937D01*
Y37402D01*
X-151418Y37854D01*
X-151870Y38041D01*
D02*
G37*
G36*
X187598Y33071D02*
X179528D01*
Y28937D01*
X187598D01*
Y33071D01*
D02*
G37*
G36*
X-107559Y41292D02*
X-108536Y41164D01*
X-109445Y40787D01*
X-110227Y40187D01*
X-110826Y39406D01*
X-111203Y38496D01*
X-111332Y37520D01*
X-111203Y36543D01*
X-110826Y35633D01*
X-110227Y34852D01*
X-109445Y34253D01*
X-108536Y33876D01*
X-107559Y33747D01*
X-106583Y33876D01*
X-105673Y34253D01*
X-104892Y34852D01*
X-104292Y35633D01*
X-103915Y36543D01*
X-103787Y37520D01*
X-103915Y38496D01*
X-104292Y39406D01*
X-104892Y40187D01*
X-105673Y40787D01*
X-106583Y41164D01*
X-107559Y41292D01*
D02*
G37*
G36*
X174803Y33071D02*
X166732D01*
Y28937D01*
X174803D01*
Y33071D01*
D02*
G37*
%LPD*%
G36*
X70276Y-43898D02*
X29134D01*
Y-12205D01*
X70276D01*
Y-43898D01*
D02*
G37*
D10*
X138681Y109547D02*
X162402Y133268D01*
X14173Y109547D02*
X138681D01*
X6260Y117461D02*
X14173Y109547D01*
X-36752Y117461D02*
X6260D01*
X-22520Y591D02*
X-7283D01*
X-30118Y8189D02*
X-22520Y591D01*
X-30118Y8189D02*
Y47480D01*
X-22835Y2854D02*
X-10020D01*
X-28740Y8760D02*
X-22835Y2854D01*
X-28740Y8760D02*
Y48051D01*
X-48779Y66142D02*
X-30118Y47480D01*
X-48208Y67520D02*
X-28740Y48051D01*
X-97559Y57520D02*
X-88937Y66142D01*
X-48779D01*
X-7283Y591D02*
X-5020Y2854D01*
X-97559Y67520D02*
X-48208D01*
X-61319Y82579D02*
X-25098Y46358D01*
X-102500Y82579D02*
X-61319D01*
X-107559Y77520D02*
X-102500Y82579D01*
X-25098Y46358D02*
X-12205D01*
X-97559Y77520D02*
X-65158D01*
X117717Y-78937D02*
Y-71260D01*
X114173Y-67716D02*
X117717Y-71260D01*
X111122Y-67716D02*
X114173D01*
X125492Y-73819D02*
Y-66240D01*
X117520Y-58268D02*
X125492Y-66240D01*
X111122Y-58268D02*
X117520D01*
X-115650Y55610D02*
X-107559Y47520D01*
X-114272Y64232D02*
X-107559Y57520D01*
X-114272Y64232D02*
Y97067D01*
X-103878Y107461D01*
X-17402D01*
X-115650Y55610D02*
Y97638D01*
X-100866Y112421D01*
X-19665D01*
X-177165Y-104331D02*
X-177165Y-104331D01*
X-177165Y-111614D02*
Y-104331D01*
Y-48622D02*
Y-41339D01*
Y14370D02*
Y21653D01*
Y77362D02*
Y84646D01*
X-2067Y-137795D02*
X5216D01*
X53543D02*
X60827D01*
X109351D02*
X116634D01*
X-40846D02*
X-33563D01*
X-106791D02*
X-99508D01*
X125492Y-77756D02*
Y-73819D01*
X125492Y-73819D02*
X125492Y-73819D01*
D27*
X87008Y-22047D02*
D03*
X38976D02*
D03*
D41*
X177165Y73819D02*
Y73819D01*
X158858D02*
X177165D01*
X-67264Y92461D02*
X-24606Y49803D01*
X-77835Y92461D02*
X-67264D01*
X-24606Y49803D02*
X-2756D01*
X24902Y-50590D02*
Y22146D01*
Y-50590D02*
X34547Y-60236D01*
X-2756Y49803D02*
X24902Y22146D01*
X158858Y91535D02*
X177165D01*
Y91535D01*
Y8858D02*
Y8858D01*
X158858Y8858D02*
X177165D01*
X158858Y-8858D02*
X177165D01*
Y-8858D02*
Y-8858D01*
Y-91535D02*
Y-91535D01*
X158858D02*
X177165D01*
X158858Y-73819D02*
X177165D01*
Y-73819D01*
D43*
X14567Y-16732D02*
X15547Y-17713D01*
X18898D01*
X14567Y-22638D02*
X15555Y-21650D01*
X18898D01*
X984Y-15257D02*
Y-15256D01*
Y-15257D02*
X984Y-15257D01*
Y-15059D01*
D56*
X62992Y14961D02*
D03*
D57*
X-97559Y87520D02*
D03*
X-107559Y97520D02*
D03*
X-97559D02*
D03*
X-107559Y87520D02*
D03*
Y77520D02*
D03*
X-97559D02*
D03*
X-107559Y67520D02*
D03*
X-97559D02*
D03*
X-107559Y57520D02*
D03*
X-97559D02*
D03*
X-107559Y47520D02*
D03*
X-97559D02*
D03*
X-107559Y37520D02*
D03*
X-97559D02*
D03*
D58*
X4921Y20669D02*
D03*
X-25079Y16673D02*
D03*
Y24665D02*
D03*
D59*
X4921Y10669D02*
D03*
Y30669D02*
D03*
X-17579Y10669D02*
D03*
Y30669D02*
D03*
D60*
X102362Y127953D02*
D03*
X23622D02*
D03*
Y49213D02*
D03*
X102362D02*
D03*
D61*
X181102Y-141732D02*
D03*
Y141732D02*
D03*
X-181102Y-141732D02*
D03*
Y141732D02*
D03*
D62*
X3945Y-22634D02*
D03*
Y-26571D02*
D03*
X8D02*
D03*
Y-22634D02*
D03*
X-57992Y98366D02*
D03*
X-51693Y92067D02*
D03*
X-45394Y98366D02*
D03*
X-51693D02*
D03*
Y104665D02*
D03*
X-184248Y131791D02*
D03*
X-176371D02*
D03*
X115135Y138747D02*
D03*
X144450Y150361D02*
D03*
X186504Y152657D02*
D03*
X178565D02*
D03*
X170627D02*
D03*
X154751D02*
D03*
X192126Y140965D02*
D03*
Y133027D02*
D03*
Y-144814D02*
D03*
Y-136875D02*
D03*
X180978Y-152756D02*
D03*
X173039D02*
D03*
X-192126Y-146049D02*
D03*
Y-138110D02*
D03*
X-184184Y-152756D02*
D03*
X-176245D02*
D03*
X-55807Y886D02*
D03*
X-55807Y-33563D02*
D03*
X-55807Y-68012D02*
D03*
X-49902Y-48130D02*
D03*
X-49902Y-13681D02*
D03*
X-49902Y20768D02*
D03*
X-66142Y25984D02*
D03*
X-66142Y-8465D02*
D03*
X-66142Y-42913D02*
D03*
X117717Y-78937D02*
D03*
X158858Y73819D02*
D03*
X-128616Y-152756D02*
D03*
X115097Y145702D02*
D03*
X115059Y152657D02*
D03*
X115097Y131791D02*
D03*
X67832D02*
D03*
X75709D02*
D03*
X83587D02*
D03*
X91464D02*
D03*
X36322D02*
D03*
X44199D02*
D03*
X52077D02*
D03*
X59954D02*
D03*
X4812D02*
D03*
X12689D02*
D03*
X-26698D02*
D03*
X-18821D02*
D03*
X-10943D02*
D03*
X-3066D02*
D03*
X-58208D02*
D03*
X-50331D02*
D03*
X-42453D02*
D03*
X-34576D02*
D03*
X192126Y101273D02*
D03*
Y117150D02*
D03*
Y125088D02*
D03*
Y69520D02*
D03*
Y77459D02*
D03*
Y85397D02*
D03*
Y93335D02*
D03*
Y37767D02*
D03*
Y45705D02*
D03*
Y61582D02*
D03*
Y6014D02*
D03*
Y13952D02*
D03*
Y21891D02*
D03*
Y-17801D02*
D03*
Y-9863D02*
D03*
Y-1924D02*
D03*
Y-49554D02*
D03*
Y-41616D02*
D03*
Y-33678D02*
D03*
Y-89246D02*
D03*
Y-81307D02*
D03*
Y-73369D02*
D03*
Y-65431D02*
D03*
Y-120999D02*
D03*
Y-97184D02*
D03*
Y-128937D02*
D03*
X157163Y-152756D02*
D03*
X165101D02*
D03*
X125410D02*
D03*
X133348D02*
D03*
X149224D02*
D03*
X93656D02*
D03*
X109533D02*
D03*
X117471D02*
D03*
X61903D02*
D03*
X69842D02*
D03*
X77780D02*
D03*
X38089D02*
D03*
X53965D02*
D03*
X-1603D02*
D03*
X6335D02*
D03*
X14274D02*
D03*
X22212D02*
D03*
X-17480D02*
D03*
X-65109D02*
D03*
X-57171D02*
D03*
X-49233D02*
D03*
X-41295D02*
D03*
X-80986D02*
D03*
X-120677D02*
D03*
X-112739D02*
D03*
X-104801D02*
D03*
X-160369D02*
D03*
X-152430D02*
D03*
X-144492D02*
D03*
X-168307D02*
D03*
X-192126Y-130172D02*
D03*
Y-98419D02*
D03*
Y-106357D02*
D03*
Y-82543D02*
D03*
Y-90481D02*
D03*
Y-34913D02*
D03*
Y-42851D02*
D03*
Y-3160D02*
D03*
Y-19036D02*
D03*
Y-26974D02*
D03*
Y28594D02*
D03*
Y20655D02*
D03*
Y60347D02*
D03*
Y44470D02*
D03*
Y36532D02*
D03*
Y92100D02*
D03*
Y84162D02*
D03*
Y100038D02*
D03*
Y107976D02*
D03*
Y123853D02*
D03*
Y131791D02*
D03*
X-168493Y131791D02*
D03*
X-160616D02*
D03*
X-152738D02*
D03*
X-144861D02*
D03*
X-136983D02*
D03*
X-129106D02*
D03*
X-121228D02*
D03*
X-113351D02*
D03*
X-105473D02*
D03*
X-97596D02*
D03*
X-89718D02*
D03*
X-66086D02*
D03*
X-73963D02*
D03*
X-81841D02*
D03*
X-10020Y2854D02*
D03*
X-5020D02*
D03*
X-65158Y77520D02*
D03*
X85630Y-56791D02*
D03*
X111122Y-63976D02*
D03*
Y-58268D02*
D03*
Y-67716D02*
D03*
X102362Y-62992D02*
D03*
X18898Y-17713D02*
D03*
Y-21650D02*
D03*
X-1673Y2854D02*
D03*
Y38484D02*
D03*
X-12205Y46358D02*
D03*
X27264Y-64764D02*
D03*
X34547Y-60236D02*
D03*
X38583Y-51673D02*
D03*
X19587Y-38484D02*
D03*
Y-41385D02*
D03*
Y-35585D02*
D03*
X11319Y-41384D02*
D03*
Y-35584D02*
D03*
Y-38484D02*
D03*
X-19665Y112421D02*
D03*
X-17402Y107461D02*
D03*
X162402Y133268D02*
D03*
X-36752Y117461D02*
D03*
X984Y-15256D02*
D03*
X-77835Y92461D02*
D03*
X-1870Y53937D02*
D03*
X-109055Y23622D02*
D03*
Y17913D02*
D03*
X-109055Y-50984D02*
D03*
Y-45276D02*
D03*
X-109055Y-16535D02*
D03*
Y-10827D02*
D03*
X125787Y138287D02*
D03*
X131890Y150591D02*
D03*
X155807Y136811D02*
D03*
X147933Y136811D02*
D03*
X144685Y101378D02*
D03*
Y91535D02*
D03*
X144882Y81693D02*
D03*
Y71850D02*
D03*
X144685Y10827D02*
D03*
X144882Y984D02*
D03*
Y-18701D02*
D03*
X122539Y-105512D02*
D03*
X112697D02*
D03*
X66831D02*
D03*
X56988D02*
D03*
X11122D02*
D03*
X1279D02*
D03*
X-44783Y-105315D02*
D03*
X-54626D02*
D03*
X-64469Y-105512D02*
D03*
X-110728Y-105315D02*
D03*
X-120571D02*
D03*
X-130413Y-105512D02*
D03*
X-144685Y-100394D02*
D03*
Y-90551D02*
D03*
X-144882Y-80709D02*
D03*
X-144685Y-37402D02*
D03*
Y-27559D02*
D03*
X-144882Y-17717D02*
D03*
X-144685Y25591D02*
D03*
Y35433D02*
D03*
X-144882Y45276D02*
D03*
X-144685Y88583D02*
D03*
Y98425D02*
D03*
X-144882Y108268D02*
D03*
X-107185Y110630D02*
D03*
X1575Y79823D02*
D03*
Y114075D02*
D03*
Y104626D02*
D03*
Y95177D02*
D03*
X-87402Y-64173D02*
D03*
X-87401Y-29724D02*
D03*
X-87401Y4724D02*
D03*
X-108169Y-68012D02*
D03*
X-108169Y-33563D02*
D03*
X-108169Y886D02*
D03*
X91339Y-68405D02*
D03*
X91339Y-56791D02*
D03*
X88779Y-100591D02*
D03*
X33071D02*
D03*
X-22638D02*
D03*
X-11654Y-105650D02*
D03*
X44055D02*
D03*
X99764D02*
D03*
X67224Y-50000D02*
D03*
X102559Y-6791D02*
D03*
X18894Y-27555D02*
D03*
X-37697Y-49705D02*
D03*
Y-46063D02*
D03*
Y-42421D02*
D03*
Y-53346D02*
D03*
Y-56988D02*
D03*
X-12197Y-60728D02*
D03*
Y-65256D02*
D03*
X-17807Y-46063D02*
D03*
Y-53346D02*
D03*
Y-49705D02*
D03*
X394Y-52453D02*
D03*
X-4134D02*
D03*
X5815Y-45768D02*
D03*
X10236Y-30508D02*
D03*
X18894Y-11807D02*
D03*
X129331Y-102657D02*
D03*
X73622D02*
D03*
X17913D02*
D03*
X-70138Y51772D02*
D03*
Y61417D02*
D03*
X-78248Y127461D02*
D03*
X-87894D02*
D03*
X-17028D02*
D03*
X-7382D02*
D03*
X80068Y2936D02*
D03*
Y36D02*
D03*
Y-2864D02*
D03*
Y-5764D02*
D03*
Y5836D02*
D03*
X96704Y-2936D02*
D03*
Y-36D02*
D03*
Y2864D02*
D03*
Y5764D02*
D03*
Y-5836D02*
D03*
X52115Y-32300D02*
D03*
Y-35200D02*
D03*
Y-38100D02*
D03*
Y-41000D02*
D03*
Y-29400D02*
D03*
X68751Y-38173D02*
D03*
Y-35272D02*
D03*
Y-32372D02*
D03*
Y-29473D02*
D03*
Y-41072D02*
D03*
X130807Y-114764D02*
D03*
Y-119488D02*
D03*
X75000Y-114764D02*
D03*
Y-119488D02*
D03*
X19390Y-114764D02*
D03*
Y-119488D02*
D03*
X-64862Y-114764D02*
D03*
Y-119488D02*
D03*
X-130807Y-114764D02*
D03*
Y-119488D02*
D03*
X-154134Y-80315D02*
D03*
X-163583D02*
D03*
X-158858D02*
D03*
X-154134Y-90158D02*
D03*
X-163583D02*
D03*
X-158858D02*
D03*
X-154134Y-27165D02*
D03*
X-163583D02*
D03*
X-158858D02*
D03*
X-154134Y-17323D02*
D03*
X-163583D02*
D03*
X-158858D02*
D03*
X-154134Y35827D02*
D03*
X-163583D02*
D03*
X-158858D02*
D03*
X-154134Y45669D02*
D03*
X-163583D02*
D03*
X-158858D02*
D03*
X-154134Y108661D02*
D03*
X-163583D02*
D03*
X-158858D02*
D03*
X-154134Y98819D02*
D03*
X-163583D02*
D03*
X-158858D02*
D03*
X144488Y143405D02*
D03*
X-105807Y115847D02*
D03*
X-109350D02*
D03*
X-177165Y-104331D02*
D03*
Y-41339D02*
D03*
Y21654D02*
D03*
Y84646D02*
D03*
X5217Y-137795D02*
D03*
X60827D02*
D03*
X116634D02*
D03*
X-40846D02*
D03*
X-106791D02*
D03*
X-109350Y127264D02*
D03*
X-105807D02*
D03*
X-28535Y-17323D02*
D03*
Y-20965D02*
D03*
Y-31890D02*
D03*
Y-28248D02*
D03*
Y-24606D02*
D03*
X158858Y91535D02*
D03*
Y8858D02*
D03*
X158858Y-8858D02*
D03*
Y-19094D02*
D03*
X163583D02*
D03*
X154134D02*
D03*
X158858Y19094D02*
D03*
X154134D02*
D03*
X163583D02*
D03*
X158858Y63583D02*
D03*
X163583D02*
D03*
X154134D02*
D03*
X158858Y101772D02*
D03*
X154134D02*
D03*
X163583D02*
D03*
X144882Y-8858D02*
D03*
X125492Y-77756D02*
D03*
X144882Y-91536D02*
D03*
X163583Y-63583D02*
D03*
X154134D02*
D03*
X158858D02*
D03*
X154134Y-101772D02*
D03*
X163583D02*
D03*
X158858D02*
D03*
Y-91535D02*
D03*
X158858Y-73819D02*
D03*
X144882Y-101378D02*
D03*
Y-81693D02*
D03*
X144685Y-71850D02*
D03*
D71*
X177165Y8858D02*
D03*
Y26575D02*
D03*
Y-26575D02*
D03*
Y-8858D02*
D03*
Y-91535D02*
D03*
Y-109252D02*
D03*
Y-56102D02*
D03*
Y-73819D02*
D03*
X-177165Y111614D02*
D03*
Y94488D02*
D03*
Y77362D02*
D03*
Y-77362D02*
D03*
Y-94488D02*
D03*
Y-111614D02*
D03*
Y48622D02*
D03*
Y31496D02*
D03*
Y14370D02*
D03*
Y-14370D02*
D03*
Y-31496D02*
D03*
Y-48622D02*
D03*
X177165Y73819D02*
D03*
Y56102D02*
D03*
Y109252D02*
D03*
Y91535D02*
D03*
D72*
X109350Y-137795D02*
D03*
X133760D02*
D03*
X53543D02*
D03*
X77953D02*
D03*
X-2067D02*
D03*
X22343D02*
D03*
X-67815D02*
D03*
X-33563D02*
D03*
X-133760D02*
D03*
X-99508D02*
D03*
D73*
X14567Y-22638D02*
D03*
Y-16732D02*
D03*
D74*
X-32185Y-49705D02*
D03*
D75*
X-160581Y96161D02*
D03*
D76*
X-160778Y107923D02*
D03*
D77*
Y44931D02*
D03*
D78*
X-160581Y33169D02*
D03*
D79*
X-160778Y-18061D02*
D03*
D80*
X-160581Y-29823D02*
D03*
D81*
Y-92815D02*
D03*
D82*
X-160778Y-81053D02*
D03*
D83*
X-130069Y-121407D02*
D03*
D84*
X-64124D02*
D03*
D85*
X18652Y-120522D02*
D03*
X74262D02*
D03*
X130069D02*
D03*
D86*
X160827Y57776D02*
D03*
Y107579D02*
D03*
Y24902D02*
D03*
Y-24902D02*
D03*
Y-107579D02*
D03*
Y-57776D02*
D03*
M02*
