%FSLAX25Y25*%
%MOIN*%
G70*
G01*
G75*
G04 Layer_Color=255*
%ADD10C,0.00787*%
%ADD11R,0.02362X0.03543*%
%ADD12R,0.03543X0.02362*%
%ADD13R,0.07087X0.03543*%
%ADD14R,0.15354X0.07087*%
%ADD15R,0.21654X0.05118*%
%ADD16R,0.02756X0.02362*%
%ADD17R,0.03937X0.06693*%
%ADD18R,0.02165X0.00984*%
%ADD19R,0.02362X0.02756*%
%ADD20R,0.03827X0.03158*%
%ADD21R,0.06693X0.06693*%
%ADD22R,0.03150X0.01181*%
%ADD23R,0.01181X0.03150*%
%ADD24R,0.06102X0.02362*%
%ADD25R,0.03543X0.05906*%
%ADD26R,0.05906X0.03543*%
%ADD27R,0.19685X0.19685*%
%ADD28R,0.06693X0.14567*%
%ADD29R,0.07087X0.29528*%
%ADD30R,0.03937X0.03543*%
%ADD31R,0.01575X0.03150*%
%ADD32R,0.15354X0.24410*%
%ADD33R,0.12992X0.17323*%
%ADD34R,0.07087X0.15354*%
%ADD35R,0.05118X0.21654*%
%ADD36C,0.03150*%
%ADD37R,0.04921X0.04803*%
%ADD38R,0.02756X0.05118*%
%ADD39R,0.04724X0.13386*%
%ADD40R,0.02362X0.04134*%
%ADD41C,0.02362*%
%ADD42C,0.02559*%
%ADD43C,0.01181*%
%ADD44C,0.00984*%
%ADD45C,0.03543*%
%ADD46C,0.01575*%
%ADD47C,0.03150*%
%ADD48C,0.04724*%
%ADD49C,0.02756*%
%ADD50C,0.02165*%
%ADD51C,0.01772*%
%ADD52R,0.06200X0.09744*%
%ADD53R,0.06200X0.17300*%
%ADD54R,0.04035X0.13976*%
%ADD55R,0.13976X0.04035*%
%ADD56C,0.07874*%
%ADD57C,0.06299*%
%ADD58C,0.03543*%
%ADD59C,0.09055*%
%ADD60O,0.15748X0.29134*%
%ADD61C,0.11811*%
%ADD62C,0.02559*%
%ADD63C,0.04000*%
%ADD64C,0.10630*%
%ADD65C,0.06693*%
%ADD66C,0.12008*%
%ADD67O,0.18504X0.31890*%
%ADD68C,0.14567*%
%ADD69C,0.03543*%
%ADD70C,0.01969*%
%ADD71R,0.19685X0.11811*%
%ADD72R,0.11811X0.19685*%
%ADD73R,0.03937X0.03937*%
%ADD74R,0.19685X0.19685*%
%ADD75R,0.17421X0.08465*%
%ADD76R,0.17815X0.04429*%
%ADD77R,0.17815X0.04429*%
%ADD78R,0.17421X0.08465*%
%ADD79R,0.17815X0.04429*%
%ADD80R,0.17421X0.08465*%
%ADD81R,0.17421X0.08465*%
%ADD82R,0.17815X0.04429*%
%ADD83R,0.04429X0.17815*%
%ADD84R,0.04429X0.17815*%
%ADD85R,0.04429X0.16043*%
%ADD86R,0.17913X0.15157*%
D27*
X87008Y-22047D02*
D03*
X38976D02*
D03*
D56*
X62992Y14961D02*
D03*
D57*
X-97559Y87520D02*
D03*
X-107559Y97520D02*
D03*
X-97559D02*
D03*
X-107559Y87520D02*
D03*
Y77520D02*
D03*
X-97559D02*
D03*
X-107559Y67520D02*
D03*
X-97559D02*
D03*
X-107559Y57520D02*
D03*
X-97559D02*
D03*
X-107559Y47520D02*
D03*
X-97559D02*
D03*
X-107559Y37520D02*
D03*
X-97559D02*
D03*
D58*
X4921Y20669D02*
D03*
X-25079Y16673D02*
D03*
Y24665D02*
D03*
D59*
X4921Y10669D02*
D03*
Y30669D02*
D03*
X-17579Y10669D02*
D03*
Y30669D02*
D03*
D60*
X102362Y127953D02*
D03*
X23622D02*
D03*
Y49213D02*
D03*
X102362D02*
D03*
D61*
X181102Y-141732D02*
D03*
Y141732D02*
D03*
X-181102Y-141732D02*
D03*
Y141732D02*
D03*
D71*
X177165Y8858D02*
D03*
Y26575D02*
D03*
Y-26575D02*
D03*
Y-8858D02*
D03*
Y-91535D02*
D03*
Y-109252D02*
D03*
Y-56102D02*
D03*
Y-73819D02*
D03*
X-177165Y111614D02*
D03*
Y94488D02*
D03*
Y77362D02*
D03*
Y-77362D02*
D03*
Y-94488D02*
D03*
Y-111614D02*
D03*
Y48622D02*
D03*
Y31496D02*
D03*
Y14370D02*
D03*
Y-14370D02*
D03*
Y-31496D02*
D03*
Y-48622D02*
D03*
X177165Y73819D02*
D03*
Y56102D02*
D03*
Y109252D02*
D03*
Y91535D02*
D03*
D72*
X109350Y-137795D02*
D03*
X133760D02*
D03*
X53543D02*
D03*
X77953D02*
D03*
X-2067D02*
D03*
X22343D02*
D03*
X-67815D02*
D03*
X-33563D02*
D03*
X-133760D02*
D03*
X-99508D02*
D03*
D73*
X14567Y-22638D02*
D03*
Y-16732D02*
D03*
D74*
X-32185Y-49705D02*
D03*
M02*
