%FSLAX25Y25*%
%MOIN*%
G70*
G01*
G75*
G04 Layer_Color=8421504*
%ADD10C,0.00787*%
%ADD11R,0.02362X0.03543*%
%ADD12R,0.03543X0.02362*%
%ADD13R,0.07087X0.03543*%
%ADD14R,0.15354X0.07087*%
%ADD15R,0.21654X0.05118*%
%ADD16R,0.02756X0.02362*%
%ADD17R,0.03937X0.06693*%
%ADD18R,0.02165X0.00984*%
%ADD19R,0.02362X0.02756*%
%ADD20R,0.03827X0.03158*%
%ADD21R,0.06693X0.06693*%
%ADD22R,0.03150X0.01181*%
%ADD23R,0.01181X0.03150*%
%ADD24R,0.06102X0.02362*%
%ADD25R,0.03543X0.05906*%
%ADD26R,0.05906X0.03543*%
%ADD27R,0.19685X0.19685*%
%ADD28R,0.06693X0.14567*%
%ADD29R,0.07087X0.29528*%
%ADD30R,0.03937X0.03543*%
%ADD31R,0.01575X0.03150*%
%ADD32R,0.15354X0.24410*%
%ADD33R,0.12992X0.17323*%
%ADD34R,0.07087X0.15354*%
%ADD35R,0.05118X0.21654*%
%ADD36C,0.03150*%
%ADD37R,0.04921X0.04803*%
%ADD38R,0.02756X0.05118*%
%ADD39R,0.04724X0.13386*%
%ADD40R,0.02362X0.04134*%
%ADD41C,0.02362*%
%ADD42C,0.02559*%
%ADD43C,0.01181*%
%ADD44C,0.00984*%
%ADD45C,0.03543*%
%ADD46C,0.01575*%
%ADD47C,0.03150*%
%ADD48C,0.04724*%
%ADD49C,0.02756*%
%ADD50C,0.02165*%
%ADD51C,0.01772*%
%ADD52R,0.06200X0.09744*%
%ADD53R,0.06200X0.17300*%
%ADD54R,0.04035X0.13976*%
%ADD55R,0.13976X0.04035*%
%ADD56C,0.07874*%
%ADD57C,0.06299*%
%ADD58C,0.03543*%
%ADD59C,0.09055*%
%ADD60O,0.15748X0.29134*%
%ADD61C,0.11811*%
%ADD62C,0.02559*%
%ADD63C,0.04000*%
%ADD64C,0.10630*%
%ADD65C,0.06693*%
%ADD66C,0.12008*%
%ADD67O,0.18504X0.31890*%
%ADD68C,0.14567*%
%ADD69C,0.03543*%
%ADD70C,0.01969*%
%ADD71R,0.19685X0.11811*%
%ADD72R,0.11811X0.19685*%
%ADD73R,0.03937X0.03937*%
%ADD74R,0.19685X0.19685*%
%ADD75R,0.17421X0.08465*%
%ADD76R,0.17815X0.04429*%
%ADD77R,0.17815X0.04429*%
%ADD78R,0.17421X0.08465*%
%ADD79R,0.17815X0.04429*%
%ADD80R,0.17421X0.08465*%
%ADD81R,0.17421X0.08465*%
%ADD82R,0.17815X0.04429*%
%ADD83R,0.04429X0.17815*%
%ADD84R,0.04429X0.17815*%
%ADD85R,0.04429X0.16043*%
%ADD86R,0.17913X0.15157*%
%ADD87C,0.01000*%
%ADD88C,0.00100*%
%ADD89C,0.00394*%
%ADD90R,0.06299X0.06299*%
%ADD91R,0.15748X0.15748*%
D11*
X-47047Y-10827D02*
D03*
X-52953D02*
D03*
X-47047Y-16535D02*
D03*
X-52953D02*
D03*
X-47047Y23622D02*
D03*
X-52953D02*
D03*
X-47047Y17913D02*
D03*
X-52953D02*
D03*
X-47047Y-45276D02*
D03*
X-52953D02*
D03*
X-47047Y-50984D02*
D03*
X-52953D02*
D03*
X-104035Y110630D02*
D03*
X-98130D02*
D03*
X-100492Y-50984D02*
D03*
X-106398D02*
D03*
X-100492Y-16535D02*
D03*
X-106398D02*
D03*
X-100492Y17913D02*
D03*
X-106398D02*
D03*
X-100492Y-45276D02*
D03*
X-106398D02*
D03*
X-100492Y-10827D02*
D03*
X-106398D02*
D03*
X-100492Y23622D02*
D03*
X-106398D02*
D03*
D12*
X-57972Y-11713D02*
D03*
Y-17618D02*
D03*
Y-27461D02*
D03*
Y-21555D02*
D03*
X-57972Y22736D02*
D03*
Y16831D02*
D03*
Y6988D02*
D03*
Y12894D02*
D03*
X-57973Y-46161D02*
D03*
Y-52067D02*
D03*
Y-61910D02*
D03*
Y-56004D02*
D03*
X85630Y-65551D02*
D03*
Y-59646D02*
D03*
X-1575Y98721D02*
D03*
Y104626D02*
D03*
Y108169D02*
D03*
Y114075D02*
D03*
Y85728D02*
D03*
Y79823D02*
D03*
Y89272D02*
D03*
Y95177D02*
D03*
X37008Y-100591D02*
D03*
Y-94685D02*
D03*
X-18701Y-100591D02*
D03*
Y-94685D02*
D03*
X92717Y-100591D02*
D03*
Y-94685D02*
D03*
X-93504Y121949D02*
D03*
Y127854D02*
D03*
Y118012D02*
D03*
Y112106D02*
D03*
X-1870Y56595D02*
D03*
Y62500D02*
D03*
X14968Y-11807D02*
D03*
Y-17713D02*
D03*
Y-27555D02*
D03*
Y-21650D02*
D03*
X-95472Y-61910D02*
D03*
Y-56004D02*
D03*
X-95473Y-27461D02*
D03*
Y-21555D02*
D03*
X-95473Y6988D02*
D03*
Y12894D02*
D03*
X-95472Y-52067D02*
D03*
Y-46161D02*
D03*
X-95473Y-17618D02*
D03*
Y-11713D02*
D03*
X-95473Y16831D02*
D03*
Y22736D02*
D03*
X120079Y146850D02*
D03*
Y140945D02*
D03*
X125787Y146850D02*
D03*
Y140945D02*
D03*
X131496Y146850D02*
D03*
Y140945D02*
D03*
X5815Y-37004D02*
D03*
Y-42909D02*
D03*
X38583Y-54331D02*
D03*
Y-60236D02*
D03*
X91339Y-59646D02*
D03*
Y-65551D02*
D03*
D14*
X187598Y-27362D02*
D03*
Y27362D02*
D03*
Y-55315D02*
D03*
Y-110039D02*
D03*
X-187598Y116929D02*
D03*
Y72047D02*
D03*
Y-72047D02*
D03*
Y-116929D02*
D03*
Y53937D02*
D03*
Y9055D02*
D03*
Y-9055D02*
D03*
Y-53937D02*
D03*
X187598Y110039D02*
D03*
Y55315D02*
D03*
D15*
X158858Y4921D02*
D03*
Y-4921D02*
D03*
Y-14764D02*
D03*
Y14764D02*
D03*
Y-67913D02*
D03*
Y-97441D02*
D03*
Y-87598D02*
D03*
Y-77756D02*
D03*
X-158858Y84646D02*
D03*
Y94488D02*
D03*
Y104331D02*
D03*
Y-104331D02*
D03*
Y-94488D02*
D03*
Y-84646D02*
D03*
Y21654D02*
D03*
Y31496D02*
D03*
Y41339D02*
D03*
Y-41339D02*
D03*
Y-31496D02*
D03*
Y-21654D02*
D03*
X158858Y97441D02*
D03*
Y67913D02*
D03*
Y77756D02*
D03*
Y87598D02*
D03*
D16*
X141831Y-67914D02*
D03*
Y-71851D02*
D03*
X142028Y-81693D02*
D03*
Y-77756D02*
D03*
Y-91536D02*
D03*
Y-87599D02*
D03*
Y-101378D02*
D03*
Y-97441D02*
D03*
X142027Y71850D02*
D03*
Y67913D02*
D03*
Y81693D02*
D03*
Y77756D02*
D03*
X141831Y91535D02*
D03*
Y87598D02*
D03*
Y97441D02*
D03*
Y101378D02*
D03*
X141831Y14764D02*
D03*
Y10827D02*
D03*
X142028Y984D02*
D03*
Y4921D02*
D03*
Y-8858D02*
D03*
Y-4921D02*
D03*
Y-18701D02*
D03*
Y-14764D02*
D03*
X-141831Y84646D02*
D03*
Y88583D02*
D03*
Y94488D02*
D03*
Y98425D02*
D03*
X-142028Y108268D02*
D03*
Y104331D02*
D03*
X102559Y-3937D02*
D03*
Y-0D02*
D03*
X-141831Y-104331D02*
D03*
Y-100394D02*
D03*
Y21654D02*
D03*
Y25591D02*
D03*
Y-41339D02*
D03*
Y-37402D02*
D03*
Y-94488D02*
D03*
Y-90551D02*
D03*
Y31496D02*
D03*
Y35433D02*
D03*
Y-31496D02*
D03*
Y-27559D02*
D03*
X-142028Y-80709D02*
D03*
Y-84646D02*
D03*
Y45276D02*
D03*
Y41339D02*
D03*
Y-17717D02*
D03*
Y-21654D02*
D03*
D17*
X102362Y-62992D02*
D03*
D18*
X97736Y-65945D02*
D03*
Y-63976D02*
D03*
Y-62008D02*
D03*
Y-60039D02*
D03*
X106988D02*
D03*
Y-62008D02*
D03*
Y-63976D02*
D03*
Y-65945D02*
D03*
D19*
X56988Y-102657D02*
D03*
X60925D02*
D03*
X66831D02*
D03*
X70768D02*
D03*
X11122D02*
D03*
X15059D02*
D03*
X1279D02*
D03*
X5216D02*
D03*
X122539D02*
D03*
X126476D02*
D03*
X112697D02*
D03*
X116634D02*
D03*
X-40846Y-102461D02*
D03*
X-44783D02*
D03*
X-50689D02*
D03*
X-54626D02*
D03*
X-64469Y-102657D02*
D03*
X-60531D02*
D03*
X-106791Y-102461D02*
D03*
X-110728D02*
D03*
X-116634D02*
D03*
X-120571D02*
D03*
X-130413Y-102657D02*
D03*
X-126476D02*
D03*
X64370Y-50000D02*
D03*
X60433D02*
D03*
X141339Y136811D02*
D03*
X145275D02*
D03*
X162402Y136811D02*
D03*
X158465D02*
D03*
X-1083Y-12008D02*
D03*
X2854D02*
D03*
D20*
X44055Y-93897D02*
D03*
Y-101378D02*
D03*
X51024Y-97638D02*
D03*
X-11654Y-93897D02*
D03*
Y-101378D02*
D03*
X-4685Y-97638D02*
D03*
X99764Y-93897D02*
D03*
Y-101378D02*
D03*
X106732Y-97638D02*
D03*
D22*
X-3929Y-27555D02*
D03*
Y-25587D02*
D03*
Y-23618D02*
D03*
Y-21650D02*
D03*
X7882D02*
D03*
Y-23618D02*
D03*
Y-25587D02*
D03*
Y-27555D02*
D03*
D23*
X-976Y-18697D02*
D03*
X992D02*
D03*
X2961D02*
D03*
X4929D02*
D03*
Y-30508D02*
D03*
X2961D02*
D03*
X992D02*
D03*
X-976D02*
D03*
D24*
X-66142Y-61043D02*
D03*
Y-56043D02*
D03*
Y-51043D02*
D03*
Y-46043D02*
D03*
X-87402Y-61043D02*
D03*
Y-56043D02*
D03*
Y-51043D02*
D03*
Y-46043D02*
D03*
X-66142Y-26595D02*
D03*
Y-21595D02*
D03*
Y-16595D02*
D03*
Y-11595D02*
D03*
X-87401Y-26595D02*
D03*
Y-21595D02*
D03*
Y-16595D02*
D03*
Y-11595D02*
D03*
X-66142Y7854D02*
D03*
Y12854D02*
D03*
Y17854D02*
D03*
Y22854D02*
D03*
X-87401Y7854D02*
D03*
Y12854D02*
D03*
Y17854D02*
D03*
Y22854D02*
D03*
D25*
X-25138Y56595D02*
D03*
X-30138D02*
D03*
X-35138D02*
D03*
X-40138D02*
D03*
X-45138D02*
D03*
X-50138D02*
D03*
X-55138D02*
D03*
X-60138D02*
D03*
X-65138D02*
D03*
X-70138D02*
D03*
D03*
D26*
X-83071Y62461D02*
D03*
Y67461D02*
D03*
Y72461D02*
D03*
Y77461D02*
D03*
Y82461D02*
D03*
Y87461D02*
D03*
Y92461D02*
D03*
Y97461D02*
D03*
Y102461D02*
D03*
Y107461D02*
D03*
Y112461D02*
D03*
Y117461D02*
D03*
Y122461D02*
D03*
Y127461D02*
D03*
X-12205Y62461D02*
D03*
Y67461D02*
D03*
Y72461D02*
D03*
Y77461D02*
D03*
Y82461D02*
D03*
Y87461D02*
D03*
Y92461D02*
D03*
Y97461D02*
D03*
Y102461D02*
D03*
Y107461D02*
D03*
Y112461D02*
D03*
Y117461D02*
D03*
Y122461D02*
D03*
Y127461D02*
D03*
D28*
X162402Y148130D02*
D03*
X139173D02*
D03*
D30*
X131890Y153839D02*
D03*
X120079D02*
D03*
D31*
X127559Y152067D02*
D03*
X124409D02*
D03*
D32*
X88386Y0D02*
D03*
X37598D02*
D03*
D33*
X60433Y-35236D02*
D03*
D34*
X104035Y-148228D02*
D03*
X139075D02*
D03*
X48228D02*
D03*
X83268D02*
D03*
X-7382D02*
D03*
X27657D02*
D03*
X-73130D02*
D03*
X-28248D02*
D03*
X-139075D02*
D03*
X-94193D02*
D03*
D35*
X126476Y-119488D02*
D03*
X116634D02*
D03*
X70669D02*
D03*
X60827D02*
D03*
X15059D02*
D03*
X5217D02*
D03*
X-40846D02*
D03*
X-50689D02*
D03*
X-60531D02*
D03*
X-106791D02*
D03*
X-116634D02*
D03*
X-126476D02*
D03*
D39*
X15453Y-38484D02*
D03*
X39075D02*
D03*
D40*
X23524Y-60236D02*
D03*
X27264D02*
D03*
X31004D02*
D03*
Y-50590D02*
D03*
X23524D02*
D03*
D90*
X1976Y-24602D02*
D03*
D91*
X-51693Y98366D02*
D03*
M02*
