%FSLAX25Y25*%
%MOIN*%
G70*
G01*
G75*
G04 Layer_Physical_Order=3*
G04 Layer_Color=128*
%ADD10C,0.00787*%
%ADD11R,0.02362X0.03543*%
%ADD12R,0.03543X0.02362*%
%ADD13R,0.07087X0.03543*%
%ADD14R,0.15354X0.07087*%
%ADD15R,0.21654X0.05118*%
%ADD16R,0.02756X0.02362*%
%ADD17R,0.03937X0.06693*%
%ADD18R,0.02165X0.00984*%
%ADD19R,0.02362X0.02756*%
%ADD20R,0.03827X0.03158*%
%ADD21R,0.06693X0.06693*%
%ADD22R,0.03150X0.01181*%
%ADD23R,0.01181X0.03150*%
%ADD24R,0.06102X0.02362*%
%ADD25R,0.03543X0.05906*%
%ADD26R,0.05906X0.03543*%
%ADD27R,0.19685X0.19685*%
%ADD28R,0.06693X0.14567*%
%ADD29R,0.07087X0.29528*%
%ADD30R,0.03937X0.03543*%
%ADD31R,0.01575X0.03150*%
%ADD32R,0.15354X0.24410*%
%ADD33R,0.12992X0.17323*%
%ADD34R,0.07087X0.15354*%
%ADD35R,0.05118X0.21654*%
%ADD36C,0.03150*%
%ADD37R,0.04921X0.04803*%
%ADD38R,0.02756X0.05118*%
%ADD39R,0.04724X0.13386*%
%ADD40R,0.02362X0.04134*%
%ADD41C,0.02362*%
%ADD42C,0.02559*%
%ADD43C,0.01181*%
%ADD44C,0.00984*%
%ADD45C,0.03543*%
%ADD46C,0.01575*%
%ADD47C,0.03150*%
%ADD48C,0.04724*%
%ADD49C,0.02756*%
%ADD50C,0.02165*%
%ADD51C,0.01772*%
%ADD52R,0.06200X0.09744*%
%ADD53R,0.06200X0.17300*%
%ADD54R,0.04035X0.13976*%
%ADD55R,0.13976X0.04035*%
%ADD56C,0.07874*%
%ADD57C,0.06299*%
%ADD58C,0.03543*%
%ADD59C,0.09055*%
%ADD60O,0.15748X0.29134*%
%ADD61C,0.11811*%
%ADD62C,0.02559*%
%ADD63C,0.04000*%
%ADD64C,0.10630*%
%ADD65C,0.06693*%
%ADD66C,0.12008*%
%ADD67O,0.18504X0.31890*%
%ADD68C,0.14567*%
%ADD69C,0.03543*%
%ADD70C,0.01969*%
G36*
X-186851Y157481D02*
X113287D01*
Y133366D01*
X-196851D01*
X-196899Y147480D01*
X-196706Y149441D01*
X-196134Y151326D01*
X-195205Y153063D01*
X-193956Y154586D01*
X-192433Y155835D01*
X-190696Y156764D01*
X-188811Y157336D01*
X-186851Y157529D01*
Y157481D01*
D02*
G37*
D57*
X4921Y20669D02*
D03*
X-25079Y16673D02*
D03*
Y24665D02*
D03*
D63*
X-196851Y-141732D02*
G03*
X-181102Y-157480I15748J0D01*
G01*
X181103D02*
G03*
X196851Y-141732I0J15748D01*
G01*
Y141732D02*
G03*
X181103Y157480I-15748J0D01*
G01*
X-181102D02*
G03*
X-196851Y141732I0J-15748D01*
G01*
X-181102Y-157480D02*
X181103D01*
X196851Y-141732D02*
Y141732D01*
X-181102Y157480D02*
X181103D01*
X-196851Y-141732D02*
Y141732D01*
D64*
X62992Y14961D02*
D03*
D65*
X-97559Y87520D02*
D03*
X-107559Y97520D02*
D03*
X-97559D02*
D03*
X-107559Y87520D02*
D03*
Y77520D02*
D03*
X-97559D02*
D03*
X-107559Y67520D02*
D03*
X-97559D02*
D03*
X-107559Y57520D02*
D03*
X-97559D02*
D03*
X-107559Y47520D02*
D03*
X-97559D02*
D03*
D66*
X4921Y10669D02*
D03*
Y30669D02*
D03*
X-17579Y10669D02*
D03*
Y30669D02*
D03*
D67*
X102362Y127953D02*
D03*
X23622D02*
D03*
Y49213D02*
D03*
X102362D02*
D03*
D68*
X181102Y-141732D02*
D03*
Y141732D02*
D03*
X-181102Y-141732D02*
D03*
Y141732D02*
D03*
D69*
X3945Y-22634D02*
D03*
Y-26571D02*
D03*
X8D02*
D03*
Y-22634D02*
D03*
X-57992Y98366D02*
D03*
X-51693Y92067D02*
D03*
X-45394Y98366D02*
D03*
X-51693D02*
D03*
Y104665D02*
D03*
X-184248Y131791D02*
D03*
X-176371D02*
D03*
X115135Y138747D02*
D03*
X144450Y150361D02*
D03*
X186504Y152657D02*
D03*
X178565D02*
D03*
X170627D02*
D03*
X154751D02*
D03*
X192126Y140965D02*
D03*
Y133027D02*
D03*
Y-144814D02*
D03*
Y-136875D02*
D03*
X180978Y-152756D02*
D03*
X173039D02*
D03*
X-192126Y-146049D02*
D03*
Y-138110D02*
D03*
X-184184Y-152756D02*
D03*
X-176245D02*
D03*
X-55807Y886D02*
D03*
X-55807Y-33563D02*
D03*
X-55807Y-68012D02*
D03*
X-49902Y-48130D02*
D03*
X-49902Y-13681D02*
D03*
X-49902Y20768D02*
D03*
X117717Y-78937D02*
D03*
X158858Y73819D02*
D03*
X-128616Y-152756D02*
D03*
X115097Y145702D02*
D03*
X115059Y152657D02*
D03*
X115097Y131791D02*
D03*
X67832D02*
D03*
X75709D02*
D03*
X83587D02*
D03*
X91464D02*
D03*
X36322D02*
D03*
X44199D02*
D03*
X52077D02*
D03*
X59954D02*
D03*
X4812D02*
D03*
X12689D02*
D03*
X-26698D02*
D03*
X-18821D02*
D03*
X-10943D02*
D03*
X-3066D02*
D03*
X-58208D02*
D03*
X-50331D02*
D03*
X-42453D02*
D03*
X-34576D02*
D03*
X192126Y101273D02*
D03*
Y117150D02*
D03*
Y125088D02*
D03*
Y69520D02*
D03*
Y77459D02*
D03*
Y85397D02*
D03*
Y93335D02*
D03*
Y37767D02*
D03*
Y45705D02*
D03*
Y61582D02*
D03*
Y6014D02*
D03*
Y13952D02*
D03*
Y21891D02*
D03*
Y-17801D02*
D03*
Y-9863D02*
D03*
Y-1924D02*
D03*
Y-49554D02*
D03*
Y-41616D02*
D03*
Y-33678D02*
D03*
Y-89246D02*
D03*
Y-81307D02*
D03*
Y-73369D02*
D03*
Y-65431D02*
D03*
Y-120999D02*
D03*
Y-97184D02*
D03*
Y-128937D02*
D03*
X157163Y-152756D02*
D03*
X165101D02*
D03*
X125410D02*
D03*
X133348D02*
D03*
X149224D02*
D03*
X93656D02*
D03*
X109533D02*
D03*
X117471D02*
D03*
X61903D02*
D03*
X69842D02*
D03*
X77780D02*
D03*
X38089D02*
D03*
X53965D02*
D03*
X-1603D02*
D03*
X6335D02*
D03*
X14274D02*
D03*
X22212D02*
D03*
X-17480D02*
D03*
X-65109D02*
D03*
X-57171D02*
D03*
X-49233D02*
D03*
X-41295D02*
D03*
X-80986D02*
D03*
X-120677D02*
D03*
X-112739D02*
D03*
X-104801D02*
D03*
X-160369D02*
D03*
X-152430D02*
D03*
X-144492D02*
D03*
X-168307D02*
D03*
X-192126Y-130172D02*
D03*
Y-98419D02*
D03*
Y-106357D02*
D03*
Y-82543D02*
D03*
Y-90481D02*
D03*
Y-34913D02*
D03*
Y-42851D02*
D03*
Y-3160D02*
D03*
Y-19036D02*
D03*
Y-26974D02*
D03*
Y28594D02*
D03*
Y20655D02*
D03*
Y60347D02*
D03*
Y44470D02*
D03*
Y36532D02*
D03*
Y92100D02*
D03*
Y84162D02*
D03*
Y100038D02*
D03*
Y107976D02*
D03*
Y123853D02*
D03*
Y131791D02*
D03*
X-168493Y131791D02*
D03*
X-160616D02*
D03*
X-152738D02*
D03*
X-144861D02*
D03*
X-136983D02*
D03*
X-129106D02*
D03*
X-121228D02*
D03*
X-113351D02*
D03*
X-105473D02*
D03*
X-97596D02*
D03*
X-89718D02*
D03*
X-66086D02*
D03*
X-73963D02*
D03*
X-81841D02*
D03*
X-10020Y2854D02*
D03*
X-5020D02*
D03*
X-65158Y77520D02*
D03*
X111122Y-63976D02*
D03*
Y-58268D02*
D03*
Y-67716D02*
D03*
X102362Y-62992D02*
D03*
X18898Y-17713D02*
D03*
Y-21650D02*
D03*
X-1673Y2854D02*
D03*
X-12205Y46358D02*
D03*
X27264Y-64764D02*
D03*
X34547Y-60236D02*
D03*
X38583Y-51673D02*
D03*
X-19665Y112421D02*
D03*
X-17402Y107461D02*
D03*
X162402Y133268D02*
D03*
X-36752Y117461D02*
D03*
X-77835Y92461D02*
D03*
X-109055Y23622D02*
D03*
Y17913D02*
D03*
X-109055Y-50984D02*
D03*
Y-45276D02*
D03*
X-109055Y-16535D02*
D03*
Y-10827D02*
D03*
X125787Y138287D02*
D03*
X155807Y136811D02*
D03*
X147933Y136811D02*
D03*
X144685Y101378D02*
D03*
Y91535D02*
D03*
X144882Y81693D02*
D03*
Y71850D02*
D03*
X144685Y10827D02*
D03*
X144882Y984D02*
D03*
Y-18701D02*
D03*
X122539Y-105512D02*
D03*
X112697D02*
D03*
X66831D02*
D03*
X56988D02*
D03*
X11122D02*
D03*
X1279D02*
D03*
X-44783Y-105315D02*
D03*
X-54626D02*
D03*
X-64469Y-105512D02*
D03*
X-110728Y-105315D02*
D03*
X-120571D02*
D03*
X-130413Y-105512D02*
D03*
X-144685Y-100394D02*
D03*
Y-90551D02*
D03*
X-144882Y-80709D02*
D03*
X-144685Y-37402D02*
D03*
Y-27559D02*
D03*
X-144882Y-17717D02*
D03*
X-144685Y25591D02*
D03*
Y35433D02*
D03*
X-144882Y45276D02*
D03*
X-144685Y88583D02*
D03*
Y98425D02*
D03*
X-144882Y108268D02*
D03*
X-107185Y110630D02*
D03*
X-87402Y-64173D02*
D03*
X-87401Y-29724D02*
D03*
X-87401Y4724D02*
D03*
X-108169Y-68012D02*
D03*
X-108169Y-33563D02*
D03*
X-108169Y886D02*
D03*
X91339Y-68405D02*
D03*
X88779Y-100591D02*
D03*
X33071D02*
D03*
X-22638D02*
D03*
X-11654Y-105650D02*
D03*
X44055D02*
D03*
X99764D02*
D03*
X67224Y-50000D02*
D03*
X102559Y-6791D02*
D03*
X-12197Y-60728D02*
D03*
Y-65256D02*
D03*
X-17807Y-46063D02*
D03*
Y-53346D02*
D03*
Y-49705D02*
D03*
X394Y-52453D02*
D03*
X-4134D02*
D03*
X5815Y-45768D02*
D03*
X10236Y-30508D02*
D03*
X129331Y-102657D02*
D03*
X-70138Y51772D02*
D03*
Y61417D02*
D03*
X-78248Y127461D02*
D03*
X-87894D02*
D03*
X-17028D02*
D03*
X-7382D02*
D03*
X80068Y2936D02*
D03*
Y36D02*
D03*
Y-2864D02*
D03*
Y-5764D02*
D03*
Y5836D02*
D03*
X96704Y-2936D02*
D03*
Y-36D02*
D03*
Y2864D02*
D03*
Y5764D02*
D03*
Y-5836D02*
D03*
X52115Y-32300D02*
D03*
Y-35200D02*
D03*
Y-38100D02*
D03*
Y-41000D02*
D03*
Y-29400D02*
D03*
X68751Y-38173D02*
D03*
Y-35272D02*
D03*
Y-32372D02*
D03*
Y-29473D02*
D03*
Y-41072D02*
D03*
X-64862Y-114764D02*
D03*
Y-119488D02*
D03*
X-130807Y-114764D02*
D03*
Y-119488D02*
D03*
X-154134Y-80315D02*
D03*
X-163583D02*
D03*
X-158858D02*
D03*
X-154134Y-17323D02*
D03*
X-163583D02*
D03*
X-158858D02*
D03*
X-154134Y45669D02*
D03*
X-163583D02*
D03*
X-158858D02*
D03*
X-154134Y108661D02*
D03*
X-163583D02*
D03*
X-158858D02*
D03*
X144488Y143405D02*
D03*
X-177165Y-104331D02*
D03*
Y-41339D02*
D03*
Y21654D02*
D03*
Y84646D02*
D03*
X5217Y-137795D02*
D03*
X60827D02*
D03*
X116634D02*
D03*
X-40846D02*
D03*
X-106791D02*
D03*
X-109350Y127264D02*
D03*
X-105807D02*
D03*
X158858Y91535D02*
D03*
Y8858D02*
D03*
X158858Y-8858D02*
D03*
X158858Y19094D02*
D03*
X154134D02*
D03*
X163583D02*
D03*
X158858Y101772D02*
D03*
X154134D02*
D03*
X163583D02*
D03*
X144882Y-8858D02*
D03*
X125492Y-77756D02*
D03*
X144882Y-91536D02*
D03*
X163583Y-63583D02*
D03*
X154134D02*
D03*
X158858D02*
D03*
X158858Y-91535D02*
D03*
X158858Y-73819D02*
D03*
X144882Y-101378D02*
D03*
Y-81693D02*
D03*
X144685Y-71850D02*
D03*
D70*
X-56201Y-77067D02*
X-9941D01*
X-56201D02*
Y30610D01*
X-102559D02*
X-56201D01*
X23130Y-30807D02*
Y-30315D01*
X16339Y-30807D02*
X23130D01*
Y-30315D02*
Y-19783D01*
X-3543D02*
X23130D01*
X-3543D02*
Y-7283D01*
X36024D01*
Y-30807D02*
Y-7283D01*
X145571Y-157382D02*
Y-106693D01*
X126476D02*
X145571D01*
X126476D02*
Y-77067D01*
X59547D02*
X126476D01*
X36024D02*
X59547D01*
X36024D02*
Y-37697D01*
Y-30807D01*
X14961D02*
X16339D01*
X-116634Y44193D02*
Y157972D01*
Y42520D02*
Y44193D01*
Y42520D02*
X-108169D01*
X-102559D01*
Y30610D02*
Y42520D01*
X-9941Y-77067D02*
Y-30807D01*
X9744D01*
X5906D02*
X9744D01*
X5906D02*
X14961D01*
M02*
