%FSLAX25Y25*%
%MOIN*%
G70*
G01*
G75*
G04 Layer_Physical_Order=2*
G04 Layer_Color=32768*
%ADD10C,0.00787*%
%ADD11R,0.02362X0.03543*%
%ADD12R,0.03543X0.02362*%
%ADD13R,0.07087X0.03543*%
%ADD14R,0.15354X0.07087*%
%ADD15R,0.21654X0.05118*%
%ADD16R,0.02756X0.02362*%
%ADD17R,0.03937X0.06693*%
%ADD18R,0.02165X0.00984*%
%ADD19R,0.02362X0.02756*%
%ADD20R,0.03827X0.03158*%
%ADD21R,0.06693X0.06693*%
%ADD22R,0.03150X0.01181*%
%ADD23R,0.01181X0.03150*%
%ADD24R,0.06102X0.02362*%
%ADD25R,0.03543X0.05906*%
%ADD26R,0.05906X0.03543*%
%ADD27R,0.19685X0.19685*%
%ADD28R,0.06693X0.14567*%
%ADD29R,0.07087X0.29528*%
%ADD30R,0.03937X0.03543*%
%ADD31R,0.01575X0.03150*%
%ADD32R,0.15354X0.24410*%
%ADD33R,0.12992X0.17323*%
%ADD34R,0.07087X0.15354*%
%ADD35R,0.05118X0.21654*%
%ADD36C,0.03150*%
%ADD37R,0.04921X0.04803*%
%ADD38R,0.02756X0.05118*%
%ADD39R,0.04724X0.13386*%
%ADD40R,0.02362X0.04134*%
%ADD41C,0.02362*%
%ADD42C,0.02559*%
%ADD43C,0.01181*%
%ADD44C,0.00984*%
%ADD45C,0.03543*%
%ADD46C,0.01575*%
%ADD47C,0.03150*%
%ADD48C,0.04724*%
%ADD49C,0.02756*%
%ADD50C,0.02165*%
%ADD51C,0.01772*%
%ADD52R,0.06200X0.09744*%
%ADD53R,0.06200X0.17300*%
%ADD54R,0.04035X0.13976*%
%ADD55R,0.13976X0.04035*%
%ADD56C,0.07874*%
%ADD57C,0.06299*%
%ADD58C,0.03543*%
%ADD59C,0.09055*%
%ADD60O,0.15748X0.29134*%
%ADD61C,0.11811*%
%ADD62C,0.02559*%
%ADD63C,0.04000*%
%ADD64C,0.10630*%
%ADD65C,0.06693*%
%ADD66C,0.12008*%
%ADD67O,0.18504X0.31890*%
%ADD68C,0.14567*%
%ADD69C,0.03543*%
G36*
X-186851Y157481D02*
X113287D01*
Y133366D01*
X-196851D01*
X-196899Y147480D01*
X-196706Y149441D01*
X-196134Y151326D01*
X-195205Y153063D01*
X-193956Y154586D01*
X-192433Y155835D01*
X-190696Y156764D01*
X-188811Y157336D01*
X-186851Y157529D01*
Y157481D01*
D02*
G37*
D57*
X4921Y20669D02*
D03*
X-25079Y16673D02*
D03*
Y24665D02*
D03*
D63*
X-196851Y-141732D02*
G03*
X-181102Y-157480I15748J0D01*
G01*
X181103D02*
G03*
X196851Y-141732I0J15748D01*
G01*
Y141732D02*
G03*
X181103Y157480I-15748J0D01*
G01*
X-181102D02*
G03*
X-196851Y141732I0J-15748D01*
G01*
X-181102Y-157480D02*
X181103D01*
X196851Y-141732D02*
Y141732D01*
X-181102Y157480D02*
X181103D01*
X-196851Y-141732D02*
Y141732D01*
D64*
X62992Y14961D02*
D03*
D65*
X-97559Y87520D02*
D03*
X-107559Y97520D02*
D03*
X-97559D02*
D03*
X-107559Y87520D02*
D03*
Y77520D02*
D03*
X-97559D02*
D03*
X-107559Y67520D02*
D03*
X-97559D02*
D03*
X-107559Y57520D02*
D03*
X-97559D02*
D03*
X-107559Y47520D02*
D03*
Y37520D02*
D03*
X-97559D02*
D03*
D66*
X4921Y10669D02*
D03*
Y30669D02*
D03*
X-17579Y10669D02*
D03*
Y30669D02*
D03*
D67*
X102362Y127953D02*
D03*
X23622D02*
D03*
Y49213D02*
D03*
X102362D02*
D03*
D68*
X181102Y-141732D02*
D03*
Y141732D02*
D03*
X-181102Y-141732D02*
D03*
Y141732D02*
D03*
D69*
X-66142Y25984D02*
D03*
X-66142Y-8465D02*
D03*
X-66142Y-42913D02*
D03*
X117717Y-78937D02*
D03*
X158858Y73819D02*
D03*
X-10020Y2854D02*
D03*
X-5020D02*
D03*
X-65158Y77520D02*
D03*
X85630Y-56791D02*
D03*
X111122Y-58268D02*
D03*
Y-67716D02*
D03*
X18898Y-17713D02*
D03*
Y-21650D02*
D03*
X-1673Y38484D02*
D03*
X-12205Y46358D02*
D03*
X34547Y-60236D02*
D03*
X19587Y-38484D02*
D03*
Y-41385D02*
D03*
Y-35585D02*
D03*
X11319Y-41384D02*
D03*
Y-35584D02*
D03*
Y-38484D02*
D03*
X-19665Y112421D02*
D03*
X-17402Y107461D02*
D03*
X162402Y133268D02*
D03*
X-36752Y117461D02*
D03*
X984Y-15256D02*
D03*
X-77835Y92461D02*
D03*
X-1870Y53937D02*
D03*
X131890Y150591D02*
D03*
X1575Y79823D02*
D03*
Y114075D02*
D03*
Y104626D02*
D03*
Y95177D02*
D03*
X91339Y-56791D02*
D03*
X18894Y-27555D02*
D03*
X-37697Y-49705D02*
D03*
Y-46063D02*
D03*
Y-42421D02*
D03*
Y-53346D02*
D03*
Y-56988D02*
D03*
X18894Y-11807D02*
D03*
X129331Y-102657D02*
D03*
X73622D02*
D03*
X17913D02*
D03*
X52115Y-32300D02*
D03*
Y-35200D02*
D03*
Y-38100D02*
D03*
Y-41000D02*
D03*
Y-29400D02*
D03*
X68751Y-38173D02*
D03*
Y-35272D02*
D03*
Y-32372D02*
D03*
Y-29473D02*
D03*
Y-41072D02*
D03*
X130807Y-114764D02*
D03*
Y-119488D02*
D03*
X75000Y-114764D02*
D03*
Y-119488D02*
D03*
X19390Y-114764D02*
D03*
Y-119488D02*
D03*
X-154134Y-90158D02*
D03*
X-163583D02*
D03*
X-158858D02*
D03*
X-154134Y-27165D02*
D03*
X-163583D02*
D03*
X-158858D02*
D03*
X-154134Y35827D02*
D03*
X-163583D02*
D03*
X-158858D02*
D03*
X-154134Y98819D02*
D03*
X-163583D02*
D03*
X-158858D02*
D03*
X-105807Y115847D02*
D03*
X-109350D02*
D03*
X-177165Y-104331D02*
D03*
Y-41339D02*
D03*
Y21654D02*
D03*
Y84646D02*
D03*
X5217Y-137795D02*
D03*
X60827D02*
D03*
X116634D02*
D03*
X-40846D02*
D03*
X-106791D02*
D03*
X-28535Y-17323D02*
D03*
Y-20965D02*
D03*
Y-31890D02*
D03*
Y-28248D02*
D03*
Y-24606D02*
D03*
X158858Y91535D02*
D03*
Y8858D02*
D03*
X158858Y-8858D02*
D03*
Y-19094D02*
D03*
X163583D02*
D03*
X154134D02*
D03*
X158858Y63583D02*
D03*
X163583D02*
D03*
X154134D02*
D03*
X125492Y-77756D02*
D03*
X154134Y-101772D02*
D03*
X163583D02*
D03*
X158858D02*
D03*
Y-91535D02*
D03*
X158858Y-73819D02*
D03*
M02*
